<svg width="383" height="61" viewBox="0 0 383 61" fill="none" xmlns="http://www.w3.org/2000/svg">
<rect width="235.729" height="61" rx="5" fill="black"/>
<g filter="url(#filter0_f_224_91)">
<path d="M12.4752 12.9873H18.7252V14.2373H16.2252V24.2373H14.9752V14.2373H12.4752V12.9873ZM26.2252 16.7373H27.4752V24.2373H26.2252V16.7373ZM21.2252 12.9873H22.4752V15.4873H26.2252V16.7373H22.4752V24.2373H21.2252V12.9873ZM34.9752 21.7373H36.2252V22.9873H34.9752V21.7373ZM31.2252 22.9873H34.9752V24.2373H31.2252V22.9873ZM29.9752 16.7373H31.2252V19.2373H34.9752V16.7373H36.2252V20.4873H31.2252V22.9873H29.9752V16.7373ZM31.2252 15.4873H34.9752V16.7373H31.2252V15.4873ZM48.7252 14.2373H49.9752V17.9873H48.7252V14.2373ZM48.7252 19.2373H49.9752V22.9873H48.7252V19.2373ZM43.7252 12.9873H48.7252V14.2373H44.9752V17.9873H48.7252V19.2373H44.9752V22.9873H48.7252V24.2373H43.7252V12.9873ZM57.4752 15.4873H58.7252V22.9873H57.4752V15.4873ZM53.7252 22.9873H57.4752V24.2373H53.7252V22.9873ZM52.4752 15.4873H53.7252V22.9873H52.4752V15.4873ZM62.4752 14.2373H63.7252V15.4873H66.2252V16.7373H63.7252V22.9873H62.4752V16.7373H61.2252V15.4873H62.4752V14.2373ZM63.7252 22.9873H66.2252V24.2373H63.7252V22.9873ZM73.7252 21.7373H74.9752V22.9873H73.7252V21.7373ZM69.9752 22.9873H73.7252V24.2373H69.9752V22.9873ZM68.7252 16.7373H69.9752V22.9873H68.7252V16.7373ZM69.9752 15.4873H73.7252V16.7373H69.9752V15.4873ZM73.7252 16.7373H74.9752V17.9873H73.7252V16.7373ZM82.4752 16.7373H83.7252V24.2373H82.4752V16.7373ZM77.4752 12.9873H78.7252V15.4873H82.4752V16.7373H78.7252V24.2373H77.4752V12.9873ZM91.2252 21.7373H92.4752V22.9873H91.2252V21.7373ZM87.4752 22.9873H91.2252V24.2373H87.4752V22.9873ZM86.2252 16.7373H87.4752V19.2373H91.2252V16.7373H92.4752V20.4873H87.4752V22.9873H86.2252V16.7373ZM87.4752 15.4873H91.2252V16.7373H87.4752V15.4873ZM98.7252 15.4873H101.225V16.7373H98.7252V15.4873ZM97.4752 16.7373H98.7252V17.9873H97.4752V16.7373ZM94.9752 15.4873H96.2252V17.9873H97.4752V19.2373H96.2252V24.2373H94.9752V15.4873ZM103.725 15.4873H104.975V16.7373H103.725V15.4873ZM104.975 12.9873H106.225V15.4873H104.975V12.9873ZM109.975 16.7373H111.225V19.2373H109.975V16.7373ZM114.975 20.4873H116.225V22.9873H114.975V20.4873ZM111.225 22.9873H114.975V24.2373H111.225V22.9873ZM109.975 21.7373H111.225V22.9873H109.975V21.7373ZM111.225 19.2373H114.975V20.4873H111.225V19.2373ZM114.975 16.7373H116.225V17.9873H114.975V16.7373ZM111.225 15.4873H114.975V16.7373H111.225V15.4873ZM19.9752 33.9873H21.2252V45.2373H19.9752V37.7373H18.7252V36.4873H19.9752V33.9873ZM17.4752 37.7373H18.7252V38.9873H17.4752V37.7373ZM16.2252 38.9873H17.4752V40.2373H16.2252V38.9873ZM14.9752 37.7373H16.2252V38.9873H14.9752V37.7373ZM12.4752 33.9873H13.7252V36.4873H14.9752V37.7373H13.7252V45.2373H12.4752V33.9873ZM23.7252 37.7373H24.9752V38.9873H23.7252V37.7373ZM23.7252 41.4873H24.9752V43.9873H23.7252V41.4873ZM28.7252 37.7373H29.9752V45.2373H24.9752V43.9873H28.7252V41.4873H24.9752V40.2373H28.7252V37.7373ZM24.9752 36.4873H28.7252V37.7373H24.9752V36.4873ZM32.4752 37.7373H33.7252V40.2373H32.4752V37.7373ZM37.4752 41.4873H38.7252V43.9873H37.4752V41.4873ZM33.7252 43.9873H37.4752V45.2373H33.7252V43.9873ZM32.4752 42.7373H33.7252V43.9873H32.4752V42.7373ZM33.7252 40.2373H37.4752V41.4873H33.7252V40.2373ZM37.4752 37.7373H38.7252V38.9873H37.4752V37.7373ZM33.7252 36.4873H37.4752V37.7373H33.7252V36.4873ZM42.4752 36.4873H47.4752V47.7373H46.2252V45.2373H42.4752V43.9873H46.2252V37.7373H42.4752V36.4873ZM41.2252 37.7373H42.4752V43.9873H41.2252V37.7373ZM54.9752 36.4873H56.2252V43.9873H54.9752V36.4873ZM51.2252 43.9873H54.9752V45.2373H51.2252V43.9873ZM49.9752 36.4873H51.2252V43.9873H49.9752V36.4873ZM63.7252 42.7373H64.9752V43.9873H63.7252V42.7373ZM59.9752 43.9873H63.7252V45.2373H59.9752V43.9873ZM58.7252 37.7373H59.9752V40.2373H63.7252V37.7373H64.9752V41.4873H59.9752V43.9873H58.7252V37.7373ZM59.9752 36.4873H63.7252V37.7373H59.9752V36.4873ZM71.2252 36.4873H73.7252V37.7373H71.2252V36.4873ZM69.9752 37.7373H71.2252V38.9873H69.9752V37.7373ZM67.4752 36.4873H68.7252V38.9873H69.9752V40.2373H68.7252V45.2373H67.4752V36.4873ZM76.2252 37.7373H77.4752V38.9873H76.2252V37.7373ZM76.2252 41.4873H77.4752V43.9873H76.2252V41.4873ZM81.2252 37.7373H82.4752V45.2373H77.4752V43.9873H81.2252V41.4873H77.4752V40.2373H81.2252V37.7373ZM77.4752 36.4873H81.2252V37.7373H77.4752V36.4873ZM84.9752 37.7373H86.2252V43.9873H84.9752V37.7373ZM89.9752 33.9873H91.2252V45.2373H86.2252V43.9873H89.9752V37.7373H86.2252V36.4873H89.9752V33.9873ZM98.7252 42.7373H99.9752V43.9873H98.7252V42.7373ZM94.9752 43.9873H98.7252V45.2373H94.9752V43.9873ZM93.7252 37.7373H94.9752V40.2373H98.7252V37.7373H99.9752V41.4873H94.9752V43.9873H93.7252V37.7373ZM94.9752 36.4873H98.7252V37.7373H94.9752V36.4873Z" fill="white"/>
<path d="M191.347 21.7373H192.597V22.9873H191.347V21.7373ZM187.597 22.9873H191.347V24.2373H187.597V22.9873ZM186.347 14.2373H187.597V22.9873H186.347V14.2373ZM187.597 12.9873H191.347V14.2373H187.597V12.9873ZM191.347 14.2373H192.597V15.4873H191.347V14.2373ZM200.097 16.7373H201.347V24.2373H200.097V16.7373ZM195.097 12.9873H196.347V15.4873H200.097V16.7373H196.347V24.2373H195.097V12.9873ZM208.847 16.7373H210.097V22.9873H208.847V16.7373ZM203.847 15.4873H208.847V16.7373H205.097V22.9873H208.847V24.2373H205.097V26.7373H203.847V15.4873ZM213.847 14.2373H215.097V15.4873H217.597V16.7373H215.097V22.9873H213.847V16.7373H212.597V15.4873H213.847V14.2373ZM215.097 22.9873H217.597V24.2373H215.097V22.9873ZM221.347 22.9873H222.597V24.2373H221.347V22.9873ZM208.847 41.4873H210.097V43.9873H215.097V45.2373H208.847V41.4873ZM210.097 41.4873V40.2373H211.347V41.4873H210.097ZM211.347 38.9873H212.597V40.2373H211.347V38.9873ZM212.597 37.7373H213.847V38.9873H212.597V37.7373ZM213.847 35.2373H215.097V37.7373H213.847V35.2373ZM210.097 33.9873H213.847V35.2373H210.097V33.9873ZM208.847 35.2373H210.097V36.4873H208.847V35.2373ZM217.597 41.4873H218.847V43.9873H223.847V45.2373H217.597V41.4873ZM218.847 41.4873V40.2373H220.097V41.4873H218.847ZM220.097 38.9873H221.347V40.2373H220.097V38.9873ZM221.347 37.7373H222.597V38.9873H221.347V37.7373ZM222.597 35.2373H223.847V37.7373H222.597V35.2373ZM218.847 33.9873H222.597V35.2373H218.847V33.9873ZM217.597 35.2373H218.847V36.4873H217.597V35.2373Z" fill="white"/>
</g>
<path d="M12.4751 12.9873H18.7251V14.2373H16.2251V24.2373H14.9751V14.2373H12.4751V12.9873ZM26.2251 16.7373H27.4751V24.2373H26.2251V16.7373ZM21.2251 12.9873H22.4751V15.4873H26.2251V16.7373H22.4751V24.2373H21.2251V12.9873ZM34.9751 21.7373H36.2251V22.9873H34.9751V21.7373ZM31.2251 22.9873H34.9751V24.2373H31.2251V22.9873ZM29.9751 16.7373H31.2251V19.2373H34.9751V16.7373H36.2251V20.4873H31.2251V22.9873H29.9751V16.7373ZM31.2251 15.4873H34.9751V16.7373H31.2251V15.4873ZM48.7251 14.2373H49.9751V17.9873H48.7251V14.2373ZM48.7251 19.2373H49.9751V22.9873H48.7251V19.2373ZM43.7251 12.9873H48.7251V14.2373H44.9751V17.9873H48.7251V19.2373H44.9751V22.9873H48.7251V24.2373H43.7251V12.9873ZM57.4751 15.4873H58.7251V22.9873H57.4751V15.4873ZM53.7251 22.9873H57.4751V24.2373H53.7251V22.9873ZM52.4751 15.4873H53.7251V22.9873H52.4751V15.4873ZM62.4751 14.2373H63.7251V15.4873H66.2251V16.7373H63.7251V22.9873H62.4751V16.7373H61.2251V15.4873H62.4751V14.2373ZM63.7251 22.9873H66.2251V24.2373H63.7251V22.9873ZM73.7251 21.7373H74.9751V22.9873H73.7251V21.7373ZM69.9751 22.9873H73.7251V24.2373H69.9751V22.9873ZM68.7251 16.7373H69.9751V22.9873H68.7251V16.7373ZM69.9751 15.4873H73.7251V16.7373H69.9751V15.4873ZM73.7251 16.7373H74.9751V17.9873H73.7251V16.7373ZM82.4751 16.7373H83.7251V24.2373H82.4751V16.7373ZM77.4751 12.9873H78.7251V15.4873H82.4751V16.7373H78.7251V24.2373H77.4751V12.9873ZM91.2251 21.7373H92.4751V22.9873H91.2251V21.7373ZM87.4751 22.9873H91.2251V24.2373H87.4751V22.9873ZM86.2251 16.7373H87.4751V19.2373H91.2251V16.7373H92.4751V20.4873H87.4751V22.9873H86.2251V16.7373ZM87.4751 15.4873H91.2251V16.7373H87.4751V15.4873ZM98.7251 15.4873H101.225V16.7373H98.7251V15.4873ZM97.4751 16.7373H98.7251V17.9873H97.4751V16.7373ZM94.9751 15.4873H96.2251V17.9873H97.4751V19.2373H96.2251V24.2373H94.9751V15.4873ZM103.725 15.4873H104.975V16.7373H103.725V15.4873ZM104.975 12.9873H106.225V15.4873H104.975V12.9873ZM109.975 16.7373H111.225V19.2373H109.975V16.7373ZM114.975 20.4873H116.225V22.9873H114.975V20.4873ZM111.225 22.9873H114.975V24.2373H111.225V22.9873ZM109.975 21.7373H111.225V22.9873H109.975V21.7373ZM111.225 19.2373H114.975V20.4873H111.225V19.2373ZM114.975 16.7373H116.225V17.9873H114.975V16.7373ZM111.225 15.4873H114.975V16.7373H111.225V15.4873ZM19.9751 33.9873H21.2251V45.2373H19.9751V37.7373H18.7251V36.4873H19.9751V33.9873ZM17.4751 37.7373H18.7251V38.9873H17.4751V37.7373ZM16.2251 38.9873H17.4751V40.2373H16.2251V38.9873ZM14.9751 37.7373H16.2251V38.9873H14.9751V37.7373ZM12.4751 33.9873H13.7251V36.4873H14.9751V37.7373H13.7251V45.2373H12.4751V33.9873ZM23.7251 37.7373H24.9751V38.9873H23.7251V37.7373ZM23.7251 41.4873H24.9751V43.9873H23.7251V41.4873ZM28.7251 37.7373H29.9751V45.2373H24.9751V43.9873H28.7251V41.4873H24.9751V40.2373H28.7251V37.7373ZM24.9751 36.4873H28.7251V37.7373H24.9751V36.4873ZM32.4751 37.7373H33.7251V40.2373H32.4751V37.7373ZM37.4751 41.4873H38.7251V43.9873H37.4751V41.4873ZM33.7251 43.9873H37.4751V45.2373H33.7251V43.9873ZM32.4751 42.7373H33.7251V43.9873H32.4751V42.7373ZM33.7251 40.2373H37.4751V41.4873H33.7251V40.2373ZM37.4751 37.7373H38.7251V38.9873H37.4751V37.7373ZM33.7251 36.4873H37.4751V37.7373H33.7251V36.4873ZM42.4751 36.4873H47.4751V47.7373H46.2251V45.2373H42.4751V43.9873H46.2251V37.7373H42.4751V36.4873ZM41.2251 37.7373H42.4751V43.9873H41.2251V37.7373ZM54.9751 36.4873H56.2251V43.9873H54.9751V36.4873ZM51.2251 43.9873H54.9751V45.2373H51.2251V43.9873ZM49.9751 36.4873H51.2251V43.9873H49.9751V36.4873ZM63.7251 42.7373H64.9751V43.9873H63.7251V42.7373ZM59.9751 43.9873H63.7251V45.2373H59.9751V43.9873ZM58.7251 37.7373H59.9751V40.2373H63.7251V37.7373H64.9751V41.4873H59.9751V43.9873H58.7251V37.7373ZM59.9751 36.4873H63.7251V37.7373H59.9751V36.4873ZM71.2251 36.4873H73.7251V37.7373H71.2251V36.4873ZM69.9751 37.7373H71.2251V38.9873H69.9751V37.7373ZM67.4751 36.4873H68.7251V38.9873H69.9751V40.2373H68.7251V45.2373H67.4751V36.4873ZM76.2251 37.7373H77.4751V38.9873H76.2251V37.7373ZM76.2251 41.4873H77.4751V43.9873H76.2251V41.4873ZM81.2251 37.7373H82.4751V45.2373H77.4751V43.9873H81.2251V41.4873H77.4751V40.2373H81.2251V37.7373ZM77.4751 36.4873H81.2251V37.7373H77.4751V36.4873ZM84.9751 37.7373H86.2251V43.9873H84.9751V37.7373ZM89.9751 33.9873H91.2251V45.2373H86.2251V43.9873H89.9751V37.7373H86.2251V36.4873H89.9751V33.9873ZM98.7251 42.7373H99.9751V43.9873H98.7251V42.7373ZM94.9751 43.9873H98.7251V45.2373H94.9751V43.9873ZM93.7251 37.7373H94.9751V40.2373H98.7251V37.7373H99.9751V41.4873H94.9751V43.9873H93.7251V37.7373ZM94.9751 36.4873H98.7251V37.7373H94.9751V36.4873Z" fill="white"/>
<path d="M191.347 21.7373H192.597V22.9873H191.347V21.7373ZM187.597 22.9873H191.347V24.2373H187.597V22.9873ZM186.347 14.2373H187.597V22.9873H186.347V14.2373ZM187.597 12.9873H191.347V14.2373H187.597V12.9873ZM191.347 14.2373H192.597V15.4873H191.347V14.2373ZM200.097 16.7373H201.347V24.2373H200.097V16.7373ZM195.097 12.9873H196.347V15.4873H200.097V16.7373H196.347V24.2373H195.097V12.9873ZM208.847 16.7373H210.097V22.9873H208.847V16.7373ZM203.847 15.4873H208.847V16.7373H205.097V22.9873H208.847V24.2373H205.097V26.7373H203.847V15.4873ZM213.847 14.2373H215.097V15.4873H217.597V16.7373H215.097V22.9873H213.847V16.7373H212.597V15.4873H213.847V14.2373ZM215.097 22.9873H217.597V24.2373H215.097V22.9873ZM221.347 22.9873H222.597V24.2373H221.347V22.9873ZM208.847 41.4873H210.097V43.9873H215.097V45.2373H208.847V41.4873ZM210.097 41.4873V40.2373H211.347V41.4873H210.097ZM211.347 38.9873H212.597V40.2373H211.347V38.9873ZM212.597 37.7373H213.847V38.9873H212.597V37.7373ZM213.847 35.2373H215.097V37.7373H213.847V35.2373ZM210.097 33.9873H213.847V35.2373H210.097V33.9873ZM208.847 35.2373H210.097V36.4873H208.847V35.2373ZM217.597 41.4873H218.847V43.9873H223.847V45.2373H217.597V41.4873ZM218.847 41.4873V40.2373H220.097V41.4873H218.847ZM220.097 38.9873H221.347V40.2373H220.097V38.9873ZM221.347 37.7373H222.597V38.9873H221.347V37.7373ZM222.597 35.2373H223.847V37.7373H222.597V35.2373ZM218.847 33.9873H222.597V35.2373H218.847V33.9873ZM217.597 35.2373H218.847V36.4873H217.597V35.2373Z" fill="white"/>
<rect x="247.102" width="135.309" height="61" rx="5" fill="black"/>
<mask id="path-7-outside-1_224_91" maskUnits="userSpaceOnUse" x="258.193" y="10.5455" width="79" height="13" fill="black">
<rect fill="white" x="258.193" y="10.5455" width="79" height="13"/>
<path d="M260.693 21.2955H264.443V22.5455H260.693V21.2955ZM264.443 12.5455H265.693V21.2955H264.443V16.2955H263.193V15.0455H264.443V12.5455ZM261.943 16.2955H263.193V17.5455H261.943V16.2955ZM259.443 12.5455H260.693V17.5455H261.943V18.7955H260.693V21.2955H259.443V12.5455ZM260.693 11.2955H264.443V12.5455H260.693V11.2955ZM270.693 21.2955H274.443V22.5455H270.693V21.2955ZM274.443 12.5455H275.693V21.2955H274.443V16.2955H273.193V15.0455H274.443V12.5455ZM271.943 16.2955H273.193V17.5455H271.943V16.2955ZM269.443 12.5455H270.693V17.5455H271.943V18.7955H270.693V21.2955H269.443V12.5455ZM270.693 11.2955H274.443V12.5455H270.693V11.2955ZM281.943 21.2955H283.193V22.5455H281.943V21.2955ZM281.943 13.7955H283.193V15.0455H281.943V13.7955ZM290.693 21.2955H294.443V22.5455H290.693V21.2955ZM294.443 12.5455H295.693V21.2955H294.443V16.2955H293.193V15.0455H294.443V12.5455ZM291.943 16.2955H293.193V17.5455H291.943V16.2955ZM289.443 12.5455H290.693V17.5455H291.943V18.7955H290.693V21.2955H289.443V12.5455ZM290.693 11.2955H294.443V12.5455H290.693V11.2955ZM300.693 21.2955H304.443V22.5455H300.693V21.2955ZM304.443 12.5455H305.693V21.2955H304.443V16.2955H303.193V15.0455H304.443V12.5455ZM301.943 16.2955H303.193V17.5455H301.943V16.2955ZM299.443 12.5455H300.693V17.5455H301.943V18.7955H300.693V21.2955H299.443V12.5455ZM300.693 11.2955H304.443V12.5455H300.693V11.2955ZM311.943 21.2955H313.193V22.5455H311.943V21.2955ZM311.943 13.7955H313.193V15.0455H311.943V13.7955ZM320.693 21.2955H324.443V22.5455H320.693V21.2955ZM324.443 12.5455H325.693V21.2955H324.443V16.2955H323.193V15.0455H324.443V12.5455ZM321.943 16.2955H323.193V17.5455H321.943V16.2955ZM319.443 12.5455H320.693V17.5455H321.943V18.7955H320.693V21.2955H319.443V12.5455ZM320.693 11.2955H324.443V12.5455H320.693V11.2955ZM330.693 21.2955H334.443V22.5455H330.693V21.2955ZM334.443 12.5455H335.693V21.2955H334.443V16.2955H333.193V15.0455H334.443V12.5455ZM331.943 16.2955H333.193V17.5455H331.943V16.2955ZM329.443 12.5455H330.693V17.5455H331.943V18.7955H330.693V21.2955H329.443V12.5455ZM330.693 11.2955H334.443V12.5455H330.693V11.2955Z"/>
</mask>
<path d="M260.693 21.2955H264.443V22.5455H260.693V21.2955ZM264.443 12.5455H265.693V21.2955H264.443V16.2955H263.193V15.0455H264.443V12.5455ZM261.943 16.2955H263.193V17.5455H261.943V16.2955ZM259.443 12.5455H260.693V17.5455H261.943V18.7955H260.693V21.2955H259.443V12.5455ZM260.693 11.2955H264.443V12.5455H260.693V11.2955ZM270.693 21.2955H274.443V22.5455H270.693V21.2955ZM274.443 12.5455H275.693V21.2955H274.443V16.2955H273.193V15.0455H274.443V12.5455ZM271.943 16.2955H273.193V17.5455H271.943V16.2955ZM269.443 12.5455H270.693V17.5455H271.943V18.7955H270.693V21.2955H269.443V12.5455ZM270.693 11.2955H274.443V12.5455H270.693V11.2955ZM281.943 21.2955H283.193V22.5455H281.943V21.2955ZM281.943 13.7955H283.193V15.0455H281.943V13.7955ZM290.693 21.2955H294.443V22.5455H290.693V21.2955ZM294.443 12.5455H295.693V21.2955H294.443V16.2955H293.193V15.0455H294.443V12.5455ZM291.943 16.2955H293.193V17.5455H291.943V16.2955ZM289.443 12.5455H290.693V17.5455H291.943V18.7955H290.693V21.2955H289.443V12.5455ZM290.693 11.2955H294.443V12.5455H290.693V11.2955ZM300.693 21.2955H304.443V22.5455H300.693V21.2955ZM304.443 12.5455H305.693V21.2955H304.443V16.2955H303.193V15.0455H304.443V12.5455ZM301.943 16.2955H303.193V17.5455H301.943V16.2955ZM299.443 12.5455H300.693V17.5455H301.943V18.7955H300.693V21.2955H299.443V12.5455ZM300.693 11.2955H304.443V12.5455H300.693V11.2955ZM311.943 21.2955H313.193V22.5455H311.943V21.2955ZM311.943 13.7955H313.193V15.0455H311.943V13.7955ZM320.693 21.2955H324.443V22.5455H320.693V21.2955ZM324.443 12.5455H325.693V21.2955H324.443V16.2955H323.193V15.0455H324.443V12.5455ZM321.943 16.2955H323.193V17.5455H321.943V16.2955ZM319.443 12.5455H320.693V17.5455H321.943V18.7955H320.693V21.2955H319.443V12.5455ZM320.693 11.2955H324.443V12.5455H320.693V11.2955ZM330.693 21.2955H334.443V22.5455H330.693V21.2955ZM334.443 12.5455H335.693V21.2955H334.443V16.2955H333.193V15.0455H334.443V12.5455ZM331.943 16.2955H333.193V17.5455H331.943V16.2955ZM329.443 12.5455H330.693V17.5455H331.943V18.7955H330.693V21.2955H329.443V12.5455ZM330.693 11.2955H334.443V12.5455H330.693V11.2955Z" fill="white"/>
<path d="M260.693 21.2955V20.6926H260.09V21.2955H260.693ZM264.443 21.2955H265.045V20.6926H264.443V21.2955ZM264.443 22.5455V23.1484H265.045V22.5455H264.443ZM260.693 22.5455H260.09V23.1484H260.693V22.5455ZM264.443 12.5455V11.9426H263.84V12.5455H264.443ZM265.693 12.5455H266.295V11.9426H265.693V12.5455ZM265.693 21.2955V21.8984H266.295V21.2955H265.693ZM264.443 21.2955H263.84V21.8984H264.443V21.2955ZM264.443 16.2955H265.045V15.6926H264.443V16.2955ZM263.193 16.2955H262.59V16.8984H263.193V16.2955ZM263.193 15.0455V14.4426H262.59V15.0455H263.193ZM264.443 15.0455V15.6484H265.045V15.0455H264.443ZM261.943 16.2955V15.6926H261.34V16.2955H261.943ZM263.193 16.2955H263.795V15.6926H263.193V16.2955ZM263.193 17.5455V18.1484H263.795V17.5455H263.193ZM261.943 17.5455H261.34V18.1484H261.943V17.5455ZM259.443 12.5455V11.9426H258.84V12.5455H259.443ZM260.693 12.5455H261.295V11.9426H260.693V12.5455ZM260.693 17.5455H260.09V18.1484H260.693V17.5455ZM261.943 17.5455H262.545V16.9426H261.943V17.5455ZM261.943 18.7955V19.3984H262.545V18.7955H261.943ZM260.693 18.7955V18.1926H260.09V18.7955H260.693ZM260.693 21.2955V21.8984H261.295V21.2955H260.693ZM259.443 21.2955H258.84V21.8984H259.443V21.2955ZM260.693 11.2955V10.6926H260.09V11.2955H260.693ZM264.443 11.2955H265.045V10.6926H264.443V11.2955ZM264.443 12.5455V13.1484H265.045V12.5455H264.443ZM260.693 12.5455H260.09V13.1484H260.693V12.5455ZM260.693 21.2955V21.8984H264.443V21.2955V20.6926H260.693V21.2955ZM264.443 21.2955H263.84V22.5455H264.443H265.045V21.2955H264.443ZM264.443 22.5455V21.9426H260.693V22.5455V23.1484H264.443V22.5455ZM260.693 22.5455H261.295V21.2955H260.693H260.09V22.5455H260.693ZM264.443 12.5455V13.1484H265.693V12.5455V11.9426H264.443V12.5455ZM265.693 12.5455H265.09V21.2955H265.693H266.295V12.5455H265.693ZM265.693 21.2955V20.6926H264.443V21.2955V21.8984H265.693V21.2955ZM264.443 21.2955H265.045V16.2955H264.443H263.84V21.2955H264.443ZM264.443 16.2955V15.6926H263.193V16.2955V16.8984H264.443V16.2955ZM263.193 16.2955H263.795V15.0455H263.193H262.59V16.2955H263.193ZM263.193 15.0455V15.6484H264.443V15.0455V14.4426H263.193V15.0455ZM264.443 15.0455H265.045V12.5455H264.443H263.84V15.0455H264.443ZM261.943 16.2955V16.8984H263.193V16.2955V15.6926H261.943V16.2955ZM263.193 16.2955H262.59V17.5455H263.193H263.795V16.2955H263.193ZM263.193 17.5455V16.9426H261.943V17.5455V18.1484H263.193V17.5455ZM261.943 17.5455H262.545V16.2955H261.943H261.34V17.5455H261.943ZM259.443 12.5455V13.1484H260.693V12.5455V11.9426H259.443V12.5455ZM260.693 12.5455H260.09V17.5455H260.693H261.295V12.5455H260.693ZM260.693 17.5455V18.1484H261.943V17.5455V16.9426H260.693V17.5455ZM261.943 17.5455H261.34V18.7955H261.943H262.545V17.5455H261.943ZM261.943 18.7955V18.1926H260.693V18.7955V19.3984H261.943V18.7955ZM260.693 18.7955H260.09V21.2955H260.693H261.295V18.7955H260.693ZM260.693 21.2955V20.6926H259.443V21.2955V21.8984H260.693V21.2955ZM259.443 21.2955H260.045V12.5455H259.443H258.84V21.2955H259.443ZM260.693 11.2955V11.8984H264.443V11.2955V10.6926H260.693V11.2955ZM264.443 11.2955H263.84V12.5455H264.443H265.045V11.2955H264.443ZM264.443 12.5455V11.9426H260.693V12.5455V13.1484H264.443V12.5455ZM260.693 12.5455H261.295V11.2955H260.693H260.09V12.5455H260.693ZM270.693 21.2955V20.6926H270.09V21.2955H270.693ZM274.443 21.2955H275.045V20.6926H274.443V21.2955ZM274.443 22.5455V23.1484H275.045V22.5455H274.443ZM270.693 22.5455H270.09V23.1484H270.693V22.5455ZM274.443 12.5455V11.9426H273.84V12.5455H274.443ZM275.693 12.5455H276.295V11.9426H275.693V12.5455ZM275.693 21.2955V21.8984H276.295V21.2955H275.693ZM274.443 21.2955H273.84V21.8984H274.443V21.2955ZM274.443 16.2955H275.045V15.6926H274.443V16.2955ZM273.193 16.2955H272.59V16.8984H273.193V16.2955ZM273.193 15.0455V14.4426H272.59V15.0455H273.193ZM274.443 15.0455V15.6484H275.045V15.0455H274.443ZM271.943 16.2955V15.6926H271.34V16.2955H271.943ZM273.193 16.2955H273.795V15.6926H273.193V16.2955ZM273.193 17.5455V18.1484H273.795V17.5455H273.193ZM271.943 17.5455H271.34V18.1484H271.943V17.5455ZM269.443 12.5455V11.9426H268.84V12.5455H269.443ZM270.693 12.5455H271.295V11.9426H270.693V12.5455ZM270.693 17.5455H270.09V18.1484H270.693V17.5455ZM271.943 17.5455H272.545V16.9426H271.943V17.5455ZM271.943 18.7955V19.3984H272.545V18.7955H271.943ZM270.693 18.7955V18.1926H270.09V18.7955H270.693ZM270.693 21.2955V21.8984H271.295V21.2955H270.693ZM269.443 21.2955H268.84V21.8984H269.443V21.2955ZM270.693 11.2955V10.6926H270.09V11.2955H270.693ZM274.443 11.2955H275.045V10.6926H274.443V11.2955ZM274.443 12.5455V13.1484H275.045V12.5455H274.443ZM270.693 12.5455H270.09V13.1484H270.693V12.5455ZM270.693 21.2955V21.8984H274.443V21.2955V20.6926H270.693V21.2955ZM274.443 21.2955H273.84V22.5455H274.443H275.045V21.2955H274.443ZM274.443 22.5455V21.9426H270.693V22.5455V23.1484H274.443V22.5455ZM270.693 22.5455H271.295V21.2955H270.693H270.09V22.5455H270.693ZM274.443 12.5455V13.1484H275.693V12.5455V11.9426H274.443V12.5455ZM275.693 12.5455H275.09V21.2955H275.693H276.295V12.5455H275.693ZM275.693 21.2955V20.6926H274.443V21.2955V21.8984H275.693V21.2955ZM274.443 21.2955H275.045V16.2955H274.443H273.84V21.2955H274.443ZM274.443 16.2955V15.6926H273.193V16.2955V16.8984H274.443V16.2955ZM273.193 16.2955H273.795V15.0455H273.193H272.59V16.2955H273.193ZM273.193 15.0455V15.6484H274.443V15.0455V14.4426H273.193V15.0455ZM274.443 15.0455H275.045V12.5455H274.443H273.84V15.0455H274.443ZM271.943 16.2955V16.8984H273.193V16.2955V15.6926H271.943V16.2955ZM273.193 16.2955H272.59V17.5455H273.193H273.795V16.2955H273.193ZM273.193 17.5455V16.9426H271.943V17.5455V18.1484H273.193V17.5455ZM271.943 17.5455H272.545V16.2955H271.943H271.34V17.5455H271.943ZM269.443 12.5455V13.1484H270.693V12.5455V11.9426H269.443V12.5455ZM270.693 12.5455H270.09V17.5455H270.693H271.295V12.5455H270.693ZM270.693 17.5455V18.1484H271.943V17.5455V16.9426H270.693V17.5455ZM271.943 17.5455H271.34V18.7955H271.943H272.545V17.5455H271.943ZM271.943 18.7955V18.1926H270.693V18.7955V19.3984H271.943V18.7955ZM270.693 18.7955H270.09V21.2955H270.693H271.295V18.7955H270.693ZM270.693 21.2955V20.6926H269.443V21.2955V21.8984H270.693V21.2955ZM269.443 21.2955H270.045V12.5455H269.443H268.84V21.2955H269.443ZM270.693 11.2955V11.8984H274.443V11.2955V10.6926H270.693V11.2955ZM274.443 11.2955H273.84V12.5455H274.443H275.045V11.2955H274.443ZM274.443 12.5455V11.9426H270.693V12.5455V13.1484H274.443V12.5455ZM270.693 12.5455H271.295V11.2955H270.693H270.09V12.5455H270.693ZM281.943 21.2955V20.6926H281.34V21.2955H281.943ZM283.193 21.2955H283.795V20.6926H283.193V21.2955ZM283.193 22.5455V23.1484H283.795V22.5455H283.193ZM281.943 22.5455H281.34V23.1484H281.943V22.5455ZM281.943 13.7955V13.1926H281.34V13.7955H281.943ZM283.193 13.7955H283.795V13.1926H283.193V13.7955ZM283.193 15.0455V15.6484H283.795V15.0455H283.193ZM281.943 15.0455H281.34V15.6484H281.943V15.0455ZM281.943 21.2955V21.8984H283.193V21.2955V20.6926H281.943V21.2955ZM283.193 21.2955H282.59V22.5455H283.193H283.795V21.2955H283.193ZM283.193 22.5455V21.9426H281.943V22.5455V23.1484H283.193V22.5455ZM281.943 22.5455H282.545V21.2955H281.943H281.34V22.5455H281.943ZM281.943 13.7955V14.3984H283.193V13.7955V13.1926H281.943V13.7955ZM283.193 13.7955H282.59V15.0455H283.193H283.795V13.7955H283.193ZM283.193 15.0455V14.4426H281.943V15.0455V15.6484H283.193V15.0455ZM281.943 15.0455H282.545V13.7955H281.943H281.34V15.0455H281.943ZM290.693 21.2955V20.6926H290.09V21.2955H290.693ZM294.443 21.2955H295.045V20.6926H294.443V21.2955ZM294.443 22.5455V23.1484H295.045V22.5455H294.443ZM290.693 22.5455H290.09V23.1484H290.693V22.5455ZM294.443 12.5455V11.9426H293.84V12.5455H294.443ZM295.693 12.5455H296.295V11.9426H295.693V12.5455ZM295.693 21.2955V21.8984H296.295V21.2955H295.693ZM294.443 21.2955H293.84V21.8984H294.443V21.2955ZM294.443 16.2955H295.045V15.6926H294.443V16.2955ZM293.193 16.2955H292.59V16.8984H293.193V16.2955ZM293.193 15.0455V14.4426H292.59V15.0455H293.193ZM294.443 15.0455V15.6484H295.045V15.0455H294.443ZM291.943 16.2955V15.6926H291.34V16.2955H291.943ZM293.193 16.2955H293.795V15.6926H293.193V16.2955ZM293.193 17.5455V18.1484H293.795V17.5455H293.193ZM291.943 17.5455H291.34V18.1484H291.943V17.5455ZM289.443 12.5455V11.9426H288.84V12.5455H289.443ZM290.693 12.5455H291.295V11.9426H290.693V12.5455ZM290.693 17.5455H290.09V18.1484H290.693V17.5455ZM291.943 17.5455H292.545V16.9426H291.943V17.5455ZM291.943 18.7955V19.3984H292.545V18.7955H291.943ZM290.693 18.7955V18.1926H290.09V18.7955H290.693ZM290.693 21.2955V21.8984H291.295V21.2955H290.693ZM289.443 21.2955H288.84V21.8984H289.443V21.2955ZM290.693 11.2955V10.6926H290.09V11.2955H290.693ZM294.443 11.2955H295.045V10.6926H294.443V11.2955ZM294.443 12.5455V13.1484H295.045V12.5455H294.443ZM290.693 12.5455H290.09V13.1484H290.693V12.5455ZM290.693 21.2955V21.8984H294.443V21.2955V20.6926H290.693V21.2955ZM294.443 21.2955H293.84V22.5455H294.443H295.045V21.2955H294.443ZM294.443 22.5455V21.9426H290.693V22.5455V23.1484H294.443V22.5455ZM290.693 22.5455H291.295V21.2955H290.693H290.09V22.5455H290.693ZM294.443 12.5455V13.1484H295.693V12.5455V11.9426H294.443V12.5455ZM295.693 12.5455H295.09V21.2955H295.693H296.295V12.5455H295.693ZM295.693 21.2955V20.6926H294.443V21.2955V21.8984H295.693V21.2955ZM294.443 21.2955H295.045V16.2955H294.443H293.84V21.2955H294.443ZM294.443 16.2955V15.6926H293.193V16.2955V16.8984H294.443V16.2955ZM293.193 16.2955H293.795V15.0455H293.193H292.59V16.2955H293.193ZM293.193 15.0455V15.6484H294.443V15.0455V14.4426H293.193V15.0455ZM294.443 15.0455H295.045V12.5455H294.443H293.84V15.0455H294.443ZM291.943 16.2955V16.8984H293.193V16.2955V15.6926H291.943V16.2955ZM293.193 16.2955H292.59V17.5455H293.193H293.795V16.2955H293.193ZM293.193 17.5455V16.9426H291.943V17.5455V18.1484H293.193V17.5455ZM291.943 17.5455H292.545V16.2955H291.943H291.34V17.5455H291.943ZM289.443 12.5455V13.1484H290.693V12.5455V11.9426H289.443V12.5455ZM290.693 12.5455H290.09V17.5455H290.693H291.295V12.5455H290.693ZM290.693 17.5455V18.1484H291.943V17.5455V16.9426H290.693V17.5455ZM291.943 17.5455H291.34V18.7955H291.943H292.545V17.5455H291.943ZM291.943 18.7955V18.1926H290.693V18.7955V19.3984H291.943V18.7955ZM290.693 18.7955H290.09V21.2955H290.693H291.295V18.7955H290.693ZM290.693 21.2955V20.6926H289.443V21.2955V21.8984H290.693V21.2955ZM289.443 21.2955H290.045V12.5455H289.443H288.84V21.2955H289.443ZM290.693 11.2955V11.8984H294.443V11.2955V10.6926H290.693V11.2955ZM294.443 11.2955H293.84V12.5455H294.443H295.045V11.2955H294.443ZM294.443 12.5455V11.9426H290.693V12.5455V13.1484H294.443V12.5455ZM290.693 12.5455H291.295V11.2955H290.693H290.09V12.5455H290.693ZM300.693 21.2955V20.6926H300.09V21.2955H300.693ZM304.443 21.2955H305.045V20.6926H304.443V21.2955ZM304.443 22.5455V23.1484H305.045V22.5455H304.443ZM300.693 22.5455H300.09V23.1484H300.693V22.5455ZM304.443 12.5455V11.9426H303.84V12.5455H304.443ZM305.693 12.5455H306.295V11.9426H305.693V12.5455ZM305.693 21.2955V21.8984H306.295V21.2955H305.693ZM304.443 21.2955H303.84V21.8984H304.443V21.2955ZM304.443 16.2955H305.045V15.6926H304.443V16.2955ZM303.193 16.2955H302.59V16.8984H303.193V16.2955ZM303.193 15.0455V14.4426H302.59V15.0455H303.193ZM304.443 15.0455V15.6484H305.045V15.0455H304.443ZM301.943 16.2955V15.6926H301.34V16.2955H301.943ZM303.193 16.2955H303.795V15.6926H303.193V16.2955ZM303.193 17.5455V18.1484H303.795V17.5455H303.193ZM301.943 17.5455H301.34V18.1484H301.943V17.5455ZM299.443 12.5455V11.9426H298.84V12.5455H299.443ZM300.693 12.5455H301.295V11.9426H300.693V12.5455ZM300.693 17.5455H300.09V18.1484H300.693V17.5455ZM301.943 17.5455H302.545V16.9426H301.943V17.5455ZM301.943 18.7955V19.3984H302.545V18.7955H301.943ZM300.693 18.7955V18.1926H300.09V18.7955H300.693ZM300.693 21.2955V21.8984H301.295V21.2955H300.693ZM299.443 21.2955H298.84V21.8984H299.443V21.2955ZM300.693 11.2955V10.6926H300.09V11.2955H300.693ZM304.443 11.2955H305.045V10.6926H304.443V11.2955ZM304.443 12.5455V13.1484H305.045V12.5455H304.443ZM300.693 12.5455H300.09V13.1484H300.693V12.5455ZM300.693 21.2955V21.8984H304.443V21.2955V20.6926H300.693V21.2955ZM304.443 21.2955H303.84V22.5455H304.443H305.045V21.2955H304.443ZM304.443 22.5455V21.9426H300.693V22.5455V23.1484H304.443V22.5455ZM300.693 22.5455H301.295V21.2955H300.693H300.09V22.5455H300.693ZM304.443 12.5455V13.1484H305.693V12.5455V11.9426H304.443V12.5455ZM305.693 12.5455H305.09V21.2955H305.693H306.295V12.5455H305.693ZM305.693 21.2955V20.6926H304.443V21.2955V21.8984H305.693V21.2955ZM304.443 21.2955H305.045V16.2955H304.443H303.84V21.2955H304.443ZM304.443 16.2955V15.6926H303.193V16.2955V16.8984H304.443V16.2955ZM303.193 16.2955H303.795V15.0455H303.193H302.59V16.2955H303.193ZM303.193 15.0455V15.6484H304.443V15.0455V14.4426H303.193V15.0455ZM304.443 15.0455H305.045V12.5455H304.443H303.84V15.0455H304.443ZM301.943 16.2955V16.8984H303.193V16.2955V15.6926H301.943V16.2955ZM303.193 16.2955H302.59V17.5455H303.193H303.795V16.2955H303.193ZM303.193 17.5455V16.9426H301.943V17.5455V18.1484H303.193V17.5455ZM301.943 17.5455H302.545V16.2955H301.943H301.34V17.5455H301.943ZM299.443 12.5455V13.1484H300.693V12.5455V11.9426H299.443V12.5455ZM300.693 12.5455H300.09V17.5455H300.693H301.295V12.5455H300.693ZM300.693 17.5455V18.1484H301.943V17.5455V16.9426H300.693V17.5455ZM301.943 17.5455H301.34V18.7955H301.943H302.545V17.5455H301.943ZM301.943 18.7955V18.1926H300.693V18.7955V19.3984H301.943V18.7955ZM300.693 18.7955H300.09V21.2955H300.693H301.295V18.7955H300.693ZM300.693 21.2955V20.6926H299.443V21.2955V21.8984H300.693V21.2955ZM299.443 21.2955H300.045V12.5455H299.443H298.84V21.2955H299.443ZM300.693 11.2955V11.8984H304.443V11.2955V10.6926H300.693V11.2955ZM304.443 11.2955H303.84V12.5455H304.443H305.045V11.2955H304.443ZM304.443 12.5455V11.9426H300.693V12.5455V13.1484H304.443V12.5455ZM300.693 12.5455H301.295V11.2955H300.693H300.09V12.5455H300.693ZM311.943 21.2955V20.6926H311.34V21.2955H311.943ZM313.193 21.2955H313.795V20.6926H313.193V21.2955ZM313.193 22.5455V23.1484H313.795V22.5455H313.193ZM311.943 22.5455H311.34V23.1484H311.943V22.5455ZM311.943 13.7955V13.1926H311.34V13.7955H311.943ZM313.193 13.7955H313.795V13.1926H313.193V13.7955ZM313.193 15.0455V15.6484H313.795V15.0455H313.193ZM311.943 15.0455H311.34V15.6484H311.943V15.0455ZM311.943 21.2955V21.8984H313.193V21.2955V20.6926H311.943V21.2955ZM313.193 21.2955H312.59V22.5455H313.193H313.795V21.2955H313.193ZM313.193 22.5455V21.9426H311.943V22.5455V23.1484H313.193V22.5455ZM311.943 22.5455H312.545V21.2955H311.943H311.34V22.5455H311.943ZM311.943 13.7955V14.3984H313.193V13.7955V13.1926H311.943V13.7955ZM313.193 13.7955H312.59V15.0455H313.193H313.795V13.7955H313.193ZM313.193 15.0455V14.4426H311.943V15.0455V15.6484H313.193V15.0455ZM311.943 15.0455H312.545V13.7955H311.943H311.34V15.0455H311.943ZM320.693 21.2955V20.6926H320.09V21.2955H320.693ZM324.443 21.2955H325.045V20.6926H324.443V21.2955ZM324.443 22.5455V23.1484H325.045V22.5455H324.443ZM320.693 22.5455H320.09V23.1484H320.693V22.5455ZM324.443 12.5455V11.9426H323.84V12.5455H324.443ZM325.693 12.5455H326.295V11.9426H325.693V12.5455ZM325.693 21.2955V21.8984H326.295V21.2955H325.693ZM324.443 21.2955H323.84V21.8984H324.443V21.2955ZM324.443 16.2955H325.045V15.6926H324.443V16.2955ZM323.193 16.2955H322.59V16.8984H323.193V16.2955ZM323.193 15.0455V14.4426H322.59V15.0455H323.193ZM324.443 15.0455V15.6484H325.045V15.0455H324.443ZM321.943 16.2955V15.6926H321.34V16.2955H321.943ZM323.193 16.2955H323.795V15.6926H323.193V16.2955ZM323.193 17.5455V18.1484H323.795V17.5455H323.193ZM321.943 17.5455H321.34V18.1484H321.943V17.5455ZM319.443 12.5455V11.9426H318.84V12.5455H319.443ZM320.693 12.5455H321.295V11.9426H320.693V12.5455ZM320.693 17.5455H320.09V18.1484H320.693V17.5455ZM321.943 17.5455H322.545V16.9426H321.943V17.5455ZM321.943 18.7955V19.3984H322.545V18.7955H321.943ZM320.693 18.7955V18.1926H320.09V18.7955H320.693ZM320.693 21.2955V21.8984H321.295V21.2955H320.693ZM319.443 21.2955H318.84V21.8984H319.443V21.2955ZM320.693 11.2955V10.6926H320.09V11.2955H320.693ZM324.443 11.2955H325.045V10.6926H324.443V11.2955ZM324.443 12.5455V13.1484H325.045V12.5455H324.443ZM320.693 12.5455H320.09V13.1484H320.693V12.5455ZM320.693 21.2955V21.8984H324.443V21.2955V20.6926H320.693V21.2955ZM324.443 21.2955H323.84V22.5455H324.443H325.045V21.2955H324.443ZM324.443 22.5455V21.9426H320.693V22.5455V23.1484H324.443V22.5455ZM320.693 22.5455H321.295V21.2955H320.693H320.09V22.5455H320.693ZM324.443 12.5455V13.1484H325.693V12.5455V11.9426H324.443V12.5455ZM325.693 12.5455H325.09V21.2955H325.693H326.295V12.5455H325.693ZM325.693 21.2955V20.6926H324.443V21.2955V21.8984H325.693V21.2955ZM324.443 21.2955H325.045V16.2955H324.443H323.84V21.2955H324.443ZM324.443 16.2955V15.6926H323.193V16.2955V16.8984H324.443V16.2955ZM323.193 16.2955H323.795V15.0455H323.193H322.59V16.2955H323.193ZM323.193 15.0455V15.6484H324.443V15.0455V14.4426H323.193V15.0455ZM324.443 15.0455H325.045V12.5455H324.443H323.84V15.0455H324.443ZM321.943 16.2955V16.8984H323.193V16.2955V15.6926H321.943V16.2955ZM323.193 16.2955H322.59V17.5455H323.193H323.795V16.2955H323.193ZM323.193 17.5455V16.9426H321.943V17.5455V18.1484H323.193V17.5455ZM321.943 17.5455H322.545V16.2955H321.943H321.34V17.5455H321.943ZM319.443 12.5455V13.1484H320.693V12.5455V11.9426H319.443V12.5455ZM320.693 12.5455H320.09V17.5455H320.693H321.295V12.5455H320.693ZM320.693 17.5455V18.1484H321.943V17.5455V16.9426H320.693V17.5455ZM321.943 17.5455H321.34V18.7955H321.943H322.545V17.5455H321.943ZM321.943 18.7955V18.1926H320.693V18.7955V19.3984H321.943V18.7955ZM320.693 18.7955H320.09V21.2955H320.693H321.295V18.7955H320.693ZM320.693 21.2955V20.6926H319.443V21.2955V21.8984H320.693V21.2955ZM319.443 21.2955H320.045V12.5455H319.443H318.84V21.2955H319.443ZM320.693 11.2955V11.8984H324.443V11.2955V10.6926H320.693V11.2955ZM324.443 11.2955H323.84V12.5455H324.443H325.045V11.2955H324.443ZM324.443 12.5455V11.9426H320.693V12.5455V13.1484H324.443V12.5455ZM320.693 12.5455H321.295V11.2955H320.693H320.09V12.5455H320.693ZM330.693 21.2955V20.6926H330.09V21.2955H330.693ZM334.443 21.2955H335.045V20.6926H334.443V21.2955ZM334.443 22.5455V23.1484H335.045V22.5455H334.443ZM330.693 22.5455H330.09V23.1484H330.693V22.5455ZM334.443 12.5455V11.9426H333.84V12.5455H334.443ZM335.693 12.5455H336.295V11.9426H335.693V12.5455ZM335.693 21.2955V21.8984H336.295V21.2955H335.693ZM334.443 21.2955H333.84V21.8984H334.443V21.2955ZM334.443 16.2955H335.045V15.6926H334.443V16.2955ZM333.193 16.2955H332.59V16.8984H333.193V16.2955ZM333.193 15.0455V14.4426H332.59V15.0455H333.193ZM334.443 15.0455V15.6484H335.045V15.0455H334.443ZM331.943 16.2955V15.6926H331.34V16.2955H331.943ZM333.193 16.2955H333.795V15.6926H333.193V16.2955ZM333.193 17.5455V18.1484H333.795V17.5455H333.193ZM331.943 17.5455H331.34V18.1484H331.943V17.5455ZM329.443 12.5455V11.9426H328.84V12.5455H329.443ZM330.693 12.5455H331.295V11.9426H330.693V12.5455ZM330.693 17.5455H330.09V18.1484H330.693V17.5455ZM331.943 17.5455H332.545V16.9426H331.943V17.5455ZM331.943 18.7955V19.3984H332.545V18.7955H331.943ZM330.693 18.7955V18.1926H330.09V18.7955H330.693ZM330.693 21.2955V21.8984H331.295V21.2955H330.693ZM329.443 21.2955H328.84V21.8984H329.443V21.2955ZM330.693 11.2955V10.6926H330.09V11.2955H330.693ZM334.443 11.2955H335.045V10.6926H334.443V11.2955ZM334.443 12.5455V13.1484H335.045V12.5455H334.443ZM330.693 12.5455H330.09V13.1484H330.693V12.5455ZM330.693 21.2955V21.8984H334.443V21.2955V20.6926H330.693V21.2955ZM334.443 21.2955H333.84V22.5455H334.443H335.045V21.2955H334.443ZM334.443 22.5455V21.9426H330.693V22.5455V23.1484H334.443V22.5455ZM330.693 22.5455H331.295V21.2955H330.693H330.09V22.5455H330.693ZM334.443 12.5455V13.1484H335.693V12.5455V11.9426H334.443V12.5455ZM335.693 12.5455H335.09V21.2955H335.693H336.295V12.5455H335.693ZM335.693 21.2955V20.6926H334.443V21.2955V21.8984H335.693V21.2955ZM334.443 21.2955H335.045V16.2955H334.443H333.84V21.2955H334.443ZM334.443 16.2955V15.6926H333.193V16.2955V16.8984H334.443V16.2955ZM333.193 16.2955H333.795V15.0455H333.193H332.59V16.2955H333.193ZM333.193 15.0455V15.6484H334.443V15.0455V14.4426H333.193V15.0455ZM334.443 15.0455H335.045V12.5455H334.443H333.84V15.0455H334.443ZM331.943 16.2955V16.8984H333.193V16.2955V15.6926H331.943V16.2955ZM333.193 16.2955H332.59V17.5455H333.193H333.795V16.2955H333.193ZM333.193 17.5455V16.9426H331.943V17.5455V18.1484H333.193V17.5455ZM331.943 17.5455H332.545V16.2955H331.943H331.34V17.5455H331.943ZM329.443 12.5455V13.1484H330.693V12.5455V11.9426H329.443V12.5455ZM330.693 12.5455H330.09V17.5455H330.693H331.295V12.5455H330.693ZM330.693 17.5455V18.1484H331.943V17.5455V16.9426H330.693V17.5455ZM331.943 17.5455H331.34V18.7955H331.943H332.545V17.5455H331.943ZM331.943 18.7955V18.1926H330.693V18.7955V19.3984H331.943V18.7955ZM330.693 18.7955H330.09V21.2955H330.693H331.295V18.7955H330.693ZM330.693 21.2955V20.6926H329.443V21.2955V21.8984H330.693V21.2955ZM329.443 21.2955H330.045V12.5455H329.443H328.84V21.2955H329.443ZM330.693 11.2955V11.8984H334.443V11.2955V10.6926H330.693V11.2955ZM334.443 11.2955H333.84V12.5455H334.443H335.045V11.2955H334.443ZM334.443 12.5455V11.9426H330.693V12.5455V13.1484H334.443V12.5455ZM330.693 12.5455H331.295V11.2955H330.693H330.09V12.5455H330.693Z" fill="white" fill-opacity="0.1" mask="url(#path-7-outside-1_224_91)"/>
<mask id="path-9-outside-2_224_91" maskUnits="userSpaceOnUse" x="348.829" y="36.0545" width="20" height="13" fill="black">
<rect fill="white" x="348.829" y="36.0545" width="20" height="13"/>
<path d="M351.602 46.8045H355.352V48.0545H351.602V46.8045ZM355.352 38.0545H356.602V46.8045H355.352V41.8045H354.102V40.5545H355.352V38.0545ZM352.852 41.8045H354.102V43.0545H352.852V41.8045ZM350.352 38.0545H351.602V43.0545H352.852V44.3045H351.602V46.8045H350.352V38.0545ZM351.602 36.8045H355.352V38.0545H351.602V36.8045ZM366.602 40.5545H367.852V48.0545H366.602V40.5545ZM364.102 39.3045H366.602V40.5545H364.102V39.3045ZM362.852 40.5545H364.102V45.5545H362.852V40.5545ZM359.102 39.3045H362.852V40.5545H360.352V48.0545H359.102V39.3045Z"/>
</mask>
<path d="M351.602 46.8045H355.352V48.0545H351.602V46.8045ZM355.352 38.0545H356.602V46.8045H355.352V41.8045H354.102V40.5545H355.352V38.0545ZM352.852 41.8045H354.102V43.0545H352.852V41.8045ZM350.352 38.0545H351.602V43.0545H352.852V44.3045H351.602V46.8045H350.352V38.0545ZM351.602 36.8045H355.352V38.0545H351.602V36.8045ZM366.602 40.5545H367.852V48.0545H366.602V40.5545ZM364.102 39.3045H366.602V40.5545H364.102V39.3045ZM362.852 40.5545H364.102V45.5545H362.852V40.5545ZM359.102 39.3045H362.852V40.5545H360.352V48.0545H359.102V39.3045Z" fill="#F12802"/>
<path d="M351.602 46.8045V46.2016H350.999V46.8045H351.602ZM355.352 46.8045H355.955V46.2016H355.352V46.8045ZM355.352 48.0545V48.6574H355.955V48.0545H355.352ZM351.602 48.0545H350.999V48.6574H351.602V48.0545ZM355.352 38.0545V37.4516H354.749V38.0545H355.352ZM356.602 38.0545H357.205V37.4516H356.602V38.0545ZM356.602 46.8045V47.4074H357.205V46.8045H356.602ZM355.352 46.8045H354.749V47.4074H355.352V46.8045ZM355.352 41.8045H355.955V41.2016H355.352V41.8045ZM354.102 41.8045H353.499V42.4074H354.102V41.8045ZM354.102 40.5545V39.9516H353.499V40.5545H354.102ZM355.352 40.5545V41.1574H355.955V40.5545H355.352ZM352.852 41.8045V41.2016H352.249V41.8045H352.852ZM354.102 41.8045H354.705V41.2016H354.102V41.8045ZM354.102 43.0545V43.6574H354.705V43.0545H354.102ZM352.852 43.0545H352.249V43.6574H352.852V43.0545ZM350.352 38.0545V37.4516H349.749V38.0545H350.352ZM351.602 38.0545H352.205V37.4516H351.602V38.0545ZM351.602 43.0545H350.999V43.6574H351.602V43.0545ZM352.852 43.0545H353.455V42.4516H352.852V43.0545ZM352.852 44.3045V44.9074H353.455V44.3045H352.852ZM351.602 44.3045V43.7016H350.999V44.3045H351.602ZM351.602 46.8045V47.4074H352.205V46.8045H351.602ZM350.352 46.8045H349.749V47.4074H350.352V46.8045ZM351.602 36.8045V36.2016H350.999V36.8045H351.602ZM355.352 36.8045H355.955V36.2016H355.352V36.8045ZM355.352 38.0545V38.6574H355.955V38.0545H355.352ZM351.602 38.0545H350.999V38.6574H351.602V38.0545ZM351.602 46.8045V47.4074H355.352V46.8045V46.2016H351.602V46.8045ZM355.352 46.8045H354.749V48.0545H355.352H355.955V46.8045H355.352ZM355.352 48.0545V47.4516H351.602V48.0545V48.6574H355.352V48.0545ZM351.602 48.0545H352.205V46.8045H351.602H350.999V48.0545H351.602ZM355.352 38.0545V38.6574H356.602V38.0545V37.4516H355.352V38.0545ZM356.602 38.0545H355.999V46.8045H356.602H357.205V38.0545H356.602ZM356.602 46.8045V46.2016H355.352V46.8045V47.4074H356.602V46.8045ZM355.352 46.8045H355.955V41.8045H355.352H354.749V46.8045H355.352ZM355.352 41.8045V41.2016H354.102V41.8045V42.4074H355.352V41.8045ZM354.102 41.8045H354.705V40.5545H354.102H353.499V41.8045H354.102ZM354.102 40.5545V41.1574H355.352V40.5545V39.9516H354.102V40.5545ZM355.352 40.5545H355.955V38.0545H355.352H354.749V40.5545H355.352ZM352.852 41.8045V42.4074H354.102V41.8045V41.2016H352.852V41.8045ZM354.102 41.8045H353.499V43.0545H354.102H354.705V41.8045H354.102ZM354.102 43.0545V42.4516H352.852V43.0545V43.6574H354.102V43.0545ZM352.852 43.0545H353.455V41.8045H352.852H352.249V43.0545H352.852ZM350.352 38.0545V38.6574H351.602V38.0545V37.4516H350.352V38.0545ZM351.602 38.0545H350.999V43.0545H351.602H352.205V38.0545H351.602ZM351.602 43.0545V43.6574H352.852V43.0545V42.4516H351.602V43.0545ZM352.852 43.0545H352.249V44.3045H352.852H353.455V43.0545H352.852ZM352.852 44.3045V43.7016H351.602V44.3045V44.9074H352.852V44.3045ZM351.602 44.3045H350.999V46.8045H351.602H352.205V44.3045H351.602ZM351.602 46.8045V46.2016H350.352V46.8045V47.4074H351.602V46.8045ZM350.352 46.8045H350.955V38.0545H350.352H349.749V46.8045H350.352ZM351.602 36.8045V37.4074H355.352V36.8045V36.2016H351.602V36.8045ZM355.352 36.8045H354.749V38.0545H355.352H355.955V36.8045H355.352ZM355.352 38.0545V37.4516H351.602V38.0545V38.6574H355.352V38.0545ZM351.602 38.0545H352.205V36.8045H351.602H350.999V38.0545H351.602ZM366.602 40.5545V39.9516H365.999V40.5545H366.602ZM367.852 40.5545H368.455V39.9516H367.852V40.5545ZM367.852 48.0545V48.6574H368.455V48.0545H367.852ZM366.602 48.0545H365.999V48.6574H366.602V48.0545ZM364.102 39.3045V38.7016H363.499V39.3045H364.102ZM366.602 39.3045H367.205V38.7016H366.602V39.3045ZM366.602 40.5545V41.1574H367.205V40.5545H366.602ZM364.102 40.5545H363.499V41.1574H364.102V40.5545ZM362.852 40.5545V39.9516H362.249V40.5545H362.852ZM364.102 40.5545H364.705V39.9516H364.102V40.5545ZM364.102 45.5545V46.1574H364.705V45.5545H364.102ZM362.852 45.5545H362.249V46.1574H362.852V45.5545ZM359.102 39.3045V38.7016H358.499V39.3045H359.102ZM362.852 39.3045H363.455V38.7016H362.852V39.3045ZM362.852 40.5545V41.1574H363.455V40.5545H362.852ZM360.352 40.5545V39.9516H359.749V40.5545H360.352ZM360.352 48.0545V48.6574H360.955V48.0545H360.352ZM359.102 48.0545H358.499V48.6574H359.102V48.0545ZM366.602 40.5545V41.1574H367.852V40.5545V39.9516H366.602V40.5545ZM367.852 40.5545H367.249V48.0545H367.852H368.455V40.5545H367.852ZM367.852 48.0545V47.4516H366.602V48.0545V48.6574H367.852V48.0545ZM366.602 48.0545H367.205V40.5545H366.602H365.999V48.0545H366.602ZM364.102 39.3045V39.9074H366.602V39.3045V38.7016H364.102V39.3045ZM366.602 39.3045H365.999V40.5545H366.602H367.205V39.3045H366.602ZM366.602 40.5545V39.9516H364.102V40.5545V41.1574H366.602V40.5545ZM364.102 40.5545H364.705V39.3045H364.102H363.499V40.5545H364.102ZM362.852 40.5545V41.1574H364.102V40.5545V39.9516H362.852V40.5545ZM364.102 40.5545H363.499V45.5545H364.102H364.705V40.5545H364.102ZM364.102 45.5545V44.9516H362.852V45.5545V46.1574H364.102V45.5545ZM362.852 45.5545H363.455V40.5545H362.852H362.249V45.5545H362.852ZM359.102 39.3045V39.9074H362.852V39.3045V38.7016H359.102V39.3045ZM362.852 39.3045H362.249V40.5545H362.852H363.455V39.3045H362.852ZM362.852 40.5545V39.9516H360.352V40.5545V41.1574H362.852V40.5545ZM360.352 40.5545H359.749V48.0545H360.352H360.955V40.5545H360.352ZM360.352 48.0545V47.4516H359.102V48.0545V48.6574H360.352V48.0545ZM359.102 48.0545H359.705V39.3045H359.102H358.499V48.0545H359.102Z" fill="white" fill-opacity="0.1" mask="url(#path-9-outside-2_224_91)"/>
<mask id="path-11-outside-3_224_91" maskUnits="userSpaceOnUse" x="258.193" y="36.0545" width="49" height="13" fill="black">
<rect fill="white" x="258.193" y="36.0545" width="49" height="13"/>
<path d="M259.443 39.3045H260.693V40.5545H259.443V39.3045ZM261.943 36.8045H263.193V46.8045H265.693V48.0545H259.443V46.8045H261.943V39.3045H260.693V38.0545H261.943V36.8045ZM271.943 46.8045H273.193V48.0545H271.943V46.8045ZM279.443 44.3045H280.693V46.8045H285.693V48.0545H279.443V44.3045ZM280.693 44.3045V43.0545H281.943V44.3045H280.693ZM281.943 41.8045H283.193V43.0545H281.943V41.8045ZM283.193 40.5545H284.443V41.8045H283.193V40.5545ZM284.443 38.0545H285.693V40.5545H284.443V38.0545ZM280.693 36.8045H284.443V38.0545H280.693V36.8045ZM279.443 38.0545H280.693V39.3045H279.443V38.0545ZM289.443 45.5545H290.693V46.8045H289.443V45.5545ZM290.693 46.8045H294.443V48.0545H290.693V46.8045ZM294.443 41.8045H295.693V46.8045H294.443V41.8045ZM289.443 36.8045H295.693V38.0545H290.693V40.5545H294.443V41.8045H289.443V36.8045ZM299.443 45.5545H300.693V48.0545H299.443V45.5545ZM300.693 44.3045H301.943V45.5545H300.693V44.3045ZM301.943 43.0545H303.193V44.3045H301.943V43.0545ZM303.193 41.8045H304.443V43.0545H303.193V41.8045ZM304.443 39.3045H305.693V41.8045H304.443V39.3045ZM304.443 45.5545H305.693V48.0545H304.443V45.5545ZM303.193 44.3045H304.443V45.5545H303.193V44.3045ZM300.693 41.8045H301.943V43.0545H300.693V41.8045ZM299.443 39.3045H300.693V41.8045H299.443V39.3045Z"/>
</mask>
<path d="M259.443 39.3045H260.693V40.5545H259.443V39.3045ZM261.943 36.8045H263.193V46.8045H265.693V48.0545H259.443V46.8045H261.943V39.3045H260.693V38.0545H261.943V36.8045ZM271.943 46.8045H273.193V48.0545H271.943V46.8045ZM279.443 44.3045H280.693V46.8045H285.693V48.0545H279.443V44.3045ZM280.693 44.3045V43.0545H281.943V44.3045H280.693ZM281.943 41.8045H283.193V43.0545H281.943V41.8045ZM283.193 40.5545H284.443V41.8045H283.193V40.5545ZM284.443 38.0545H285.693V40.5545H284.443V38.0545ZM280.693 36.8045H284.443V38.0545H280.693V36.8045ZM279.443 38.0545H280.693V39.3045H279.443V38.0545ZM289.443 45.5545H290.693V46.8045H289.443V45.5545ZM290.693 46.8045H294.443V48.0545H290.693V46.8045ZM294.443 41.8045H295.693V46.8045H294.443V41.8045ZM289.443 36.8045H295.693V38.0545H290.693V40.5545H294.443V41.8045H289.443V36.8045ZM299.443 45.5545H300.693V48.0545H299.443V45.5545ZM300.693 44.3045H301.943V45.5545H300.693V44.3045ZM301.943 43.0545H303.193V44.3045H301.943V43.0545ZM303.193 41.8045H304.443V43.0545H303.193V41.8045ZM304.443 39.3045H305.693V41.8045H304.443V39.3045ZM304.443 45.5545H305.693V48.0545H304.443V45.5545ZM303.193 44.3045H304.443V45.5545H303.193V44.3045ZM300.693 41.8045H301.943V43.0545H300.693V41.8045ZM299.443 39.3045H300.693V41.8045H299.443V39.3045Z" fill="white"/>
<path d="M259.443 39.3045V38.7016H258.84V39.3045H259.443ZM260.693 39.3045H261.295V38.7016H260.693V39.3045ZM260.693 40.5545V41.1574H261.295V40.5545H260.693ZM259.443 40.5545H258.84V41.1574H259.443V40.5545ZM261.943 36.8045V36.2016H261.34V36.8045H261.943ZM263.193 36.8045H263.795V36.2016H263.193V36.8045ZM263.193 46.8045H262.59V47.4074H263.193V46.8045ZM265.693 46.8045H266.295V46.2016H265.693V46.8045ZM265.693 48.0545V48.6574H266.295V48.0545H265.693ZM259.443 48.0545H258.84V48.6574H259.443V48.0545ZM259.443 46.8045V46.2016H258.84V46.8045H259.443ZM261.943 46.8045V47.4074H262.545V46.8045H261.943ZM261.943 39.3045H262.545V38.7016H261.943V39.3045ZM260.693 39.3045H260.09V39.9074H260.693V39.3045ZM260.693 38.0545V37.4516H260.09V38.0545H260.693ZM261.943 38.0545V38.6574H262.545V38.0545H261.943ZM259.443 39.3045V39.9074H260.693V39.3045V38.7016H259.443V39.3045ZM260.693 39.3045H260.09V40.5545H260.693H261.295V39.3045H260.693ZM260.693 40.5545V39.9516H259.443V40.5545V41.1574H260.693V40.5545ZM259.443 40.5545H260.045V39.3045H259.443H258.84V40.5545H259.443ZM261.943 36.8045V37.4074H263.193V36.8045V36.2016H261.943V36.8045ZM263.193 36.8045H262.59V46.8045H263.193H263.795V36.8045H263.193ZM263.193 46.8045V47.4074H265.693V46.8045V46.2016H263.193V46.8045ZM265.693 46.8045H265.09V48.0545H265.693H266.295V46.8045H265.693ZM265.693 48.0545V47.4516H259.443V48.0545V48.6574H265.693V48.0545ZM259.443 48.0545H260.045V46.8045H259.443H258.84V48.0545H259.443ZM259.443 46.8045V47.4074H261.943V46.8045V46.2016H259.443V46.8045ZM261.943 46.8045H262.545V39.3045H261.943H261.34V46.8045H261.943ZM261.943 39.3045V38.7016H260.693V39.3045V39.9074H261.943V39.3045ZM260.693 39.3045H261.295V38.0545H260.693H260.09V39.3045H260.693ZM260.693 38.0545V38.6574H261.943V38.0545V37.4516H260.693V38.0545ZM261.943 38.0545H262.545V36.8045H261.943H261.34V38.0545H261.943ZM271.943 46.8045V46.2016H271.34V46.8045H271.943ZM273.193 46.8045H273.795V46.2016H273.193V46.8045ZM273.193 48.0545V48.6574H273.795V48.0545H273.193ZM271.943 48.0545H271.34V48.6574H271.943V48.0545ZM271.943 46.8045V47.4074H273.193V46.8045V46.2016H271.943V46.8045ZM273.193 46.8045H272.59V48.0545H273.193H273.795V46.8045H273.193ZM273.193 48.0545V47.4516H271.943V48.0545V48.6574H273.193V48.0545ZM271.943 48.0545H272.545V46.8045H271.943H271.34V48.0545H271.943ZM279.443 44.3045V43.7016H278.84V44.3045H279.443ZM280.693 44.3045H281.295V43.7016H280.693V44.3045ZM280.693 46.8045H280.09V47.4074H280.693V46.8045ZM285.693 46.8045H286.295V46.2016H285.693V46.8045ZM285.693 48.0545V48.6574H286.295V48.0545H285.693ZM279.443 48.0545H278.84V48.6574H279.443V48.0545ZM280.693 44.3045H280.09V44.9074H280.693V44.3045ZM280.693 43.0545V42.4516H280.09V43.0545H280.693ZM281.943 43.0545H282.545V42.4516H281.943V43.0545ZM281.943 44.3045V44.9074H282.545V44.3045H281.943ZM281.943 41.8045V41.2016H281.34V41.8045H281.943ZM283.193 41.8045H283.795V41.2016H283.193V41.8045ZM283.193 43.0545V43.6574H283.795V43.0545H283.193ZM281.943 43.0545H281.34V43.6574H281.943V43.0545ZM283.193 40.5545V39.9516H282.59V40.5545H283.193ZM284.443 40.5545H285.045V39.9516H284.443V40.5545ZM284.443 41.8045V42.4074H285.045V41.8045H284.443ZM283.193 41.8045H282.59V42.4074H283.193V41.8045ZM284.443 38.0545V37.4516H283.84V38.0545H284.443ZM285.693 38.0545H286.295V37.4516H285.693V38.0545ZM285.693 40.5545V41.1574H286.295V40.5545H285.693ZM284.443 40.5545H283.84V41.1574H284.443V40.5545ZM280.693 36.8045V36.2016H280.09V36.8045H280.693ZM284.443 36.8045H285.045V36.2016H284.443V36.8045ZM284.443 38.0545V38.6574H285.045V38.0545H284.443ZM280.693 38.0545H280.09V38.6574H280.693V38.0545ZM279.443 38.0545V37.4516H278.84V38.0545H279.443ZM280.693 38.0545H281.295V37.4516H280.693V38.0545ZM280.693 39.3045V39.9074H281.295V39.3045H280.693ZM279.443 39.3045H278.84V39.9074H279.443V39.3045ZM279.443 44.3045V44.9074H280.693V44.3045V43.7016H279.443V44.3045ZM280.693 44.3045H280.09V46.8045H280.693H281.295V44.3045H280.693ZM280.693 46.8045V47.4074H285.693V46.8045V46.2016H280.693V46.8045ZM285.693 46.8045H285.09V48.0545H285.693H286.295V46.8045H285.693ZM285.693 48.0545V47.4516H279.443V48.0545V48.6574H285.693V48.0545ZM279.443 48.0545H280.045V44.3045H279.443H278.84V48.0545H279.443ZM280.693 44.3045H281.295V43.0545H280.693H280.09V44.3045H280.693ZM280.693 43.0545V43.6574H281.943V43.0545V42.4516H280.693V43.0545ZM281.943 43.0545H281.34V44.3045H281.943H282.545V43.0545H281.943ZM281.943 44.3045V43.7016H280.693V44.3045V44.9074H281.943V44.3045ZM281.943 41.8045V42.4074H283.193V41.8045V41.2016H281.943V41.8045ZM283.193 41.8045H282.59V43.0545H283.193H283.795V41.8045H283.193ZM283.193 43.0545V42.4516H281.943V43.0545V43.6574H283.193V43.0545ZM281.943 43.0545H282.545V41.8045H281.943H281.34V43.0545H281.943ZM283.193 40.5545V41.1574H284.443V40.5545V39.9516H283.193V40.5545ZM284.443 40.5545H283.84V41.8045H284.443H285.045V40.5545H284.443ZM284.443 41.8045V41.2016H283.193V41.8045V42.4074H284.443V41.8045ZM283.193 41.8045H283.795V40.5545H283.193H282.59V41.8045H283.193ZM284.443 38.0545V38.6574H285.693V38.0545V37.4516H284.443V38.0545ZM285.693 38.0545H285.09V40.5545H285.693H286.295V38.0545H285.693ZM285.693 40.5545V39.9516H284.443V40.5545V41.1574H285.693V40.5545ZM284.443 40.5545H285.045V38.0545H284.443H283.84V40.5545H284.443ZM280.693 36.8045V37.4074H284.443V36.8045V36.2016H280.693V36.8045ZM284.443 36.8045H283.84V38.0545H284.443H285.045V36.8045H284.443ZM284.443 38.0545V37.4516H280.693V38.0545V38.6574H284.443V38.0545ZM280.693 38.0545H281.295V36.8045H280.693H280.09V38.0545H280.693ZM279.443 38.0545V38.6574H280.693V38.0545V37.4516H279.443V38.0545ZM280.693 38.0545H280.09V39.3045H280.693H281.295V38.0545H280.693ZM280.693 39.3045V38.7016H279.443V39.3045V39.9074H280.693V39.3045ZM279.443 39.3045H280.045V38.0545H279.443H278.84V39.3045H279.443ZM289.443 45.5545V44.9516H288.84V45.5545H289.443ZM290.693 45.5545H291.295V44.9516H290.693V45.5545ZM290.693 46.8045V47.4074H291.295V46.8045H290.693ZM289.443 46.8045H288.84V47.4074H289.443V46.8045ZM290.693 46.8045V46.2016H290.09V46.8045H290.693ZM294.443 46.8045H295.045V46.2016H294.443V46.8045ZM294.443 48.0545V48.6574H295.045V48.0545H294.443ZM290.693 48.0545H290.09V48.6574H290.693V48.0545ZM294.443 41.8045V41.2016H293.84V41.8045H294.443ZM295.693 41.8045H296.295V41.2016H295.693V41.8045ZM295.693 46.8045V47.4074H296.295V46.8045H295.693ZM294.443 46.8045H293.84V47.4074H294.443V46.8045ZM289.443 36.8045V36.2016H288.84V36.8045H289.443ZM295.693 36.8045H296.295V36.2016H295.693V36.8045ZM295.693 38.0545V38.6574H296.295V38.0545H295.693ZM290.693 38.0545V37.4516H290.09V38.0545H290.693ZM290.693 40.5545H290.09V41.1574H290.693V40.5545ZM294.443 40.5545H295.045V39.9516H294.443V40.5545ZM294.443 41.8045V42.4074H295.045V41.8045H294.443ZM289.443 41.8045H288.84V42.4074H289.443V41.8045ZM289.443 45.5545V46.1574H290.693V45.5545V44.9516H289.443V45.5545ZM290.693 45.5545H290.09V46.8045H290.693H291.295V45.5545H290.693ZM290.693 46.8045V46.2016H289.443V46.8045V47.4074H290.693V46.8045ZM289.443 46.8045H290.045V45.5545H289.443H288.84V46.8045H289.443ZM290.693 46.8045V47.4074H294.443V46.8045V46.2016H290.693V46.8045ZM294.443 46.8045H293.84V48.0545H294.443H295.045V46.8045H294.443ZM294.443 48.0545V47.4516H290.693V48.0545V48.6574H294.443V48.0545ZM290.693 48.0545H291.295V46.8045H290.693H290.09V48.0545H290.693ZM294.443 41.8045V42.4074H295.693V41.8045V41.2016H294.443V41.8045ZM295.693 41.8045H295.09V46.8045H295.693H296.295V41.8045H295.693ZM295.693 46.8045V46.2016H294.443V46.8045V47.4074H295.693V46.8045ZM294.443 46.8045H295.045V41.8045H294.443H293.84V46.8045H294.443ZM289.443 36.8045V37.4074H295.693V36.8045V36.2016H289.443V36.8045ZM295.693 36.8045H295.09V38.0545H295.693H296.295V36.8045H295.693ZM295.693 38.0545V37.4516H290.693V38.0545V38.6574H295.693V38.0545ZM290.693 38.0545H290.09V40.5545H290.693H291.295V38.0545H290.693ZM290.693 40.5545V41.1574H294.443V40.5545V39.9516H290.693V40.5545ZM294.443 40.5545H293.84V41.8045H294.443H295.045V40.5545H294.443ZM294.443 41.8045V41.2016H289.443V41.8045V42.4074H294.443V41.8045ZM289.443 41.8045H290.045V36.8045H289.443H288.84V41.8045H289.443ZM299.443 45.5545V44.9516H298.84V45.5545H299.443ZM300.693 45.5545H301.295V44.9516H300.693V45.5545ZM300.693 48.0545V48.6574H301.295V48.0545H300.693ZM299.443 48.0545H298.84V48.6574H299.443V48.0545ZM300.693 44.3045V43.7016H300.09V44.3045H300.693ZM301.943 44.3045H302.545V43.7016H301.943V44.3045ZM301.943 45.5545V46.1574H302.545V45.5545H301.943ZM300.693 45.5545H300.09V46.1574H300.693V45.5545ZM301.943 43.0545V42.4516H301.34V43.0545H301.943ZM303.193 43.0545H303.795V42.4516H303.193V43.0545ZM303.193 44.3045V44.9074H303.795V44.3045H303.193ZM301.943 44.3045H301.34V44.9074H301.943V44.3045ZM303.193 41.8045V41.2016H302.59V41.8045H303.193ZM304.443 41.8045H305.045V41.2016H304.443V41.8045ZM304.443 43.0545V43.6574H305.045V43.0545H304.443ZM303.193 43.0545H302.59V43.6574H303.193V43.0545ZM304.443 39.3045V38.7016H303.84V39.3045H304.443ZM305.693 39.3045H306.295V38.7016H305.693V39.3045ZM305.693 41.8045V42.4074H306.295V41.8045H305.693ZM304.443 41.8045H303.84V42.4074H304.443V41.8045ZM304.443 45.5545V44.9516H303.84V45.5545H304.443ZM305.693 45.5545H306.295V44.9516H305.693V45.5545ZM305.693 48.0545V48.6574H306.295V48.0545H305.693ZM304.443 48.0545H303.84V48.6574H304.443V48.0545ZM303.193 44.3045V43.7016H302.59V44.3045H303.193ZM304.443 44.3045H305.045V43.7016H304.443V44.3045ZM304.443 45.5545V46.1574H305.045V45.5545H304.443ZM303.193 45.5545H302.59V46.1574H303.193V45.5545ZM300.693 41.8045V41.2016H300.09V41.8045H300.693ZM301.943 41.8045H302.545V41.2016H301.943V41.8045ZM301.943 43.0545V43.6574H302.545V43.0545H301.943ZM300.693 43.0545H300.09V43.6574H300.693V43.0545ZM299.443 39.3045V38.7016H298.84V39.3045H299.443ZM300.693 39.3045H301.295V38.7016H300.693V39.3045ZM300.693 41.8045V42.4074H301.295V41.8045H300.693ZM299.443 41.8045H298.84V42.4074H299.443V41.8045ZM299.443 45.5545V46.1574H300.693V45.5545V44.9516H299.443V45.5545ZM300.693 45.5545H300.09V48.0545H300.693H301.295V45.5545H300.693ZM300.693 48.0545V47.4516H299.443V48.0545V48.6574H300.693V48.0545ZM299.443 48.0545H300.045V45.5545H299.443H298.84V48.0545H299.443ZM300.693 44.3045V44.9074H301.943V44.3045V43.7016H300.693V44.3045ZM301.943 44.3045H301.34V45.5545H301.943H302.545V44.3045H301.943ZM301.943 45.5545V44.9516H300.693V45.5545V46.1574H301.943V45.5545ZM300.693 45.5545H301.295V44.3045H300.693H300.09V45.5545H300.693ZM301.943 43.0545V43.6574H303.193V43.0545V42.4516H301.943V43.0545ZM303.193 43.0545H302.59V44.3045H303.193H303.795V43.0545H303.193ZM303.193 44.3045V43.7016H301.943V44.3045V44.9074H303.193V44.3045ZM301.943 44.3045H302.545V43.0545H301.943H301.34V44.3045H301.943ZM303.193 41.8045V42.4074H304.443V41.8045V41.2016H303.193V41.8045ZM304.443 41.8045H303.84V43.0545H304.443H305.045V41.8045H304.443ZM304.443 43.0545V42.4516H303.193V43.0545V43.6574H304.443V43.0545ZM303.193 43.0545H303.795V41.8045H303.193H302.59V43.0545H303.193ZM304.443 39.3045V39.9074H305.693V39.3045V38.7016H304.443V39.3045ZM305.693 39.3045H305.09V41.8045H305.693H306.295V39.3045H305.693ZM305.693 41.8045V41.2016H304.443V41.8045V42.4074H305.693V41.8045ZM304.443 41.8045H305.045V39.3045H304.443H303.84V41.8045H304.443ZM304.443 45.5545V46.1574H305.693V45.5545V44.9516H304.443V45.5545ZM305.693 45.5545H305.09V48.0545H305.693H306.295V45.5545H305.693ZM305.693 48.0545V47.4516H304.443V48.0545V48.6574H305.693V48.0545ZM304.443 48.0545H305.045V45.5545H304.443H303.84V48.0545H304.443ZM303.193 44.3045V44.9074H304.443V44.3045V43.7016H303.193V44.3045ZM304.443 44.3045H303.84V45.5545H304.443H305.045V44.3045H304.443ZM304.443 45.5545V44.9516H303.193V45.5545V46.1574H304.443V45.5545ZM303.193 45.5545H303.795V44.3045H303.193H302.59V45.5545H303.193ZM300.693 41.8045V42.4074H301.943V41.8045V41.2016H300.693V41.8045ZM301.943 41.8045H301.34V43.0545H301.943H302.545V41.8045H301.943ZM301.943 43.0545V42.4516H300.693V43.0545V43.6574H301.943V43.0545ZM300.693 43.0545H301.295V41.8045H300.693H300.09V43.0545H300.693ZM299.443 39.3045V39.9074H300.693V39.3045V38.7016H299.443V39.3045ZM300.693 39.3045H300.09V41.8045H300.693H301.295V39.3045H300.693ZM300.693 41.8045V41.2016H299.443V41.8045V42.4074H300.693V41.8045ZM299.443 41.8045H300.045V39.3045H299.443H298.84V41.8045H299.443Z" fill="white" fill-opacity="0.1" mask="url(#path-11-outside-3_224_91)"/>
<defs>
<filter id="filter0_f_224_91" x="7.47516" y="7.9873" width="221.372" height="44.75" filterUnits="userSpaceOnUse" color-interpolation-filters="sRGB">
<feFlood flood-opacity="0" result="BackgroundImageFix"/>
<feBlend mode="normal" in="SourceGraphic" in2="BackgroundImageFix" result="shape"/>
<feGaussianBlur stdDeviation="2.5" result="effect1_foregroundBlur_224_91"/>
</filter>
</defs>
</svg>
