<svg width="128" height="136" viewBox="0 0 128 136" fill="none" xmlns="http://www.w3.org/2000/svg">
<mask id="path-1-inside-1_186_160" fill="white">
<path d="M0 5.21278C0 2.33385 2.33383 0 5.21277 0H121.979C124.858 0 127.191 2.33383 127.191 5.21277V130.319C127.191 133.198 124.858 135.532 121.979 135.532H5.21277C2.33384 135.532 0 133.198 0 130.319V5.21278Z"/>
</mask>
<path d="M0 5.21278C0 2.33385 2.33383 0 5.21277 0H121.979C124.858 0 127.191 2.33383 127.191 5.21277V130.319C127.191 133.198 124.858 135.532 121.979 135.532H5.21277C2.33384 135.532 0 133.198 0 130.319V5.21278Z" fill="#262626"/>
<path d="M0 5.21278C0 2.33385 2.33383 0 5.21277 0H121.979C124.858 0 127.191 2.33383 127.191 5.21277V130.319C127.191 133.198 124.858 135.532 121.979 135.532H5.21277C2.33384 135.532 0 133.198 0 130.319V5.21278Z" fill="url(#paint0_linear_186_160)" fill-opacity="0.5"/>
<path d="M0 5.21278C0 2.33385 2.33383 0 5.21277 0H121.979C124.858 0 127.191 2.33383 127.191 5.21277V130.319C127.191 133.198 124.858 135.532 121.979 135.532H5.21277C2.33384 135.532 0 133.198 0 130.319V5.21278Z" fill="url(#paint1_linear_186_160)" fill-opacity="0.2"/>
<path d="M0 5.21278C0 2.33385 2.33383 0 5.21277 0H121.979C124.858 0 127.191 2.33383 127.191 5.21277V130.319C127.191 133.198 124.858 135.532 121.979 135.532H5.21277C2.33384 135.532 0 133.198 0 130.319V5.21278Z" fill="url(#paint2_radial_186_160)" fill-opacity="0.1"/>
<path d="M0 5.21278C0 2.33385 2.33383 0 5.21277 0H121.979C124.858 0 127.191 2.33383 127.191 5.21277V130.319C127.191 133.198 124.858 135.532 121.979 135.532H5.21277C2.33384 135.532 0 133.198 0 130.319V5.21278Z" fill="url(#paint3_radial_186_160)" fill-opacity="0.1"/>
<path d="M5.21277 -0.5C5.21277 -0.166667 5.21277 0.166667 5.21277 0.5C13.8211 0.5 22.4294 0.5 31.0377 0.5C61.3514 0.5 91.665 0.5 121.979 0.5C124.488 0.43832 126.753 2.70299 126.691 5.21277C126.691 5.23644 126.691 5.26011 126.691 5.28378C126.691 30.3708 127.191 55.4579 127.191 80.545C127.191 97.1363 127.191 113.728 127.191 130.319C127.259 133.096 124.755 135.599 121.979 135.532C83.0567 135.532 44.1348 135.532 5.21277 135.532C2.43613 135.599 -0.0675125 133.096 0 130.319C0 114.924 0 99.5294 0 84.1345C0 63.706 0.0824941 43.2776 0.247482 22.8492C0.294962 16.9704 0.349273 11.0916 0.410416 5.21278C0.378223 2.65259 2.70525 0.404271 5.21277 0.5C5.21277 0.166667 5.21277 -0.166667 5.21277 -0.5C2.167 -0.539296 -0.513248 2.21969 -0.410416 5.21278C-0.349273 11.0916 -0.294962 16.9704 -0.247482 22.8492C-0.0824941 43.2776 0 63.706 0 84.1345C0 99.5294 0 114.924 0 130.319C-0.067513 133.096 2.43613 135.599 5.21277 135.532C44.1347 135.532 83.0567 135.532 121.979 135.532C124.755 135.599 127.259 133.096 127.191 130.319C127.191 113.728 127.191 97.1363 127.191 80.545C127.191 55.4579 127.691 30.3708 127.691 5.28378C127.691 5.26011 127.691 5.23644 127.691 5.21277C127.765 2.16926 125.022 -0.573345 121.979 -0.5C91.665 -0.5 61.3514 -0.5 31.0377 -0.5C22.4294 -0.5 13.8211 -0.5 5.21277 -0.5ZM5.21277 0.5V-0.5V0.5Z" fill="white" fill-opacity="0.5" mask="url(#path-1-inside-1_186_160)"/>
<g filter="url(#filter0_i_186_160)">
<path d="M78.9415 47C78.9415 45.8954 79.8369 45 80.9415 45L83 45C84.1046 45 85 45.8954 85 47L85 88.5C85 89.6046 84.1046 90.5 83 90.5L80.9415 90.5C79.8369 90.5 78.9415 89.6046 78.9415 88.5L78.9415 47Z" fill="white"/>
<path d="M43.1915 49.0893C43.1915 47.425 45.1057 46.4888 46.4194 47.5106L70.4117 66.1713C71.4412 66.972 71.4412 68.528 70.4117 69.3287L46.4194 87.9894C45.1057 89.0112 43.1915 88.075 43.1915 86.4107L43.1915 49.0893Z" fill="white"/>
</g>
<defs>
<filter id="filter0_i_186_160" x="43.1914" y="45" width="41.8086" height="47.5" filterUnits="userSpaceOnUse" color-interpolation-filters="sRGB">
<feFlood flood-opacity="0" result="BackgroundImageFix"/>
<feBlend mode="normal" in="SourceGraphic" in2="BackgroundImageFix" result="shape"/>
<feColorMatrix in="SourceAlpha" type="matrix" values="0 0 0 0 0 0 0 0 0 0 0 0 0 0 0 0 0 0 127 0" result="hardAlpha"/>
<feOffset dy="2"/>
<feGaussianBlur stdDeviation="1.5"/>
<feComposite in2="hardAlpha" operator="arithmetic" k2="-1" k3="1"/>
<feColorMatrix type="matrix" values="0 0 0 0 0 0 0 0 0 0 0 0 0 0 0 0 0 0 0.35 0"/>
<feBlend mode="normal" in2="shape" result="effect1_innerShadow_186_160"/>
</filter>
<linearGradient id="paint0_linear_186_160" x1="63.5957" y1="24" x2="63.5957" y2="-6.5" gradientUnits="userSpaceOnUse">
<stop offset="0.480769" stop-opacity="0"/>
<stop offset="0.65"/>
</linearGradient>
<linearGradient id="paint1_linear_186_160" x1="63.5957" y1="112.5" x2="63.5957" y2="135.532" gradientUnits="userSpaceOnUse">
<stop offset="0.399038" stop-opacity="0"/>
<stop offset="0.903846" stop-color="white"/>
</linearGradient>
<radialGradient id="paint2_radial_186_160" cx="0" cy="0" r="1" gradientUnits="userSpaceOnUse" gradientTransform="translate(127 136) rotate(164.83) scale(147.127 70.455)">
<stop stop-color="white"/>
<stop offset="1" stop-opacity="0"/>
</radialGradient>
<radialGradient id="paint3_radial_186_160" cx="0" cy="0" r="1" gradientUnits="userSpaceOnUse" gradientTransform="translate(63.8086 -8.5) rotate(90) scale(102.5 205.493)">
<stop stop-color="white"/>
<stop offset="1" stop-opacity="0"/>
</radialGradient>
</defs>
</svg>
