<svg width="128" height="136" viewBox="0 0 128 136" fill="none" xmlns="http://www.w3.org/2000/svg">
<mask id="path-1-inside-1_186_33" fill="white">
<path d="M0 5.21278C0 2.33385 2.33383 0 5.21277 0H121.979C124.858 0 127.191 2.33383 127.191 5.21277V130.319C127.191 133.198 124.858 135.532 121.979 135.532H5.21277C2.33384 135.532 0 133.198 0 130.319V5.21278Z"/>
</mask>
<path d="M0 5.21278C0 2.33385 2.33383 0 5.21277 0H121.979C124.858 0 127.191 2.33383 127.191 5.21277V130.319C127.191 133.198 124.858 135.532 121.979 135.532H5.21277C2.33384 135.532 0 133.198 0 130.319V5.21278Z" fill="#262626"/>
<path d="M0 5.21278C0 2.33385 2.33383 0 5.21277 0H121.979C124.858 0 127.191 2.33383 127.191 5.21277V130.319C127.191 133.198 124.858 135.532 121.979 135.532H5.21277C2.33384 135.532 0 133.198 0 130.319V5.21278Z" fill="url(#paint0_linear_186_33)" fill-opacity="0.5"/>
<path d="M0 5.21278C0 2.33385 2.33383 0 5.21277 0H121.979C124.858 0 127.191 2.33383 127.191 5.21277V130.319C127.191 133.198 124.858 135.532 121.979 135.532H5.21277C2.33384 135.532 0 133.198 0 130.319V5.21278Z" fill="url(#paint1_linear_186_33)" fill-opacity="0.2"/>
<path d="M0 5.21278C0 2.33385 2.33383 0 5.21277 0H121.979C124.858 0 127.191 2.33383 127.191 5.21277V130.319C127.191 133.198 124.858 135.532 121.979 135.532H5.21277C2.33384 135.532 0 133.198 0 130.319V5.21278Z" fill="url(#paint2_radial_186_33)" fill-opacity="0.1"/>
<path d="M0 5.21278C0 2.33385 2.33383 0 5.21277 0H121.979C124.858 0 127.191 2.33383 127.191 5.21277V130.319C127.191 133.198 124.858 135.532 121.979 135.532H5.21277C2.33384 135.532 0 133.198 0 130.319V5.21278Z" fill="url(#paint3_radial_186_33)" fill-opacity="0.1"/>
<path d="M5.21277 -0.5C5.21277 -0.166667 5.21277 0.166667 5.21277 0.5C13.8211 0.5 22.4294 0.5 31.0377 0.5C61.3514 0.5 91.665 0.5 121.979 0.5C124.488 0.43832 126.753 2.70299 126.691 5.21277C126.691 5.23644 126.691 5.26011 126.691 5.28378C126.691 30.3708 127.191 55.4579 127.191 80.545C127.191 97.1363 127.191 113.728 127.191 130.319C127.259 133.096 124.755 135.599 121.979 135.532C83.0567 135.532 44.1348 135.532 5.21277 135.532C2.43613 135.599 -0.0675125 133.096 0 130.319C0 114.924 0 99.5293 0 84.1345C0 63.706 0.0824941 43.2776 0.247482 22.8492C0.294962 16.9704 0.349273 11.0916 0.410416 5.21278C0.378223 2.65259 2.70525 0.404271 5.21277 0.5C5.21277 0.166667 5.21277 -0.166667 5.21277 -0.5C2.167 -0.539296 -0.513248 2.21969 -0.410416 5.21278C-0.349273 11.0916 -0.294962 16.9704 -0.247482 22.8492C-0.0824941 43.2776 0 63.706 0 84.1345C0 99.5293 0 114.924 0 130.319C-0.067513 133.096 2.43613 135.599 5.21277 135.532C44.1347 135.532 83.0567 135.532 121.979 135.532C124.755 135.599 127.259 133.096 127.191 130.319C127.191 113.728 127.191 97.1363 127.191 80.545C127.191 55.4579 127.691 30.3708 127.691 5.28378C127.691 5.26011 127.691 5.23644 127.691 5.21277C127.765 2.16926 125.022 -0.573345 121.979 -0.5C91.665 -0.5 61.3514 -0.5 31.0377 -0.5C22.4294 -0.5 13.8211 -0.5 5.21277 -0.5ZM5.21277 0.5V-0.5V0.5Z" fill="white" fill-opacity="0.5" mask="url(#path-1-inside-1_186_33)"/>
<g filter="url(#filter0_i_186_33)">
<path d="M70.75 49.5893C70.75 47.925 72.6642 46.9888 73.9779 48.0106L97.9702 66.6713C98.9997 67.472 98.9997 69.028 97.9702 69.8287L73.9779 88.4894C72.6642 89.5112 70.75 88.575 70.75 86.9107L70.75 49.5893Z" fill="white"/>
<path d="M35 49.5893C35 47.925 36.9142 46.9888 38.2279 48.0106L62.2202 66.6713C63.2497 67.472 63.2497 69.028 62.2202 69.8287L38.2279 88.4894C36.9142 89.5112 35 88.575 35 86.9107L35 49.5893Z" fill="white"/>
</g>
<defs>
<filter id="filter0_i_186_33" x="35" y="47.5856" width="63.7422" height="43.3289" filterUnits="userSpaceOnUse" color-interpolation-filters="sRGB">
<feFlood flood-opacity="0" result="BackgroundImageFix"/>
<feBlend mode="normal" in="SourceGraphic" in2="BackgroundImageFix" result="shape"/>
<feColorMatrix in="SourceAlpha" type="matrix" values="0 0 0 0 0 0 0 0 0 0 0 0 0 0 0 0 0 0 127 0" result="hardAlpha"/>
<feOffset dy="2"/>
<feGaussianBlur stdDeviation="1.5"/>
<feComposite in2="hardAlpha" operator="arithmetic" k2="-1" k3="1"/>
<feColorMatrix type="matrix" values="0 0 0 0 0 0 0 0 0 0 0 0 0 0 0 0 0 0 0.35 0"/>
<feBlend mode="normal" in2="shape" result="effect1_innerShadow_186_33"/>
</filter>
<linearGradient id="paint0_linear_186_33" x1="63.5957" y1="24" x2="63.5957" y2="-6.5" gradientUnits="userSpaceOnUse">
<stop offset="0.480769" stop-opacity="0"/>
<stop offset="0.65"/>
</linearGradient>
<linearGradient id="paint1_linear_186_33" x1="63.5957" y1="112.5" x2="63.5957" y2="135.532" gradientUnits="userSpaceOnUse">
<stop offset="0.399038" stop-opacity="0"/>
<stop offset="0.903846" stop-color="white"/>
</linearGradient>
<radialGradient id="paint2_radial_186_33" cx="0" cy="0" r="1" gradientUnits="userSpaceOnUse" gradientTransform="translate(127 136) rotate(164.83) scale(147.127 70.455)">
<stop stop-color="white"/>
<stop offset="1" stop-opacity="0"/>
</radialGradient>
<radialGradient id="paint3_radial_186_33" cx="0" cy="0" r="1" gradientUnits="userSpaceOnUse" gradientTransform="translate(63.8086 -8.5) rotate(90) scale(102.5 205.493)">
<stop stop-color="white"/>
<stop offset="1" stop-opacity="0"/>
</radialGradient>
</defs>
</svg>
