<svg width="339" height="514" viewBox="0 0 339 514" fill="none" xmlns="http://www.w3.org/2000/svg">
<mask id="path-1-inside-1_184_23" fill="white">
<path d="M0 5.21278C0 2.33385 2.33383 0 5.21277 0H333.421C336.3 0 338.634 2.33383 338.634 5.21277V508.207C338.634 511.086 336.3 513.42 333.421 513.42H5.21278C2.33385 513.42 0 511.086 0 508.207V5.21278Z"/>
</mask>
<path d="M0 5.21278C0 2.33385 2.33383 0 5.21277 0H333.421C336.3 0 338.634 2.33383 338.634 5.21277V508.207C338.634 511.086 336.3 513.42 333.421 513.42H5.21278C2.33385 513.42 0 511.086 0 508.207V5.21278Z" fill="#262626"/>
<path d="M0 5.21278C0 2.33385 2.33383 0 5.21277 0H333.421C336.3 0 338.634 2.33383 338.634 5.21277V508.207C338.634 511.086 336.3 513.42 333.421 513.42H5.21278C2.33385 513.42 0 511.086 0 508.207V5.21278Z" fill="url(#paint0_linear_184_23)" fill-opacity="0.2"/>
<path d="M0 5.21278C0 2.33385 2.33383 0 5.21277 0H333.421C336.3 0 338.634 2.33383 338.634 5.21277V508.207C338.634 511.086 336.3 513.42 333.421 513.42H5.21278C2.33385 513.42 0 511.086 0 508.207V5.21278Z" fill="url(#paint1_linear_184_23)" fill-opacity="0.2"/>
<path d="M0 5.21278C0 2.33385 2.33383 0 5.21277 0H333.421C336.3 0 338.634 2.33383 338.634 5.21277V508.207C338.634 511.086 336.3 513.42 333.421 513.42H5.21278C2.33385 513.42 0 511.086 0 508.207V5.21278Z" fill="url(#paint2_radial_184_23)" fill-opacity="0.1"/>
<path d="M0 5.21278C0 2.33385 2.33383 0 5.21277 0H333.421C336.3 0 338.634 2.33383 338.634 5.21277V508.207C338.634 511.086 336.3 513.42 333.421 513.42H5.21278C2.33385 513.42 0 511.086 0 508.207V5.21278Z" fill="url(#paint3_radial_184_23)" fill-opacity="0.1"/>
<path d="M5.21277 -0.35C5.21277 -0.116667 5.21277 0.116667 5.21277 0.35C33.4654 0.301803 61.7181 0.258584 89.9708 0.220343C171.121 0.110502 252.271 0.0417281 333.421 0.0140206C336.19 -0.0543405 338.689 2.44211 338.623 5.21277C338.63 29.8592 338.634 54.5056 338.634 79.1519C338.634 98.4019 338.634 117.652 338.634 136.902C338.634 260.67 338.299 384.439 338.285 508.207C338.348 510.797 336.011 513.133 333.421 513.07C224.019 513.07 114.616 513.261 5.21278 513.361C2.4679 513.43 -0.0125099 510.956 0.051839 508.207C0.0206151 472.272 0 436.337 0 400.402C0 294.195 0.145579 187.989 0.436736 81.7822C0.506706 56.2591 0.585084 30.7359 0.671869 5.21278C0.622219 2.79396 2.81048 0.630398 5.21277 0.7C5.21277 0.233333 5.21277 -0.233333 5.21277 -0.7C2.06176 -0.765423 -0.757243 2.07832 -0.671869 5.21278C-0.585084 30.7359 -0.506706 56.2591 -0.436736 81.7822C-0.145579 187.989 0 294.195 0 400.402C0 436.337 -0.0206151 472.272 -0.051839 508.207C-0.122514 511.011 2.40439 513.544 5.21278 513.479C114.616 513.579 224.019 513.77 333.421 513.77C336.385 513.841 339.056 511.17 338.984 508.207C338.969 384.439 338.634 260.67 338.634 136.902C338.634 117.652 338.634 98.4019 338.634 79.1519C338.634 54.5056 338.638 29.8592 338.646 5.21277C338.714 2.43014 336.206 -0.0806833 333.421 -0.0140206C252.271 -0.0417281 171.121 -0.110502 89.9708 -0.220343C61.7181 -0.258584 33.4654 -0.301803 5.21277 -0.35ZM5.21277 0.35V-0.35V-0.7V0.7V0.35Z" fill="white" fill-opacity="0.5" mask="url(#path-1-inside-1_184_23)"/>
<defs>
<linearGradient id="paint0_linear_184_23" x1="169.317" y1="90.9164" x2="169.317" y2="-24.6232" gradientUnits="userSpaceOnUse">
<stop offset="0.480769" stop-opacity="0"/>
<stop offset="0.65"/>
</linearGradient>
<linearGradient id="paint1_linear_184_23" x1="169.317" y1="505.112" x2="169.317" y2="513.42" gradientUnits="userSpaceOnUse">
<stop offset="0.399038" stop-opacity="0"/>
<stop offset="0.903846" stop-color="white"/>
</linearGradient>
<radialGradient id="paint2_radial_184_23" cx="0" cy="0" r="1" gradientTransform="matrix(-536.027 249.945 -96.3645 -191.134 338.634 487.25)" gradientUnits="userSpaceOnUse">
<stop stop-color="white"/>
<stop offset="1" stop-opacity="0"/>
</radialGradient>
<radialGradient id="paint3_radial_184_23" cx="0" cy="0" r="1" gradientTransform="matrix(105.165 342.831 -483.054 299.987 14.6432 -2.46243e-05)" gradientUnits="userSpaceOnUse">
<stop stop-color="white"/>
<stop offset="1" stop-opacity="0"/>
</radialGradient>
</defs>
</svg>
