<svg width="392" height="618" viewBox="0 0 392 618" fill="none" xmlns="http://www.w3.org/2000/svg">
<mask id="path-1-inside-1_184_34" fill="white">
<path d="M0 5.21276C0 2.33383 2.33383 0 5.21277 0H386.787C389.666 0 392 2.33384 392 5.21277V612.787C392 615.666 389.666 618 386.787 618H5.21276C2.33383 618 0 615.666 0 612.787V5.21276Z"/>
</mask>
<path d="M0 5.21276C0 2.33383 2.33383 0 5.21277 0H386.787C389.666 0 392 2.33384 392 5.21277V612.787C392 615.666 389.666 618 386.787 618H5.21276C2.33383 618 0 615.666 0 612.787V5.21276Z" fill="#262626"/>
<path d="M0 5.21276C0 2.33383 2.33383 0 5.21277 0H386.787C389.666 0 392 2.33384 392 5.21277V612.787C392 615.666 389.666 618 386.787 618H5.21276C2.33383 618 0 615.666 0 612.787V5.21276Z" fill="url(#paint0_linear_184_34)" fill-opacity="0.2"/>
<path d="M0 5.21276C0 2.33383 2.33383 0 5.21277 0H386.787C389.666 0 392 2.33384 392 5.21277V612.787C392 615.666 389.666 618 386.787 618H5.21276C2.33383 618 0 615.666 0 612.787V5.21276Z" fill="url(#paint1_linear_184_34)" fill-opacity="0.2"/>
<path d="M0 5.21276C0 2.33383 2.33383 0 5.21277 0H386.787C389.666 0 392 2.33384 392 5.21277V612.787C392 615.666 389.666 618 386.787 618H5.21276C2.33383 618 0 615.666 0 612.787V5.21276Z" fill="url(#paint2_radial_184_34)" fill-opacity="0.1"/>
<path d="M0 5.21276C0 2.33383 2.33383 0 5.21277 0H386.787C389.666 0 392 2.33384 392 5.21277V612.787C392 615.666 389.666 618 386.787 618H5.21276C2.33383 618 0 615.666 0 612.787V5.21276Z" fill="url(#paint3_radial_184_34)" fill-opacity="0.1"/>
<path d="M5.21277 -0.35C5.21277 -0.116667 5.21277 0.116667 5.21277 0.35C38.7303 0.301803 72.2478 0.258584 105.765 0.220343C199.439 0.113467 293.113 0.0454707 386.787 0.016354C389.555 -0.0518904 392.053 2.44348 391.986 5.21277C391.995 37.5592 392 69.9056 392 102.252C392 125.089 392 147.926 392 170.763C392 318.105 391.663 465.446 391.65 612.787C391.714 615.377 389.377 617.713 386.787 617.65C259.596 617.65 132.404 617.833 5.21276 617.935C2.47111 618.004 -0.00573539 615.533 0.0588315 612.787C0.0237297 567.048 0 521.31 0 475.571C0 349.573 0.145579 223.575 0.436736 97.5768C0.507882 66.7888 0.587719 36.0008 0.676249 5.21276C0.625104 2.7964 2.81037 0.63201 5.21277 0.7C5.21277 0.233333 5.21277 -0.233333 5.21277 -0.7C2.06189 -0.767037 -0.760131 2.07585 -0.676249 5.21276C-0.587719 36.0008 -0.507882 66.7888 -0.436736 97.5768C-0.145579 223.575 0 349.573 0 475.571C0 521.31 -0.0237297 567.048 -0.0588315 612.787C-0.129293 615.595 2.40113 618.131 5.21276 618.065C132.404 618.167 259.596 618.35 386.787 618.35C389.751 618.422 392.422 615.75 392.35 612.787C392.337 465.446 392 318.105 392 170.763C392 147.926 392 125.089 392 102.252C392 69.9056 392.005 37.5592 392.014 5.21277C392.082 2.42878 389.573 -0.0831377 386.787 -0.016354C293.113 -0.0454707 199.439 -0.113467 105.765 -0.220343C72.2478 -0.258584 38.7303 -0.301803 5.21277 -0.35ZM5.21277 0.35V-0.35V-0.7V0.7V0.35Z" fill="white" fill-opacity="0.5" mask="url(#path-1-inside-1_184_34)"/>
<defs>
<linearGradient id="paint0_linear_184_34" x1="196" y1="109.435" x2="196" y2="-29.6388" gradientUnits="userSpaceOnUse">
<stop offset="0.480769" stop-opacity="0"/>
<stop offset="0.65"/>
</linearGradient>
<linearGradient id="paint1_linear_184_34" x1="196" y1="608" x2="196" y2="618" gradientUnits="userSpaceOnUse">
<stop offset="0.399038" stop-opacity="0"/>
<stop offset="0.903846" stop-color="white"/>
</linearGradient>
<radialGradient id="paint2_radial_184_34" cx="0" cy="0" r="1" gradientUnits="userSpaceOnUse" gradientTransform="translate(392 586.5) rotate(154.133) scale(689.591 255.684)">
<stop stop-color="white"/>
<stop offset="1" stop-opacity="0"/>
</radialGradient>
<radialGradient id="paint3_radial_184_34" cx="0" cy="0" r="1" gradientTransform="matrix(121.738 412.663 -559.179 361.092 16.9508 -2.96401e-05)" gradientUnits="userSpaceOnUse">
<stop stop-color="white"/>
<stop offset="1" stop-opacity="0"/>
</radialGradient>
</defs>
</svg>
