<svg width="128" height="136" viewBox="0 0 128 136" fill="none" xmlns="http://www.w3.org/2000/svg">
<mask id="path-1-inside-1_186_30" fill="white">
<path d="M127.191 5.21278C127.191 2.33385 124.858 0 121.979 0H5.2127C2.33377 0 -7.62939e-05 2.33383 -7.62939e-05 5.21277V130.319C-7.62939e-05 133.198 2.33376 135.532 5.21269 135.532H121.979C124.858 135.532 127.191 133.198 127.191 130.319V5.21278Z"/>
</mask>
<path d="M127.191 5.21278C127.191 2.33385 124.858 0 121.979 0H5.2127C2.33377 0 -7.62939e-05 2.33383 -7.62939e-05 5.21277V130.319C-7.62939e-05 133.198 2.33376 135.532 5.21269 135.532H121.979C124.858 135.532 127.191 133.198 127.191 130.319V5.21278Z" fill="#262626"/>
<path d="M127.191 5.21278C127.191 2.33385 124.858 0 121.979 0H5.2127C2.33377 0 -7.62939e-05 2.33383 -7.62939e-05 5.21277V130.319C-7.62939e-05 133.198 2.33376 135.532 5.21269 135.532H121.979C124.858 135.532 127.191 133.198 127.191 130.319V5.21278Z" fill="url(#paint0_linear_186_30)" fill-opacity="0.5"/>
<path d="M127.191 5.21278C127.191 2.33385 124.858 0 121.979 0H5.2127C2.33377 0 -7.62939e-05 2.33383 -7.62939e-05 5.21277V130.319C-7.62939e-05 133.198 2.33376 135.532 5.21269 135.532H121.979C124.858 135.532 127.191 133.198 127.191 130.319V5.21278Z" fill="url(#paint1_linear_186_30)" fill-opacity="0.2"/>
<path d="M127.191 5.21278C127.191 2.33385 124.858 0 121.979 0H5.2127C2.33377 0 -7.62939e-05 2.33383 -7.62939e-05 5.21277V130.319C-7.62939e-05 133.198 2.33376 135.532 5.21269 135.532H121.979C124.858 135.532 127.191 133.198 127.191 130.319V5.21278Z" fill="url(#paint2_radial_186_30)" fill-opacity="0.1"/>
<path d="M127.191 5.21278C127.191 2.33385 124.858 0 121.979 0H5.2127C2.33377 0 -7.62939e-05 2.33383 -7.62939e-05 5.21277V130.319C-7.62939e-05 133.198 2.33376 135.532 5.21269 135.532H121.979C124.858 135.532 127.191 133.198 127.191 130.319V5.21278Z" fill="url(#paint3_radial_186_30)" fill-opacity="0.1"/>
<path d="M121.979 -0.35C121.979 -0.116667 121.979 0.116667 121.979 0.35C113.37 0.301803 104.762 0.258584 96.1537 0.220343C65.84 0.0856783 35.5264 0.0127398 5.2127 0.0015275C2.43686 -0.0671153 -0.0676357 2.43603 -7.6181e-05 5.21277C-7.62563e-05 5.23644 -7.62939e-05 5.26011 -7.62939e-05 5.28378C-7.62939e-05 11.149 -7.62939e-05 17.0143 -7.62939e-05 22.8796C-7.62939e-05 58.6928 0.302107 94.5059 0.344906 130.319C0.285142 132.912 2.62319 135.245 5.21269 135.182C5.21269 135.182 5.21269 135.182 5.21269 135.182C44.1347 135.182 83.0566 135.442 121.979 135.514C124.745 135.587 127.25 133.093 127.186 130.319C127.189 126.856 127.191 123.393 127.191 119.929C127.191 87.5694 127.046 55.2093 126.755 22.8492C126.702 16.9704 126.644 11.0916 126.582 5.21278C126.611 2.75906 124.379 0.606915 121.979 0.7C121.979 0.233333 121.979 -0.233333 121.979 -0.7C125.131 -0.74194 127.907 2.11322 127.801 5.21278C127.739 11.0916 127.681 16.9704 127.628 22.8492C127.337 55.2093 127.191 87.5694 127.191 119.929C127.191 123.393 127.193 126.856 127.197 130.319C127.268 133.098 124.765 135.612 121.979 135.55C83.0567 135.621 44.1347 135.882 5.21269 135.882C5.21269 135.882 5.21269 135.882 5.21269 135.882C2.2489 135.954 -0.420319 133.28 -0.345059 130.319C-0.302259 94.5059 -7.62939e-05 58.6928 -7.62939e-05 22.8796C-7.62939e-05 17.0143 -7.62939e-05 11.149 -7.62939e-05 5.28378C-7.62939e-05 5.26011 -7.63316e-05 5.23644 -7.64069e-05 5.21277C-0.0675424 2.43622 2.43526 -0.0679101 5.2127 -0.0015275C35.5264 -0.0127398 65.84 -0.0856783 96.1537 -0.220343C104.762 -0.258584 113.37 -0.301803 121.979 -0.35ZM121.979 0.35V-0.35V-0.7V0.7V0.35Z" fill="white" fill-opacity="0.5" mask="url(#path-1-inside-1_186_30)"/>
<g filter="url(#filter0_i_186_30)">
<path d="M58.25 85.4107C58.25 87.075 56.3358 88.0112 55.0221 86.9894L31.0298 68.3287C30.0003 67.528 30.0003 65.972 31.0298 65.1713L55.0221 46.5106C56.3358 45.4888 58.25 46.425 58.25 48.0893V85.4107Z" fill="white"/>
<path d="M94 85.4107C94 87.075 92.0858 88.0112 90.7721 86.9894L66.7798 68.3287C65.7503 67.528 65.7503 65.972 66.7798 65.1713L90.7721 46.5106C92.0858 45.4888 94 46.425 94 48.0893V85.4107Z" fill="white"/>
</g>
<defs>
<filter id="filter0_i_186_30" x="30.2578" y="46.0856" width="63.7422" height="43.3289" filterUnits="userSpaceOnUse" color-interpolation-filters="sRGB">
<feFlood flood-opacity="0" result="BackgroundImageFix"/>
<feBlend mode="normal" in="SourceGraphic" in2="BackgroundImageFix" result="shape"/>
<feColorMatrix in="SourceAlpha" type="matrix" values="0 0 0 0 0 0 0 0 0 0 0 0 0 0 0 0 0 0 127 0" result="hardAlpha"/>
<feOffset dy="2"/>
<feGaussianBlur stdDeviation="1.5"/>
<feComposite in2="hardAlpha" operator="arithmetic" k2="-1" k3="1"/>
<feColorMatrix type="matrix" values="0 0 0 0 0 0 0 0 0 0 0 0 0 0 0 0 0 0 0.35 0"/>
<feBlend mode="normal" in2="shape" result="effect1_innerShadow_186_30"/>
</filter>
<linearGradient id="paint0_linear_186_30" x1="63.5957" y1="24" x2="63.5957" y2="-6.5" gradientUnits="userSpaceOnUse">
<stop offset="0.480769" stop-opacity="0"/>
<stop offset="0.65"/>
</linearGradient>
<linearGradient id="paint1_linear_186_30" x1="63.5957" y1="112.5" x2="63.5957" y2="135.532" gradientUnits="userSpaceOnUse">
<stop offset="0.399038" stop-opacity="0"/>
<stop offset="0.903846" stop-color="white"/>
</linearGradient>
<radialGradient id="paint2_radial_186_30" cx="0" cy="0" r="1" gradientUnits="userSpaceOnUse" gradientTransform="translate(0.191415 136) rotate(15.1697) scale(147.127 70.455)">
<stop stop-color="white"/>
<stop offset="1" stop-opacity="0"/>
</radialGradient>
<radialGradient id="paint3_radial_186_30" cx="0" cy="0" r="1" gradientUnits="userSpaceOnUse" gradientTransform="translate(121.691 -6.50029e-06) rotate(113.58) scale(98.7446 197.965)">
<stop stop-color="white"/>
<stop offset="1" stop-opacity="0"/>
</radialGradient>
</defs>
</svg>
