<?xml version="1.0" encoding="UTF-8"?>
<svg id="Layer_1" data-name="Layer 1" xmlns="http://www.w3.org/2000/svg" viewBox="0 0 389.38 177.73">
  <defs>
    <style>
      .cls-1 {
        fill: #221f20;
      }
    </style>
  </defs>
  <g>
    <path d="M109.8,144.6c.6-.94,14.82-23.27,7.74-42.41-.1-.26-.19-.51-.29-.77-1.82-3.34-3.75-6.85-5.96-9.56-2-2.27-5.13-3.48-8.2-2.81,2.73-1.38,6.22-.51,8.46,1.44.6.57,1.15,1.19,1.65,1.83-5.01-9.61-11.32-16.47-18.84-20.45-1.87-.99-3.73-1.77-5.54-2.36,0,.59-.13,1.17-.48,1.7-.03.05-.07.11-.11.17-.07.11-.2.29-.24.4.04.02.11.06.16.08.1.05.22.12.33.21.4.29.62.71.64,1.21.05.94-.6,1.89-1.18,2.42-3.71,3.41-9.29,4.86-17.07,4.42-1.31-.07-2.66-.19-3.95-.3-4.37-.36-8.88-.74-13.12.27-3.42,7.02-11.93,11-19.51,9.08-1.71-.44-3.56-1.41-4.41-2.94-1.77,2.07-5.96,4.71-6.18,4.85-1.11.69-4.03,2.18-6.65,2.51-.98.13-1.91.09-2.69-.2-.92-.35-1.56-1.06-1.85-2.03-.12-.41-.15-.82-.13-1.23-.95.93-1.86,1.88-2.72,2.85-.31.36-.62.73-.92,1.1-7.77,9.82-12.96,27.99-4.23,49.52,6.11,15.06,17.11,25.37,28.69,26.88,13.62,1.79,20.93-1.33,24.66-4.26,3.28-2.57,4.45-5.46,4.77-6.45-2.08-1.79-4.35-2.38-4.52-2.4-9.73-1.18-14.86.97-14.86.97,1.41-1.33,3.84-2.03,6.37-2.36,3.58-.46,7.39-.17,8.78.17.36.09,8.77,2.22,8.9,11.22.07,4.87.95,8.18,2.55,9.57.76.66,1.68.91,2.81.76,7.16-.92,7.26-10.77,7.13-13.8-.05-.52-.06-.86-.06-.92-.01-.33.25-.62.58-.64.33-.02.63.22.66.55,0,.04.04.38.06.92.19,2,.92,6.83,3.55,8.75,1.16.84,2.54,1.01,4.21.52,1.68-.5,2.89-1.47,3.61-2.91,2.04-4.11-.45-10.67-.48-10.73-.12-.32.03-.67.34-.81.32-.13.67.02.81.33.05.12,5.14,11.71,10.67,9.54,1.01-.39,1.68-1.07,2.06-2.07,1.2-3.19-1.04-8.51-1.87-10.28-.17-.34-.27-.57-.31-.63-.14-.31,0-.67.3-.82.3-.15.67-.03.83.27.02.05.14.26.3.61,1.12,2.2,5.35,9.78,9.63,8.02,2.03-.84,3.19-2,3.53-3.54.96-4.3-4.74-10.53-7.18-13.2-1.37-1.51-1.62-1.77-1.29-2.27ZM24.74,120.85c.1,2.5.91,4.98.93,7.49-.52-1.94-1.32-3.9-1.75-5.85-1.35-6.06.87-12.95,5.82-16.77-3.41,4.3-5.34,9.65-5,15.13ZM56.35,137.71c-9.68,2.92-19.9-2.57-22.82-12.26-4.2-13.93.92-21.52,13.43-20.94,11.87.56,18.84-3.97,21.65,10.37,1.94,9.93-2.57,19.91-12.26,22.82ZM77.63,115.21c1.77,3.95,4.32,7.35,7.8,9.92.48.39,1.03.73,1.51,1.18-5.21-.78-9.61-5.78-9.31-11.1ZM86.28,136.12c-.89-.26-1.85.03-2.46.73-2.06,2.38-6.08,8.39-6.74,3.25-.36-2.83.15-7.09,1.49-10.09.91-2.02,2.2-3.47,3.85-3.54,4.58-.18,8.1,4.4,9.4,8,2.29,4.66-3.01,2.4-5.54,1.65ZM101.56,123.93c-8.64,2.61-17.77-2.29-20.37-10.94-3.88-12.89,1.09-15.6,10.94-20.37,8.13-3.93,15.28-2.3,19.16,10.58,2.61,8.64-1.08,18.13-9.73,20.73Z"/>
    <path d="M87.32,70.91c-.22-.11-.52-.27-.69-.61-.35-.67.08-1.3.34-1.67l.09-.13c.27-.42.31-.92.2-1.43-.12-.56-.45-1.12-.88-1.53-.07-.07-.15-.13-.23-.2-1.11-.84-2.64-1.07-3.99-1.27l-12.95-1.93c-2.37-.35-5.31-.8-7.42-2.66-.22-.19-.42-.39-.61-.6.47,1.94.9,3.89,1.32,5.86.09.41.17.82.26,1.23.08.37.16.74.23,1.12-.27-.34-.52-.69-.74-1.06-.23-.38-.43-.78-.6-1.18-.49-1.12-.82-2.32-1.11-3.49-.52-1.99-.98-4-1.45-6-.06-.25-.11-.5-.17-.76,0,0,0,0,0-.01-.26-.84-.49-1.72-.71-2.64l-4.76-15.64c-.37-1.53-1.09-3.37-2.45-3.43-.01,0-.04,0-.07,0-.89,0-1.7.78-2.48,1.54l-.19.19c-5.43,5.26-14.31,6.62-22.63,3.5-.3-.11-.6-.23-.89-.35-1.05-.41-2.03-.8-3.08-.95-.68-.09-1.34-.05-1.91.11-1.29.57-2.16,1.47-2.23,3.21-.12,2.89,1.52,5.84,2.97,8.45.16.29.32.57.47.85,1.54,2.82,2.09,5.65,2.68,8.65l.17.87c.31,1.57.64,3.23.86,4.92.32,2.48.4,5.04-.15,7.54-.69,3.1-2.4,6.19-4.97,8.97-.25.27-.51.54-.77.8-.25.25-.55.54-.88.85-1.2,1.12-2.89,2.71-3.81,4.3-.54.92-.81,1.85-.57,2.67.17.61.53,1,1.09,1.21,2.19.84,6.57-1.16,8.22-2.2,2.5-1.56,6.28-4.48,6.4-5.3-.03-.34.22-.63.57-.66.34-.03.65.24.67.58,0,.04,0,.07,0,.11.22,1.68,2.14,2.75,3.91,3.2,7,1.77,15.17-2.11,18.2-8.67.08-.17.23-.3.41-.34,4.53-1.15,9.24-.75,13.81-.38,1.29.11,2.62.22,3.92.29,7.43.42,12.71-.92,16.16-4.09.46-.43.8-1.04.78-1.44-.01-.13-.05-.21-.14-.27-.06-.04-.12-.08-.18-.11ZM31.78,73.24c-.05.49-.12.98-.21,1.48-.34,1.86-.99,3.65-1.97,5.3.36-1.59.64-3.16.81-4.74.06-.48.1-.97.14-1.46.06-.87.09-1.74.07-2.62-.01-2.98-.46-5.91-.82-8.89,1.59,3.33,2.35,7.2,1.98,10.92ZM50.51,72.63c-.73-.41-1.54-.81-2.2-1.33-.82-.62-1.52-1.33-2.12-2.11-.28-.35-.53-.71-.76-1.08-1.98-3.15-2.69-7.12-2.96-10.77.61,1.6,1.11,3.21,1.66,4.79.68,1.96,1.44,3.9,2.53,5.63.24.37.48.74.75,1.09.34.45.7.87,1.1,1.28.69.78,1.57,1.36,2.37,2.02.66.62,1.12,1.39,1.41,2.19-.53-.67-1.1-1.3-1.78-1.7Z"/>
    <path d="M48.32,32.78c-.26.23-.52.48-.76.72l-.19.18c-5.09,4.92-13.45,6.18-21.32,3.23-.29-.11-.58-.23-.87-.34-.61-.25-1.24-.5-1.89-.69.47-.11.93-.22,1.39-.35l.08.11c.09-.07.19-.15.3-.22,0,0,0,0,.01,0,.08-.03.17-.06.25-.08l-.02-.06c1.71-1.05,4.87-2,6.58-2.25.77-.11,1.53-.21,2.31-.28.15,1.77.32,3.3.51,4.23l1.22-.26c-.18-.86-.34-2.38-.49-4.09,3.09-.25,6.2-.24,9.29.03.74.06,2.25.12,3.6.16Z"/>
    <path d="M41.72,21.72c.34,2.64-3.52,6.05-4.65,6.81-.55.36-1.2.69-1.89.95,0-.08,0,0,0,0,0,0,2.55-2.37,2.01-5.66-.43-2.58-4.18-3.52-5.51-6.05-.09.74,1.24,3.26-1.05,8.1-1.55,3.27,3.33,3.97,3.33,3.97,0,0-.02-.2,0,0-1.48.35-5.02.55-6.84-.3-1.74-.81-2.75-2.36-2.99-4.57-.22-2.04.56-4.04,1.39-6.17.85-2.16,1.73-4.4,1.55-6.83-.14-1.96-.98-3.75-1.71-5.33-1-2.15-2.07-4.46-3.4-6.64,7.37,5.33,14.02,11.03,18.39,18.38.63,1.05,1.22,2.18,1.38,3.34Z"/>
  </g>
  <g>
    <path class="cls-1" d="M167.55,85.84c-1.06.92-2.4,1.4-3.73,1.83-1.61.52-3.16,1.11-4.83,1.45-1.91.39-3.81.86-5.76,1.05-1.84.18-3.68.09-5.53.13-1.93.04-3.74.72-5.68.79-1.62.06-3.24.04-4.85.08-1.42.04-2.87,0-3.4-1.6-.14-.43-.14-1.04-.05-1.48,0,0,0-.01,0-.02-.34-7.33.66-5.2,2.53-3.97,1.07.71,2.62.22,3.9.24,1.46.02,2.91-.06,4.36-.11,5.31-.21,10.82-1.09,16.18-.74,1.31-.52,2.76-1.42,3.45-2.62.32-1.46-.22-2.79-.6-4.41-.09-.41-.17-.82-.24-1.24-.14-.39-.27-.78-.37-1.19-.03-.11-.05-.22-.08-.33-1.69-1.47-4.32-2.13-6.62-2.51-1.75-.16-3.46-.33-5.22-.36-1.56-.03-3.12-.16-4.69-.12-1.55.04-3.13.21-4.68.03-1.77-.21-3.6.04-5.32-.26-.09,0-.18,0-.27-.02-1.16-.12-2.21-.7-2.92-1.61-1.58-1.56-2.36-3.86-2.53-6.04-.08-.99.02-1.89.22-2.76.01-.6.06-1.21.14-1.81.05-2.06.63-4.43,1.93-6.1.23-.43.48-.83.74-1.19,1.71-2.38,4.38-3.32,7.18-3.82,3.28-.58,6.65-.75,9.98-.85,3.32-.1,6.69-.31,9.94.5,2.19.55,5.16-1.73,5.38.82.02.25-.42,3.87-.52,4.08.04.53-.03,1.06-.25,1.54-.55,1.18-1.79,1.45-3.06,1.45-.92.27-1.94.36-2.78.41-2.96.2-5.93.48-8.91.58-1.23.04-4.25.44-6.41,0-.23.06-.46.12-.69.17-2,.46-4.39.57-5.92,2.1-.54.54-.91,1.28-1.19,2.09-.02,1.26-.04,2.78.63,3.7.36.49.79.85,1.17,1.24,2.75.38,5.56.46,8.32.4,3.82-.09,7.46-.8,11.29-.32,2.73.34,6.01-.46,7.92,1.93.42.53.76,1.09,1.05,1.68.36.23.67.53.95.91.8,1.11,1.24,2.73,1.51,4.05.3,1.45.76,2.87.96,4.34.39,2.85-.43,5.94-2.66,7.87Z"/>
    <path class="cls-1" d="M202.12,65.25c-.03,1.14.8.49.02.86-.05.07-.44,1.97-.51,2.04-1.06,1.07-2.44.81-3.81.99-1.82.25-3.65-.04-5.47.24-1.82.28-3.59.38-5.42.53-.94.08-1.86.17-2.78.19.19,1.49.45,2.92.42,4.48-.04,1.75-.14,3.49-.11,5.25.02,1.31.38,2.45.63,3.66.25.04.49.07.74.08,1.05.05,2.11-.1,3.16-.07,1.99.05,3.97.14,5.95.27,1.66.11,6.66.79,6.66.79,0,0,.19,2.6-.08,3.92.06.98-.65,2.11-1.77,2.31-1.47.26-2.8.08-4.27.03-1.28-.04-2.55-.04-3.83-.1-1.82.05-3.68-.07-5.5-.23-.87.06-1.73.18-2.57.33-1.3.24-.55.32-1.84-.05-1.31-.37-1.9-1.92-1.6-3.16-.08-1.46-.02-2.93-.26-4.38-.29-1.78-.37-3.49-.53-5.28-.35-4.09.1-8.21-.13-12.32-.17-3.02-.79-6.03-.89-9.05-.05-1.44-.22-2.84-.29-4.28-.06-1.23-.4-2.45-.38-3.68.05-2.51-1.21-4.11.9-3.26,1.62-.16,5.17.26,6.76.42,1.65.17,3.3.79,4.93.73,2.47-.1,8.58,1.33,8.58,1.33,0,0,.11,2.74-.32,3.39-.02.15-.04.31-.05.49-.05.77-.55,1.61-1.37,1.76-2.6.47-5.12-.51-7.68-.82-.87-.11-1.75-.29-2.62-.5-1.19,0-2.4-.2-3.59-.37.1.95.21,1.9.3,2.86.23,2.57.34,7.41.4,9.99,1.6-.15,3.24-.17,4.81-.24,2.17-.1,4.35-.1,6.52-.2,2.62-.12,6.99-2.71,6.9,1.06Z"/>
    <path class="cls-1" d="M227.48,52.08c-.01-.06-.02-.13-.02-.2-.14-.67-.28-1.34-.37-2.02-.02-.12-.03-.24-.05-.35-.38-.06-.7-.21-.95-.44-.48-.04-.99-.07-1.51-.08-1.11.7-1.98,2.01-2.87,3.3-1.73,2.51-2.47,5.39-3.1,8.32-.28,1.3-.64,2.57-1.02,3.84,0,2.48.11,4.95-.22,7.44-.19,1.46-.74,2.85-.9,4.33-.19,1.65-.24,3.26-.17,4.93.02.5-.04,1.31.07,1.94.12.21.25.4.4.58.03,0,.07.01.11.02,1.19.22,2.38.36,3.57.38.38-.12.75-.26,1.17-.31.73-.08,1.49-.15,2.23-.22.84-.08,1.63-.25,2.36-.58.24-.86.6-1.79.67-2.06.64-2.36,1.12-5.57,4.15-5.83,1.21-.1,3.78-.05,3.78-.05,0,0-1.02,7.92-1.5,10.68-.17,1.01-.62,3.07-1.37,3.37-1.7.75-7.33,1.2-10.26,1.11-2.85-.08-5.82-.27-7.87-2.4-.72-.42-1.32-.99-1.7-1.77-.25-.52-.41-1.1-.51-1.69-.76-1.71-1.18-3.55-1.26-5.52-.07-1.8.04-3.55.27-5.27-.14-.91.05-1.84.14-2.77.15-1.64.29-3.26.55-4.9.51-3.3,1.01-6.69,1.94-9.9.29-1.01.6-2.02.98-3.01.47-2.2,1.1-4.43,2.54-6.03.66-.73,1.48-1.27,2.37-1.66.57-.67,1.24-1.23,2.12-1.58,4.66-1.86,9.75-2.25,12.96,1.43,0,0,.36,6.11,0,8.55-.32,2.17-.43,5.4-2.84,5.94-2.54.57-3.65-1.88-3.87-3.96-.12-1.17-.11-2.39-.02-3.58Z"/>
    <path class="cls-1" d="M267.92,61.97c0,1.48-.17,3.05-.91,4.36-.82,1.45-2.27,2.34-3.87,2.72-.74.18-1.5.27-2.26.32.12.57.25,1.15.38,1.72.49,2.17.81,4.37,1.37,6.52.48,1.85.96,3.73,1.17,5.63.05.46.27.88.42,1.31.14.42.24.85.34,1.28.18.75.9,2.66.93,3.44.03.69-.72.13-1.39.31-.45.12-.95.11-1.4.17-.4.06-.79.1-1.2.13-.58.03-1.2.13-1.77-.03-.75-.21-.84-.96-1.08-1.59-.33-.87-.66-1.73-.92-2.62-.25-.85-.6-1.71-.63-2.6-.04-.91-.42-1.77-.76-2.6-.35-.86-.68-1.72-.95-2.6-.28-.92-.59-1.83-.89-2.74-.29-.91-.53-1.85-.9-2.73-.35-.83-.73-1.63-.94-2.51,0,.11.01.21.01.32.01,1.74-.42,3.43-.66,5.15-.24,1.69-.45,3.37-.5,5.07-.02.83-.21,1.67-.15,2.5.06.82.25,1.61.28,2.44.02.74.07,1.44.19,2.17.08.49.13.99.13,1.48,0,.42-.32,1.27-.32,1.27,0,0-1.15.09-1.74,0-.8-.12-1.71.03-2.51.05-.86.02-1.68.16-2.54.25-.54.06-1.22.16-1.67-.21-.4-.32-.5-.85-.49-1.34,0-.55.13-1.09.21-1.63.09-.63.05-1.28.15-1.91.12-.83.33-1.64.48-2.46.16-.85.2-1.69.17-2.55-.06-1.81,0-3.59.06-5.41.03-.84.02-1.68-.04-2.52-.05-.79-.12-1.58-.03-2.37.09-.83.32-1.65.46-2.47.15-.88.26-1.75.31-2.64.05-.87.26-1.69.25-2.57-.01-.88-.05-1.77-.07-2.65-.03-1.77-.08-3.55-.08-5.32,0-.48,0-.96.05-1.44.04-.42.14-.83.16-1.25.02-.43-.05-.86.02-1.29.05-.33.25-.65.22-.99,0-.09.01-.16.04-.22.02-.48.08-.95.19-1.43.05-.21.23-.41.45-.46.52-.13,1.03-.11,1.56-.1.56,0,1.09-.07,1.63-.19,1.09-.23,2.18-.43,3.27-.67,1.12-.25,2.27-.16,3.41-.18,1.21-.03,2.42-.02,3.63-.08.47-.02.94-.1,1.41.03.44.12.87.38,1.27.59.79.42,1.55.94,2.31,1.41,1.35.82,2,2.36,2.43,3.81.53,1.79,1.01,3.67,1.14,5.54.1,1.46.2,2.95.2,4.41ZM258.69,55.34c-.48-.36-1.05-.62-1.63-.74-.73-.16-1.53-.04-2.27-.03-.5,0-1.04.07-1.56.02-.03,1.2-.16,2.39-.32,3.57.58.02,1.17-.02,1.72-.07.79-.08,1.56-.34,2.35-.42.52-.05.92-.1,1.4-.41.37-.23.68-.59.73-1.03.05-.42-.09-.63-.43-.89Z"/>
    <path class="cls-1" d="M300.05,65.25c-.03,1.14.8.49.02.86-.05.07-.44,1.97-.51,2.04-1.06,1.07-2.44.81-3.81.99-1.82.25-3.65-.04-5.47.24-1.82.28-3.59.38-5.42.53-.94.08-1.86.17-2.78.19.19,1.49.45,2.92.42,4.48-.04,1.75-.14,3.49-.11,5.25.02,1.31.38,2.45.63,3.66.25.04.49.07.74.08,1.05.05,2.11-.1,3.16-.07,1.99.05,3.97.14,5.95.27,1.66.11,6.66.79,6.66.79,0,0,.19,2.6-.08,3.92.06.98-.65,2.11-1.77,2.31-1.47.26-2.8.08-4.27.03-1.28-.04-2.55-.04-3.83-.1-1.82.05-3.68-.07-5.5-.23-.87.06-1.73.18-2.57.33-1.3.24-.55.32-1.84-.05-1.31-.37-1.9-1.92-1.6-3.16-.08-1.46-.02-2.93-.26-4.38-.29-1.78-.37-3.49-.53-5.28-.35-4.09.1-8.21-.13-12.32-.17-3.02-.79-6.03-.89-9.05-.05-1.44-.22-2.84-.29-4.28-.06-1.23-.4-2.45-.38-3.68.05-2.51-1.21-4.11.9-3.26,1.62-.16,5.17.26,6.76.42,1.65.17,3.3.79,4.93.73,2.47-.1,8.58,1.33,8.58,1.33,0,0,.11,2.74-.32,3.39-.02.15-.04.31-.05.49-.05.77-.55,1.61-1.37,1.76-2.6.47-5.12-.51-7.68-.82-.87-.11-1.75-.29-2.62-.5-1.19,0-2.4-.2-3.59-.37.1.95.21,1.9.3,2.86.23,2.57.34,7.41.4,9.99,1.6-.15,3.24-.17,4.81-.24,2.17-.1,4.35-.1,6.52-.2,2.62-.12,6.99-2.71,6.9,1.06Z"/>
    <path class="cls-1" d="M326.48,48.4c-1.64.83-3.48.95-5.28,1.2-.02.54-.04,1.08-.03,1.59.02,1.52.04,3.06-.15,4.57.06,1.03.08,2.06.04,3.14-.04,1.3-.2,2.6-.33,3.89.12,2.04.29,4.09.13,6.13-.33,4.14.19,8.26.26,12.41.03,1.78,0,3.55-.09,5.33-.06,1.39.24,4.89.24,4.89,0,0-4.94.57-5.28.42-.77.16-1.6-.15-1.87-1.15-.02-.07-.03-.14-.05-.21-.01-.05-.02-.09-.02-.14-.22-1.23.1-2.42.21-3.65.14-1.57.23-3.2.13-4.78-.11-1.78-.5-3.65-.34-5.44.13-1.5.64-2.96.86-4.45.3-2.12-.12-4.28-.05-6.4.05-1.79.48-3.55.52-5.35.05-1.85-.3-3.65-.33-5.49-.03-1.57-.02-3.14-.04-4.72-.14,0-.27.01-.41.02-1.56.05-3.34.96-4.91.44-.2-.07-.38-.15-.53-.25-.69-.11-1.28-.62-1.29-1.59,0-.34,0-.7.03-1.06-.53-3.85-.07-3.62,2-3.88,2.84-.36,5.72-.55,8.58-.67,1.45-.06,2.89-.04,4.34-.08,1.03-.03,2.31-.04,3.38.24l1.04.27c0,.07-.15,2.48-.16,2.55.4.76.3,1.77-.59,2.22Z"/>
    <path class="cls-1" d="M157.34,147.56c-.08.93,0,1.89,0,2.82,0,.46.01.93.03,1.39.01.32.05.63-.04.95-.26.87-1.19.91-1.94.77-.18-.03-.35-.09-.54-.1-.25,0-.47.03-.73,0-.38-.05-.75-.16-1.13-.24-.84-.17-1.7-.2-2.55-.37-.88-.18-1.76-.24-2.66-.24-1.88,0-3.77.01-5.65.15-.89.07-1.78.1-2.67.19-.86.09-1.7.26-2.57.3-.89.04-1.77-.06-2.66-.11-.81-.05-1.63.11-2.43-.04-.27-.05-.54-.31-.6-.58-.36-1.67.28-3.38.46-5.03.05-.44-.02-.89-.02-1.33,0-.47.05-.94.1-1.4.09-.89.13-1.75.14-2.65,0-.86.1-1.72.17-2.57.06-.81,0-1.61.03-2.42.02-.39.12-.76.14-1.15.02-.39.03-.77.06-1.16.07-.8.16-1.6.17-2.41.03-1.67.18-3.33.34-4.98.17-1.68.21-3.34.21-5.03,0-1.64.08-3.28.12-4.92.04-1.69.31-3.35.28-5.03-.03-1.69-.06-3.38-.06-5.07,0-.84.16-1.65.34-2.46.09-.4.15-.8.23-1.2,0-.17.01-.35.04-.53.05-.38.04-.81.15-1.18.09-.31.29-.56.55-.74.22-.2.47-.28.73-.26.19-.02.38-.04.56-.09.8-.22,1.61-.25,2.44-.16.75.08,1.71.1,2.11.85.21.38.13.78.08,1.19-.05.46-.09.91-.14,1.37-.09.9-.19,1.8-.26,2.7-.14,1.83.03,3.66-.09,5.49-.24,3.71-.33,7.4-.27,11.12.03,1.86.09,3.73.07,5.59-.02,1.87-.08,3.73-.06,5.6.03,1.86.29,3.7.31,5.55,0,.91,0,1.82.01,2.74,0,.1,0,.19,0,.29.19.02.38.03.57.05,1.04.09,2.08.01,3.12.04,1,.03,2.01.13,3.01.18,1.04.06,2.07.12,3.1.23.87.1,1.66.36,2.5.53.89.18,1.8.2,2.7.34.64.1,1.73.23,2.1.84.35.58.12,1.52.07,2.14Z"/>
    <path class="cls-1" d="M186.88,144.36s-.02,1.93-.03,1.95c-.01.06-.02.12-.03.18-.15.79-.91,1.18-1.62,1.28-1.04.14-.94-.15-1.98-.16-.96-.01-1.91,0-2.87-.07-.15-.01-.29-.01-.44-.02-.47,0-.94,0-1.41,0-1.38.06-2.76.23-4.14.25-1.97.03-3.59.17-5.55.15-1.43-.01-2.74.98-2.72-.57,0-.67.33-3.71.33-3.71,0,0,1.88-.3,2.83-.21,1.77.16,2.37.29,4.14.29,0-.82.01-1.64.04-2.46,0-.41-.02-.83-.04-1.24-.09-1.47-.5-2.89-.59-4.36-.18-2.89.4-5.78.45-8.69.05-3.13.5-4.39.19-7.52-.19-1.88-.51-4.27-.36-6.43-.31,0-.62.01-.93.02-1.41.02-2.7-.22-4.06.11-1.8.43-3.21-.74-3.41-2.5-.04-.39.07-.95-.04-1.32-.33-1.1-.15-3.45-.15-3.45,1.08-.62,3.56-.05,4.75-.03,1.67.03,2.93-.07,4.59.13,1.85.22,3.67.16,5.53.1,1.76-.06,2.34.38,4.1.38.66,0,2.72.22,3.13.54,0,0,.51,4.85-2.46,5.19-1.43.17-1.56.48-3.03.5-1.01.01-2.02.15-3.03.22.02,2.23,0,4.45-.21,6.7-.26,2.9.17,3.93.24,6.84.14,5.76-.54,11.52-.54,17.28,2.96.07,4.76.28,7.72.23q1.36-.02,1.61.4Z"/>
    <path class="cls-1" d="M223.33,120.2c-.28,1.86-2.08,2.78-3.59,3.55-.45.23-.91.44-1.38.62-.44.17-.91.23-1.34.4-.42.17-.79.42-1.23.55-.44.13-.9.19-1.36.26-.61.09-1.22.17-1.83.25.93.15,1.84.4,2.65.88.65.39,1.27.84,1.73,1.44.41.53.85,1.09,1.19,1.67.73,1.25.92,2.73.96,4.16.04,1.72-.08,3.45-.09,5.17-.01,1.61-.07,3.23-.25,4.83-.15,1.34-.59,3.06-1.83,3.82-.71.44-1.49.16-2.25.32-.42.09-.83.26-1.26.34-.39.07-.78.12-1.17.16-.8.09-1.62.09-2.42.21-.87.13-1.72.29-2.59.41-.81.11-1.62.25-2.44.29-.86.03-1.73.02-2.59.04-.84.01-1.67,0-2.52-.05-.8-.05-1.61-.02-2.4-.15-.54-.09-1.14-.25-1.65-.45-.69-.28-.8-.79-.67-1.47.16-.79.07-1.65.06-2.45,0-.81.06-1.61.1-2.42.09-1.73.06-3.48.06-5.21,0-.88-.01-1.75-.03-2.63-.02-.84.11-1.67.11-2.51,0-.82-.03-1.65-.04-2.47,0-.46-.04-.92-.03-1.38.01-.41.1-.81.13-1.22.05-.81-.02-1.64-.03-2.44-.01-.82.02-1.66-.04-2.47-.11-1.51-.39-3.05-.21-4.56.1-.82.35-1.63.52-2.44.17-.86.28-1.71.3-2.59.01-.77.08-1.53.16-2.3.03-.32.13-.63.15-.96,0-.03,0-.05,0-.08-.03-.06-.05-.13-.05-.21v-.12c0-.2.1-.44.29-.54.46-.24.86-.23,1.36-.26.53-.03,1.05-.05,1.58-.06.55-.01,1.09,0,1.64-.03.52-.03,1-.2,1.53-.2,1.05,0,2.08-.23,3.14-.22,1.17.01,2.33.07,3.5.14.99.06,1.97.14,2.96.2,1,.06,2,.07,3,.18,1,.11,2.01.3,2.99.55.79.2,1.58.66,2.25,1.11,1.58,1.05,2.01,2.98,2.29,4.72.16,1.03.26,2.07.41,3.1.12.85.39,1.67.26,2.53ZM211.13,136.14c-.05-.46-.21-.89-.3-1.34-.08-.42-.12-.84-.16-1.27-.07-.77-.23-1.35-.96-1.72-.37-.19-.79-.1-1.2-.14-.49-.05-.97-.08-1.47-.08-1.57.01-3.15.12-4.72.12.04,1.45.09,2.91-.03,4.36-.09,1.08-.2,2.16-.21,3.24,0,.7-.03,1.42,0,2.14.17,0,.33,0,.5,0,.58.02,1.15,0,1.73-.02.56-.01,1.12.01,1.67-.11.56-.12,1.11-.24,1.69-.27.52-.02,1-.12,1.51-.21.28-.05.57-.1.85-.13.19-.02.45,0,.63-.09.37-.16.46-1.09.52-1.5.14-.97.06-2.02-.03-2.99ZM214.01,119.81s0,0,0,0c.03,0,.17-.03.16-.05-.09-.09-.15-.13-.18-.13,0-.13.02-.26.03-.37.05-.49.12-.94.07-1.44-.05-.5-.14-.99-.15-1.49-.02-.49,0-.98-.13-1.45-.04-.16-.1-.31-.14-.47,0-.03-.05-.14-.07-.22-.19-.05-.4-.22-.59-.28-.23-.08-.48-.11-.72-.14-.47-.06-.93-.09-1.4-.08-1.05.02-2.09.08-3.14.1-.98.02-1.95.1-2.93.12-.47,0-.94-.04-1.4-.17-.11-.03-.22-.05-.32-.07-.01.37-.02.74-.08,1.12-.1.6-.17,1.15-.16,1.76.01.6.04,1.2-.03,1.8-.05.48-.09.94-.07,1.42.02.36.03.71.04,1.07.04,0,.08-.01.12-.01.64-.01,1.29-.01,1.93-.04.58-.03,1.15-.15,1.74-.18,1.14-.07,2.24.11,3.37-.14.97-.21,1.94-.29,2.91-.5.36-.08.73-.1,1.09-.15.04.17.14.35.04.04,0-.01,0-.03,0-.04ZM213.99,119.63c0,.06,0,.12.01.18-.01,0-.02,0-.04,0-.02-.09-.03-.18.02-.18Z"/>
    <path class="cls-1" d="M263.56,147.33c-.34.28-1.78,1.23-2.21,1.39-.13.69-.95,1.24-1.61,1.23-.01,0-.03,0-.04,0-.78.62-2.06.69-2.55-.37-.15-.32-.32-.64-.51-.96-1.5-1.09-2.93-2.45-4.12-3.71-1.73-1.84-3.54-3.59-5.37-5.34-1.65-1.58-3.25-3.35-4.65-5.17-1.02-1.06-1.95-2.18-2.95-3.24-.57,2.56-.8,5.14-1,7.76-.19,2.54-.66,5.04-.62,7.59.03,1.79.28,4.75-1.79,5.56-.66.26-1.31.2-1.9-.05-.14,0-.29,0-.42-.04-1.25.38-1.92,1.16-2.14-.53-.2-1.49-.24-4.11-.12-5.56.14-1.77.69.76.84-1.01.16-1.87.41-9.18.57-11.05.14-1.57.07-3.13.35-4.68.64-3.48.65-7.05,1.23-10.56.53-3.16.35-6.38.77-9.55.09-.66.19-1.9.19-1.9,0,0,1.4.17,1.92.17.42,0,.85,0,1.27-.01.19-.01.38-.02.58-.01.17-.01.36-.01.56,0,.4.04.78.11,1.13.25,1.27-.02,2.55-.08,3.78.07,2.14.25,4.27.44,6.41.65,2.63.25,5.26,1.01,6.48,2.99,2.4,2.81,1.4,8.94.71,11.78-.62,2.54-2.74,4.13-5.23,4.78-1.93.5-4.41.7-6.53.21.56.64,1,1.26,1.63,1.83.86.78,1.59,1.77,2.46,2.54.9.79,1.84,1.47,2.67,2.35,1.79,1.89,3.43,4.06,4.99,6.14,1.39,1.84,3.8,3.33,4.59,5.54.19.52,1.06.57.63.93ZM241.8,119.86c.52.07,1.04.13,1.57.16.82.04,1.64,0,2.46.05.16-.05.33-.1.49-.14.85-.22,1.96-.16,2.75-.53.02-.01.04-.02.06-.03.19-.17.37-.35.53-.54.34-.67.2-1.65.19-2.45,0-.7-.13-1.21-.39-1.66-1.64-.99-4.74-.96-6.75-.55-.02.14-.04.29-.06.42-.27,1.76-.55,3.53-.85,5.29Z"/>
    <path class="cls-1" d="M304.61,148.79c-.08.14-.18.25-.29.33-.41.15-.83.29-1.24.44-.41.11-.82.22-1.23.31-.11.03-.22.06-.32.09-.07-.01-.14-.01-.22,0-.23.04-.46.09-.69.15-.59-.05-1.02-.51-1.04-1.11-.03-.76-.4-1.36-.73-2.03-.4-.84-.63-1.72-.9-2.61-.29-.94-.71-1.83-1.08-2.73-.14-.33-.27-.67-.4-1.01-.28.03-.56.05-.84.05-.93,0-1.85.05-2.77.11-1.66.11-3.31.14-4.97.29-1.64.15-3.29.27-4.93.41-1.65.13-3.29.37-4.93.58-.8.1-1.6.2-2.39.35-.17.03-.35.07-.51.1-.21,1.12-.43,2.23-.73,3.32-.02.09-.04.19-.05.28-.04.21-.11.42-.19.62-.19.41-.37.83-.52,1.25,0,0,0,0,0,0,0,0,0,.01,0,.02,0,0,0,0,0,0-.2.56-.36,1.14-.45,1.74-.05.03-.1.06-.16.08,0,0-.02,0-.03,0-1.38-.21-2.78-.43-4.18-.58-.02-.05-.05-.1-.06-.15,0-.02,0-.04-.01-.07,1.07-2.75,2.52-5.41,2.99-8.32.11-.21.21-.43.33-.64.35-.61.47-1.29.72-1.95.53-1.38.77-2.86,1.35-4.22.07-.52.22-1.06.45-1.52.12-.25.29-.46.43-.7.14-.24.24-.5.39-.73.08-.12.15-.25.23-.37.18-.59,5.06-13.67,5.16-14.12,1.11-2.24,2.02-4.59,2.67-6.98.18-.38.36-.75.55-1.12.02-.04.04-.07.06-.1.94-1.5,1.9-2.99,2.75-4.53.06-.04.12-.08.18-.11.23-.11.47-.15.69-.09.3.63.68,1.24,1.02,1.82.04.07.09.15.13.22.03.12.06.23.1.35.4,1.24,1.01,2.39,1.54,3.57.08.21.17.42.27.62.15.31.43.34.65.23.51,1.12.88,2.25,1.24,3.45.41,1.41.89,2.83,1.5,4.16.64,1.41,1.14,2.87,1.6,4.35.92,2.92,2.09,5.74,2.8,8.71.73,3.03,1.69,6.02,2.86,8.91.29.71.57,1.42.88,2.12.29.67.43,1.37.67,2.06.08.23.14.47.19.7.19.34.39.67.61,1,.29.43.52.89.72,1.38.2.49.43,1.1.14,1.61ZM293.52,133.84c-.04-.1-.08-.19-.12-.29-.36-.9-.65-1.82-1-2.72-.33-.86-.73-1.68-1.05-2.55-.67-1.83-.94-3.75-1.5-5.61-.28-.94-.5-1.89-.76-2.82-.26-.93-.63-1.82-.81-2.77-.09-.48-.15-.97-.2-1.46-.04-.38-.2-.71-.28-1.08-.11-.48-.19-.92-.38-1.38-.15-.37-.34-.73-.5-1.09-.01-.03-.02-.05-.04-.08-.1.18-.21.35-.33.53-.51.76-.89,1.63-1.24,2.48-.34.83-.74,1.64-1.04,2.49-.56,1.57-1.18,3.13-1.68,4.73-.51,1.64-1.01,3.27-1.65,4.86-.64,1.6-1.38,3.16-2.15,4.71-.37.74-.76,1.47-1.07,2.23-.23.64-.46,1.28-.69,1.92.77-.21,1.56-.38,2.35-.46.93-.09,1.86.02,2.79,0s1.88-.13,2.8-.26c.92-.13,1.77-.41,2.71-.42.97-.01,1.87-.28,2.82-.41.43-.06.87-.07,1.29-.17.42-.1.82-.23,1.24-.31.16-.03.31-.05.47-.07Z"/>
    <path class="cls-1" d="M347.46,127.47c-.24,1.3-1.02,2.25-2.1,2.96-.47.31-1,.51-1.46.83-.59.41-1.09.63-1.81.73-1.28.18-2.6.24-3.89.34-2.79.21-5.58.43-8.37.72-.47.05-.94.08-1.41.09.48.56.96,1.13,1.48,1.66.67.68,1.36,1.33,2.03,2.02.3.31.55.67.87.96.34.3.71.58,1.07.87,1.57,1.25,3.05,2.61,4.35,4.14.6.7,1.15,1.44,1.8,2.1.32.33.55.7.94.97.36.26.68.54.97.88.29.34.56.67.89.98.31.29.54.65.84.94.03.03.07.05.1.07,0,0,0,0,0,.01-.11.24-.13.65.11.83.57.43,1.13.87,1.68,1.32-.92.95-1.94,1.82-2.91,2.73-.07.03-.14.06-.2.09-.73.28-1.37-.02-1.97-.44-.56-.39-1.12-.8-1.64-1.24-.96-.79-1.9-1.58-2.72-2.52-.89-1.01-1.84-1.96-2.81-2.9-.98-.95-1.96-1.9-2.96-2.83-.98-.9-1.91-1.85-2.95-2.69-1-.82-1.99-1.66-2.92-2.56-.93-.9-1.69-1.93-2.58-2.86-.96-.99-1.96-1.91-2.8-3.01,0-.01-.02-.02-.02-.03-.52-.01-1.04-.02-1.57,0-.7.02-1.39-.03-2.08-.11,0,.42.02.83,0,1.25-.02.66-.09,1.32-.1,1.98-.02,1.42.09,2.85.16,4.27.07,1.39.11,2.79.14,4.19.02.71,0,1.42-.09,2.12-.03.26-.08.55-.04.81.05.31.18.58.22.9.03.29-.23.65-.52.71-.71.14-1.44.06-2.16.07-.66,0-1.35.08-2.01.06-.21,0-.39-.06-.54-.13.06-.55.11-1.09.12-1.65,0-.52-.33-.88-.84-.9,0-.13-.02-.25-.02-.38,0-.67.11-1.33.12-2,.01-.67.07-1.33.12-2,.09-1.37.07-2.74.16-4.11.08-1.36.24-2.71.27-4.07.03-1.38-.05-2.76-.05-4.14s.05-2.74.27-4.08c.11-.65.22-1.24.21-1.9-.01-.67-.02-1.34-.03-2.01-.02-1.29-.13-2.56-.17-3.85.02-.63.05-1.26.11-1.89.01-.05.02-.1.03-.15.06-.26.08-.54.09-.82.07-.48.15-.95.25-1.42.87.05,1.76.02,2.58,0,.88-.02,1.76-.06,2.63-.07,0,0,0,.01.01.02.59-.06,1.18-.08,1.78-.1,1.55-.04,3.11-.07,4.66-.12,1.53-.05,3.03.17,4.55.25,1.52.09,3.04.2,4.56.21,2.7,0,5.37.28,8.06.41,1.28.06,2.49.13,3.7.56.59.21,1.19.3,1.73.63.4.25.79.55,1.1.91.81.96,1.04,2.25,1.18,3.47.16,1.35-.06,2.67-.13,4.02-.07,1.29.18,2.61-.05,3.88ZM339.66,122.79c-.01-.54-.31-1.1-.39-1.64-.01,0-.02,0-.03,0-.09.01-.18.01-.27.02-.44.02-.89,0-1.33.07-1.92.28-3.9.16-5.84.19-.95.02-1.89-.11-2.84-.09-1,.02-2,.02-3,.03-1.9.02-3.75-.39-5.64-.37-.96.01-1.94-.07-2.9.04-.4.05-.82.05-1.21.12-.06,0-.11.03-.16.04-.08.76-.11,1.53-.14,2.31,0,.08,0,.16,0,.25.7.04,1.39.04,2.1.03,1.14-.02,2.28-.06,3.42-.05,1.08,0,2.15.03,3.23-.04.97-.06,1.94-.14,2.92-.17.96-.03,1.92-.16,2.89-.18.99-.02,1.97-.02,2.96-.03.91,0,1.81-.17,2.72-.16.8,0,1.59.16,2.39.12.32-.01.65-.04.92-.22.08-.05.17-.12.21-.18-.02.03.01-.06.01-.09Z"/>
    <path class="cls-1" d="M389.36,107.23c-.16,1.19-1.73,3.49-2.32,4.51-.99,1.68-1.92,3.41-2.81,5.14-.85,1.65-1.62,3.34-2.5,4.97-.92,1.72-2.13,3.24-3.08,4.93-.98,1.77-1.81,3.81-2.84,5.7-.59,5.18-.23,11.64-.23,16.84,0,.88-1.9.66-2.84.62-1.12-.06-2.77.51-3.94.21-.68.12-1.34.14-1.95-.16-.53-.26-.86-.88-.87-1.46-.06-2.9.25-5.89.61-8.77,0-1.47-.02-2.94.09-4.41.04-.63.16-1.29.23-1.95-.02-.25-.03-.49-.03-.74-.03-.08-.05-.16-.06-.24-1.55-3.08-2.69-6.37-4.35-9.4-2.3-4.21-4.25-8.57-6.73-12.69-.95-1.58-1.13-2.12,2.24-2.42.56-.33,1.32-.32,2.01.21.93.72,1.37,1.73,1.72,2.78.12.15.22.29.31.43.6.95,1.12,1.95,1.59,2.97.96,2.06,2.16,3.91,3.22,5.91,1.12,2.09,2.03,4.27,3.09,6.39.38.77.91,1.39,1.37,2.11.13.2.25.41.36.62.56-1.02,1.08-2.06,1.52-3.11,1.2-2.86,2.22-5.63,3.78-8.33,1.66-2.88,3.47-6.08,4.51-9.24.34-1.03.61-2.27,1.84-2.59.67-.18.98-.23,1.58-.15.8.1,1.64.35,2.44.34,1.21,0,2.19-.1,2.04.99Z"/>
  </g>
</svg>