<?xml version="1.0" encoding="UTF-8"?>
<svg id="Layer_1" data-name="Layer 1" xmlns="http://www.w3.org/2000/svg" viewBox="0 0 156.22 156.22">
  <defs>
    <style>
      .cls-1 {
        fill: #fff;
      }
    </style>
  </defs>
  <path class="cls-1" d="M65.42,37.91c5,2.65,10.69,2.53,14.51-.32l.14-.11c.18-.14.37-.28.57-.41-.9-.14-1.91-.31-2.39-.41-2.04-.44-4.11-.72-6.2-.82-.04,1.15-.07,2.18-.02,2.77l-.84.07c-.05-.64-.03-1.67.03-2.87-.52-.01-1.04-.02-1.56,0-1.16.02-3.35.39-4.59.94v.04s-.11.02-.16.03c0,0,0,0,0,0-.08.04-.15.08-.22.12l-.05-.08c-.32.05-.64.09-.96.12.41.19.81.41,1.2.63.18.1.37.2.55.3Z"/>
  <path class="cls-1" d="M53.17,72.49c1.39.75,4.48-.21,5.68-.76,1.8-.83,4.58-2.45,4.73-2.99,0-.23.2-.4.44-.39.23.01.41.22.4.45,0,.02,0,.05,0,.07,0,1.14,1.2,2.02,2.34,2.47,4.52,1.79,10.31-.11,12.9-4.22.07-.11.18-.18.31-.19,3.12-.38,6.24.29,9.25.94.85.18,1.73.37,2.59.53,4.92.92,8.57.48,11.14-1.34.35-.24.62-.63.64-.89,0-.09-.02-.14-.07-.2-.04-.03-.07-.06-.11-.09-.13-.09-.32-.23-.41-.47-.17-.48.17-.86.37-1.09l.07-.08c.22-.26.29-.59.26-.94-.03-.39-.2-.79-.46-1.1-.04-.05-.09-.1-.14-.15-.67-.65-1.67-.94-2.55-1.19l-8.48-2.4c-1.55-.44-3.48-.99-4.73-2.41-.13-.15-.25-.3-.36-.45.15,1.34.27,2.68.38,4.02.02.28.04.56.07.84.02.25.04.51.06.76-.15-.25-.29-.51-.4-.77-.12-.28-.22-.56-.3-.84-.23-.79-.35-1.62-.44-2.42-.17-1.38-.31-2.75-.45-4.13-.02-.17-.03-.35-.04-.52,0,0,0,0,0,0-.1-.58-.18-1.19-.24-1.83l-1.83-10.85c-.11-1.05-.44-2.34-1.34-2.5,0,0-.02,0-.04,0-.6-.07-1.2.38-1.79.82l-.14.11c-4.08,3.04-10.13,3.19-15.41.39-.19-.1-.38-.21-.57-.31-.66-.37-1.29-.71-1.97-.9-.45-.12-.89-.15-1.29-.09-.91.27-1.57.8-1.77,1.95-.33,1.92.51,4.03,1.26,5.9.08.21.16.41.24.61.79,2.02.91,3.95,1.05,6l.04.59c.07,1.07.15,2.21.15,3.36,0,1.68-.17,3.4-.75,5.02-.72,2.01-2.13,3.93-4.09,5.57-.19.16-.39.32-.59.47-.19.15-.41.31-.66.49-.89.65-2.16,1.56-2.92,2.55-.44.57-.7,1.16-.61,1.74.06.42.27.71.63.9ZM74.62,52.97c.27,1.12.46,2.24.7,3.34.28,1.37.63,2.73,1.2,3.98.13.27.26.53.41.79.19.33.39.64.63.95.39.58.93,1.04,1.41,1.55.39.47.63,1.02.75,1.58-.3-.49-.62-.96-1.04-1.29-.45-.34-.96-.67-1.35-1.08-.49-.48-.9-1.02-1.24-1.59-.15-.26-.29-.52-.41-.79-1.05-2.27-1.18-4.99-1.05-7.44ZM65.03,63.9c.08-.32.15-.64.22-.96.11-.57.21-1.15.27-1.74.25-1.99.2-3.98.22-6,.77,2.36.95,5.01.38,7.46-.07.33-.16.65-.26.97-.39,1.21-.97,2.36-1.77,3.37.37-1.03.7-2.05.95-3.1Z"/>
  <path class="cls-1" d="M65.15,29.78c-.03,1.49.51,2.61,1.6,3.31,1.14.72,3.52.89,4.54.79,0,0-3.19-.89-1.88-2.94,1.94-3.04,1.27-4.83,1.39-5.32.67,1.8,3.09,2.76,3.16,4.51.08,2.24-1.83,3.61-1.83,3.61.49-.11.95-.27,1.34-.47.82-.41,3.69-2.35,3.69-4.14,0-.79-.31-1.6-.63-2.35-2.29-5.28-6.24-9.66-10.7-13.85.7,1.57,1.22,3.2,1.7,4.73.35,1.12.76,2.39.68,3.71-.09,1.64-.87,3.06-1.62,4.43-.74,1.35-1.43,2.61-1.46,4Z"/>
  <path class="cls-1" d="M108.75,40.3c.04,1.58.34,3.08.54,4.63.19,1.46.1,3.01.43,4.44.31,1.36.89,2.58,1.04,3.99.16,1.6.11,3.28.56,4.82.02.06.05.12.08.17.14.46-.48,1.7.4,1.62,2.49-.22,5.92-1.94,8.26-2.68,1.19-.38,2.39-.69,3.54-1.15.82-.34,1.67-.76,2.52-1.02.93-.29,2.94-.72,2.57-1.18.08-.64-2.69-1.58-3.89-1.22-2,.6-4,1.25-5.98,1.9-.9.29-1.84.54-2.77.79-.03-.36-.09-.71-.13-1.06-.11-1.07-.29-2.14-.5-3.2-.18-.92-.64-1.75-.88-2.66-.26-1.01-.3-2.06-.4-3.09-.18-1.95-.45-3.91-.5-5.88-.03-1.07.44-2.14.4-3.21-.02-.59-.12-1.17-.23-1.75.06-.1.11-.21.12-.33.12-.92.33-2.57-.15-2.83-.88-.48-4.79.29-5.5.96-.31.3,0,2.61.16,3.66.21,1.41.27,2.84.31,4.27Z"/>
  <path class="cls-1" d="M25.4,65.02c1.02.23,2.03.5,3.05.72,1.22.26,2.46.12,3.68.4,1.16.27,2.3.61,3.48.79,1.25.19,2.51.2,3.77.25,1.1.05,2.16-.07,3.25-.14.9-.06,1.81-.15,2.62-.55,1.7-.86,2.7-2.66,2.91-4.51.11-.96.04-1.92.09-2.87.04-.87.02-1.95-.31-2.77-.11-.28-.26-.52-.45-.72-.09-.41-.21-.82-.39-1.22-.82-1.8-2.99-1.81-4.65-2.46-2.32-.91-4.71-1.04-7.12-1.58-1.74-.4-3.48-.89-5.15-1.57-.17-.31-.39-.6-.53-.96-.28-.68-.02-1.64.19-2.42.31-.46.65-.87,1.07-1.12,1.2-.72,2.71-.41,4.04-.38.15,0,.31,0,.46,0,1.28.62,3.24.85,4.02,1.02,1.88.41,3.78.7,5.67,1.04.53.1,1.18.2,1.8.18.79.2,1.61.23,2.14-.42.22-.26.35-.59.41-.92.09-.12.94-2.31.97-2.47.27-1.63-1.95-.68-3.24-1.36-1.9-1.02-4.04-1.42-6.13-1.89-2.1-.46-4.23-.89-6.38-1.04-1.83-.13-3.65.03-5.09,1.25-.22.19-.44.4-.65.63-1.08.84-1.82,2.23-2.18,3.51-.14.37-.27.74-.37,1.11-.26.51-.47,1.07-.58,1.69-.24,1.39-.12,2.95.63,4.18.3.68.87,1.21,1.57,1.47.05.02.11.03.16.05,1.03.46,2.21.6,3.29,1.01.94.36,1.95.5,2.93.72.99.22,1.94.55,2.92.81,1.09.3,2.14.67,3.21,1.05,1.38.6,2.93,1.43,3.75,2.62,0,.07,0,.15,0,.22,0,.27.02.54.04.8-.02.27-.04.54-.04.81-.02,1.07.11,1.99-.33,2.85-.62.64-1.67.98-2.57,1.09-3.3-1.06-6.88-1.39-10.24-2.09-.92-.19-1.84-.37-2.75-.62-.8-.21-1.84-.15-2.4-.76-.98-1.07-1.27-2.55-2.21,2.08h0c-.13.27-.22.65-.2.94.08,1.09.98,1.34,1.87,1.54Z"/>
  <path class="cls-1" d="M78.11,156.22C34.98,156.22,0,121.25,0,78.11S34.97,0,78.11,0c0,0,0,0,0,0C34.98,0,0,34.97,0,78.11s34.98,78.11,78.11,78.11c22.92,0,43.53-9.87,57.82-25.59-14.29,15.72-34.9,25.59-57.82,25.59Z"/>
  <path class="cls-1" d="M49.68,73.94c-.24.22-.48.44-.71.65-6.03,5.89-11.06,17.57-7.08,32.7,2.79,10.58,9.24,18.41,16.85,20.42,8.94,2.36,14.09.91,16.83-.73,2.41-1.44,3.44-3.26,3.74-3.9-1.23-1.37-2.7-1.96-2.81-1.99-6.4-1.63-10.01-.63-10.01-.63,1.05-.76,2.74-1.03,4.46-1.03,2.43,0,4.95.52,5.85.87.23.09,5.67,2.23,4.98,8.25-.37,3.26-.07,5.54.88,6.61.45.51,1.04.75,1.81.75,4.86,0,5.78-6.57,5.95-8.6.01-.35.03-.58.04-.62.02-.22.22-.39.44-.38.22.01.4.2.39.43,0,.03,0,.26-.04.62-.04,1.35.02,4.64,1.62,6.15.7.66,1.61.89,2.77.71,1.17-.19,2.06-.73,2.66-1.64,1.71-2.57.61-7.16.6-7.21-.05-.22.08-.45.3-.51.22-.06.45.07.51.29.02.08,2.42,8.26,6.31,7.29.71-.17,1.22-.57,1.55-1.21,1.07-2.03.04-5.77-.37-7.03-.09-.24-.13-.4-.15-.45-.07-.22.05-.45.27-.52.22-.07.45.04.53.25.01.04.07.19.15.44.56,1.56,2.73,6.99,5.74,6.18,1.43-.39,2.3-1.06,2.66-2.06,1.01-2.79-2.26-7.44-3.66-9.43-.79-1.12-.93-1.32-.67-1.63.48-.58,11.9-14.27,8.82-27.65-.04-.18-.09-.36-.13-.54-.93-2.38-1.92-4.9-3.16-6.9-1.14-1.69-3.13-2.77-5.23-2.58,1.94-.69,4.2.2,5.53,1.69.35.44.66.89.94,1.37-2.52-6.85-6.15-11.97-10.82-15.27-1.16-.82-2.34-1.5-3.5-2.05-.04.39-.19.77-.46,1.09-.02.03-.06.07-.09.1-.06.07-.16.18-.19.24.02.02.07.05.1.07.07.04.13.1.2.17.24.23.35.53.33.86-.05.63-.57,1.21-.99,1.51-2.77,1.96-6.62,2.44-11.78,1.48-.87-.16-1.76-.35-2.61-.54-2.89-.62-5.87-1.26-8.79-.95-2.89,4.39-8.91,6.32-13.81,4.39-1.11-.44-2.26-1.25-2.69-2.34-1.36,1.23-4.38,2.63-4.54,2.71-.8.37-2.88,1.11-4.65,1.11-.66,0-1.28-.1-1.78-.37-.59-.31-.95-.84-1.06-1.52-.04-.28-.03-.56.02-.83-.72.54-1.4,1.1-2.06,1.67ZM104.75,80.79c5.76-1.93,10.4-.22,11.88,8.71,1,6-2.28,12.01-8.28,13.01-6,1-11.67-3.06-12.66-9.06-1.48-8.94,2.07-10.32,9.06-12.66ZM93.12,94.63c.84,2.79,2.25,5.28,4.36,7.29.28.3.62.58.91.92-3.41-.97-5.92-4.69-5.26-8.21ZM92.48,104.59c.78-1.27,1.77-2.13,2.87-2.03,3.08.28,5.03,3.63,5.59,6.15,1.13,3.31-2.21,1.34-3.84.63-.57-.25-1.24-.14-1.7.28-1.58,1.41-4.78,5.08-4.78,1.59,0-1.92.71-4.72,1.86-6.61ZM73.57,84.85c7.88,1.39,12.92-1.03,13.57,8.79.44,6.8-3.43,13.07-10.15,14.19-6.72,1.11-13.07-3.43-14.18-10.15-1.61-9.66,2.46-14.29,10.76-12.83ZM61.96,84.18c-2.65,2.58-4.4,5.98-4.64,9.67-.15,1.68.18,3.4-.02,5.08-.18-1.34-.55-2.72-.67-4.06-.38-4.17,1.69-8.57,5.33-10.7Z"/>
  <path d="M76.99,107.82c6.72-1.11,10.59-7.39,10.15-14.19-.65-9.82-5.69-7.4-13.57-8.79-8.3-1.46-12.37,3.16-10.76,12.83,1.11,6.72,7.46,11.26,14.18,10.15Z"/>
  <path d="M98.39,102.84c-.28-.34-.62-.62-.91-.92-2.1-2.01-3.51-4.51-4.36-7.29-.65,3.53,1.86,7.25,5.26,8.21Z"/>
  <path d="M57.3,98.93c.2-1.68-.13-3.41.02-5.08.24-3.69,1.99-7.1,4.64-9.67-3.64,2.12-5.71,6.53-5.33,10.7.12,1.34.48,2.72.67,4.06Z"/>
  <path d="M76.09,61.2c.34.57.74,1.11,1.24,1.59.4.41.9.74,1.35,1.08.42.33.74.8,1.04,1.29-.13-.56-.36-1.11-.75-1.58-.48-.51-1.02-.97-1.41-1.55-.23-.31-.44-.62-.63-.95-.15-.26-.28-.52-.41-.79-.58-1.25-.92-2.61-1.2-3.98-.23-1.1-.42-2.22-.7-3.34-.13,2.46,0,5.17,1.05,7.44.12.27.26.53.41.79Z"/>
  <path d="M66.11,62.66c.57-2.45.39-5.1-.38-7.46-.01,2.02.03,4.01-.22,6-.07.59-.16,1.17-.27,1.74-.07.32-.13.64-.22.96-.25,1.04-.57,2.07-.95,3.1.8-1.02,1.38-2.16,1.77-3.37.1-.32.19-.64.26-.97Z"/>
  <path d="M108.35,102.51c6-.99,9.28-7.01,8.28-13.01-1.48-8.93-6.12-10.64-11.88-8.71-6.99,2.34-10.54,3.72-9.06,12.66.99,6,6.66,10.05,12.66,9.06Z"/>
  <path d="M156.22,78.11c0,20.22-7.68,38.65-20.29,52.52,12.61-13.87,20.29-32.3,20.29-52.52C156.22,34.97,121.25,0,78.11,0c0,0,0,0,0,0,43.14,0,78.11,34.97,78.11,78.11Z"/>
  <path d="M71.3,33.87s0-.04,0-.06c0,0,0,.02,0,.06Z"/>
  <path d="M0,78.11C0,121.25,34.98,156.22,78.11,156.22c22.92,0,43.53-9.87,57.82-25.59,12.61-13.87,20.29-32.3,20.29-52.52C156.22,34.97,121.25,0,78.11,0,34.97,0,0,34.97,0,78.11ZM108.28,32.36c.71-.68,4.63-1.44,5.5-.96.48.26.27,1.91.15,2.83-.02.12-.06.23-.12.33.11.58.21,1.16.23,1.75.04,1.07-.42,2.14-.4,3.21.05,1.97.32,3.93.5,5.88.09,1.03.14,2.08.4,3.09.23.9.7,1.74.88,2.66.21,1.06.39,2.13.5,3.2.04.35.09.71.13,1.06.93-.25,1.87-.5,2.77-.79,1.98-.64,3.98-1.3,5.98-1.9,1.2-.35,3.97.58,3.89,1.22.37.47-1.64.9-2.57,1.18-.85.26-1.7.68-2.52,1.02-1.14.47-2.35.77-3.54,1.15-2.33.75-5.77,2.46-8.26,2.68-.88.08-.26-1.16-.4-1.62-.04-.05-.07-.11-.08-.17-.46-1.54-.4-3.23-.56-4.82-.15-1.4-.73-2.63-1.04-3.99-.33-1.43-.23-2.98-.43-4.44-.2-1.55-.49-3.05-.54-4.63-.04-1.43-.1-2.87-.31-4.27-.16-1.06-.47-3.37-.16-3.66ZM67.55,17.64c-.48-1.52-1-3.16-1.7-4.73,4.46,4.19,8.41,8.57,10.7,13.85.33.75.63,1.56.63,2.35,0,1.79-2.87,3.74-3.69,4.14-.4.2-.86.35-1.34.47,0,0,0-.01,0-.02,0,0,0,.02,0,.02,0,0,1.91-1.37,1.83-3.61-.07-1.76-2.49-2.71-3.16-4.51-.12.49.55,2.28-1.39,5.32-1.31,2.05,1.88,2.94,1.88,2.94,0-.03,0-.05,0-.06,0,.01,0,.06,0,.06-1.02.1-3.4-.07-4.54-.79-1.09-.69-1.63-1.81-1.6-3.31.03-1.38.72-2.65,1.46-4,.75-1.37,1.53-2.79,1.62-4.43.07-1.32-.33-2.59-.68-3.71ZM64.62,36.87l.05.08c.07-.04.14-.08.22-.12,0,0,0,0,0,0,.06-.01.12-.02.17-.03v-.04c1.22-.55,3.41-.92,4.58-.94.52,0,1.04,0,1.56,0-.05,1.19-.07,2.23-.03,2.87l.84-.07c-.05-.59-.02-1.62.02-2.77,2.08.1,4.16.37,6.2.82.49.11,1.49.27,2.39.41-.2.13-.39.28-.57.41l-.14.11c-3.82,2.85-9.51,2.97-14.51.32-.18-.1-.37-.2-.55-.3-.39-.22-.79-.44-1.2-.63.32-.03.64-.07.96-.12ZM53.16,69.85c.75-.98,2.02-1.9,2.92-2.55.25-.18.48-.35.66-.49.2-.15.39-.31.59-.47,1.96-1.64,3.37-3.56,4.09-5.57.58-1.62.75-3.34.75-5.02,0-1.15-.08-2.28-.15-3.36l-.04-.59c-.13-2.05-.26-3.99-1.05-6-.08-.2-.16-.4-.24-.61-.74-1.87-1.59-3.98-1.26-5.9.2-1.15.85-1.68,1.77-1.95.39-.06.84-.03,1.29.09.68.19,1.31.53,1.97.9.19.11.37.21.57.31,5.28,2.8,11.33,2.65,15.41-.39l.14-.11c.59-.44,1.19-.89,1.79-.82.02,0,.04,0,.04,0,.9.16,1.23,1.45,1.34,2.5l1.83,10.85c.07.63.14,1.24.24,1.83,0,0,0,0,0,0,.01.18.03.35.04.52.14,1.38.28,2.76.45,4.13.1.81.21,1.64.44,2.42.08.28.18.57.3.84.11.26.25.52.4.77-.02-.26-.04-.51-.06-.76-.02-.28-.04-.56-.07-.84-.11-1.35-.23-2.68-.38-4.02.11.15.23.31.36.45,1.25,1.42,3.18,1.97,4.73,2.41l8.48,2.4c.89.25,1.89.53,2.55,1.19.05.05.1.1.14.15.25.31.42.71.46,1.1.03.35-.04.68-.26.94l-.07.08c-.2.23-.55.61-.37,1.09.09.24.28.37.41.47.04.03.08.06.11.09.05.05.07.11.07.2-.02.27-.3.65-.64.89-2.58,1.82-6.22,2.26-11.14,1.34-.86-.16-1.74-.35-2.59-.53-3.02-.64-6.13-1.31-9.25-.94-.13.01-.24.09-.31.19-2.59,4.12-8.38,6.01-12.9,4.22-1.14-.45-2.34-1.33-2.34-2.47,0-.02,0-.05,0-.07.01-.23-.17-.44-.4-.45-.23,0-.43.16-.44.39-.15.54-2.92,2.16-4.73,2.99-1.2.55-4.29,1.51-5.68.76-.36-.19-.57-.48-.63-.9-.09-.57.17-1.17.61-1.74ZM51.72,73.1c.11.68.47,1.2,1.06,1.52.5.26,1.11.37,1.78.37,1.78,0,3.86-.74,4.65-1.11.16-.07,3.18-1.47,4.54-2.71.43,1.09,1.58,1.9,2.69,2.34,4.9,1.94,10.92,0,13.81-4.39,2.92-.31,5.9.33,8.79.95.85.18,1.74.37,2.61.54,5.16.96,9.01.48,11.78-1.48.43-.3.94-.88.99-1.51.02-.33-.09-.63-.33-.86-.07-.07-.14-.12-.2-.17-.03-.02-.07-.05-.1-.07.03-.07.13-.18.19-.24.03-.03.06-.07.09-.1.28-.32.42-.7.46-1.09,1.16.55,2.34,1.23,3.5,2.05,4.67,3.3,8.3,8.43,10.82,15.27-.28-.48-.59-.93-.94-1.37-1.33-1.49-3.59-2.38-5.53-1.69,2.1-.18,4.09.89,5.23,2.58,1.24,2,2.23,4.51,3.16,6.9.04.18.08.36.13.54,3.08,13.39-8.33,27.08-8.82,27.65-.26.31-.12.5.67,1.63,1.4,1.99,4.67,6.64,3.66,9.43-.36,1-1.23,1.67-2.66,2.06-3.01.81-5.18-4.62-5.74-6.18-.08-.25-.13-.4-.15-.44-.08-.21-.31-.33-.53-.25-.22.07-.33.31-.27.52.02.04.07.2.15.45.4,1.26,1.44,5,.37,7.03-.34.64-.85,1.03-1.55,1.21-3.88.97-6.28-7.21-6.31-7.29-.07-.22-.29-.35-.51-.29-.22.06-.35.28-.3.51.01.04,1.11,4.64-.6,7.21-.6.9-1.49,1.45-2.66,1.64-1.16.18-2.06-.05-2.77-.71-1.59-1.51-1.66-4.8-1.62-6.15.03-.37.04-.59.04-.62,0-.23-.17-.41-.39-.43-.22-.02-.42.15-.44.38,0,.04-.02.26-.04.62-.17,2.03-1.09,8.6-5.95,8.6-.77,0-1.36-.24-1.81-.75-.95-1.07-1.26-3.35-.88-6.61.69-6.02-4.75-8.16-4.98-8.25-.9-.35-3.42-.87-5.85-.87-1.72,0-3.41.26-4.46,1.03,0,0,3.61-1,10.01.63.11.03,1.58.62,2.81,1.99-.31.63-1.33,2.46-3.74,3.9-2.75,1.64-7.89,3.09-16.83.73-7.61-2.01-14.06-9.84-16.85-20.42-3.98-15.13,1.05-26.81,7.08-32.7.23-.22.47-.44.71-.65.66-.57,1.35-1.14,2.06-1.67-.05.27-.07.55-.02.83ZM23.73,62.54h0c.95-4.65,1.24-3.16,2.21-2.09.56.61,1.6.55,2.4.76.91.24,1.83.43,2.75.62,3.36.7,6.94,1.03,10.24,2.09.9-.12,1.95-.45,2.57-1.09.43-.86.3-1.78.33-2.85,0-.27.02-.54.04-.81-.03-.26-.05-.53-.04-.8,0-.07,0-.15,0-.22-.82-1.19-2.37-2.02-3.75-2.62-1.07-.38-2.12-.75-3.21-1.05-.98-.26-1.93-.59-2.92-.81-.98-.22-1.99-.36-2.93-.72-1.07-.41-2.26-.55-3.29-1.01-.05-.02-.11-.03-.16-.05-.71-.26-1.28-.79-1.57-1.47-.74-1.22-.87-2.79-.63-4.18.11-.63.31-1.18.58-1.69.1-.37.23-.74.37-1.11.36-1.28,1.1-2.68,2.18-3.51.21-.23.43-.44.65-.63,1.44-1.22,3.26-1.38,5.09-1.25,2.15.15,4.28.58,6.38,1.04,2.09.46,4.23.87,6.13,1.89,1.29.69,3.51-.26,3.24,1.36-.02.16-.87,2.36-.97,2.47-.06.34-.19.66-.41.92-.53.65-1.35.63-2.14.42-.62.02-1.27-.08-1.8-.18-1.89-.35-3.79-.63-5.67-1.04-.78-.17-2.73-.39-4.02-1.02-.15,0-.31,0-.46,0-1.32-.03-2.84-.34-4.04.38-.42.25-.77.66-1.07,1.12-.21.79-.47,1.74-.19,2.42.14.36.36.65.53.96,1.66.68,3.41,1.17,5.15,1.57,2.41.55,4.8.68,7.12,1.58,1.66.65,3.83.66,4.65,2.46.18.4.3.81.39,1.22.18.2.34.44.45.72.33.82.35,1.9.31,2.77-.04.96.02,1.92-.09,2.87-.21,1.85-1.21,3.64-2.91,4.51-.81.41-1.72.49-2.62.55-1.09.07-2.15.19-3.25.14-1.26-.05-2.52-.06-3.77-.25-1.18-.18-2.32-.52-3.48-.79-1.22-.28-2.46-.14-3.68-.4-1.02-.22-2.03-.49-3.05-.72-.89-.2-1.79-.45-1.87-1.54-.02-.29.08-.68.2-.94Z"/>
  <path d="M95.4,109.61c.46-.41,1.14-.52,1.7-.28,1.63.72,4.97,2.68,3.84-.63-.56-2.51-2.51-5.87-5.59-6.15-1.11-.09-2.09.76-2.87,2.03-1.16,1.89-1.86,4.68-1.86,6.61,0,3.49,3.2-.18,4.78-1.59Z"/>
</svg>