<?xml version="1.0" encoding="UTF-8"?>
<svg id="Layer_1" data-name="Layer 1" xmlns="http://www.w3.org/2000/svg" viewBox="0 0 135.01 157.86">
  <defs>
    <style>
      .cls-1 {
        fill: #221f20;
      }
    </style>
  </defs>
  <path class="cls-1" d="M113.64,133.59c.62-.74,15.27-18.31,11.31-35.49-.06-.23-.11-.46-.16-.69-1.19-3.06-2.46-6.29-4.06-8.85-1.46-2.17-4.01-3.55-6.71-3.32,2.49-.88,5.39.25,7.09,2.17.45.56.85,1.14,1.21,1.75-3.24-8.79-7.89-15.36-13.89-19.6-1.49-1.05-3-1.93-4.49-2.64-.06.51-.24.99-.6,1.4-.03.04-.07.09-.11.13-.07.08-.2.23-.25.31.03.02.09.06.13.09.08.06.17.13.26.21.31.29.45.68.42,1.11-.06.81-.73,1.56-1.27,1.94-3.56,2.52-8.5,3.14-15.12,1.91-1.12-.21-2.26-.45-3.35-.69-3.71-.79-7.53-1.61-11.28-1.22-3.71,5.64-11.43,8.11-17.72,5.63-1.42-.56-2.9-1.6-3.45-3-1.75,1.58-5.62,3.38-5.83,3.47-1.02.47-3.69,1.42-5.97,1.42-.85,0-1.64-.13-2.28-.47-.75-.4-1.22-1.08-1.36-1.95-.06-.36-.04-.72.03-1.07-.92.69-1.8,1.41-2.65,2.15-.31.28-.61.56-.91.84-7.74,7.56-14.19,22.55-9.08,41.97,3.58,13.58,11.86,23.62,21.62,26.2,11.48,3.03,18.08,1.16,21.6-.93,3.1-1.84,4.41-4.19,4.8-5-1.58-1.76-3.46-2.52-3.61-2.55-8.21-2.09-12.84-.8-12.84-.8,1.35-.98,3.51-1.32,5.72-1.32,3.12,0,6.35.67,7.51,1.11.3.11,7.27,2.87,6.39,10.59-.48,4.18-.09,7.11,1.13,8.48.57.65,1.34.96,2.32.96,6.23,0,7.41-8.43,7.63-11.04.02-.45.04-.74.05-.79.03-.29.29-.51.57-.49.29.02.51.26.51.55,0,.04-.01.33-.05.8-.06,1.73.03,5.95,2.08,7.89.9.85,2.06,1.14,3.55.91,1.5-.24,2.64-.94,3.41-2.1,2.2-3.29.79-9.19.77-9.25-.07-.29.1-.57.38-.65.29-.07.57.09.66.38.03.1,3.11,10.6,8.09,9.36.91-.22,1.56-.73,1.99-1.55,1.38-2.61.05-7.4-.47-9.02-.11-.31-.17-.52-.19-.57-.08-.28.07-.57.34-.67.28-.09.58.05.68.32.02.05.09.24.19.56.72,2,3.5,8.97,7.37,7.93,1.83-.5,2.95-1.36,3.41-2.64,1.29-3.58-2.9-9.55-4.7-12.1-1.01-1.44-1.19-1.7-.86-2.09ZM43.37,103.87c-.19,2.15.23,4.37-.03,6.52-.23-1.72-.7-3.49-.86-5.21-.49-5.35,2.17-11,6.84-13.73-3.4,3.3-5.64,7.68-5.95,12.41ZM68.61,121.8c-8.62,1.43-16.77-4.4-18.2-13.02-2.06-12.4,3.16-18.34,13.81-16.46,10.11,1.79,16.58-1.33,17.41,11.28.57,8.72-4.4,16.77-13.03,18.2ZM89.32,104.86c1.08,3.58,2.89,6.78,5.59,9.36.37.39.8.74,1.16,1.18-4.37-1.24-7.6-6.01-6.76-10.54ZM94.42,123.74c-.73-.32-1.59-.18-2.19.36-2.03,1.81-6.13,6.52-6.13,2.04,0-2.47.91-6.06,2.39-8.48,1-1.63,2.27-2.73,3.69-2.61,3.95.36,6.46,4.66,7.17,7.89,1.45,4.25-2.84,1.72-4.93.8ZM108.86,114.98c-7.7,1.28-14.97-3.93-16.25-11.62-1.91-11.47,2.65-13.24,11.62-16.25,7.4-2.47,13.34-.29,15.25,11.18,1.28,7.7-2.93,15.42-10.62,16.69Z"/>
  <path class="cls-1" d="M102.5,67.97c-.17-.12-.41-.29-.53-.6-.22-.61.21-1.1.48-1.39l.09-.1c.28-.33.37-.76.33-1.2-.04-.5-.26-1.01-.58-1.41-.05-.07-.11-.13-.18-.19-.86-.84-2.14-1.21-3.28-1.52l-10.89-3.09c-1.99-.56-4.46-1.27-6.07-3.1-.17-.19-.32-.38-.46-.58.19,1.72.34,3.44.49,5.16.03.36.06.72.08,1.08.03.32.05.65.07.98-.2-.32-.37-.65-.52-.99-.16-.36-.28-.72-.39-1.08-.3-1.01-.44-2.08-.57-3.11-.22-1.76-.4-3.53-.58-5.3-.02-.22-.04-.44-.06-.67,0,0,0,0,0-.01-.13-.75-.23-1.53-.31-2.34l-2.35-13.93c-.15-1.35-.56-3.01-1.72-3.21-.01,0-.03,0-.06-.01-.77-.09-1.54.49-2.29,1.05l-.18.14c-5.24,3.91-12.99,4.1-19.78.5-.25-.13-.49-.27-.73-.4-.85-.47-1.65-.91-2.53-1.15-.57-.16-1.14-.19-1.65-.12-1.17.35-2.02,1.02-2.27,2.5-.42,2.46.66,5.17,1.61,7.57.1.27.21.53.31.78,1.01,2.59,1.17,5.07,1.34,7.71l.05.76c.09,1.38.19,2.83.19,4.31,0,2.16-.21,4.36-.96,6.44-.93,2.58-2.74,5.04-5.25,7.14-.25.2-.5.41-.75.6-.24.19-.53.4-.85.63-1.15.83-2.78,2-3.74,3.27-.56.73-.9,1.49-.78,2.23.08.54.34.91.8,1.16,1.79.96,5.75-.27,7.29-.98,2.31-1.07,5.88-3.14,6.07-3.83.01-.3.26-.51.56-.5.3.02.53.28.51.57,0,.03,0,.06,0,.09,0,1.46,1.53,2.59,3,3.17,5.81,2.29,13.23-.14,16.55-5.42.08-.14.23-.23.39-.25,4-.49,8,.38,11.88,1.2,1.09.23,2.22.48,3.33.68,6.32,1.18,10.99.62,14.3-1.72.44-.31.8-.8.82-1.15,0-.11-.02-.18-.09-.25-.05-.04-.09-.08-.15-.11ZM54.66,63.84c-.09.42-.21.83-.34,1.24-.5,1.56-1.25,3.02-2.27,4.33.48-1.32.89-2.64,1.22-3.97.1-.41.19-.82.28-1.23.15-.74.27-1.48.35-2.23.32-2.56.26-5.11.28-7.71.99,3.03,1.22,6.43.49,9.57ZM70.78,65.39c-.58-.43-1.23-.86-1.74-1.38-.63-.62-1.15-1.31-1.59-2.04-.2-.33-.38-.66-.53-1.01-1.35-2.92-1.52-6.4-1.35-9.55.35,1.44.6,2.88.89,4.29.37,1.75.8,3.5,1.55,5.11.16.34.33.68.52,1.01.24.42.51.82.8,1.22.51.74,1.2,1.34,1.81,1.99.5.61.8,1.31.97,2.03-.38-.63-.8-1.23-1.34-1.65Z"/>
  <path class="cls-1" d="M73.29,31c-.25.17-.49.36-.73.53l-.18.14c-4.9,3.65-12.21,3.82-18.63.41-.24-.13-.47-.26-.71-.39-.5-.28-1.01-.56-1.54-.8.41-.04.82-.09,1.23-.15l.06.1c.09-.05.18-.1.28-.16,0,0,0,0,.01,0,.08-.01.15-.03.22-.04v-.06c1.57-.71,4.38-1.18,5.87-1.2.67-.01,1.34,0,2.01.01-.06,1.53-.09,2.86-.03,3.68l1.08-.09c-.06-.76-.03-2.08.03-3.56,2.68.13,5.34.48,7.95,1.05.62.14,1.91.35,3.07.53Z"/>
  <path class="cls-1" d="M68.85,20.79c0,2.3-3.68,4.8-4.74,5.32-.51.25-1.1.46-1.72.6,0-.07,0,0,0,0,0,0,2.45-1.75,2.34-4.63-.08-2.26-3.19-3.48-4.05-5.79-.16.62.71,2.93-1.79,6.83-1.68,2.63,2.41,3.77,2.41,3.77,0,0,0-.18,0,0-1.31.13-4.36-.09-5.83-1.01-1.4-.89-2.09-2.33-2.06-4.24.04-1.77.93-3.4,1.87-5.13.97-1.76,1.97-3.58,2.08-5.68.09-1.69-.43-3.32-.88-4.76-.62-1.96-1.28-4.05-2.18-6.07,5.73,5.38,10.79,10.99,13.73,17.78.42.97.81,2.01.81,3.02Z"/>
  <path class="cls-1" d="M27.88,68.75c-1.04.53-2.21.63-3.36.71-1.4.09-2.76.25-4.17.19-1.61-.07-3.24-.08-4.84-.33-1.51-.23-2.98-.67-4.47-1.02-1.56-.36-3.15-.18-4.72-.52-1.31-.28-2.61-.63-3.91-.92-1.15-.26-2.3-.58-2.4-1.97-.03-.38.1-.87.26-1.2,0,0,0,0,0-.01,1.21-5.95,1.58-4.04,2.84-2.67.72.78,2.06.71,3.08.98,1.16.31,2.35.55,3.53.79,4.31.9,8.91,1.32,13.14,2.68,1.16-.15,2.5-.58,3.3-1.4.55-1.11.39-2.29.42-3.66,0-.35.03-.7.06-1.04-.03-.34-.06-.68-.06-1.03,0-.09,0-.19,0-.28-1.05-1.53-3.04-2.59-4.81-3.36-1.37-.48-2.71-.97-4.12-1.35-1.25-.34-2.47-.76-3.74-1.04-1.25-.28-2.56-.47-3.76-.93-1.38-.52-2.9-.7-4.22-1.29-.07-.02-.14-.04-.21-.07-.91-.33-1.64-1.01-2.02-1.88-.96-1.57-1.12-3.58-.81-5.36.14-.81.4-1.52.74-2.17.13-.48.29-.96.48-1.43.46-1.65,1.41-3.43,2.79-4.51.27-.3.55-.57.84-.81,1.85-1.57,4.19-1.78,6.54-1.61,2.76.2,5.5.74,8.19,1.34,2.68.59,5.43,1.11,7.88,2.42,1.65.88,4.5-.34,4.15,1.75-.03.21-1.12,3.02-1.25,3.18-.07.43-.24.85-.52,1.19-.68.84-1.73.8-2.75.54-.79.03-1.63-.11-2.31-.23-2.42-.44-4.86-.81-7.27-1.34-1-.22-3.5-.51-5.15-1.31-.2,0-.39,0-.59,0-1.7-.03-3.64-.43-5.18.49-.54.32-.99.84-1.38,1.44-.27,1.01-.6,2.22-.24,3.1.19.46.46.84.68,1.23,2.13.87,4.37,1.5,6.6,2.01,3.09.7,6.15.87,9.13,2.03,2.12.83,4.92.84,5.97,3.15.23.51.39,1.03.5,1.56.24.26.43.56.58.93.41,1.05.44,2.44.39,3.56-.06,1.23.03,2.46-.11,3.68-.27,2.37-1.55,4.68-3.73,5.78Z"/>
  <path class="cls-1" d="M131.65,54.17c-1.1.34-2.18.88-3.24,1.31-1.47.6-3.01.99-4.54,1.48-2.99.96-7.4,3.16-10.6,3.44-1.13.1-.33-1.49-.51-2.08-.05-.07-.08-.14-.11-.22-.59-1.98-.51-4.14-.72-6.19-.19-1.8-.93-3.37-1.33-5.12-.42-1.84-.3-3.83-.55-5.7-.26-1.99-.64-3.92-.69-5.94-.05-1.84-.13-3.68-.4-5.48-.2-1.36-.6-4.32-.2-4.7.92-.87,5.94-1.85,7.06-1.24.62.34.35,2.45.19,3.63-.02.16-.08.29-.16.42.14.74.26,1.49.29,2.25.05,1.37-.54,2.75-.51,4.12.06,2.53.41,5.04.64,7.55.12,1.32.18,2.67.51,3.96.3,1.16.89,2.23,1.12,3.41.27,1.35.5,2.73.64,4.1.05.45.12.91.16,1.37,1.19-.32,2.39-.64,3.55-1.01,2.54-.83,5.11-1.67,7.68-2.43,1.54-.45,5.09.75,4.99,1.57.47.6-2.1,1.15-3.3,1.52Z"/>
</svg>