<?xml version="1.0" encoding="UTF-8"?>
<svg id="Layer_1" data-name="Layer 1" xmlns="http://www.w3.org/2000/svg" viewBox="0 0 232 99.71">
  <defs>
    <style>
      .cls-1 {
        fill: #231f20;
      }
    </style>
  </defs>
  <g>
    <path class="cls-1" d="M33.03,38.92c-.95.83-2.15,1.25-3.33,1.63-1.44.47-2.83.99-4.32,1.3-1.71.35-3.41.77-5.15.94-1.65.16-3.29.08-4.95.12-1.73.03-3.35.64-5.08.7-1.45.05-2.89.03-4.34.07-1.27.03-2.57,0-3.04-1.43-.13-.39-.13-.93-.04-1.33,0,0,0-.01,0-.01-.3-6.55.59-4.65,2.27-3.55.96.63,2.34.2,3.49.21,1.3.02,2.6-.05,3.9-.1,4.75-.19,9.68-.97,14.47-.67,1.17-.46,2.47-1.27,3.08-2.34.28-1.3-.2-2.5-.53-3.94-.08-.37-.15-.74-.22-1.11-.12-.35-.24-.7-.33-1.06-.02-.1-.05-.2-.07-.3-1.51-1.32-3.86-1.91-5.92-2.24-1.56-.15-3.1-.29-4.67-.32-1.4-.02-2.79-.14-4.19-.1-1.39.04-2.8.19-4.18.02-1.58-.19-3.22.03-4.75-.24-.08,0-.16,0-.24-.01-1.04-.1-1.98-.62-2.61-1.44C.86,22.33.17,20.28.02,18.33c-.07-.88.02-1.69.2-2.47.01-.54.06-1.08.12-1.62.04-1.84.56-3.96,1.73-5.46.21-.38.43-.74.66-1.06,1.52-2.13,3.91-2.97,6.42-3.41,2.94-.52,5.95-.67,8.93-.76,2.97-.09,5.98-.28,8.89.45,1.96.49,4.62-1.54,4.81.73.02.22-.38,3.46-.47,3.65.04.47-.03.95-.23,1.38-.49,1.06-1.6,1.3-2.73,1.29-.82.24-1.73.32-2.48.37-2.65.18-5.3.43-7.97.52-1.1.04-3.8.4-5.74,0-.21.05-.41.1-.62.15-1.79.41-3.92.51-5.29,1.88-.48.48-.81,1.15-1.06,1.87-.02,1.12-.04,2.49.57,3.31.32.43.71.76,1.04,1.11,2.46.34,4.97.41,7.44.35,3.42-.08,6.67-.72,10.1-.28,2.44.31,5.37-.42,7.08,1.72.38.47.68.98.94,1.5.32.21.6.47.85.82.71.99,1.11,2.44,1.35,3.63.26,1.3.68,2.56.86,3.88.35,2.55-.38,5.31-2.38,7.04Z"/>
    <path class="cls-1" d="M63.95,20.51c-.02,1.02.72.43.02.77-.05.06-.4,1.76-.45,1.82-.95.96-2.18.72-3.41.89-1.62.22-3.27-.04-4.89.22-1.63.25-3.21.34-4.85.48-.84.07-1.66.15-2.48.17.17,1.33.4,2.61.37,4.01-.03,1.57-.12,3.12-.1,4.69.02,1.17.34,2.19.57,3.27.22.03.44.06.66.07.94.04,1.89-.09,2.83-.06,1.78.05,3.55.12,5.32.25,1.49.1,5.95.71,5.95.71,0,0,.17,2.32-.07,3.5.05.88-.58,1.89-1.59,2.07-1.32.23-2.51.07-3.82.03-1.14-.03-2.28-.03-3.42-.09-1.63.04-3.29-.07-4.92-.21-.78.06-1.55.16-2.3.3-1.16.21-.49.28-1.65-.04-1.17-.33-1.7-1.71-1.43-2.83-.07-1.31-.02-2.62-.23-3.91-.26-1.59-.33-3.12-.47-4.72-.32-3.66.09-7.35-.12-11.02-.15-2.7-.71-5.4-.8-8.1-.04-1.29-.2-2.54-.26-3.83-.05-1.1-.36-2.19-.34-3.29.04-2.24-1.08-3.68.8-2.92,1.45-.14,4.62.23,6.05.38,1.47.15,2.95.71,4.41.65,2.21-.09,7.67,1.19,7.67,1.19,0,0,.1,2.45-.29,3.03-.02.14-.03.28-.04.43-.04.69-.49,1.44-1.23,1.57-2.32.42-4.58-.45-6.87-.74-.78-.1-1.56-.26-2.35-.44-1.07,0-2.15-.18-3.21-.33.09.85.19,1.7.27,2.56.21,2.3.31,6.63.36,8.93,1.43-.13,2.9-.15,4.3-.22,1.94-.09,3.89-.09,5.83-.18,2.34-.11,6.25-2.42,6.17.95Z"/>
    <path class="cls-1" d="M86.62,8.73c0-.06-.01-.12-.02-.18-.13-.6-.25-1.19-.33-1.81-.01-.11-.03-.21-.04-.32-.34-.05-.62-.19-.85-.39-.43-.04-.89-.07-1.35-.07-1,.62-1.77,1.8-2.57,2.95-1.55,2.25-2.21,4.82-2.77,7.44-.25,1.16-.57,2.3-.91,3.44,0,2.22.1,4.43-.19,6.66-.17,1.3-.66,2.55-.81,3.87-.17,1.48-.22,2.92-.16,4.41.02.45-.04,1.17.06,1.73.11.18.23.36.35.52.03,0,.06.01.09.02,1.06.2,2.12.32,3.2.34.34-.11.67-.23,1.05-.28.66-.07,1.33-.13,1.99-.19.75-.07,1.46-.23,2.11-.52.21-.77.53-1.6.6-1.84.57-2.11,1.01-4.98,3.71-5.21,1.08-.09,3.38-.04,3.38-.04,0,0-.91,7.08-1.34,9.55-.16.9-.55,2.75-1.23,3.02-1.52.67-6.56,1.07-9.18,1-2.55-.07-5.21-.24-7.04-2.14-.64-.38-1.18-.89-1.52-1.59-.23-.47-.37-.98-.46-1.51-.68-1.53-1.05-3.17-1.12-4.93-.07-1.61.03-3.18.24-4.72-.13-.82.04-1.65.12-2.48.14-1.47.26-2.92.49-4.38.46-2.95.9-5.98,1.74-8.86.26-.9.54-1.81.87-2.69.42-1.97.98-3.97,2.28-5.39.59-.65,1.32-1.13,2.12-1.49.51-.6,1.11-1.1,1.89-1.42,4.16-1.67,8.72-2.01,11.59,1.28,0,0,.32,5.46,0,7.65-.29,1.94-.39,4.83-2.54,5.31-2.27.51-3.26-1.68-3.46-3.54-.11-1.05-.1-2.14-.02-3.2Z"/>
    <path class="cls-1" d="M122.8,17.58c0,1.33-.15,2.73-.81,3.9-.74,1.3-2.03,2.09-3.46,2.43-.67.16-1.34.24-2.03.29.11.51.22,1.03.34,1.54.43,1.94.73,3.91,1.23,5.83.43,1.66.86,3.34,1.05,5.04.05.41.24.78.37,1.17.12.37.21.76.3,1.14.16.67.8,2.38.83,3.07.03.62-.64.12-1.25.28-.4.11-.85.09-1.25.16-.36.05-.71.09-1.07.11-.52.03-1.07.11-1.58-.03-.67-.19-.75-.86-.96-1.42-.3-.78-.59-1.54-.82-2.34-.22-.76-.53-1.53-.56-2.32-.03-.81-.38-1.58-.68-2.33-.31-.77-.61-1.53-.85-2.33-.25-.82-.53-1.63-.8-2.45-.26-.81-.47-1.65-.8-2.44-.31-.75-.65-1.46-.84-2.25,0,.09,0,.19.01.28.01,1.55-.38,3.07-.59,4.6-.21,1.51-.4,3.01-.45,4.53-.02.74-.18,1.49-.13,2.23.05.73.23,1.44.25,2.18.02.66.06,1.29.17,1.94.07.44.12.88.12,1.33,0,.37-.29,1.13-.29,1.13,0,0-1.03.08-1.56,0-.72-.11-1.53.03-2.25.04-.77.02-1.5.14-2.27.22-.48.05-1.09.14-1.49-.19-.36-.29-.45-.76-.44-1.2,0-.49.12-.97.18-1.46.08-.57.05-1.14.13-1.71.11-.74.3-1.46.43-2.2.14-.76.18-1.51.15-2.28-.06-1.62,0-3.21.06-4.84.03-.75.02-1.5-.03-2.25-.05-.71-.1-1.42-.03-2.12.08-.74.28-1.48.41-2.21.13-.78.23-1.57.27-2.36.04-.78.23-1.51.22-2.3-.01-.79-.05-1.58-.06-2.37-.02-1.59-.07-3.17-.07-4.76,0-.43,0-.86.04-1.28.03-.37.12-.75.14-1.12.02-.38-.04-.77.01-1.15.04-.3.22-.58.2-.88,0-.08.01-.14.04-.2.02-.43.08-.85.17-1.28.04-.19.21-.37.4-.41.46-.12.92-.1,1.39-.09.5,0,.97-.06,1.46-.17.98-.21,1.95-.39,2.92-.6,1-.22,2.03-.14,3.05-.16,1.08-.02,2.17-.02,3.25-.07.42-.02.84-.09,1.26.03.4.11.78.34,1.14.53.7.38,1.38.84,2.07,1.26,1.2.73,1.79,2.11,2.17,3.41.47,1.6.9,3.28,1.02,4.95.09,1.31.18,2.63.18,3.94ZM114.53,11.65c-.43-.32-.94-.55-1.46-.66-.65-.14-1.36-.04-2.03-.03-.45,0-.93.06-1.39.02-.03,1.07-.14,2.13-.28,3.19.51.02,1.05-.01,1.54-.06.71-.07,1.39-.3,2.1-.37.46-.05.83-.09,1.26-.36.33-.21.61-.53.66-.92.05-.37-.08-.57-.39-.79Z"/>
    <path class="cls-1" d="M151.53,20.51c-.02,1.02.72.43.02.77-.05.06-.4,1.76-.45,1.82-.95.96-2.18.72-3.41.89-1.62.22-3.27-.04-4.89.22-1.63.25-3.21.34-4.85.48-.84.07-1.66.15-2.48.17.17,1.33.4,2.61.37,4.01-.03,1.57-.12,3.12-.1,4.69.02,1.17.34,2.19.57,3.27.22.03.44.06.66.07.94.04,1.89-.09,2.83-.06,1.78.05,3.55.12,5.32.25,1.49.1,5.95.71,5.95.71,0,0,.17,2.32-.07,3.5.05.88-.58,1.89-1.59,2.07-1.32.23-2.51.07-3.82.03-1.14-.03-2.28-.03-3.42-.09-1.63.04-3.29-.07-4.92-.21-.78.06-1.55.16-2.3.3-1.16.21-.49.28-1.65-.04-1.17-.33-1.7-1.71-1.43-2.83-.07-1.31-.02-2.62-.23-3.91-.26-1.59-.33-3.12-.47-4.72-.32-3.66.09-7.35-.12-11.02-.15-2.7-.71-5.4-.8-8.1-.04-1.29-.2-2.54-.26-3.83-.05-1.1-.36-2.19-.34-3.29.04-2.24-1.08-3.68.8-2.92,1.45-.14,4.62.23,6.05.38,1.47.15,2.95.71,4.41.65,2.21-.09,7.67,1.19,7.67,1.19,0,0,.1,2.45-.29,3.03-.02.14-.03.28-.04.43-.04.69-.49,1.44-1.23,1.57-2.32.42-4.58-.45-6.87-.74-.78-.1-1.56-.26-2.35-.44-1.07,0-2.15-.18-3.21-.33.09.85.19,1.7.27,2.56.21,2.3.31,6.63.36,8.93,1.43-.13,2.9-.15,4.3-.22,1.94-.09,3.89-.09,5.83-.18,2.34-.11,6.25-2.42,6.17.95Z"/>
    <path class="cls-1" d="M175.16,5.44c-1.46.74-3.11.85-4.72,1.07-.02.49-.03.96-.03,1.42.02,1.36.03,2.73-.14,4.09.05.92.07,1.84.04,2.8-.03,1.16-.17,2.32-.29,3.48.11,1.82.26,3.66.12,5.48-.3,3.7.17,7.39.23,11.1.03,1.59,0,3.18-.08,4.77-.06,1.25.22,4.38.22,4.38,0,0-4.42.51-4.72.38-.69.14-1.43-.14-1.67-1.03-.01-.06-.03-.12-.04-.19,0-.04-.01-.08-.02-.12-.2-1.1.09-2.16.19-3.27.12-1.4.21-2.86.12-4.27-.1-1.59-.45-3.27-.3-4.86.12-1.34.57-2.65.77-3.98.27-1.89-.11-3.83-.05-5.73.05-1.6.43-3.17.47-4.78.04-1.65-.26-3.27-.29-4.91-.02-1.41-.02-2.81-.03-4.22-.12,0-.24.01-.37.02-1.4.05-2.99.85-4.39.4-.18-.06-.34-.13-.48-.22-.62-.1-1.15-.56-1.16-1.42,0-.31,0-.63.02-.95-.47-3.45-.06-3.24,1.79-3.47,2.54-.32,5.11-.49,7.67-.6,1.29-.06,2.59-.04,3.88-.07.92-.03,2.07-.04,3.03.21l.93.24c0,.06-.13,2.22-.15,2.28.35.68.27,1.58-.53,1.99Z"/>
    <path class="cls-1" d="M23.9,94.12c-.07.83,0,1.69,0,2.53,0,.41.01.83.03,1.24.01.29.05.57-.04.85-.23.78-1.06.81-1.73.69-.16-.03-.32-.08-.48-.09-.22,0-.42.03-.65,0-.34-.05-.67-.15-1.01-.21-.75-.15-1.52-.18-2.28-.33-.79-.16-1.57-.21-2.38-.22-1.68,0-3.38.01-5.05.14-.79.06-1.59.09-2.39.17-.77.08-1.52.23-2.29.27-.8.03-1.58-.05-2.37-.1-.72-.04-1.46.1-2.18-.03-.24-.04-.48-.28-.53-.52-.32-1.49.25-3.02.41-4.49.04-.4-.02-.8-.02-1.19,0-.42.04-.84.09-1.25.08-.79.12-1.57.12-2.37,0-.77.09-1.53.15-2.3.06-.73,0-1.44.03-2.16.02-.35.11-.68.12-1.03.02-.35.03-.69.06-1.04.06-.72.14-1.43.15-2.15.03-1.49.16-2.98.31-4.46.15-1.51.19-2.98.19-4.5,0-1.47.07-2.93.1-4.4.04-1.51.28-2.99.25-4.5-.03-1.51-.05-3.02-.06-4.54,0-.75.15-1.48.3-2.2.08-.36.14-.72.2-1.07,0-.16.01-.31.03-.47.04-.34.04-.72.14-1.05.08-.28.26-.5.49-.66.2-.18.42-.25.65-.23.17-.02.34-.04.5-.08.72-.19,1.44-.22,2.18-.14.67.07,1.53.09,1.88.76.18.34.11.7.07,1.06-.05.41-.08.82-.12,1.22-.08.81-.17,1.61-.23,2.42-.12,1.64.03,3.27-.08,4.91-.22,3.32-.3,6.62-.24,9.94.03,1.67.08,3.33.06,5-.02,1.67-.07,3.34-.05,5.01.02,1.66.26,3.31.28,4.96,0,.82,0,1.63,0,2.45,0,.09,0,.17,0,.26.17.02.34.03.51.05.93.08,1.86,0,2.79.04.9.02,1.8.12,2.7.16.93.05,1.85.1,2.77.21.77.09,1.48.32,2.24.47.8.16,1.61.18,2.42.31.57.09,1.55.21,1.88.76.32.52.11,1.36.06,1.92Z"/>
    <path class="cls-1" d="M50.32,91.26s-.02,1.72-.03,1.74c0,.05-.02.11-.03.16-.13.71-.81,1.06-1.45,1.15-.93.13-.84-.13-1.77-.14-.86,0-1.71,0-2.57-.07-.13,0-.26-.01-.39-.02-.42,0-.84,0-1.26,0-1.23.05-2.47.21-3.7.23-1.76.03-3.21.15-4.97.13-1.28-.01-2.45.88-2.43-.51,0-.6.29-3.32.29-3.32,0,0,1.68-.27,2.53-.19,1.59.14,2.12.26,3.7.26,0-.73.01-1.47.03-2.2,0-.37-.02-.74-.04-1.11-.08-1.31-.45-2.59-.53-3.9-.16-2.58.36-5.17.4-7.77.04-2.8.45-3.93.17-6.72-.17-1.68-.46-3.82-.32-5.75-.28,0-.56.01-.83.01-1.26.02-2.41-.19-3.63.1-1.61.38-2.87-.66-3.05-2.24-.04-.35.07-.85-.03-1.18-.3-.99-.14-3.09-.14-3.09.97-.55,3.18-.05,4.25-.03,1.5.02,2.62-.06,4.11.12,1.66.2,3.28.14,4.95.09,1.57-.05,2.09.34,3.67.34.59,0,2.44.2,2.8.48,0,0,.46,4.33-2.2,4.64-1.28.15-1.39.43-2.71.44-.91.01-1.81.13-2.71.2.02,2,0,3.98-.19,5.99-.23,2.6.15,3.51.22,6.12.12,5.15-.48,10.3-.49,15.46,2.64.06,4.26.25,6.9.21q1.22-.02,1.44.36Z"/>
    <path class="cls-1" d="M82.92,69.65c-.25,1.66-1.86,2.48-3.21,3.17-.4.2-.81.39-1.23.55-.39.15-.81.2-1.2.35-.38.15-.71.38-1.1.49-.4.11-.81.17-1.22.23-.55.08-1.09.15-1.64.22.83.14,1.65.36,2.37.78.58.34,1.13.75,1.55,1.29.37.47.76.98,1.06,1.49.65,1.12.82,2.44.86,3.72.04,1.54-.07,3.08-.08,4.62-.01,1.44-.06,2.89-.22,4.32-.14,1.2-.53,2.73-1.64,3.42-.63.39-1.34.14-2.02.29-.38.08-.74.23-1.12.3-.35.06-.7.1-1.05.14-.72.08-1.45.08-2.16.19-.77.12-1.54.26-2.32.36-.73.1-1.45.23-2.18.26-.77.03-1.54.02-2.32.03-.75.01-1.5,0-2.25-.04-.71-.04-1.44-.01-2.15-.13-.48-.08-1.02-.22-1.47-.4-.62-.25-.72-.71-.59-1.31.14-.71.06-1.47.05-2.19,0-.73.05-1.44.09-2.16.08-1.55.06-3.11.06-4.66,0-.78,0-1.57-.02-2.35-.01-.75.1-1.49.1-2.24,0-.74-.02-1.47-.04-2.21,0-.41-.04-.82-.03-1.23,0-.37.09-.72.11-1.09.04-.72-.02-1.46-.03-2.19-.01-.73.02-1.48-.04-2.21-.1-1.35-.34-2.72-.19-4.08.09-.74.32-1.46.46-2.18.15-.77.25-1.53.27-2.32.01-.69.07-1.37.14-2.06.03-.29.12-.57.13-.85,0-.03,0-.05,0-.07-.03-.06-.05-.12-.05-.19v-.11c0-.18.09-.39.26-.48.41-.21.77-.21,1.22-.23.47-.02.94-.04,1.41-.06.49-.01.98,0,1.47-.03.46-.02.9-.18,1.37-.18.94,0,1.86-.2,2.81-.19,1.04.01,2.09.06,3.13.12.88.05,1.76.13,2.64.18.89.05,1.79.06,2.68.16.89.1,1.8.27,2.67.49.71.18,1.41.59,2.01,1,1.41.94,1.8,2.66,2.04,4.22.14.92.23,1.85.36,2.78.11.76.35,1.49.23,2.26ZM72.01,83.9c-.04-.41-.19-.8-.27-1.2-.08-.37-.11-.75-.14-1.13-.07-.69-.21-1.21-.86-1.54-.33-.17-.71-.09-1.07-.13-.44-.05-.87-.08-1.32-.07-1.41.01-2.82.11-4.22.11.04,1.3.08,2.6-.03,3.9-.08.97-.18,1.93-.19,2.9,0,.63-.03,1.27,0,1.91.15,0,.3,0,.44,0,.51.01,1.03,0,1.55-.02.5,0,1,.01,1.49-.1.5-.11.99-.22,1.51-.24.47-.02.89-.1,1.35-.19.25-.05.51-.09.76-.12.17-.02.41,0,.56-.08.33-.14.41-.98.46-1.34.12-.87.06-1.81-.03-2.67ZM74.58,69.3s0,0,0,0c.03,0,.16-.03.14-.04-.08-.08-.13-.11-.16-.11,0-.11.02-.23.03-.33.04-.44.11-.84.06-1.29-.04-.44-.12-.88-.14-1.33-.01-.44,0-.87-.11-1.3-.04-.14-.09-.28-.12-.42,0-.03-.05-.13-.06-.2-.17-.04-.36-.2-.53-.25-.21-.07-.43-.1-.64-.13-.42-.06-.83-.08-1.25-.07-.94.02-1.87.07-2.81.09-.88.02-1.75.09-2.62.11-.42,0-.84-.04-1.25-.15-.1-.03-.19-.05-.29-.06,0,.33-.01.67-.07,1-.09.54-.16,1.03-.14,1.58.01.54.03,1.08-.03,1.61-.05.43-.08.84-.06,1.27.01.32.03.64.04.96.03,0,.07-.01.11-.01.58-.01,1.15-.01,1.73-.04.52-.02,1.03-.13,1.55-.16,1.02-.07,2,.09,3.01-.12.87-.18,1.74-.26,2.6-.44.32-.07.65-.09.97-.13.04.15.13.31.04.04,0-.01,0-.03,0-.04ZM74.56,69.14c0,.06,0,.11.01.16-.01,0-.02,0-.03,0-.02-.08-.03-.16.02-.16Z"/>
    <path class="cls-1" d="M118.89,93.92c-.3.25-1.59,1.1-1.97,1.24-.12.62-.85,1.11-1.44,1.1-.01,0-.02,0-.04,0-.7.56-1.84.62-2.28-.33-.13-.29-.29-.57-.46-.86-1.34-.98-2.62-2.19-3.69-3.32-1.55-1.65-3.17-3.21-4.8-4.77-1.48-1.41-2.91-2.99-4.16-4.62-.91-.94-1.75-1.95-2.64-2.9-.51,2.29-.72,4.6-.9,6.94-.17,2.27-.59,4.51-.56,6.79.02,1.6.25,4.25-1.6,4.97-.59.23-1.17.18-1.7-.05-.13,0-.26,0-.38-.04-1.12.34-1.72,1.03-1.92-.47-.18-1.33-.21-3.68-.11-4.97.12-1.59.62.68.75-.91.14-1.68.37-8.21.51-9.88.12-1.4.06-2.8.32-4.19.57-3.11.58-6.31,1.1-9.44.47-2.83.31-5.71.69-8.54.08-.59.17-1.7.17-1.7,0,0,1.25.15,1.71.16.38,0,.76,0,1.14-.01.17-.01.34-.01.52-.01.16,0,.32-.01.5,0,.36.03.7.1,1.01.23,1.13-.02,2.28-.07,3.38.06,1.91.22,3.81.39,5.73.58,2.36.23,4.7.9,5.8,2.68,2.14,2.51,1.25,7.99.63,10.53-.55,2.27-2.45,3.69-4.67,4.28-1.72.45-3.94.63-5.84.19.5.58.89,1.12,1.46,1.64.77.7,1.42,1.58,2.2,2.27.8.71,1.65,1.31,2.39,2.1,1.6,1.69,3.06,3.63,4.46,5.49,1.24,1.64,3.39,2.98,4.11,4.95.17.46.95.51.56.83ZM99.43,69.35c.47.06.93.12,1.4.14.74.04,1.46,0,2.2.04.15-.04.29-.09.44-.12.76-.2,1.75-.14,2.46-.48.02,0,.03-.02.05-.03.17-.15.33-.31.48-.49.31-.6.18-1.48.17-2.19,0-.62-.12-1.08-.34-1.49-1.46-.88-4.24-.86-6.03-.49-.02.13-.03.26-.05.38-.24,1.58-.5,3.16-.76,4.73Z"/>
    <path class="cls-1" d="M155.61,95.22c-.07.13-.16.22-.26.29-.37.13-.74.26-1.11.39-.37.1-.73.19-1.1.28-.1.02-.19.05-.29.08-.06-.01-.12-.01-.19,0-.21.03-.41.08-.62.13-.53-.05-.91-.46-.93-.99-.03-.68-.36-1.21-.65-1.82-.36-.75-.56-1.54-.8-2.33-.26-.84-.63-1.63-.96-2.44-.12-.3-.24-.6-.36-.9-.25.03-.5.04-.75.04-.83,0-1.65.05-2.48.1-1.48.1-2.96.13-4.44.26-1.47.13-2.94.24-4.41.36-1.47.12-2.94.33-4.41.52-.71.09-1.43.18-2.14.32-.16.03-.31.07-.46.09-.19,1-.38,2-.66,2.97-.02.08-.03.17-.05.25-.04.19-.1.37-.17.55-.17.37-.33.74-.47,1.12,0,0,0,0,0,0,0,0,0,0,0,.01,0,0,0,0,0,0-.18.5-.33,1.02-.4,1.56-.04.03-.09.05-.14.07,0,0-.01,0-.02,0-1.24-.18-2.49-.39-3.74-.52-.02-.04-.04-.09-.06-.14,0-.02,0-.04-.01-.06.96-2.46,2.25-4.84,2.67-7.44.09-.19.19-.38.3-.57.31-.55.42-1.16.64-1.74.47-1.23.69-2.56,1.21-3.77.07-.47.19-.95.4-1.36.11-.22.26-.41.39-.62.13-.21.22-.44.35-.66.07-.11.14-.22.2-.33.16-.53,4.53-12.23,4.62-12.63.99-2,1.8-4.11,2.39-6.24.16-.34.32-.67.49-1.01.02-.03.03-.06.05-.09.84-1.34,1.7-2.67,2.46-4.05.05-.04.11-.07.17-.1.21-.1.42-.13.62-.08.27.57.61,1.11.91,1.62.04.07.08.13.12.2.03.1.05.21.09.31.35,1.11.9,2.13,1.38,3.19.07.19.15.38.24.56.14.27.38.31.59.21.46,1,.79,2.01,1.1,3.08.37,1.26.79,2.53,1.34,3.72.58,1.26,1.02,2.57,1.43,3.89.82,2.61,1.87,5.13,2.51,7.79.65,2.71,1.51,5.38,2.55,7.97.26.63.51,1.27.78,1.9.26.6.39,1.22.6,1.84.07.21.12.42.17.63.17.3.35.6.55.9.26.39.47.8.65,1.23.18.44.38.98.13,1.44ZM145.69,81.85c-.04-.09-.07-.17-.11-.26-.32-.8-.58-1.63-.89-2.44-.3-.77-.66-1.51-.94-2.28-.6-1.64-.84-3.35-1.34-5.02-.25-.84-.44-1.69-.68-2.53-.23-.83-.56-1.63-.72-2.48-.08-.43-.14-.87-.18-1.31-.03-.34-.18-.64-.25-.96-.09-.43-.17-.82-.34-1.23-.14-.33-.3-.65-.45-.98-.01-.02-.02-.05-.03-.07-.09.16-.19.31-.29.47-.46.68-.8,1.46-1.11,2.22-.31.74-.66,1.47-.93,2.23-.5,1.41-1.06,2.8-1.5,4.23-.45,1.47-.9,2.92-1.47,4.35-.57,1.43-1.23,2.83-1.92,4.21-.33.66-.68,1.31-.96,2-.2.57-.41,1.15-.62,1.72.69-.19,1.39-.34,2.1-.41.83-.08,1.66.02,2.5,0s1.68-.11,2.51-.23c.82-.11,1.58-.36,2.42-.38.87-.01,1.67-.25,2.52-.37.39-.05.77-.06,1.16-.15.37-.09.73-.21,1.11-.27.14-.02.28-.04.42-.06Z"/>
    <path class="cls-1" d="M193.93,76.15c-.21,1.16-.91,2.01-1.88,2.65-.42.28-.9.46-1.3.74-.53.36-.98.57-1.62.66-1.15.16-2.33.21-3.48.3-2.5.19-4.99.38-7.48.64-.42.04-.84.07-1.26.08.43.5.86,1.01,1.32,1.48.6.61,1.22,1.19,1.81,1.81.27.28.49.6.78.86.31.27.63.52.95.78,1.41,1.12,2.73,2.34,3.89,3.7.54.63,1.03,1.29,1.61,1.88.29.3.49.62.84.87.32.23.61.48.86.79.26.31.5.6.79.88.28.26.49.58.76.84.03.02.06.04.09.07,0,0,0,0,0,.01-.1.22-.12.58.1.74.51.39,1.01.78,1.5,1.18-.82.85-1.74,1.63-2.6,2.44-.06.03-.12.05-.18.08-.65.25-1.23-.02-1.76-.39-.5-.35-1-.72-1.47-1.11-.86-.71-1.7-1.41-2.43-2.25-.79-.9-1.65-1.75-2.51-2.59-.88-.85-1.75-1.7-2.65-2.53-.87-.81-1.71-1.65-2.63-2.41-.9-.73-1.78-1.48-2.61-2.29-.83-.8-1.51-1.73-2.31-2.56-.86-.89-1.75-1.71-2.5-2.7,0,0-.01-.02-.02-.03-.46-.01-.93-.01-1.4,0-.63.02-1.24-.02-1.86-.09,0,.37.02.74,0,1.12-.02.59-.08,1.18-.09,1.77-.02,1.27.08,2.55.14,3.82.06,1.25.1,2.5.13,3.74.01.64,0,1.27-.08,1.9-.03.23-.07.49-.03.72.05.28.16.52.19.81.03.26-.21.59-.47.63-.63.12-1.29.05-1.93.06-.59,0-1.21.08-1.79.05-.19,0-.34-.05-.48-.12.05-.49.1-.98.11-1.47,0-.46-.3-.79-.75-.81,0-.11-.01-.22-.01-.34,0-.6.1-1.19.11-1.79.01-.6.06-1.19.1-1.79.08-1.22.07-2.45.14-3.67.07-1.21.21-2.42.24-3.64.03-1.23-.05-2.47-.05-3.7s.04-2.45.24-3.65c.1-.58.2-1.11.19-1.7-.01-.6-.02-1.2-.03-1.8-.02-1.15-.12-2.29-.15-3.44.02-.56.04-1.13.09-1.69,0-.04.01-.09.03-.13.06-.24.08-.48.08-.73.06-.42.14-.85.22-1.27.78.05,1.58.02,2.3,0,.79-.02,1.57-.05,2.35-.07,0,0,0,.01.01.02.53-.06,1.05-.08,1.59-.09,1.39-.03,2.78-.06,4.17-.1,1.36-.04,2.71.15,4.07.23,1.36.08,2.72.18,4.08.19,2.41,0,4.8.25,7.21.37,1.14.06,2.22.11,3.31.5.52.19,1.06.27,1.55.57.36.22.71.49.98.81.73.86.93,2.02,1.05,3.1.14,1.21-.05,2.38-.12,3.59-.06,1.15.16,2.33-.05,3.47ZM186.95,71.97c-.01-.49-.28-.98-.35-1.47,0,0-.02,0-.03,0-.08.01-.16.01-.24.02-.4.02-.8,0-1.19.06-1.72.25-3.49.14-5.22.17-.85.02-1.69-.1-2.54-.08-.89.01-1.79.02-2.68.03-1.7.02-3.35-.35-5.05-.33-.86,0-1.74-.06-2.59.04-.36.04-.73.05-1.09.11-.05,0-.1.02-.14.04-.08.68-.1,1.37-.12,2.07,0,.07,0,.15,0,.22.62.03,1.25.04,1.88.03,1.02-.02,2.04-.05,3.06-.05.96,0,1.92.03,2.89-.04.87-.06,1.73-.13,2.61-.15.86-.03,1.72-.14,2.59-.16.88-.02,1.76-.02,2.64-.03.81,0,1.62-.15,2.43-.14.71,0,1.42.14,2.14.11.28-.01.58-.04.83-.2.07-.04.15-.11.19-.16-.02.02.01-.06,0-.08Z"/>
    <path class="cls-1" d="M231.4,58.05c-.14,1.06-1.54,3.12-2.08,4.03-.88,1.5-1.72,3.05-2.52,4.6-.76,1.48-1.45,2.98-2.23,4.45-.82,1.53-1.91,2.89-2.75,4.41-.88,1.58-1.62,3.41-2.54,5.1-.53,4.63-.21,10.41-.21,15.06,0,.78-1.7.59-2.54.55-1-.05-2.48.46-3.52.19-.61.11-1.2.13-1.74-.14-.48-.24-.77-.79-.78-1.31-.05-2.59.22-5.26.54-7.84,0-1.31-.01-2.63.08-3.94.04-.56.14-1.16.21-1.75-.02-.22-.03-.44-.03-.66-.02-.07-.04-.14-.06-.22-1.39-2.75-2.41-5.7-3.89-8.41-2.06-3.77-3.8-7.66-6.02-11.35-.85-1.41-1.01-1.9,2.01-2.16.5-.3,1.18-.29,1.8.19.83.65,1.22,1.55,1.54,2.49.1.13.2.26.28.38.54.85,1,1.74,1.43,2.65.86,1.84,1.93,3.5,2.88,5.28,1,1.87,1.81,3.82,2.76,5.71.34.69.81,1.24,1.22,1.88.12.18.22.37.32.56.5-.91.96-1.84,1.36-2.78,1.07-2.56,1.99-5.04,3.38-7.45,1.48-2.58,3.11-5.44,4.04-8.27.3-.92.54-2.03,1.64-2.32.6-.16.88-.2,1.41-.13.71.09,1.47.31,2.18.31,1.09,0,1.96-.09,1.83.88Z"/>
  </g>
  <g>
    <path class="cls-1" d="M198.1,14.53c1.54.02,6.82-.31,7.96-.39.12,0,.22.07.22.18.06.93.28,4.4.32,4.98.24,3.86.49,7.74.73,11.72.27,4.4.55,8.42.82,12.77.01.18-.14.34-.35.35l-7.08.32c-.2,0-.36-.12-.38-.3-.08-1-.27-2.01-.33-3-.09-1.79-.16-3.78-.34-5.55-.26-2.65-.45-5.38-.65-8.07-.05-.62-.09-1.24-.14-1.85-.1-1.4-.13-2.65-.31-4.01-.28-2.16-.66-5.96-.69-6.95,0-.11.09-.19.21-.19Z"/>
    <path class="cls-1" d="M205.77,12.83c-.14.1-.39.18-.82.19-.95.03-6.79.29-6.98.28-.09,0-.28-.05-.34-.21-.09-.23-.11-.95.04-1.03s2.27-.1,3.67-.1c1.03,0,3.61-.14,4.19-.1s.5.16.46.33c-.05.19.03.46-.22.64Z"/>
    <path class="cls-1" d="M197.57,9.18c.02-.14.06-.24.14-.23.18.02,5.19-.18,6.12-.2.46,0,1.38.03,1.65.25.39.32.35,1.41-.41,1.56s-6.86.32-7.02.23c-.12-.07-.25-.05-.37-.14s-.11-.27-.11-.52c0-.28-.04-.69,0-.94Z"/>
    <path class="cls-1" d="M208.44,49.6c-.12.16-.34.27-.74.29-.87.05-6.59.34-6.76.36-.08.01-.25-.02-.31-.24-.09-.32-.14-1.41,0-1.56s4.99-.31,5.75-.29c.56.02,1.24-.06,1.78-.01s.47.23.44.49c-.03.29.06.69-.15.96Z"/>
    <path class="cls-1" d="M200.36,45.8c.02-.12.06-.2.13-.21.17-.02,5.22-.27,6.11-.32.44-.03,1.32-.04,1.58.12.38.24.36,1.1-.37,1.24s-6.85.39-6.99.35c-.11-.03-.24,0-.34-.04s-.1-.19-.1-.4c0-.23-.04-.54,0-.75Z"/>
    <path class="cls-1" d="M231.8,3.67c-.02-.38-.03-.76-.05-1.13,0-.17-.05-.29-.1-.29-.5-.04-9.3-.84-9.25,1.49,0,.2,0,.39,0,.59,0,.21.09.37.2.34.84-.23,8.6-.45,9.07-.56.07-.02.12-.22.11-.44Z"/>
    <path class="cls-1" d="M231.73,6.71v-.93c0-.26-.04-.48-.1-.48-.22.01-7.95.07-9.06.36-.09.02-.16.22-.16.45,0,.39-.01.79-.02,1.19,0,.28.09.52.2.49.62-.16,8.79-.51,9.05-.63.05-.02.09-.22.09-.45Z"/>
    <path class="cls-1" d="M231.85,17.61c.02-1.6,0-3.2,0-4.8,0-.65.01-1.29.02-1.94-.02-.83-.05-1.66-.09-2.48-.25.07-3.35,0-4.97.07-1.98.09-3.92.24-4.45.39-.01.64-.02,1.27-.02,1.9-.01,2.95.02,5.89.02,8.8,0,3.89.03,7.8,0,11.63-.02,2.73-.05,5.49.08,8.21.04.95.06,2.41.47,2.65.19.11,8.64-.67,8.91-.3,0-.6.02-1.21.04-1.81-.03-2.63-.07-5.27-.11-7.88-.03-1.71-.02-3.43,0-5.14-.08-3.12.06-6.19.1-9.3Z"/>
    <path class="cls-1" d="M231.93,44.79c-.07.21-.23.03-.3,0-.19-.07-3.65-.09-4.87-.31-1.07-.19-3.37-.03-3.67.05-.14.04-.28.1-.42.1s-.24-.31-.22-.69c0-.05,0-.09.01-.14.03-.19.05-.6.12-.73s.19-.04.27-.04c.22,0,.43-.07.65-.11.53-.1,7.87-.03,8.17.11.09.04.24-.11.29.32.03.32.03,1.08-.02,1.37,0,.03-.01.05-.02.07Z"/>
    <path class="cls-1" d="M231.83,49.88s-.06,0-.09,0c-.11,0-2.16,0-2.91,0-1.45,0-5.08,0-5.47,0-.23,0-.47-.28-.61-.74-.17-.58-.19-2.56-.16-3.3.26-.05.53-.08.8-.13.73-.14,8.13.06,8.57.28.08.04.04,3.88-.13,3.88Z"/>
    <path class="cls-1" d="M187.42,48.58c.06.38.11.75.16,1.13.02.17.07.28.12.28.5,0,9.34.07,9.06-2.25-.02-.19-.05-.39-.07-.59-.02-.21-.13-.36-.24-.32-.81.3-8.51,1.16-8.98,1.31-.06.02-.09.23-.06.44Z"/>
    <path class="cls-1" d="M187.17,45.55l.09.93c.03.26.09.48.15.47.22-.03,7.91-.73,8.99-1.11.09-.03.14-.23.11-.46-.04-.39-.07-.79-.1-1.18-.02-.28-.14-.51-.25-.47-.6.21-8.7,1.24-8.95,1.37-.05.03-.07.22-.05.46Z"/>
    <path class="cls-1" d="M185.94,34.7c.14,1.59.33,3.19.48,4.78.06.64.12,1.29.18,1.93.11.82.22,1.64.34,2.46.24-.09,3.34-.27,4.94-.48,1.97-.25,3.88-.57,4.39-.76-.05-.63-.11-1.27-.17-1.89-.29-2.93-.62-5.86-.92-8.76-.4-3.87-.82-7.76-1.19-11.58-.26-2.72-.51-5.48-.92-8.17-.14-.94-.3-2.4-.74-2.6-.2-.09-8.53,1.39-8.84,1.03.05.6.1,1.2.14,1.8.3,2.62.61,5.24.92,7.84.21,1.7.38,3.41.53,5.12.4,3.1.58,6.17.86,9.27Z"/>
    <path class="cls-1" d="M183.08,7.64c.05-.22.23-.05.3-.02.2.05,3.64-.21,4.88-.1,1.09.1,3.36-.25,3.65-.35.13-.05.27-.12.4-.14s.27.29.29.67c0,.05,0,.09,0,.14,0,.2,0,.6-.04.74s-.19.06-.27.07c-.22.02-.42.11-.64.17-.51.15-7.84.68-8.15.57-.09-.03-.23.13-.32-.3-.06-.32-.15-1.07-.12-1.37,0-.03,0-.05,0-.07Z"/>
    <path class="cls-1" d="M182.65,2.49s.06,0,.09,0c.11-.01,2.15-.18,2.9-.24,1.44-.12,5.06-.42,5.45-.45.23-.02.5.24.68.69.23.56.45,2.53.5,3.27-.26.07-.52.13-.78.2-.72.2-8.11.61-8.56.43-.09-.04-.43-3.86-.27-3.88Z"/>
    <path class="cls-1" d="M218.47,44.02c.03-.7-7.95.15-7.96.26-.03-2.51-.05-4.83-.06-5.51-.05-4.15-.09-8.3-.14-12.58-.05-4.86-.1-9.73-.15-14.56h8.01c.01,1.19.02,2.4.03,3.58.02,1.93.04,4.08.06,5.98.02,2.84.05,5.78.07,8.67,0,.66.01,1.33.02,1.99.01,1.5.03,2.85.04,4.31.01,2.52.05,5.23.07,7.85Z"/>
    <path class="cls-1" d="M218.16,10.1c0,.16.09.27.13.28.09.01-8.12.09-8.13.1,0,0-.01-.03-.02-.27,0-.35-.02-1.52-.01-1.67s2.1-.1,3.68-.05c1.17.04,4.34-.04,4.33.04s0,.27,0,.55c0,.31,0,.74.02,1.02Z"/>
    <path class="cls-1" d="M210.1,5.79c0-.16,0-.27,0-.28,0-.01,2.68-.04,4.52-.07.91-.02,3.49,0,3.48.24,0,.35.04,1.52.12,1.67s-8.05.15-8.07.08c-.02-.05-.04,0-.04-.08s0-.27,0-.55c0-.31,0-.74,0-1.02Z"/>
    <path class="cls-1" d="M218.53,49.61c0,.17.01.29.02.32.02.06-2.34.13-4.18.21-.91.04-3.79.07-3.79-.16,0-.33,0-1.5,0-1.69s8.16-.24,8.08-.21c-.06.02-.13-.06-.14-.01s0,.25,0,.52c0,.31,0,.74.02,1.03Z"/>
    <path class="cls-1" d="M210.52,45.56c0-.17.02-.29.03-.32.02-.06,7.99-.18,7.97-.24-.01-.03-.04-.04-.04.19,0,.33,0,1.5.03,1.69s-1.9.19-3.49.18c-1.17,0-4.45.1-4.46.05s-.02-.25-.03-.52c0-.31,0-.74,0-1.03Z"/>
  </g>
</svg>