<?xml version="1.0" encoding="UTF-8"?>
<svg id="Layer_1" data-name="Layer 1" xmlns="http://www.w3.org/2000/svg" viewBox="0 0 189.47 189.47">
  <defs>
    <style>
      .cls-1 {
        fill: #231f20;
      }

      .cls-2 {
        fill: #fff;
      }
    </style>
  </defs>
  <circle class="cls-1" cx="94.73" cy="94.73" r="94.73"/>
  <g>
    <path class="cls-2" d="M103.44,33.23c-9.56,4.86-20.65,5.57-31.09,3.5,1.13-1.86,5.31-3.45,10.29-4.47.38.37.75.71,1.14,1.05.18.17.68.64.85.81,1.61,1.75,4.7,1.53,5.98-.5.52-.83,1.03-1.67,1.5-2.51,5.27-.22,9.9.38,11.33,2.13Z"/>
    <path class="cls-2" d="M92.65,23.14v.06c-.09.74-.24,1.49-.46,2.2,0,.03-.01.05-.03.09-.03.12-.07.24-.12.37-.06.2-.13.39-.21.58-.3.79-.66,1.61-1.07,2.44-.09.19-.18.38-.28.56-.06.12-.13.24-.19.37-.28.49-.56.99-.85,1.47-.11.19-.23.37-.33.57-.01.01-.01.02-.02.03-.01.03-.03.05-.05.07-.01.02-.03.05-.04.08-.06.08-.11.17-.17.26,0,.01-.01.03-.03.04-.03.05-.06.1-.1.14-.07.07-.13.15-.19.21-.07.06-.14.11-.2.16t-.01.01c-.12.08-.24.14-.36.16-.07.02-.14.04-.2.05-.07.02-.14.02-.2.02-.05,0-.09,0-.15,0h-.01c-.4-.04-.8-.26-1.2-.58,0,0-.01,0-.01-.01-.25-.23-.51-.47-.76-.72h-.01s-.06-.06-.09-.1c-.95-.89-1.8-1.7-2.48-2.48-.11-.13-.22-.27-.32-.4-.01-.01-.02-.02-.02-.03-1.09-1.48-1.56-2.97-1.16-4.61,0-.02.01-.05.02-.08,0-.03.01-.05.03-.09.21-.67.56-1.38,1.08-2.15.06-.1.12-.19.2-.29.14-.18.28-.36.44-.55.18-.2.36-.41.57-.62h0c.56-.48,1.05-1.01,1.48-1.57.06-.08.12-.17.2-.26.51-.66.98-1.47,1.33-2.63.03-.08.06-.15.07-.24,0-.02.01-.04.02-.07.2-.68.34-1.39.39-2.12v-.16s.57-.15.57-.15c.29.39.57.79.87,1.18.25.36.51.72.77,1.09.47.67.93,1.35,1.34,2.04.22.36.42.72.6,1.09.18.34.34.67.49,1.03.09.2.17.39.24.6.07.16.12.32.18.49h0c.05.15.09.29.13.42.04.16.09.32.12.48,0,.05.02.08.02.12.05.23.09.46.13.7.02.18.04.37.06.55v.04s0,.09,0,.13Z"/>
    <path class="cls-2" d="M145.77,104.75c-.32-3.22-1.12-6.39-2.11-9.48-.55-1.73-1.07-3.56-1.85-5.2-1.58-3.32-4.48-5.6-6.72-8.56-3.35-4.47-5.85-9.64-9.16-14.21-.54-.76-1.62-.73-2.26-.05-.01,0-.01,0-.02.02-.79.68-1.77.81-2.6.81-2.44-.09-4.74-1.01-7.05-1.37-3.54-.61-6.88-.62-8.89,1.81-.27.36-.53.74-.74,1.15-1.07,2.42-3.7,3.99-6.24,4.19-6.94.72-11.34-4.52-17.56-1.55-2.03.87-4.62,2.45-7.16,2.56-4.04.32-7.52-2.43-11.44-1.62-1.02.32-2.37.76-3.57.8-1.98.24-3.89.85-6.06.37l-.51-.12c-1.41,1.52-2.71,3.13-3.86,4.81-.06.08-.11.16-.19.23l-.2.2s-.07.06-.11.1c-.56.93-1.09,1.87-1.57,2.83-.02.07-.06.11-.09.17-.64,1.21-1.17,2.39-1.65,3.6-4.83,12.88-5.39,17.72-.56,29.79,8.3,20.73,26.07,35.51,29.21,36.96,3.41,1.58,19.97-4.28,23.67-3.92,3.08.31,5.1,3.68,6.33,6.18.57,1.16,2.1,7.58,3.32,7.76.76.11,1.6-.14,2.49-.4.38-.11.74-.22,1.09-.29,1.23-.31,2.02-.6,2.44-.79-.24-.69-.57-1.6-.84-2.28-.98-2.52-1.61-4.82-1.72-7.54,2.56-1.15,3.55,5.07,4.1,6.55.33.95.7,1.94.98,2.68,1.01-.3,2.64-.82,4.27-1.34,1.63-.55,3.26-1.08,4.25-1.43-.41-1.16-.69-2.4-1.2-3.51-.44-.96-.95-1.56-1.11-2.64-.1-.68-.51-4.87,1.16-3.85,1.07.65,1.44,2.23,1.76,3.34.35,1.22.83,2.27,1.22,3.47.25.75.64,1.88.93,2.49.36-.11.85-.23,1.42-.38,1.51-.4,4.68-1.22,6.07-1.67-.1-.51-.35-1.27-.66-2.3-.48-1.53-.89-3.1-1.1-4.68-.08-.62-.03-1.23.53-1.71.6-.51,2.85,5.12,3.07,5.6.46.97.67,2.07,1.75,2.23,1.34.22,2.74-.83,3.87-1.36,1.19-.58,2.46-1.05,2.88-2.44.62-2.08-.5-4.2-1.77-5.71-1.41-1.71-2.51-3.68-3.29-5.75-.93-2.48-3.11-12.91-3-13.67.52-3.28,2.5-5.74,5.62-7.14,2.5-1.12,3.81-3.32,4.01-6.15.1-1.33-.1-2.7.16-4.01.25-1.28.4-2.22.26-3.58ZM109.51,114.99c-.3,11.35-13.25,20.1-23.14,9.76-5.92-5.92-6.81-17.48.85-22.27,9.26-6.03,21.42,1.8,22.31,12.31l-.02.2ZM121.02,128.75c-5.05-14.24-.44-15.92,4.36-1.07.85,2.66-3.5,3.78-4.36,1.07ZM138.92,113.73l-.11.13c-5.64,7.66-15.67,1.39-17.73-8.11-2.61-10.02,4.72-20.87,13.97-14.64,7.24,4.19,8.83,16.26,3.87,22.62Z"/>
    <path class="cls-2" d="M122.48,63.2c.12,1.33.04,2.65-1.29,2.62,0,0-.01,0-.02,0-2.29-.12-4.46-1.09-6.74-1.58-3.71-.95-8.49-1.23-11.11,2.13-.53.59-.91,1.33-1.34,1.94-1.98,2.58-5.77,2.36-8.62,1.6-8.49-2.9-9.96-2.82-17.88,1.36-4.54,1.96-9.27-1.93-13.88-.49-1.51.62-2.93.79-4.51,1.04-1.38.27-2.73.56-4.01.4-2.55-3.1,11.85-14.2,15.72-16.4,1.08-.62,1.62-1.46,1.89-2.42,0-.02.01-.04.02-.07.06-.17.1-.36.13-.55.02-.17.05-.34.06-.52.1-.9.06-1.85.08-2.78,0-.27,0-.53.02-.8.14-2.98.18-6.16.11-9.16-.03-.46.44-.77.85-.62,8.03,2.18,16.92,2.31,24.94-.28,2.57-.79,5.05-1.88,7.43-3.11.5.65.37,1.71.28,2.84-.04,1.32.11,2.53.16,3.8l.22,3.75c.08,1.88.1,4.04,1.19,5.74,1.84,2.84,15.74,5.26,16.31,11.56Z"/>
  </g>
</svg>