<?xml version="1.0" encoding="UTF-8"?>
<svg id="Layer_1" data-name="Layer 1" xmlns="http://www.w3.org/2000/svg" viewBox="0 0 329.58 255.66">
  <defs>
    <style>
      .cls-1 {
        fill: #231f20;
      }
    </style>
  </defs>
  <path class="cls-1" d="M142.61,46.8c1.02.69,2.98.97,4,1.14.61.1,1.26.13,1.94.15.88.04,1.78.07,2.71.27,1.1.24,2.14.64,3.14,1.03.9.35,1.75.68,2.59.88,1.31.3,2.62.32,4.01.34,2.08.04,4.23.07,6.44,1.07,1.06.47,6.46,2.71,8.55-.18,1.77-2.45,4.56-2.44,7.28-2.17,1.06.11,6.06.76,6.14-.94-2.36-.54-5.28-1.54-7.33-2.84-1.61-1.02-2.59-3.34-3.03-5.13-.56-2.28-.52-4.74-.49-6.95,0-.03,0-.05,0-.08.01.05.03-.05.06-.4.14-1.76.27-3.58.27-5.36,0-1.02.06-2.06.11-3.06.06-.98.11-1.92.11-2.84-.74.38-1.52.63-2.15.84-1.53.49-3.18.76-5.1.86l-1.71.09c-1.82.11-3.71.21-5.58.21-.39,0-.79.02-1.2.03-.44.01-.9.03-1.35.03-.88,0-1.77-.05-2.66-.25-.32-.07-.62-.15-.92-.23-.46-.13-.9-.24-1.31-.3-.47-.05-.97-.08-1.5-.11-1.16-.06-2.43-.12-3.62-.5-.03.95-.11,1.91-.18,2.85-.07.75-.13,1.5-.17,2.23-.07,1.35-.07,2.69-.07,4.1v.25c0,1.39.03,1.28.05,1.03-.01.2-.03.51-.05,1,0,0-.02.64-.02.64-.11,3.4-.96,5.93-4.09,7.56-1.58.82-3.62,1.17-4.89,2.51-.97,1.02-.72,1.72.02,2.22Z"/>
  <path class="cls-1" d="M130.08,115.09c1.21,2.27,2.21,4.24,4.14,6.03,2.42,2.24,6.52,1.81,9.5,3.1,2.48,1.08,3.25,4.43,3.6,6.83.16,1.12-.3,6.87.68,7.35.6.29,1.37.31,2.18.33.34,0,.67.02.99.05,1.09.08,1.83.05,2.24,0-.01-.63-.06-1.49-.09-2.12-.13-2.36-.05-4.44.6-6.73,2.44-.27,1.59,5.17,1.64,6.54.03.88.07,1.8.1,2.49.93.02,2.42.03,3.91.03,1.5,0,2.99-.02,3.92-.05-.02-1.06.07-2.18-.06-3.23-.11-.91-.37-1.56-.22-2.49.1-.59.89-4.18,2.01-2.89.71.82.59,2.24.56,3.25-.03,1.1.07,2.12.08,3.21,0,.68.03,1.74.11,2.31.33.02.78.04,1.28.07,1.36.07,4.22.24,5.5.24.03-.32.04-.75.05-1.32.01-1.42.11-2.8.26-4.21.08-.79.12-1.67.99-2.02.64-.26,1,5.01,1.06,5.48.12.93,0,1.89.85,2.33,1,.51,2.85-.04,3.88-.21,3.88-.65,2.26-8.32,2.81-10.97,1.32-6.35,9.88-3.84,13.19-8.23,1.37-1.82,1.79-3.94,3.23-5.73,1.75-2.16,3.06-4.85,4.37-7.29,2.72-5.11,4.99-10.53,6.2-16.21.07-.33.14-.65.19-.96.07-.33.13-.63.18-.92l.03-.19c.11-.6.21-1.21.3-1.81,0-.03.01-.06.01-.09.01-.01.01-.02.01-.03,1.72-11.68.28-16.11-9.01-27.88-1.97-2.68-4.09-5.34-6.7-7.43-1.03-.82-1.86-1.59-2.94-1.55-1.11.04-1.92.93-2.98,1.16-.93.2-2,.07-2.97.07s-1.95-.05-2.91-.1c-2.35-.12-3.83.83-5.56,2.23-1.24,1.01-2.58,1.68-4.15,2.09-1.62.42-3.86.32-5.34-.4-1.48-.72-2.49-1.56-4.23-1.48-1.86.09-3.68.23-5.54.14-2.03-.1-3.34-.55-4.93-1.83-1.2-.97-2.65-1.35-4.15-1.5-2.64-.26-7.58,1.4-9.38-1.33-2.23.76-4.27,2.47-6.17,3.82-.07.05-.14.1-.22.14l-.22.11s-.08.04-.12.06c-.72.62-1.41,1.26-2.06,1.93-.04.05-.08.08-.12.12-.86.83-1.62,1.67-2.34,2.55-7.46,9.4-9.23,13.28-8.46,24.61.9,13.29,6.79,26.08,10.22,32.52ZM172.53,95.46c.55-8.39,11.08-14.92,17.48-7.81,5.19,5.02,4.12,14.73-2.07,18.4l-.14.08c-7.15,4.49-16.15-2.84-15.27-10.67ZM166.08,114.2c0,2.44-3.92,2.2-3.92-.28-.37-13.21,3.92-13.35,3.92.28ZM144.4,84.66c8-1.14,13.63,7.8,10.98,15.04l-.06.17c-3.42,9.68-15,9.18-18.36-.72-2.09-5.76.89-13.68,7.44-14.49Z"/>
  <path class="cls-1" d="M164.27,20.69c.77.3,1.66.38,2.53.24,1.18-.19,1.92-1.06,2.38-2.13,1.7-2.51,1.53-7.47.3-9.62-.78-1.34-2.02-2.39-2.8-3.75-.67-1.18-1.07-4.31-.12-5.43-1.73,1.16-2.39,2.6-2.2,4.72.11,1.29.63,2.45.87,3.66-.02.3-.08.6-.16.91-.4,1.46-2.01,2.57-2.57,4-.85,2.14-1.24,4.43.22,6.41.4.55.95.86,1.55.99Z"/>
  <path class="cls-1" d="M96.93,245.08c-2.61.05-4.21-.16-6.81-.23,0-5.66.6-11.32.48-16.97-.06-2.86-.44-3.87-.21-6.72.18-2.2.2-4.38.18-6.57.89-.07,1.78-.2,2.68-.22,1.3-.02,1.41-.32,2.67-.49,2.62-.34,2.17-5.09,2.17-5.09-.36-.31-2.19-.53-2.77-.53-1.56,0-2.07-.43-3.62-.38-1.64.06-3.25.12-4.88-.1-1.47-.19-2.58-.1-4.06-.13-1.05-.02-3.24-.57-4.19.03,0,0-.16,2.31.13,3.39.1.36,0,.91.03,1.29.18,1.73,1.42,2.88,3.01,2.46,1.21-.32,2.34-.08,3.59-.11.27,0,.55-.01.82-.02-.13,2.12.15,4.47.32,6.31.28,3.07-.13,4.31-.17,7.38-.04,2.86-.55,5.7-.39,8.53.08,1.44.45,2.83.52,4.28.02.41.03.81.04,1.22-.02.8-.03,1.61-.03,2.41-1.56,0-2.09-.13-3.65-.28-.84-.08-2.5.21-2.5.21,0,0-.28,2.98-.29,3.64-.02,1.52,1.14.54,2.4.56,1.74.02,3.16-.11,4.9-.15,1.22-.02,2.44-.19,3.65-.25.41,0,.83,0,1.24,0,.13,0,.26,0,.39.02.85.07,1.69.06,2.54.07.92.01.83.3,1.75.16.63-.1,1.3-.48,1.43-1.26.01-.06.02-.12.03-.17,0-.02.02-1.89.03-1.92q-.22-.41-1.42-.39Z"/>
  <path class="cls-1" d="M129.94,216.21c-.24-1.71-.63-3.6-2.02-4.63-.6-.44-1.29-.89-1.99-1.09-.86-.25-1.75-.43-2.64-.54-.88-.11-1.76-.11-2.64-.17-.87-.06-1.74-.14-2.61-.2-1.03-.07-2.06-.12-3.09-.14-.93-.01-1.84.21-2.77.21-.46,0-.89.17-1.35.2-.48.03-.97.01-1.45.03-.47.01-.93.04-1.39.06-.44.02-.8.02-1.2.25-.16.09-.26.33-.26.53v.12c0,.08.02.14.05.21,0,.03,0,.05,0,.08-.02.32-.1.62-.13.94-.07.76-.13,1.5-.14,2.26-.01.86-.11,1.7-.26,2.54-.14.8-.37,1.59-.46,2.4-.16,1.49.08,3,.18,4.48.05.8.03,1.62.04,2.43.01.79.07,1.61.03,2.4-.02.4-.1.79-.11,1.2-.01.45.02.9.02,1.35.01.81.04,1.62.04,2.43,0,.82-.11,1.64-.1,2.46.01.86.02,1.72.02,2.58,0,1.7.03,3.42-.06,5.12-.04.8-.1,1.57-.09,2.37,0,.79.09,1.63-.05,2.4-.12.66-.02,1.17.59,1.44.45.2.98.35,1.45.44.7.13,1.41.1,2.12.15.74.05,1.48.06,2.22.05.76-.01,1.52,0,2.29-.04.72-.03,1.44-.18,2.15-.28.77-.11,1.52-.27,2.29-.4.71-.12,1.42-.12,2.14-.2.35-.04.69-.09,1.04-.16.38-.08.74-.24,1.11-.33.67-.16,1.36.11,1.99-.32,1.09-.75,1.48-2.43,1.62-3.75.16-1.57.21-3.16.22-4.74.01-1.69.12-3.39.08-5.08-.03-1.4-.2-2.85-.84-4.08-.3-.56-.69-1.12-1.05-1.64-.41-.59-.96-1.03-1.53-1.41-.71-.47-1.52-.71-2.34-.86.54-.08,1.08-.16,1.62-.24.4-.06.81-.13,1.2-.25.39-.12.72-.37,1.09-.54.38-.17.8-.22,1.18-.39.41-.18.82-.38,1.22-.61,1.34-.75,2.92-1.66,3.17-3.48.12-.85-.12-1.65-.23-2.48-.13-1.01-.21-2.04-.36-3.05ZM119.79,240.33c-.05.41-.13,1.32-.46,1.48-.16.08-.39.06-.56.08-.25.03-.5.08-.75.13-.45.1-.87.19-1.33.21-.51.02-.99.14-1.49.26-.48.12-.98.1-1.47.11-.51.01-1.02.04-1.53.02-.15,0-.29,0-.44,0-.02-.7,0-1.41,0-2.1,0-1.06.1-2.12.18-3.18.11-1.43.07-2.86.03-4.28,1.39,0,2.78-.11,4.17-.12.44,0,.86.03,1.3.08.36.04.73-.05,1.06.14.65.36.78.93.85,1.69.04.42.07.83.14,1.24.08.44.22.87.26,1.32.09.95.15,1.99.03,2.94ZM122.3,221.41c.09.3,0,.12-.04-.04-.32.04-.64.07-.96.15-.85.2-1.71.29-2.57.49-1,.24-1.97.06-2.98.13-.51.04-1.02.16-1.53.18-.57.03-1.14.03-1.71.04-.04,0-.07,0-.11.01,0-.35-.02-.7-.04-1.05-.02-.47.01-.92.06-1.39.06-.59.04-1.18.03-1.77-.01-.6.05-1.14.14-1.73.06-.37.06-.73.07-1.1.09.02.19.04.29.07.4.13.82.18,1.23.17.86-.02,1.72-.1,2.59-.12.92-.02,1.85-.08,2.77-.1.42-.01.82.02,1.23.08.21.03.43.07.63.14.17.06.35.23.52.28.02.08.06.19.06.22.04.16.08.31.12.47.12.47.1.94.11,1.42.01.49.09.97.14,1.46.04.49-.02.93-.06,1.42,0,.1-.03.24-.03.36.03,0,.08.03.16.12.01.02-.11.04-.14.05,0,0,0,0,0,0,0,.01,0,.03,0,.04Z"/>
  <path class="cls-1" d="M122.26,221.36s.02,0,.03,0c-.01-.05-.01-.11-.01-.17-.05,0-.04.09-.02.18Z"/>
  <path class="cls-1" d="M72.22,243.78c-.33-.56-1.29-.68-1.86-.77-.79-.13-1.6-.15-2.38-.32-.75-.16-1.45-.4-2.21-.49-.91-.1-1.82-.16-2.74-.21-.89-.05-1.77-.14-2.66-.17-.92-.03-1.83.05-2.76-.04-.17-.01-.33-.03-.5-.05,0-.09,0-.18,0-.27,0-.84,0-1.67,0-2.51-.01-1.7-.25-3.39-.27-5.09-.02-1.71.03-3.42.05-5.13.02-1.71-.04-3.42-.06-5.12-.05-3.41.03-3.99.24-7.39.11-1.68-.04-3.35.08-5.03.06-.83.15-1.65.23-2.48.04-.42.07-.84.12-1.25.04-.38.11-.74-.07-1.09-.35-.68-1.2-.71-1.86-.78-.73-.08-1.44-.05-2.15.14-.16.05-.33.06-.5.08-.23-.02-.45.05-.64.23-.23.16-.41.39-.49.68-.1.34-.09.73-.13,1.08-.02.16-.03.32-.03.48-.06.37-.12.73-.2,1.1-.16.75-.3,1.49-.3,2.26,0,1.55.03,3.1.06,4.65.03,1.55-.21.27-.25,1.81-.03,1.5-.1,3-.1,4.51,0,1.55-.03,3.06-.19,4.61-.15,1.52-.28,3.04-.3,4.57-.01.74-.09,1.47-.15,2.21-.03.35-.04.71-.06,1.06-.02.35-.1.7-.12,1.05-.03.74.03,1.47-.03,2.22-.06.78-.14,1.57-.15,2.36,0,.82-.04,1.61-.12,2.42-.04.43-.09.85-.09,1.28s.06.82.02,1.22c-.16,1.51-.72,3.07-.41,4.61.05.24.29.48.53.53.71.14,1.43,0,2.15.03.79.05,1.56.13,2.34.1.76-.03,1.51-.19,2.26-.27.78-.09,1.57-.12,2.35-.18,1.65-.13,3.33-.14,4.99-.14.79,0,1.57.06,2.35.22.75.16,1.51.19,2.25.34.33.07.66.17,1,.22.22.03.42,0,.64,0,.16,0,.32.06.48.09.66.12,1.48.09,1.71-.71.08-.29.05-.57.04-.87-.02-.42-.02-.85-.03-1.27-.01-.86-.08-1.73,0-2.59.05-.58.25-1.43-.06-1.96Z"/>
  <path class="cls-1" d="M164.68,246.29c-.7-2.16-2.83-3.63-4.05-5.43-1.38-2.04-2.83-4.17-4.4-6.02-.73-.86-1.57-1.53-2.36-2.3-.77-.75-1.41-1.72-2.17-2.49-.56-.57-.95-1.17-1.44-1.8,1.87.48,4.06.29,5.76-.21,2.2-.64,4.07-2.2,4.61-4.69.61-2.79,1.49-8.81-.62-11.56-1.08-1.95-3.4-2.69-5.72-2.94-1.89-.2-3.77-.39-5.66-.63-1.09-.14-2.22-.08-3.33-.06-.31-.14-.65-.21-1-.25-.18-.02-.34-.02-.5,0-.17,0-.34,0-.51.01-.37,0-.75.02-1.12.01-.45,0-1.69-.17-1.69-.17,0,0-.09,1.22-.17,1.86-.38,3.12-.22,6.28-.68,9.38-.52,3.44-.52,6.95-1.09,10.36-.25,1.53-.19,3.06-.31,4.6-.14,1.84-.37,9.01-.51,10.85-.13,1.74-.62-.75-.74.99-.1,1.42-.06,3.99.11,5.45.2,1.66.79.89,1.89.52.12.03.25.04.37.04.52.25,1.09.3,1.67.05,1.83-.8,1.6-3.7,1.58-5.46-.03-2.51.38-4.96.55-7.46.18-2.58.38-5.1.88-7.62.88,1.04,1.71,2.14,2.61,3.18,1.24,1.79,2.65,3.52,4.11,5.08,1.62,1.72,3.21,3.43,4.74,5.24,1.05,1.24,2.32,2.58,3.64,3.65.17.31.32.62.45.94.43,1.05,1.56.98,2.25.37.01,0,.03,0,.04,0,.58.01,1.3-.53,1.42-1.2.38-.16,1.65-1.08,1.95-1.36.38-.35-.39-.4-.55-.91ZM149.58,220.43c-.72-.04-1.44,0-2.17-.05-.46-.03-.92-.09-1.38-.15.26-1.73.51-3.46.75-5.2.02-.13.04-.28.05-.42,1.77-.41,4.51-.43,5.95.54.22.44.34.95.34,1.63,0,.79.13,1.75-.17,2.41-.14.19-.3.37-.47.53-.02.01-.03.02-.05.03-.69.37-1.68.31-2.42.52-.14.04-.29.09-.43.14Z"/>
  <path class="cls-1" d="M203.39,246.89c-.21-.32-.4-.65-.58-.98-.05-.23-.1-.46-.18-.69-.22-.68-.36-1.36-.63-2.02-.29-.69-.56-1.39-.83-2.08-1.1-2.84-2.01-5.78-2.7-8.75-.68-2.92-1.78-5.69-2.65-8.56-.44-1.45-.91-2.89-1.52-4.27-.58-1.31-1.02-2.7-1.41-4.09-.33-1.17-.69-2.29-1.17-3.39-.21.11-.48.07-.62-.23-.1-.2-.18-.41-.26-.61-.5-1.16-1.08-2.29-1.46-3.5-.03-.11-.06-.23-.09-.34-.04-.07-.08-.15-.12-.22-.33-.57-.68-1.16-.97-1.78-.21-.06-.43-.02-.65.09-.06.03-.12.07-.17.11-.81,1.52-1.71,2.98-2.6,4.45-.02.03-.04.07-.05.1-.18.36-.35.73-.52,1.1-.62,2.34-1.48,4.65-2.53,6.85-.1.44-4.71,13.28-4.88,13.87-.07.12-.14.24-.21.37-.14.23-.23.49-.37.72-.13.23-.29.44-.41.68-.22.45-.36.98-.42,1.5-.55,1.33-.78,2.79-1.28,4.14-.24.64-.35,1.31-.68,1.91-.11.21-.21.42-.31.63-.44,2.85-1.81,5.46-2.82,8.17,0,.02,0,.04.01.07.01.06.04.1.06.15,1.32.14,2.65.37,3.95.57,0,0,.02,0,.02,0,.05-.02.1-.05.15-.08.08-.59.23-1.16.42-1.71,0,0,0,0,0,0,0,0,0-.01,0-.02,0,0,0,0,0,0,.15-.42.32-.83.5-1.23.07-.2.13-.4.18-.61.02-.09.03-.18.05-.28.29-1.07.49-2.17.69-3.26.16-.03.32-.07.49-.1.75-.15,1.51-.24,2.26-.35,1.55-.21,3.1-.44,4.66-.57,1.55-.13,3.11-.25,4.66-.4,1.56-.15,3.13-.18,4.7-.29.88-.06,1.74-.11,2.62-.11.27,0,.53-.02.79-.05.12.33.25.66.38.99.35.89.74,1.77,1.02,2.68.26.87.47,1.73.85,2.56.3.67.66,1.25.69,2,.02.59.43,1.04.98,1.09.22-.06.43-.11.65-.14.07-.01.14-.01.2,0,.1-.03.2-.06.31-.09.39-.1.78-.2,1.17-.31.39-.14.78-.28,1.18-.43.1-.08.19-.18.27-.32.27-.5.06-1.1-.13-1.58-.19-.47-.41-.93-.68-1.35ZM193.28,235.21c-.4.07-.78.2-1.17.3-.4.1-.81.11-1.22.17-.9.13-1.75.39-2.67.4-.88.01-1.69.29-2.56.41-.88.13-1.77.22-2.65.25-.88.03-1.76-.09-2.64,0-.75.08-1.5.24-2.22.45.22-.63.44-1.26.65-1.89.29-.75.66-1.47,1.01-2.19.72-1.51,1.42-3.05,2.03-4.62.6-1.57,1.08-3.17,1.56-4.78.47-1.57,1.05-3.1,1.58-4.64.29-.83.66-1.63.98-2.44.33-.83.69-1.68,1.17-2.43.11-.17.21-.34.31-.52.01.03.02.05.04.08.16.36.33.71.48,1.07.18.45.26.88.36,1.35.08.36.23.69.27,1.06.05.48.11.96.19,1.43.17.93.52,1.81.76,2.72.25.92.45,1.86.72,2.77.53,1.83.79,3.71,1.42,5.51.3.85.68,1.66.99,2.5.33.89.6,1.79.94,2.67.04.09.08.19.11.28-.15.02-.29.04-.44.07Z"/>
  <path class="cls-1" d="M243.71,214.63c-.12-1.36-.32-2.81-1.04-3.88-.27-.4-.61-.74-.97-1.02-.48-.37-1.01-.47-1.53-.71-1.07-.49-2.14-.56-3.27-.63-2.37-.15-4.73-.45-7.11-.46-1.34,0-2.68-.14-4.02-.23-1.34-.1-2.67-.34-4.02-.28-1.37.06-2.74.09-4.11.13-.53.02-1.05.04-1.57.11,0,0,0-.01-.01-.02-.77.02-1.54.06-2.32.08-.72.03-1.5.07-2.27,0-.08.52-.16,1.05-.22,1.58,0,.31-.02.62-.08.91-.01.06-.02.11-.03.16-.05.7-.08,1.41-.09,2.11.03,1.43.13,2.86.15,4.3,0,.75.01,1.5.02,2.25.01.74-.09,1.4-.18,2.12-.2,1.5-.24,3.04-.24,4.56s.07,3.09.05,4.63c-.03,1.52-.16,3.03-.24,4.55-.07,1.53-.06,3.06-.14,4.59-.04.74-.09,1.49-.1,2.23-.01.75-.1,1.49-.11,2.24,0,.14,0,.28.01.42.45.03.75.43.74,1.01,0,.62-.06,1.23-.11,1.84.13.09.29.14.47.15.58.03,1.19-.05,1.77-.06.63-.01,1.28.08,1.9-.08.25-.06.49-.47.46-.79-.03-.36-.15-.66-.19-1.01-.04-.29,0-.61.03-.9.07-.79.09-1.58.08-2.37-.03-1.56-.07-3.12-.12-4.68-.06-1.59-.16-3.19-.14-4.78,0-.74.07-1.47.09-2.21.01-.47,0-.93,0-1.4.61.09,1.21.14,1.83.12.47-.02.93-.02,1.39,0,0,.01.01.02.02.03.74,1.23,1.62,2.26,2.47,3.37.79,1.04,1.46,2.19,2.28,3.2.82,1.01,1.69,1.95,2.58,2.86.91.94,1.74,2,2.6,3.01.88,1.04,1.75,2.1,2.61,3.16.85,1.05,1.69,2.11,2.48,3.24.73,1.05,1.55,1.93,2.4,2.81.46.49.96.94,1.45,1.39.53.47,1.09.8,1.73.49.06-.03.12-.06.18-.1.86-1.02,1.76-1.99,2.57-3.05-.49-.5-.98-.99-1.48-1.48-.21-.21-.19-.66-.1-.93,0,0,0-.01,0-.02-.03-.03-.06-.05-.09-.08-.27-.32-.47-.73-.75-1.05-.29-.34-.53-.71-.78-1.09-.25-.38-.53-.69-.85-.98-.34-.3-.54-.71-.83-1.08-.57-.74-1.06-1.56-1.59-2.35-1.15-1.71-2.46-3.23-3.84-4.63-.32-.32-.64-.63-.94-.97-.28-.32-.5-.73-.77-1.07-.59-.77-1.2-1.5-1.79-2.26-.46-.59-.88-1.22-1.3-1.85.42-.02.83-.05,1.24-.1,2.46-.32,4.92-.56,7.39-.8,1.14-.11,2.3-.18,3.44-.38.63-.11,1.07-.37,1.6-.82.4-.35.87-.58,1.29-.92.95-.79,1.65-1.86,1.85-3.31.21-1.43-.01-2.9.05-4.34.06-1.51.25-2.97.11-4.49ZM236.65,218.34c-.04.06-.12.14-.19.2-.24.2-.54.23-.82.25-.71.04-1.4-.13-2.11-.14-.8,0-1.6.17-2.4.18-.87,0-1.74,0-2.61.03-.85.02-1.7.17-2.55.2-.86.03-1.71.12-2.57.19-.95.08-1.9.05-2.85.05-1.01,0-2.01.04-3.02.06-.62.01-1.24,0-1.85-.04,0-.09,0-.18,0-.28.03-.87.04-1.73.12-2.58.05-.02.09-.03.14-.04.35-.08.72-.09,1.07-.14.84-.13,1.71-.03,2.56-.05,1.67-.02,3.31.43,4.98.41.88-.01,1.76-.02,2.64-.04.84-.02,1.66.12,2.5.1,1.71-.04,3.46.1,5.16-.22.39-.07.78-.05,1.18-.07.08,0,.16,0,.24-.02,0,0,.02,0,.03,0,.07.61.33,1.23.35,1.83,0,.03-.03.14,0,.11Z"/>
  <path class="cls-1" d="M278.76,209.01c.13-1.07-.73-.97-1.8-.97-.71,0-1.45-.23-2.15-.34-.53-.08-.81-.03-1.4.15-1.08.32-1.32,1.53-1.62,2.55-.92,3.1-2.52,6.25-3.98,9.08-1.37,2.65-2.28,5.37-3.33,8.18-.39,1.04-.85,2.06-1.34,3.06-.1-.21-.2-.41-.31-.61-.41-.7-.87-1.32-1.21-2.07-.94-2.08-1.74-4.22-2.73-6.27-.94-1.96-1.99-3.78-2.85-5.8-.42-1-.88-1.98-1.41-2.91-.08-.13-.17-.28-.27-.42-.31-1.03-.7-2.02-1.52-2.73-.61-.53-1.28-.54-1.78-.21-2.97.29-2.82.83-1.98,2.38,2.19,4.05,3.91,8.32,5.94,12.46,1.46,2.97,2.47,6.21,3.84,9.23.01.08.03.16.06.24,0,.24.01.48.03.72-.07.65-.17,1.3-.21,1.92-.09,1.44-.07,2.89-.08,4.33-.32,2.83-.59,5.76-.54,8.61.01.57.3,1.17.77,1.43.53.29,1.12.28,1.72.15,1.03.3,2.49-.26,3.47-.2.82.05,2.5.25,2.5-.61,0-5.11-.31-11.46.21-16.54.91-1.85,1.64-3.86,2.51-5.59.83-1.67,1.91-3.16,2.71-4.84.77-1.61,1.46-3.26,2.21-4.88.78-1.7,1.61-3.4,2.48-5.05.52-.99,1.91-3.26,2.05-4.42Z"/>
  <path class="cls-1" d="M57.79,188.27c.24-5.37,1.32-10.26,1.91-15.59.66-6.02-.25-12.11.75-18.12.51-3.07,1.33-5.15,2.89-6.63,1.29-1.22,3.07-2.04,5.6-2.68,0,0,21.39-2.23,27.06-1.99,2.01.08,4.06.08,6.15.02-.07.01-.14.03-.2.04,2.49-.05,10.23-.07,12.72-.29,4.36-.39,8.67-.68,12.98-.87,4.7-.21,9.41-.31,14.16-.31,1.14,0,2,.13,3.08-.17.19-.05,1.05-.48,1.77-.82.53-.25.97-.46,1-.43-.74-.49-1.74-.52-2.45-1.16-.66-.6-.97-2.3-1.73-2.68-1.12-.57-3.81,1.14-5,1.32-3.48.52-7.38-.07-10.84.23-2.87.25-5.74.24-8.62.6-2.54.31-5,.93-7.51,1.42-5.01.98-10.06.91-15.13,1.14-5.67.26-11.34.52-17.01.79-4.37.21-8.68.24-12.94,1.32-1.47.37-2.88.7-4.31,1.2-.95.34-2.01.49-2.71,1.25-.52.57-.8,1.18-1.04,1.89-.76,2.17-.36,4.5-.36,6.75-.02,4.81-.31,9.57-.49,14.38-.13,3.19-.58,6.18-1.31,9.08-.77,3.05-.07,6.15-.62,9.18-.32,1.79-.21,4.72-1.22,6.2-3.27,4.77-9.7.33-13.83,3.04-2.8,1.82-1.24,7.73-1.39,10.39-.19,3.63-.98,7.98-1.82,11.53-1.42,5.98-2.24,12.12-2.26,18.26-.01,5.83,2.02,9.26-4.06,9.97-.99.12-2.17.37-3.15.15-1.17-.26-2.41-.41-3.55-.81-1-.35-2.02-1.06-2.19.62-.1.92-.28,2.31-1.04,2.94-.57.47-1.38.57-2.09.65-.51.06-.96.2-1.46.3-1.31.26-2.84.26-4.17.12-1.1-.12-2.47-.22-3.41-.86-1-.68-1.53-1.83-1.68-3-.49-3.72.09-7.46.09-11.21,0-3.94.23-7.95.41-11.78.03-.54.19-4.48.01-7,.69-1.29.8-3.97.8-4.64,0-6.86.11-13.6.78-20.35.16-1.65.26-3.11.82-4.69.58-1.64,2.54-1.86,4.04-1.9,2.12-.06,4.27.35,6.37.18.79-.06,1.59-.12,2.39-.17,1.52-.1,1.85-.98,2.15-2.32.23-1.03.3-2.2.7-3.12.34-.78,1.04-.99,1.74-1.15.05.03.09.07.15.09.61.23,1.8.07,2.49.14.96.1,1.91.21,2.88.21,1.18,0,2.41-.03,3.5.31.87.27,1.65,1.45,2.55,1.4,1.41-.08,2.07-2.22,2.18-3.32.15-1.53-.23-3.05.12-4.54.37-1.57.91-3.17.84-4.81-.07-1.55-.08-2.76.1-4.22.54-4.2.55-8.51,1.61-12.62.72-2.82,1.29-5.5,1.72-8.43.19-1.32.69-4.84.81-6.15.12-1.32.43-2.77.7-4.06.21-1.04,1.17-1.64,2.25-1.79,2.1-.3,4.43-.22,6.48.34,1.62.44,2.34-.53,1.66-2.14-.28-.66-.78-1.08-.99-1.79-.27-.93-.35-1.84-.39-2.82-.01-.4-.05-.8-.1-1.2-.21-1.68-.67-3.32-.75-4.96-.05-1.1.01-2.21,0-3.32.26-.28.64-.51,1.22-.67,2.13-.59,4.59-.79,6.8-.7.94.04,1.87-.05,2.82.08,8.17,1.18,16.58-.33,24.78-.2,4.51.07,9.1.33,13.64.06.72-.04,1.44-.1,2.16-.17,1.58-.16,12.59.56,12.05-1.74-.21-.91-1.82-1.37-2.39-2.04-1.98-2.34-.32-6.06-2-8.52-.45.01-.65.41-.63.88-1.77.14-3.31.78-4.9-.5-1.09.43-.37.98-.18,1.64.21.72.27,1.68.15,2.45-.29,1.92-1.95,2.32-3.62,2.38-2.24.08-2.67-.5-3.34-2.64-.59-1.86-.37-4.11-.43-6.07-.04-1.13.11-2.51-.39-3.56-.62-1.3-1.86.62-2.51,1.03-.72.45-1.4.55-2.24.47-.36-.03-.74-.05-1.09-.12-.3-.06-1.03-.27-1.18-.47-1.38.59-.48,2.18-.29,3.21.28,1.5.21,2.35-.09,3.73-.21,1.03-.19,1.97-.08,2.89-.31,1.43-.61,2.02-1.6,2.17.08-.07.11-.14.08-.21-.7-1.66-.27-3.55-.49-5.29-.18-1.48-.98-1.4-2.12-.89-1.27.56-2.4.93-3.82.84-1.63-.09-1.98.04-2.02,1.9,0,.22-.02.44-.03.66-.17.62-.23,1.35-.33,2-.22,1.54-.49,2.56-1.96,3.29-2.26,1.12-4.73,1.57-7.23,1.71-.99.06-1.84-.22-2.83-.27-.85-.05-1.95-.03-2.5-.81-.57-.8-.61-2.48-.94-3.43-.95-2.89-.42-5.36-.73-8.37-.15-1.54-.65-3.06-.85-4.6-.11-.9.04-2.21-1.23-1.78-1.03.35-1.85,1.17-2.9,1.49-1.1.33-2.35.46-3.48.15-.96-.26-1.85-1.11-2.87-1.02-.01.94-.03,1.91,0,2.85.04,1.07.24,2.15.49,3.17.44,1.8.35,4.1.06,5.89-.52,3.1-2.05,6.04-2.86,9.08-.45,1.68-.88,3.3-.73,5.02.12,1.39.23,2.78.36,4.13.11,1.13.03,2.34.31,3.45-.09.03-.19.05-.32.04-.32-.03-.61-.17-.94-.19-.38-.02-.76,0-1.14,0-.58,0-1.14-.03-1.56.43-.22.23-.2.39-.51.58-.27.15-.62.26-.91.37-.7.26-1.17.13-1.46.95-.27.8-.48,1.67-.67,2.49-.77,4.22-.69,8.77-1.93,12.78-.83,2.67-1.43,5.27-1.95,8.03-.67,3.58-1.65,7.22-1.94,10.84-.23,2.9.11,6-1.45,8.55-.51.47-.98.78-1.87.97-1.12.23-1.78.3-2.25-.9-.35-.91-.84-1.84-.9-2.83-.15-2.34-.12-4.74,0-7.08.11-2.15-.3-1.47-1.72-.8-1.34.64-3.27.44-4.73.45-.97.01-2.1-.95-2.9-.26-.88.76.03,2.17.04,3.04.03,2.36.15,4.62-.34,6.92-.45,2.13-.32,7.49-3.39,7.99-.67.11-1.39-.19-1.97-.24-.15-.37-.25-.7-.2-1.17.08-.64.15-1.27.17-1.93.18-4.93.34-9.7.05-14.63-.19-3.29.56-6.43,0-9.74-1.09,0-1.96.58-3.08.37-.75-.14-2.74-1.47-3.36-.99-.86.65-.33,3.56-.23,4.5.35,3.32.05,6.65-.23,9.96-.3,3.56-.58,7.13-.88,10.69-.26,2.98-2.19,5.45-3.06,8.3-1.63,5.39-1.24,11.43-1.24,16.99,0,2.82.03,5.86-.64,8.55-.35,1.42-1.49,4.87-.31,6.21.39.45.73.68,1.03.77-.09.7-.15,1.4-.22,2.07-.43,3.95-.93,7.97-1.09,11.94-.17,4.29-1.26,8.64-2.11,12.85-.3,1.48-.53,3.25-1.18,4.62-.59,1.24-2.75,2.23-3,3.39-.44,2.05,2.47,1.82,3.59,1.81,1.56,0,3.11.18,4.67.31,3.79.31,7.58.47,11.38.47,4.6,0,9.65.13,14.11-1.12,7.02-1.97,5.55-10.88,5.55-16.63s.7-11.69.97-17.49c.52-11.07-1.36-20.12,10.96-22.61,5.53-1.11,6.27-2.88,6.52-8.62Z"/>
  <path class="cls-1" d="M329.32,252.11c-.47-.72-1.4-.79-2.13-.86-1.14-.11-1.91-.29-2.93-.87-1.46-.82-3.03-2.67-3.14-4.42-.05-.76.29-1.53.4-2.27.19-1.23.26-2.52.32-3.76.05-1.13.28-2.53.05-3.61-.18-.83-.77-1.35-.87-2.19-.15-1.2-.03-2.51,0-3.72.09-3.15.72-6.29.43-9.43-.19-2.06-.36-4.14-.56-6.2.18-.13.36-.29.56-.52,1.18-1.35.04-4.8-.31-6.21-.67-2.69-.64-5.72-.64-8.55,0-5.56.39-11.6-1.24-16.99-.86-2.85-2.8-5.31-3.06-8.3-.31-3.56-.59-7.12-.88-10.69-.27-3.3-.57-6.63-.23-9.96.1-.94.62-3.85-.23-4.5-.62-.47-2.61.85-3.36.99-1.11.21-1.98-.36-3.08-.37-.56,3.3.19,6.45,0,9.74-.29,4.93-.13,9.7.05,14.63.05,1.26.14,2.49-.2,3.72-.09.32-.19.84-.37,1.28-.5.05-1.01.07-1.5.01-.06,0-.12-.02-.19-.03-.07-.14-.13-.29-.22-.41-.39-.53-.93-.93-1.29-1.51-.39-.63-.63-1.4-1.09-1.99-.13-.17-.28-.32-.46-.45-.3-.22-.55-.31-.76-.31-.02-.17-.04-.33-.06-.48-.11-.77-.2-1.52-.35-2.29-.46-2.44-.37-4.96-.4-7.44-.02-.98.85-2.58-.05-3.39-.82-.74-1.92.35-2.89.37-1.46.03-3.39.31-4.74-.37-.64-.32-1.77-1.9-1.81-.05-.02,1.01.42,2.02.59,3.05.32,2-.09,3.52-.38,5.5-.17,1.17-.15,2.45-.71,3.53-.44.84-1.11,1.19-1.57,1.72-.28.33-.49.72-.51,1.33-.08,1.87.55,5.79,2.52,6.61,1.31.54,3.04.31,4.38.04,2.93-.58,5.89-.31,8.84-.17,1.85.42,3.76.44,5.73.45,1.91,0,5.1-.29,5.88,1.9.56,1.58.65,3.04.82,4.69.67,6.75.78,13.49.78,20.35,0,.42.04,1.64.24,2.81-.04,1.44-.08,2.88-.09,4.34,0,3.22.34,6.41.34,9.63,0,5.15-.26,10.45.25,15.58.21,2.08,1.02,6.46-.81,8.03-.72.62-2.84.8-3.85.95-1.42.21-3.18.23-4.59,0-.43-.07-.93-.15-1.43-.27-.87-.21-1.74-.55-2.19-1.2-.34-.5-.44-1.18-.79-1.7-.85-1.26-3.07-1.08-4.4-1.15-2.3-.11-6.37.18-7.49-2.46-.95-2.24.03-5.41.02-7.76-.01-5.04-.43-9.85-.91-14.47-.39-3.76.07-7.53-.14-11.3-.21-3.71-.17-7.41-.16-11.14,0-.94.05-1.83.13-2.75.09-.99-.28-1.66-.64-2.62-.26-.69-.38-1.37-1.25-1.24-.48.07-.56.52-.98.71-.85.38-2.6.09-3.44-.2-1.22-.41-2.15-.58-3.45-.45-1.07.11-2.31.63-3.39.36-.89-.22-1.96-1.23-2.7-1.79-1.91-1.46-3.11-3.81-2.79-6.23.02-.13.04-.25.05-.37-.27-.06-.27-.31.17-1.03.05-.08.08-.16.12-.24.06-.19.14-.38.22-.57.57-2.12-1.54-4.09-1.32-6.54.13-1.39,1.54-2.79,1.81-4.11.88-4.24-1.07-6.59-2.22-10.1-1.09-3.34-1.04-6.92-1.46-10.38-.22-1.83-.68-3.57-1.05-5.37-.46-2.23-1.04-4.72-1.82-6.84-.78-2.11-.73-4.58-1-6.81-.3-2.49-.55-4.9-.55-7.39,0-.85.08-1.75-.09-2.57-.17-.87-.45-.73-1.15-.5-.61.2-1.11.29-1.78.29-.61,0-1.26-.35-1.72-.11-.65.34-.45,1.15-.38,1.73.19,1.68.21,3.49.21,5.25,0,1.53-.13,3.06-.11,4.6.01,1.36-.37,1.81-1.49,2.58-.43.3-.64.53-1.16.54-1.2.03-2.11-.99-3.3-1.1-1.02-.09-2.12.26-3.16.27-2.79.03-5.51-.69-8.28-.92-3.39-.28-6.79,0-10.18.02-2.41,0-4.82-.9-7.25-1.13-1.54-.15-4.22.4-5.48-.52-1.25-.91-1.39-2.93-2.4-4.08-.73-.83-1.93-1.1-2.8-1.76-1.26-.96-.96-1.4-.97-2.81-.02-2.37-.38-4.73-.38-7.11v-2.93c0-1.3.09-2.62-.16-3.89-.08-.43-.18-.82-.7-.48-.65.42-.94,1.1-1.68,1.43-.76.35-1.59.61-2.4.79-1.26.27-2.77.27-3.92-.39-.47-.27-1.93-1.44-2.35-.51-.22.49-.12,1.44-.1,1.99.02.65-.15,1.33-.19,2.01-.1,1.61.19,2.98.28,4.6.06.95.02,1.93,0,2.89-.05,1.92-.22,3.82-.38,5.73-.06.68.12,1.34-.21,1.96-.32.6-1.01,1.02-1.51,1.46-.71.64-1.79,1.25-2.81.99-1.16-.3-1.14-2.37-1.19-3.46-.04-.8.31-1.69-.79-1.54-.75.1-1.15.74-1.8,1.02-.73.32-1.64.58-2.42.81-2,.59-3.98.45-5.92-.29-1.96-.76-1.81.79-1.63,2.22.25,2.07.19,2.16-.29,4.19-.26,1.09-2.93,2.45-2.18,3.4,1.5.09,3-.26,4.49-.42,2.39-.24,4.8-.26,7.18-.46.35-.03.71-.07,1.06-.11,3.02-.34,6.02-.75,9.06-.87,5.59-.22,11.23-.29,16.83-.29,13.63.01,27.67.89,40.38,6.21,9.34,3.91,6.33,20.2,7.23,28.31.59,5.33,1.68,10.22,1.92,15.59.26,5.74,1,7.51,6.55,8.62,12.39,2.49,10.5,11.54,11.02,22.61.23,4.8.75,9.58.92,14.38.08,2.34-.1,4.67-.04,7.01.06,2.51.23,5.04-.02,7.54-.1,1.03-.43,1.76-1.38,2.3-2.73,1.54-5.87.69-8.67,1.53-1,.3-2.78,1.4-3.25,2.33,2.49.37,5.01.13,7.51.21,2.43.07,5.14.44,7.42-.65,1.28-.61,2.34-1.4,3.79-.88,1.12.4,1.89,1.37,3.14,1.72,1.37.39,2.95.32,4.36.18,4.1-.4,8.06.33,12.18.42,4.05.08,8.19.27,12.14-.78,1.07-.29,3.91-.96,2.78-2.7Z"/>
  <path class="cls-1" d="M110.58,182.19c-.18-1.32-.59-2.59-.86-3.88-.24-1.18-.63-2.63-1.35-3.63-.25-.34-.53-.61-.85-.82-.26-.53-.56-1.03-.94-1.5-1.71-2.14-4.64-1.41-7.08-1.72-3.43-.43-6.68.2-10.1.28-2.48.06-4.98-.01-7.44-.35-.34-.36-.72-.68-1.04-1.11-.6-.83-.58-2.19-.57-3.31.25-.72.58-1.39,1.06-1.87,1.37-1.37,3.51-1.47,5.29-1.88.21-.05.41-.1.62-.15,1.93.4,4.64.04,5.74,0,2.66-.09,5.32-.35,7.97-.52.75-.05,1.66-.13,2.48-.37,1.13,0,2.24-.24,2.73-1.29.2-.43.27-.9.23-1.38.09-.19.48-3.43.47-3.65-.19-2.28-2.85-.24-4.81-.73-2.91-.73-5.92-.54-8.89-.45-2.98.09-5.99.24-8.93.76-2.5.45-4.89,1.28-6.42,3.41-.23.33-.46.68-.66,1.06-1.16,1.49-1.68,3.62-1.73,5.46-.07.54-.11,1.08-.12,1.62-.18.78-.27,1.59-.2,2.47.15,1.95.84,4,2.26,5.4.63.81,1.57,1.33,2.61,1.44.08,0,.16.01.24.01,1.53.27,3.17.05,4.75.24,1.38.16,2.8.01,4.18-.02,1.4-.04,2.79.08,4.19.1,1.57.03,3.11.18,4.67.32,2.06.34,4.42.93,5.92,2.24.02.1.04.2.07.3.09.37.21.71.33,1.06.07.37.13.74.22,1.11.33,1.44.81,2.63.53,3.94-.62,1.08-1.91,1.88-3.08,2.34-4.79-.31-9.72.47-14.47.67-1.3.05-2.6.12-3.9.1-1.15-.01-2.53.42-3.49-.21-1.68-1.1-2.57-3-2.27,3.55,0,0,0,.01,0,.01-.08.39-.08.94.04,1.33.47,1.43,1.77,1.46,3.04,1.43,1.45-.04,2.9-.02,4.34-.07,1.73-.06,3.35-.67,5.08-.7,1.65-.03,3.3.04,4.95-.12,1.74-.17,3.44-.58,5.15-.94,1.49-.31,2.87-.83,4.32-1.3,1.18-.39,2.38-.81,3.33-1.63,2-1.73,2.73-4.49,2.38-7.04Z"/>
  <path class="cls-1" d="M138.58,191.6c.24-1.18.07-3.5.07-3.5,0,0-4.47-.61-5.95-.71-1.77-.12-3.55-.2-5.32-.25-.94-.03-1.89.1-2.83.06-.22-.01-.44-.04-.66-.07-.23-1.08-.55-2.1-.57-3.27-.02-1.57.07-3.13.1-4.69.03-1.4-.2-2.67-.37-4.01.82-.02,1.64-.1,2.48-.17,1.64-.13,3.22-.22,4.85-.48,1.63-.25,3.27,0,4.89-.22,1.22-.17,2.46.07,3.41-.89.06-.06.41-1.76.45-1.82.7-.33-.04.26-.02-.77.08-3.37-3.83-1.05-6.17-.95-1.94.09-3.89.09-5.83.18-1.41.07-2.87.08-4.3.22-.05-2.3-.15-6.63-.36-8.93-.08-.85-.17-1.71-.27-2.56,1.07.15,2.15.33,3.21.33.78.19,1.57.35,2.35.44,2.29.28,4.55,1.15,6.87.74.73-.13,1.19-.89,1.23-1.57,0-.16.02-.3.04-.43.39-.57.29-3.03.29-3.03,0,0-5.46-1.28-7.67-1.19-1.46.06-2.94-.5-4.41-.65-1.42-.15-4.59-.52-6.05-.38-1.89-.76-.76.67-.8,2.92-.02,1.1.29,2.2.34,3.29.06,1.29.22,2.54.26,3.83.09,2.7.64,5.4.8,8.1.21,3.67-.2,7.36.12,11.02.14,1.61.21,3.13.47,4.72.21,1.29.16,2.61.23,3.91-.27,1.12.26,2.5,1.43,2.83,1.16.32.49.25,1.65.04.75-.14,1.52-.24,2.3-.3,1.63.14,3.29.25,4.92.21,1.14.06,2.28.06,3.42.09,1.32.04,2.51.2,3.82-.03,1-.18,1.64-1.19,1.59-2.07Z"/>
  <path class="cls-1" d="M164.96,179.61c-2.7.23-3.13,3.1-3.71,5.21-.07.24-.39,1.07-.6,1.84-.65.29-1.36.45-2.11.52-.66.06-1.34.12-1.99.19-.38.04-.71.17-1.05.28-1.07-.02-2.13-.14-3.2-.34-.03,0-.06-.01-.09-.02-.13-.17-.25-.34-.35-.52-.1-.56-.04-1.28-.06-1.73-.06-1.49-.01-2.93.16-4.41.15-1.32.64-2.57.81-3.87.29-2.23.19-4.44.19-6.66.34-1.13.66-2.27.91-3.44.57-2.62,1.23-5.19,2.77-7.44.8-1.16,1.57-2.33,2.57-2.95.46,0,.92.03,1.35.07.22.2.51.34.85.39.02.1.03.21.04.32.08.61.2,1.2.33,1.81,0,.06,0,.12.02.18-.08,1.06-.09,2.15.02,3.2.2,1.86,1.19,4.05,3.46,3.54,2.15-.48,2.25-3.37,2.54-5.31.32-2.19,0-7.65,0-7.65-2.87-3.28-7.43-2.94-11.59-1.28-.79.31-1.38.82-1.89,1.42-.8.35-1.53.84-2.12,1.49-1.29,1.42-1.85,3.42-2.28,5.39-.34.88-.61,1.78-.87,2.69-.83,2.87-1.28,5.91-1.74,8.86-.23,1.46-.35,2.91-.49,4.38-.08.83-.25,1.67-.12,2.48-.21,1.54-.31,3.11-.24,4.72.07,1.76.44,3.4,1.12,4.93.09.53.23,1.04.46,1.51.34.7.88,1.21,1.52,1.59,1.83,1.9,4.49,2.07,7.04,2.14,2.62.08,7.66-.33,9.18-1,.68-.27,1.07-2.11,1.23-3.02.43-2.47,1.34-9.55,1.34-9.55,0,0-2.3-.05-3.38.04Z"/>
  <path class="cls-1" d="M197.15,171.79c.67-1.17.81-2.58.81-3.9,0-1.31-.09-2.63-.18-3.94-.12-1.67-.55-3.35-1.02-4.95-.38-1.29-.97-2.68-2.17-3.41-.68-.41-1.36-.88-2.07-1.26-.36-.19-.74-.42-1.14-.53-.41-.11-.84-.05-1.26-.03-1.08.05-2.16.05-3.25.07-1.02.02-2.05-.06-3.05.16-.97.21-1.95.4-2.92.6-.48.1-.96.17-1.46.17-.47,0-.93-.02-1.39.09-.19.05-.36.22-.4.41-.1.42-.15.85-.17,1.28-.03.05-.05.12-.04.2.02.3-.15.58-.2.88-.06.38,0,.77-.01,1.15-.02.37-.11.75-.14,1.12-.04.43-.04.86-.04,1.28,0,1.59.05,3.17.07,4.76.01.79.05,1.58.06,2.37.01.78-.18,1.52-.22,2.3-.05.79-.14,1.58-.27,2.36-.13.74-.33,1.47-.41,2.21-.08.71-.02,1.42.03,2.12.05.75.06,1.5.03,2.25-.06,1.62-.11,3.21-.06,4.84.03.77,0,1.52-.15,2.28-.14.73-.32,1.46-.43,2.2-.09.57-.05,1.15-.13,1.71-.07.48-.18.97-.18,1.46,0,.44.08.91.44,1.2.41.33,1.01.24,1.49.19.76-.08,1.5-.2,2.27-.22.72-.02,1.53-.16,2.25-.04.53.08,1.56,0,1.56,0,0,0,.29-.76.29-1.13,0-.44-.05-.89-.12-1.33-.1-.65-.15-1.28-.17-1.94-.02-.74-.2-1.45-.25-2.18-.05-.74.11-1.49.13-2.23.04-1.52.23-3.02.45-4.53.22-1.53.6-3.05.59-4.6,0-.09,0-.19-.01-.28.19.79.52,1.5.84,2.25.33.79.54,1.62.8,2.44.26.82.54,1.63.8,2.45.24.8.54,1.56.85,2.33.31.75.65,1.51.68,2.33.03.8.34,1.57.56,2.32.24.8.53,1.57.82,2.34.21.57.29,1.24.96,1.42.51.14,1.06.06,1.58.03.36-.02.71-.06,1.07-.11.41-.06.86-.05,1.26-.16.6-.16,1.27.34,1.25-.28-.03-.69-.68-2.4-.83-3.07-.09-.38-.18-.77-.3-1.14-.13-.39-.33-.76-.37-1.17-.19-1.7-.62-3.38-1.05-5.04-.5-1.92-.79-3.89-1.23-5.83-.11-.51-.23-1.03-.34-1.54.68-.05,1.36-.13,2.03-.29,1.43-.34,2.72-1.13,3.46-2.43ZM190.08,162.75c-.05.4-.33.71-.66.92-.43.28-.79.31-1.26.36-.71.07-1.39.3-2.1.37-.49.05-1.02.08-1.54.06.14-1.06.26-2.12.28-3.19.46.04.95-.01,1.39-.02.66,0,1.37-.11,2.03.03.52.11,1.03.35,1.46.66.31.23.43.42.39.79Z"/>
  <path class="cls-1" d="M217.33,193.6c1.14.06,2.28.06,3.42.09,1.32.04,2.51.2,3.82-.03,1-.18,1.64-1.19,1.59-2.07.24-1.18.07-3.5.07-3.5,0,0-4.47-.61-5.95-.71-1.77-.12-3.55-.2-5.32-.25-.94-.03-1.89.1-2.83.06-.22-.01-.44-.04-.66-.07-.23-1.08-.55-2.1-.56-3.27-.02-1.57.07-3.13.1-4.69.03-1.4-.2-2.67-.37-4.01.82-.02,1.64-.1,2.48-.17,1.64-.13,3.22-.22,4.85-.48,1.63-.25,3.27,0,4.89-.22,1.22-.17,2.46.07,3.41-.89.06-.06.41-1.76.45-1.82.7-.33-.04.26-.02-.77.08-3.37-3.83-1.05-6.17-.95-1.94.09-3.89.09-5.83.18-1.41.07-2.87.08-4.3.22-.05-2.3-.15-6.63-.36-8.93-.08-.85-.17-1.71-.27-2.56,1.07.15,2.15.33,3.21.33.78.19,1.57.35,2.35.44,2.29.28,4.55,1.15,6.87.74.73-.13,1.19-.89,1.23-1.57,0-.16.02-.3.04-.43.39-.57.29-3.03.29-3.03,0,0-5.46-1.28-7.67-1.19-1.46.06-2.94-.5-4.41-.65-1.43-.15-4.59-.52-6.05-.38-1.89-.76-.76.67-.8,2.92-.02,1.1.29,2.2.34,3.29.06,1.29.22,2.54.26,3.83.09,2.7.64,5.4.8,8.1.21,3.67-.2,7.36.12,11.02.14,1.61.21,3.13.47,4.72.21,1.29.16,2.61.23,3.91-.27,1.12.26,2.5,1.43,2.83,1.16.32.49.25,1.65.04.75-.14,1.52-.24,2.3-.3,1.63.14,3.29.25,4.92.21Z"/>
  <path class="cls-1" d="M245.45,189.96c.07-1.59.11-3.18.08-4.77-.06-3.71-.53-7.4-.23-11.1.15-1.83,0-3.66-.12-5.48.12-1.16.26-2.32.29-3.48.03-.96.01-1.88-.04-2.8.17-1.35.16-2.72.14-4.09,0-.45.01-.93.03-1.42,1.61-.22,3.26-.33,4.72-1.07.8-.41.88-1.31.53-1.99.01-.06.14-2.21.15-2.28l-.93-.24c-.96-.25-2.1-.24-3.03-.21-1.29.03-2.59.02-3.88.07-2.56.11-5.13.28-7.67.6-1.85.23-2.26.03-1.79,3.47-.02.32-.03.64-.02.95,0,.86.54,1.33,1.16,1.42.14.09.3.16.48.22,1.4.46,2.99-.35,4.39-.4.12,0,.25-.01.37-.02.01,1.41.01,2.81.03,4.22.03,1.64.33,3.26.29,4.91-.04,1.61-.42,3.18-.47,4.78-.06,1.9.32,3.83.05,5.73-.19,1.33-.65,2.64-.76,3.98-.14,1.6.2,3.27.3,4.86.09,1.41,0,2.87-.12,4.27-.1,1.11-.38,2.17-.19,3.27,0,.04.01.08.02.12.01.06.03.12.04.19.24.89.98,1.17,1.67,1.03.31.13,4.72-.38,4.72-.38,0,0-.28-3.13-.22-4.38Z"/>
  <path class="cls-1" d="M208.78,107.14c-.12.36-.23.72-.36,1.07-.16.45-.67,1.24-.85,1.96h-.01c-.06.26-.08.51-.03.73,0,.01,0,.02.02.03,0,.03.02.06.04.09.03.07.08.14.13.2,0,0,0,0,0,.01.06.08.13.15.2.22.6.54,1.64.58,2.21.01.32-.32.37-.5.44-.92.05-.36.08-.7.03-1.05-.05-.35-.25-2.81-1.46-4.29-.1.99.04.5-.36,1.93Z"/>
  <path class="cls-1" d="M245.65,82.62c-1.08,0-2.16.02-3.24.17-1.74.24-3.47.57-5.23.65.03.13.06.27.08.4.22,1.57.37,3.19.5,4.76.09,1.07.33,2.11.59,3.15.4,1.64.28,3.34.61,5.02.25,1.26.71,2.46,1.03,3.7.33,1.3.23,2.38.23,3.67,0,3.09.35,6.29.8,9.35.21,1.46.25,2.95.45,4.39.16,1.1.66,2.18.89,3.31.35,1.72.74,3.34.99,5.08.17,1.19.39,2.38.64,3.56,2.53-.02,4.96-.77,7.45-1.16-.51-1.89-.69-3.93-.97-5.87-.44-2.96-1.03-5.84-1.26-8.83-.08-1.01-.18-2.01-.37-3-.44-2.25-.84-4.36-.97-6.64-.1-1.88-.45-3.74-.6-5.62-.13-1.58.17-3.17.09-4.79-.18-3.68-.7-7.33-1.31-10.96-.03-.19-.19-.33-.39-.33Z"/>
  <path class="cls-1" d="M244.6,132.58c2.64-.11,5.23-.69,7.82-1.17-.22-.6-.44-1.19-.66-1.79-2.53.35-5.01,1.13-7.57,1.21.13.59.27,1.17.41,1.75Z"/>
  <path class="cls-1" d="M245.52,135.35c.25.26.69.38,1.52.4,1.68.03,6.46.05,5.99-2.68-.05-.28-.13-.56-.21-.84-2.62.48-5.23,1.06-7.9,1.21.24.94.25,1.55.6,1.91Z"/>
  <path class="cls-1" d="M240.58,124.72c-2.15.29-6.21,1.53-8.64,1.25,0,.14.02.29.03.44.16,2.28.26,4.77.84,6.98.06.21.12.37.19.46.24.3.59.1,1.26-.08h0c1.8-.09,4.16-.21,5.35-.94.53-.05,1.07-.08,1.61-.09.13-.86-.02-1.8-.28-2.73.14-1.72-.18-3.79-.38-5.28Z"/>
  <path class="cls-1" d="M226.13,85.79c-.31-.04-.56.22-.54.53.24,2.95.25,6,1.26,8.75.64,1.71.65,3.35.97,5.14.14.79.27,1.59.41,2.38.56,3.35,1.11,6.76,1.95,10.03.49,1.91.79,3.86.89,5.83.09,1.77.39,3.62.63,5.44.03.26.27.45.53.43l7.71-.66c.28-.02.48-.27.44-.55-.68-5.62-1.13-11.32-1.74-16.98-.56-5.14-2.11-10.02-3.02-14.97-.14-.77-.52-3.28-.92-6.09-.04-.27-.29-.47-.57-.42-2.25.41-5.81,1.41-8.01,1.14Z"/>
  <path class="cls-1" d="M224.96,82.17c.16.78.32,1.48.39,1.91,0,.04,0,.07.02.11,2.1.01,4.07-.02,6.09-.39.75-.14,2.15-.47,3.02-.37-.09-.69-.19-1.37-.28-2.04-2.72.49-7.39,1.86-9.23.78Z"/>
  <path class="cls-1" d="M231.48,80.53c.62-.11,1.7-.37,2.56-.39-.37-2.78-.64-4.98-.56-4.96-1.62.65-7.53.39-8.55,1.48-.66.71-.49,2.53-.19,4.25,2.36.02,4.52.02,6.76-.38Z"/>
  <path class="cls-1" d="M221.56,82.85c-.59-.05-5.83,1.55-7.42,1.33-.21-.03-.38.15-.34.36.66,3.73,1.38,7.49,2.14,11.18,1.49,7.22,1.88,14.56,3.02,21.77.75,4.67,1.41,9.35,2.67,13.81.04.14.17.23.32.22,2.32-.2,7.7.57,7.05-2.77-.54-2.75-.58-5.78-.91-8.66-.41-3.53-.96-7.05-1.41-10.53-.77-5.89-1.62-11.81-2.12-17.57-.18-2.08-.61-4.12-1.12-6.14-.29-1.12-.54-2.88-1.87-3Z"/>
  <path class="cls-1" d="M220.65,79.91c-.9.21-1.77.52-2.69.4-1.05-.13-2.18,0-3.24.04-.41.02-1.3-.09-1.65.21-.03.03-.06.06-.08.09-.24.38-.09,1.29.12,1.66.28.49,1.11.2,1.59.19,1.64-.05,3.28-.16,4.9-.49.66-.14,1.32-.3,1.99-.39.25-.03.66.02.84-.16.18-.19.2-.68.25-.92.01-.06.02-.12.02-.17,0-.47-.35-.81-.78-.75-.43.07-.85.19-1.27.29Z"/>
  <path class="cls-1" d="M237.62,78.58c1.64-.12,3.27-.31,4.87-.73.66-.17,1.3-.37,1.97-.49.25-.05.66,0,.83-.2.17-.19.17-.69.21-.93,0-.06.02-.12.01-.17-.01-.47-.38-.79-.81-.71-.42.09-.84.23-1.26.35-.89.26-1.75.6-2.67.53-1.06-.08-2.18.1-3.23.2-.41.04-1.31-.03-1.64.29-.03.03-.05.06-.07.1-.22.39-.03,1.29.2,1.65.31.47,1.12.15,1.6.11Z"/>
  <path class="cls-1" d="M212.72,79.15c2.38-.03,4.56-.07,6.8-.53.81-.17,1.64-.32,2.44-.48-.02-.9-.38-3.26-1-3.88-.49-.49-1.23-.37-1.95-.41-1.23-.07-2.39.2-3.6.26-.63.03-1.54-.26-2.13-.02-.18.07-.32.23-.45.45-.72,1.28-.57,4.61-.11,4.61Z"/>
  <path class="cls-1" d="M38.55,183.22c-.05-.52-.1-1.04-.13-1.56-.01-.23-.23-.42-.54-.46-3.06-.38-9.33-2.12-9.49,1.05-.01.27-.04.53-.06.8-.03.29.27.53.67.53,2.95,0,5.9,0,8.85.16.4.02.74-.22.71-.52Z"/>
  <path class="cls-1" d="M37.07,187.82c.32,0,.59-.23.63-.55l.17-1.25c.05-.36-.2-.68-.56-.71-1.36-.12-4.69-.39-8.62-.41-.32,0-.59.23-.63.55-.07.53-.15,1.06-.23,1.59-.06.38.23.73.62.73,2.17,0,7,.04,8.63.05Z"/>
  <path class="cls-1" d="M34.9,214.55c-.04-4.26,1.25-8.32,1.93-12.49.35-2.15.47-4.32.73-6.48.11-.87.25-1.74.39-2.61-.03-1.13-.09-2.27-.17-3.4-1.55-.07-3.1-.33-4.64-.4-1.88-.08-3.76-.06-5.64-.05-.13.85-.26,1.71-.36,2.56-.47,3.97-.77,7.96-1.17,11.88-.54,5.25-1.02,10.53-1.66,15.69-.46,3.68-.96,7.4-.9,11.11.02,1.3-.14,3.28,1.28,3.75.65.21,6.92-.19,8.53.49.15-.81.32-1.61.52-2.41.18-3.57.34-7.16.44-10.71.06-2.33.34-4.64.71-6.94Z"/>
  <path class="cls-1" d="M33.84,236.87c-.18-.61-1.17-.51-1.7-.62-1.81-.37-3.65-.68-5.5-.73-.76-.02-1.53-.01-2.29-.08-.28-.03-.72-.2-.96-.04-.25.16-.39.69-.51.94-.03.06-.05.12-.07.18-.13.51.17.98.66,1.02.49.04.99.01,1.47.01,1.05,0,2.08-.11,3.06.25,1.12.41,2.4.57,3.57.79.46.08,1.41.44,1.86.2.04-.02.08-.05.11-.08.36-.36.44-1.39.3-1.84Z"/>
  <path class="cls-1" d="M33.45,240.44c-2.63-.58-5.02-1.11-7.6-1.18-.93-.03-1.88-.08-2.8-.11-.21.98-.43,3.66.09,4.51.41.67,1.26.73,2.04.96,1.34.39,2.67.4,4.02.65.7.13,1.62.68,2.34.57.21-.03.41-.17.6-.37,1.12-1.21,1.81-4.9,1.31-5.01Z"/>
  <path class="cls-1" d="M22.58,196.51l-9.77-1.11c-.49,6.54-1.3,13.1-1.9,19.67-.52,5.79.11,11.51.01,17.16-.02.93-.17,4.07-.37,7.48,2.72.14,7.97-.38,10.31.81.37-3.53,1.17-7.15.63-10.64-.32-2.03.02-3.84.07-5.88.02-.9.05-1.81.07-2.71.12-3.94.28-7.93.05-11.83-.15-2.61.31-5.49.55-8.1.15-1.59.21-3.23.33-4.84Z"/>
  <path class="cls-1" d="M23.32,193.09c.12-.36.29-.61-.73-.82-1.04-.21-2.38-.29-3.47-.47-1.48-.24-3.51-.56-5-.5-1.46.06-1.76,1.63-1.09,2.17.46.38,2.17.61,3.02.69,1.74.16,3.5.33,5.2.49.78.07,1.24-.03,1.52-.22.48-.33.42-.93.56-1.34Z"/>
  <path class="cls-1" d="M17.27,190.12c1.48.24,3.51.56,5,.5,1.46-.06,1.76-1.63,1.09-2.17-.46-.38-2.17-.61-3.02-.69-1.74-.16-3.5-.33-5.2-.49-.78-.07-1.24.03-1.52.22-.48.33-.42.93-.56,1.34-.12.36-.29.61.73.82,1.04.21,2.38.29,3.47.47Z"/>
  <path class="cls-1" d="M16.36,245.57c-1.49-.19-3.53-.44-5.02-.32-1.45.11-1.7,1.69-1.02,2.21.47.36,2.19.53,3.05.58,1.74.1,3.51.21,5.22.31.78.05,1.24-.07,1.51-.27.47-.35.39-.95.51-1.36.11-.37.27-.62-.76-.79-1.05-.18-2.39-.21-3.49-.35Z"/>
  <path class="cls-1" d="M20.49,242.08c-.47-.36-2.19-.53-3.05-.58-1.74-.1-3.51-.21-5.22-.31-.78-.05-1.24.07-1.51.27-.47.35-.39.95-.51,1.36-.11.37-.27.62.76.79,1.05.18,2.39.21,3.49.35,1.49.19,3.53.44,5.02.32,1.45-.11,1.7-1.69,1.02-2.21Z"/>
  <path class="cls-1" d="M315.25,191.58c-.02-.57-.46-.99-.95-.93l-6.68.77c-.44.05-.77.48-.77,1-.02,1.65-.23,3.32-.17,4.94.12,3.14.3,6.63.33,9.75.04,4.66.18,9.46.3,14.19.03,1.09.06,2.17.08,3.26.06,2.45.19,4.65.16,7.06-.04,3.68.18,7.55.35,11.35.03.58.49,1.03.99.91,1.44-.34,4.19-.12,6.2-.04.77.03,1.4-.68,1.4-1.56-.02-3.47.2-6.47.18-7.43-.17-6.78-.21-13.61-.47-20.59-.28-7.57-.64-15.15-.96-22.68Z"/>
  <path class="cls-1" d="M314.14,185.57c-1.28-.13-3.02.18-4.29.41-.94.17-2.08.21-2.98.43-.88.21-.74.52-.64.96.11.49.05,1.21.46,1.63.24.24.63.38,1.3.32,1.46-.13,2.97-.27,4.46-.4.73-.06,2.2-.28,2.6-.71.57-.63.34-2.52-.91-2.65Z"/>
  <path class="cls-1" d="M315.08,245.58c-1.46.05-2.97.13-4.47.18-.74.02-2.21.17-2.61.58-.59.6-.4,2.5.84,2.69,1.27.19,3.02-.03,4.3-.2.94-.13,2.09-.11,2.99-.28.88-.17.75-.48.66-.93-.1-.5-.02-1.21-.42-1.65-.23-.25-.62-.41-1.29-.39Z"/>
  <path class="cls-1" d="M303.29,220.28c-.01-.9-.02-1.81-.04-2.71-.05-3.94-.09-7.93-.25-11.81-.11-2.59-.02-5.5,0-8.12.01-1.6-.25-3.24-.24-4.85l-8.38-.46c-.05,6.56.34,12.98.33,19.57,0,5.81.11,11.48.14,17.13,0,.92.1,4.25.12,7.66,2.32-.04,6.76-.91,8.82.12.11-3.55-.14-7.21-.4-10.66-.15-2-.08-3.83-.11-5.87Z"/>
  <path class="cls-1" d="M294.45,190.4c.41.34,1.88.46,2.61.48,1.49.04,3,.1,4.46.15.67.02,1.06-.11,1.28-.32.39-.36.31-.96.4-1.37.08-.37.21-.63-.67-.77-.9-.14-2.04-.13-2.98-.24-1.27-.14-3.02-.33-4.29-.16-1.24.16-1.4,1.74-.81,2.24Z"/>
  <path class="cls-1" d="M300.36,184.22c-1.49-.04-3-.1-4.46-.15-.67-.02-1.06.11-1.28.32-.39.36-.31.96-.4,1.37-.08.37-.21.63.67.77.9.14,2.04.13,2.98.24,1.27.14,3.02.33,4.29.16,1.24-.16,1.4-1.74.81-2.24-.41-.34-1.88-.46-2.61-.48Z"/>
  <path class="cls-1" d="M300.26,242.16c-1.28-.09-3.03-.2-4.29.01-1.23.21-1.35,1.8-.74,2.27.42.33,1.89.38,2.63.37,1.49-.02,3-.02,4.46-.04.67,0,1.05-.16,1.27-.37.38-.38.28-.97.36-1.39.07-.37.19-.64-.69-.74-.9-.11-2.05-.05-2.99-.11Z"/>
  <path class="cls-1" d="M300.95,238.02c-1.49.02-3,.02-4.46.04-.67,0-1.05.16-1.27.37-.38.38-.28.97-.36,1.39-.07.37-.19.64.69.74.9.11,2.05.05,2.99.11,1.28.09,3.03.2,4.29-.01,1.23-.21,1.35-1.8.74-2.27-.42-.33-1.89-.38-2.63-.37Z"/>
  <path class="cls-1" d="M274.16,138.41c.68,6.52,1.79,12.86,2.51,19.42.64,5.77,1.39,11.4,2.05,17,.11.92.57,4.21.97,7.6,2.3-.3,6.62-1.66,8.78-.86-.28-3.54-.95-7.15-1.59-10.55-.38-1.97-.51-3.8-.76-5.82-.11-.9-.23-1.79-.34-2.69-.49-3.91-.97-7.87-1.57-11.7-.4-2.56-.64-5.46-.91-8.07-.17-1.59-.61-3.19-.78-4.8l-8.38.48Z"/>
  <path class="cls-1" d="M278.85,133.85c-1.28,0-3.04.01-4.28.31-1.21.29-1.2,1.88-.55,2.31.45.3,1.92.25,2.65.19,1.48-.13,2.99-.23,4.45-.35.67-.05,1.04-.23,1.24-.46.35-.41.2-.99.24-1.41.04-.38.14-.65-.75-.69-.91-.04-2.04.1-2.99.1Z"/>
  <path class="cls-1" d="M274.02,132.59c.91.04,2.04-.1,2.99-.1,1.28,0,3.04-.01,4.28-.31,1.21-.29,1.2-1.88.55-2.31-.45-.3-1.92-.25-2.65-.19-1.48.13-2.99.23-4.45.35-.67.05-1.04.23-1.24.46-.35.41-.2.99-.24,1.41-.04.38-.14.65.75.69Z"/>
  <path class="cls-1" d="M285.55,187.27c-1.28.05-3.03.14-4.26.49-1.2.34-1.14,1.93-.48,2.34.45.28,1.92.17,2.65.08,1.48-.19,2.98-.36,4.43-.53.67-.08,1.03-.27,1.22-.51.34-.42.17-1,.2-1.42.03-.38.12-.65-.77-.66-.91,0-2.04.18-2.98.22Z"/>
  <path class="cls-1" d="M285.78,183.08c-1.48.19-2.98.36-4.43.54-.67.08-1.03.27-1.22.51-.34.42-.17,1-.2,1.42-.03.38-.12.65.77.66.91,0,2.04-.18,2.98-.22,1.28-.05,3.03-.14,4.26-.49,1.2-.34,1.14-1.93.48-2.34-.45-.28-1.92-.17-2.65-.08Z"/>
  <path class="cls-1" d="M55.61,168.05c1-5.72.85-11.48,1.41-17.1.1-.92.51-4.04.99-7.42-2.7-.36-7.97-.28-10.21-1.66-.66,3.49-1.76,7.03-1.51,10.56.15,2.05-.34,3.82-.56,5.85-.1.9-.2,1.8-.3,2.7-.45,3.91-.94,7.88-1.03,11.78-.06,2.61-.76,5.45-1.22,8.02-.28,1.58-.48,3.21-.73,4.8l9.64,1.92c1.03-6.47,2.38-12.95,3.52-19.44Z"/>
  <path class="cls-1" d="M58.53,139.94c-3.1-.32-8.59-.3-10.25-2.05-.07.9-.12,1.7-.18,2.18,0,.04-.01.08-.01.12,2.27.67,4.41,1.26,6.72,1.49.85.09,2.47.17,3.38.54.11-.77.23-1.54.33-2.29Z"/>
  <path class="cls-1" d="M59.18,135.48c0-.72-.05-1.3-.21-1.96-.21-.87-.8-.85-1.56-.86-.93,0-1.83-.26-2.75-.44-1.24-.25-3.5-1-4.7-.3-.94.56-1.33,2.58-1.54,4.53,2.55.76,4.89,1.44,7.44,1.71.69.07,2.5.56,2.97.17.64-.51.35-2.16.35-2.85Z"/>
  <path class="cls-1" d="M41.03,192.77c1.86-.22,7.83,1.8,9.23.93.9-.57,1.3-2.59,1.53-4.53-2.41-.71-4.62-1.36-7.04-1.59-.67-.06-1.86-.1-2.74-.33-.49,3.11-.9,5.56-.98,5.52Z"/>
  <path class="cls-1" d="M76.31,126.17c5.22.08,10.49.87,15.85.53,3.03-.2,6.05-.45,9.08-.69,1.57-.12,3.15-.26,4.72-.35,1.14-.07,12.36-.11,13.48-.48.95-.31.83-.8.63-1.72-.54-2.58-.73-5.24-.97-7.92-3.81-.55-17.68.92-21.52.56-3.59-.35-7.28-.31-10.92-.3-.84,0-1.67,0-2.51,0-1.89-.01-3.56.28-5.43-.11-3.21-.64-6.58.05-9.84.31,1.05,2.38.45,7.61.51,10.33,3.15-.1,6.06-.16,6.92-.15Z"/>
  <path class="cls-1" d="M68.19,126.35c-.25-.95-.17-2.57-.16-3.42.01-2.32-.31-4.51-.7-6.85-.04,0-.07,0-.11,0-.45,0-1.19-.04-2.02-.07,1.44,1.85.87,7.3.86,10.42.7-.02,1.42-.05,2.14-.07Z"/>
  <path class="cls-1" d="M64.75,126.49c-.13-.95-.06-2.2-.06-2.92,0-2.56-.39-4.97-.83-7.59-1.81,0-3.71.15-4.31,1.02-.93,1.35.4,7.87.03,9.79-.03-.09,2.26-.2,5.17-.31Z"/>
  <path class="cls-1" d="M75.7,140.16c3.36-.13,6.72-.28,10.05-.84,4.64-.78,9.22-1.13,13.93-1.4.81-.05,1.63-.05,2.45-.1,5.7-.38,11.4-1.48,17.12-1.43,2.51.02,4.97-.2,7.49-.18.99,0,3.21.26,3.91-.68.52-.69.12-1.59.04-2.52-.1-1.16-.05-2.33-.16-3.48-.06-.6-.17-1.85-.58-2.25-.86-.79-10.85.47-11.56.46-1.46-.01-2.91,0-4.37.06-1.3.06-2.52.04-3.82.05-.85,0-1.7-.11-2.52-.07-1.07.05-2.16.19-3.25.23-2.28.1-4.65.26-6.9.57-.94.13-1.71.28-2.7.26-.8-.02-1.52-.11-2.28-.19-.81-.09-1.71.04-2.54.11-1.91.15-3.8.36-5.71.52-1.09.09-10.68-.58-12.18-.08-1.63.54-1.88,1.81-1.9,3.61-.01,1.33-.13,2.81.07,4.12.59,3.89,2.74,3.34,5.44,3.23Z"/>
  <path class="cls-1" d="M133.82,128.06c-.05-.45.16-1.28-.46-1.47-.46-.15-1.55-.15-1.96.13-.04.03-.07.05-.1.09-.31.37-.04,1.19,0,1.58.1,1,.12,2.09.43,3.06.27.85.04,1.71-.08,2.6-.05.41-.14.83-.15,1.24-.01.41.44.7.99.62.07,0,.14-.03.2-.05.28-.09.86-.17,1.05-.37.19-.2.06-.58.07-.82,0-.65.11-1.29.17-1.93.15-1.57.05-3.13-.14-4.68Z"/>
  <path class="cls-1" d="M135.04,135.53s.07.06.11.08c.44.24,1.52.13,1.97-.06.6-.25.31-1.05.32-1.51.04-1.56,0-3.13-.29-4.68-.12-.63-.28-1.27-.35-1.91-.03-.24.07-.63-.14-.81-.21-.18-.79-.21-1.08-.27-.07-.01-.14-.02-.2-.03-.55-.02-.98.3-.93.71.05.41.18.82.27,1.22.2.87.51,1.71.32,2.58-.21,1-.14,2.08-.14,3.09,0,.39-.19,1.24.15,1.58Z"/>
  <path class="cls-1" d="M67.32,140.25c.46.18,1.55.2,1.96-.12.04-.03.07-.06.1-.1.3-.43.02-1.4-.02-1.86-.11-1.18-.15-2.45-.47-3.6-.28-1-.06-2.02.04-3.05.05-.48.13-.97.14-1.46,0-.49-.45-.83-1-.75-.07,0-.14.03-.2.05-.28.1-.86.19-1.04.42-.19.23-.05.68-.05.96,0,.76-.09,1.52-.14,2.27-.13,1.84,0,3.68.21,5.51.06.53-.14,1.5.48,1.74Z"/>
  <path class="cls-1" d="M63.84,140.18c.21.21.79.25,1.08.32.07.02.14.03.2.03.55.03.98-.36.93-.84-.05-.48-.18-.96-.27-1.44-.2-1.02-.51-2.01-.32-3.04.21-1.18.13-2.45.14-3.63,0-.46.19-1.46-.15-1.86-.03-.04-.07-.07-.11-.09-.44-.28-1.52-.15-1.97.07-.6.3-.31,1.24-.32,1.78-.04,1.84,0,3.69.3,5.51.12.75.28,1.49.35,2.25.03.28-.07.74.14.95Z"/>
  <path class="cls-1" d="M120.8,115.23c-.14,3.25.45,6.48.56,9.71.54-.18,1.23-.2,1.9-.24.15-.69-.23-1.44-.31-2.12-.1-.9-.13-1.78-.23-2.68-.11-1.02-.38-2.06-.58-3.07-.14-.71.4-1.89-1.35-1.6Z"/>
  <path class="cls-1" d="M124.89,124.45c.12,1.14.97.39,1.33-.28.08-.14.13-.28.15-.39.16-.96-.14-1.97-.16-2.93-.04-1.6-.22-3.19-.51-4.77-.2-1.1-.93-1.15-1.77-.74.09.45,0,.93.05,1.39.04.44.16.88.24,1.31.2,1.09.47,2.2.61,3.3.13,1.02-.03,2.1.08,3.1Z"/>
  <path class="cls-1" d="M61.24,94.08c.12,0,.26-.02.41-.09.82-.37.99-1.65.91-2.43-.06-.59-.61-.9-.92-1.35-.15-.22-.27-.5-.35-.75-.08-.31-.11-.65-.14-.96-.65.29-.11,1.93-.09,2.46.01.41.05.73-.25,1.05-.31.34-.59.41-.56.9.04.57.42,1.18.99,1.19Z"/>
  <path class="cls-1" d="M88.22,102.2c.26,0,.82-.05.98-.34.09-.18.13-.4.14-.63,0-.44-.11-.93-.2-1.29-.09-.33-.15-.68-.28-.99-.06-.16-.14-.31-.21-.47-.14-.34-.44-.81-.48-1.18.02.71.13,1.39-.19,2.01-.14.28-.32.53-.45.8-.16.33-.31,1.06-.15,1.42.15.32.54.67.83.68Z"/>
  <path class="cls-1" d="M99.11,94.85c.31-.23.53-.6.56-1.13.04-.73-.62-1.97-.93-2.64-.23-.49-.64-.8-.94-1.21.64,1.11-.35,2.33-.84,3.36-.77,1.61,1.15,2.36,2.16,1.62Z"/>
  <path class="cls-1" d="M112.07,99.35c-.09.26-.28.45-.31.71-.03.28-.08.6.16.84.32.33.91.37,1.33.09.24-.16.41-.37.45-.65.15-.93-.87-2.21-1.98-2.59.17.06.32.68.36.82.07.26.09.52,0,.79Z"/>
  <path class="cls-1" d="M190.67,126.99c-.09.34-.47.96-.56,1.49h0c-.03.2-.03.38.03.54,0,0,0,.01.02.02,0,.02.03.04.04.07.03.05.08.1.13.14,0,0,0,0,0,0,.06.05.12.1.19.15.56.35,1.46.3,1.9-.15.25-.26.28-.39.3-.71,0-.26,0-.51-.07-.77-.08-.25-.46-2.04-1.62-3.03,0,.74.08.36-.14,1.44-.07.27-.14.54-.22.81Z"/>
  <path class="cls-1" d="M263.82,121.84c1.33.69,1.57-.99,1.44-1.75-.16-.95-.68-1.96-1.34-2.61.06.29.32.46.35.81.05.49.01,1.19-.15,1.66-.25.73-.68,1.69-.3,1.89Z"/>
  <path class="cls-1" d="M296.54,160.21c.2.03.38.02.54-.03.7-.21.96-1.1.81-1.82-.13-.63-.51-.62-1.01-.93-.48-.29-.54-.71-.67-1.22-.16-.66-.06-2.9-.98-3.03.07.41.15.83.16,1.25,0,.34-.06.74-.16,1.06-.23.67-.8,1.24-.67,2.01.18.99.83,2.53,1.98,2.71Z"/>
  <path class="cls-1" d="M28.68,160.1c.09.66.63,1.3,1.35,1.23.16-.02.33-.07.51-.17,1.01-.56,1.13-2.07.97-2.97-.12-.69-.84-.96-1.28-1.44-.2-.23-.39-.54-.5-.82-.13-.35-.19-.74-.26-1.1-.81.44,0,2.27.07,2.88.05.47.12.84-.23,1.26-.37.43-.73.56-.64,1.14Z"/>
  <path class="cls-1" d="M311.73,147.91c.73-.28.93-1.39.72-2.06-.06-.2-.2-.4-.29-.59-.16-.32-.22-.54-.23-.9-.01-.37.09-.8.2-1.15.08-.24.22-.58.14-.84-.05-.14-.34-.34-.46-.5-.07-.09-.14-.17-.23-.24-.01.21.07.46.08.68,0,.21,0,.38-.04.58-.08.37-.24.69-.39,1.02-.12.27-.29.48-.35.78-.05.26-.1.46-.24.69-.25.42-.54,1.15-.35,1.64.16.45.98,1.05,1.44.86Z"/>
  <path class="cls-1" d="M16.34,150.18c.46.19,1.28-.41,1.44-.86.19-.49-.11-1.22-.35-1.64-.14-.23-.18-.43-.24-.69-.06-.3-.23-.51-.35-.78-.15-.34-.31-.66-.39-1.03-.04-.2-.05-.38-.04-.58,0-.22.09-.47.08-.68-.09.07-.16.15-.23.24-.12.15-.42.35-.46.5-.08.26.06.6.14.84.11.36.21.78.2,1.15-.01.36-.07.58-.23.9-.09.19-.23.39-.29.59-.2.67,0,1.78.72,2.06Z"/>
  <path class="cls-1" d="M240.59,79.94c-1.23.11-2.31.22-3.41.57-.34.11-.58.35-.66.63,0,0,0,.02,0,.02-.18.62.46,1.17,1.26,1.08,1.55-.18,3.08-.46,4.63-.67.87-.12,1.75-.19,2.62-.23.72-.04,1.22-.59,1.04-1.13-.14-.43-.36-.79-.72-.95-.96-.42-3.59.58-4.75.68Z"/>
</svg>