<?xml version="1.0" encoding="UTF-8"?>
<svg id="Layer_1" data-name="Layer 1" xmlns="http://www.w3.org/2000/svg" viewBox="0 0 331.11 145.23">
  <defs>
    <style>
      .cls-1 {
        fill: #231f20;
      }
    </style>
  </defs>
  <g>
    <path class="cls-1" d="M134.94,77.01c-.89.77-2,1.16-3.1,1.52-1.34.44-2.63.92-4.01,1.21-1.59.33-3.17.72-4.79.87-1.53.15-3.06.08-4.6.11-1.61.03-3.11.6-4.72.65-1.34.05-2.69.03-4.04.07-1.18.03-2.38,0-2.82-1.33-.12-.36-.12-.87-.04-1.23,0,0,0,0,0-.01-.28-6.09.55-4.33,2.11-3.3.89.59,2.18.19,3.24.2,1.21.02,2.42-.05,3.63-.1,4.41-.18,9-.9,13.45-.62,1.09-.43,2.29-1.18,2.87-2.18.26-1.21-.19-2.32-.5-3.66-.08-.34-.14-.69-.2-1.03-.12-.32-.23-.65-.31-.99-.02-.09-.04-.18-.06-.28-1.4-1.23-3.59-1.77-5.51-2.09-1.45-.14-2.88-.27-4.34-.3-1.3-.02-2.59-.13-3.9-.1-1.29.03-2.6.17-3.89.02-1.47-.17-3,.03-4.42-.22-.07,0-.15,0-.22-.01-.96-.1-1.84-.58-2.43-1.33-1.32-1.3-1.96-3.21-2.1-5.02-.06-.82.02-1.57.18-2.3.01-.5.05-1,.12-1.51.04-1.71.52-3.69,1.61-5.08.19-.35.4-.69.62-.99,1.42-1.98,3.64-2.76,5.97-3.17,2.73-.49,5.53-.63,8.3-.71,2.76-.08,5.56-.26,8.26.42,1.82.46,4.29-1.44,4.47.68.02.21-.35,3.22-.43,3.4.04.44-.03.88-.21,1.28-.46.98-1.49,1.21-2.54,1.2-.77.22-1.61.3-2.31.34-2.47.16-4.93.4-7.41.49-1.02.03-3.54.37-5.33,0-.19.05-.38.1-.58.14-1.66.38-3.65.48-4.92,1.75-.45.45-.76,1.07-.99,1.74-.02,1.05-.04,2.31.53,3.08.3.4.66.7.97,1.03,2.29.32,4.62.39,6.92.33,3.18-.08,6.2-.67,9.39-.26,2.27.29,4.99-.39,6.58,1.6.35.44.63.91.87,1.4.3.19.56.44.79.76.66.92,1.03,2.27,1.25,3.37.25,1.21.63,2.38.8,3.61.32,2.37-.36,4.93-2.21,6.55Z"/>
    <path class="cls-1" d="M163.69,59.89c-.02.95.67.4.02.71-.04.06-.37,1.64-.42,1.69-.88.89-2.03.67-3.17.83-1.51.21-3.04-.03-4.55.2-1.51.23-2.98.32-4.51.44-.78.06-1.55.14-2.31.16.16,1.24.37,2.42.35,3.72-.03,1.46-.11,2.9-.09,4.36.02,1.09.31,2.04.53,3.04.2.03.41.06.62.07.87.04,1.75-.08,2.63-.06,1.65.04,3.3.12,4.95.23,1.38.09,5.53.66,5.53.66,0,0,.16,2.16-.07,3.26.05.82-.54,1.76-1.48,1.92-1.22.22-2.33.06-3.55.03-1.06-.03-2.12-.03-3.18-.08-1.52.04-3.06-.06-4.57-.19-.72.05-1.44.15-2.14.28-1.08.2-.46.26-1.53-.04-1.09-.3-1.58-1.59-1.33-2.63-.06-1.21-.02-2.44-.21-3.64-.24-1.48-.31-2.9-.44-4.39-.29-3.4.08-6.83-.11-10.24-.14-2.51-.66-5.02-.74-7.53-.04-1.2-.18-2.37-.24-3.56-.05-1.02-.33-2.04-.31-3.06.04-2.09-1.01-3.42.74-2.71,1.35-.13,4.3.22,5.62.35,1.37.14,2.74.66,4.1.61,2.05-.08,7.13,1.11,7.13,1.11,0,0,.09,2.28-.27,2.81-.02.13-.03.26-.04.4-.04.64-.46,1.34-1.14,1.46-2.16.39-4.26-.42-6.39-.68-.72-.09-1.45-.24-2.18-.41-.99,0-2-.17-2.99-.31.09.79.18,1.58.25,2.38.19,2.14.29,6.16.34,8.3,1.33-.12,2.69-.14,4-.2,1.81-.09,3.62-.09,5.42-.17,2.18-.1,5.81-2.25,5.74.88Z"/>
    <path class="cls-1" d="M184.77,48.94c0-.05-.01-.11-.02-.17-.12-.56-.23-1.11-.3-1.68-.01-.1-.02-.2-.04-.29-.32-.05-.58-.18-.79-.37-.4-.03-.83-.06-1.26-.07-.93.58-1.65,1.67-2.39,2.75-1.44,2.09-2.05,4.48-2.58,6.92-.23,1.08-.53,2.14-.85,3.19,0,2.06.09,4.11-.18,6.19-.16,1.21-.61,2.37-.75,3.6-.16,1.38-.2,2.71-.14,4.1.02.42-.03,1.09.06,1.61.1.17.21.33.33.49.03,0,.06.01.09.02.99.18,1.97.3,2.97.32.31-.1.62-.22.98-.26.61-.07,1.24-.12,1.85-.18.7-.06,1.36-.21,1.96-.48.2-.72.5-1.49.56-1.71.53-1.96.93-4.63,3.45-4.84,1.01-.08,3.15-.04,3.15-.04,0,0-.85,6.58-1.24,8.88-.14.84-.51,2.55-1.14,2.8-1.41.62-6.1,1-8.53.93-2.37-.07-4.84-.23-6.54-1.99-.6-.35-1.09-.83-1.41-1.47-.21-.43-.34-.91-.43-1.4-.63-1.42-.98-2.95-1.04-4.59-.06-1.5.03-2.95.22-4.39-.12-.76.04-1.53.11-2.31.13-1.37.25-2.71.46-4.07.43-2.74.84-5.56,1.61-8.23.24-.84.5-1.68.81-2.5.39-1.83.92-3.69,2.12-5.01.55-.61,1.23-1.05,1.97-1.38.47-.55,1.03-1.02,1.76-1.32,3.87-1.55,8.11-1.87,10.78,1.19,0,0,.3,5.08,0,7.11-.27,1.81-.36,4.49-2.36,4.94-2.11.47-3.03-1.56-3.22-3.29-.1-.98-.09-1.99-.02-2.97Z"/>
    <path class="cls-1" d="M218.4,57.16c0,1.23-.14,2.54-.76,3.63-.68,1.2-1.89,1.94-3.21,2.26-.62.15-1.25.22-1.88.27.1.48.21.95.31,1.43.4,1.8.67,3.64,1.14,5.42.4,1.54.8,3.1.97,4.68.04.38.23.73.35,1.09.12.35.2.71.28,1.06.15.62.75,2.21.77,2.86.02.58-.6.11-1.16.26-.37.1-.79.09-1.17.14-.33.05-.66.09-.99.11-.48.03-1,.1-1.47-.03-.63-.17-.7-.8-.9-1.32-.27-.72-.54-1.44-.76-2.18-.21-.7-.5-1.42-.52-2.16-.03-.76-.35-1.47-.63-2.16-.29-.72-.57-1.43-.79-2.17-.23-.76-.49-1.52-.74-2.28-.24-.76-.44-1.53-.75-2.27-.29-.69-.6-1.36-.78-2.09,0,.09,0,.17,0,.26.01,1.44-.35,2.86-.55,4.28-.2,1.4-.37,2.8-.41,4.21-.02.69-.17,1.39-.12,2.08.05.68.21,1.34.23,2.03.02.61.06,1.2.15,1.8.07.41.11.82.11,1.23,0,.35-.27,1.06-.27,1.06,0,0-.95.07-1.45,0-.66-.1-1.42.02-2.09.04-.71.02-1.4.13-2.11.21-.45.05-1.01.13-1.39-.17-.33-.27-.42-.71-.41-1.11,0-.46.11-.9.17-1.35.07-.53.04-1.06.12-1.59.1-.69.28-1.36.4-2.04.13-.71.17-1.4.14-2.12-.05-1.51,0-2.99.05-4.5.03-.7.02-1.4-.03-2.1-.05-.66-.1-1.32-.03-1.97.07-.69.26-1.37.38-2.06.13-.73.21-1.46.25-2.19.04-.72.22-1.41.21-2.14-.01-.74-.05-1.47-.06-2.2-.02-1.48-.07-2.95-.07-4.43,0-.4,0-.8.04-1.19.03-.35.12-.69.13-1.04.02-.36-.04-.72.01-1.07.04-.28.21-.54.18-.82,0-.07.01-.13.04-.18.02-.4.07-.79.16-1.19.04-.18.19-.34.37-.38.43-.11.86-.09,1.3-.09.46,0,.9-.06,1.36-.15.91-.19,1.81-.36,2.72-.56.93-.21,1.89-.13,2.84-.15,1.01-.02,2.01-.02,3.02-.07.39-.02.78-.08,1.17.03.37.1.72.31,1.06.49.65.35,1.29.78,1.92,1.17,1.12.68,1.66,1.96,2.02,3.17.44,1.49.84,3.05.95,4.61.08,1.21.16,2.45.16,3.66ZM210.72,51.65c-.4-.3-.87-.51-1.36-.62-.61-.13-1.27-.04-1.88-.03-.42,0-.87.06-1.3.02-.03,1-.13,1.98-.26,2.97.48.02.98-.01,1.43-.06.66-.07,1.3-.28,1.96-.35.43-.05.77-.08,1.17-.34.3-.2.56-.49.61-.86.04-.35-.07-.53-.36-.74Z"/>
    <path class="cls-1" d="M245.11,59.89c-.02.95.67.4.02.71-.04.06-.37,1.64-.42,1.69-.88.89-2.03.67-3.17.83-1.51.21-3.04-.03-4.55.2-1.51.23-2.98.32-4.51.44-.78.06-1.55.14-2.31.16.16,1.24.37,2.42.35,3.72-.03,1.46-.11,2.9-.09,4.36.02,1.09.31,2.04.53,3.04.2.03.41.06.62.07.87.04,1.75-.08,2.63-.06,1.65.04,3.3.12,4.95.23,1.38.09,5.53.66,5.53.66,0,0,.16,2.16-.07,3.26.05.82-.54,1.76-1.48,1.92-1.22.22-2.33.06-3.55.03-1.06-.03-2.12-.03-3.18-.08-1.52.04-3.06-.06-4.57-.19-.72.05-1.44.15-2.14.28-1.08.2-.46.26-1.53-.04-1.09-.3-1.58-1.59-1.33-2.63-.06-1.21-.02-2.44-.21-3.64-.24-1.48-.31-2.9-.44-4.39-.29-3.4.08-6.83-.11-10.24-.14-2.51-.66-5.02-.74-7.53-.04-1.2-.18-2.37-.24-3.56-.05-1.02-.33-2.04-.31-3.06.04-2.09-1.01-3.42.74-2.71,1.35-.13,4.3.22,5.62.35,1.37.14,2.74.66,4.1.61,2.05-.08,7.13,1.11,7.13,1.11,0,0,.09,2.28-.27,2.81-.02.13-.03.26-.04.4-.04.64-.46,1.34-1.14,1.46-2.16.39-4.26-.42-6.39-.68-.72-.09-1.45-.24-2.18-.41-.99,0-2-.17-2.99-.31.09.79.18,1.58.25,2.38.19,2.14.29,6.16.34,8.3,1.33-.12,2.69-.14,4-.2,1.81-.09,3.62-.09,5.42-.17,2.18-.1,5.81-2.25,5.74.88Z"/>
    <path class="cls-1" d="M267.08,45.88c-1.36.69-2.89.79-4.39.99-.01.45-.03.9-.03,1.32.02,1.27.03,2.54-.13,3.8.05.86.06,1.72.04,2.61-.03,1.08-.16,2.16-.27,3.24.1,1.7.25,3.4.11,5.1-.28,3.44.16,6.87.21,10.32.02,1.48,0,2.95-.07,4.43-.05,1.16.2,4.07.2,4.07,0,0-4.11.47-4.39.35-.64.13-1.33-.13-1.55-.96-.01-.06-.03-.12-.04-.17,0-.04-.01-.08-.02-.11-.18-1.02.08-2.01.17-3.04.11-1.3.19-2.66.11-3.97-.09-1.48-.41-3.04-.28-4.52.11-1.25.53-2.46.71-3.7.25-1.76-.1-3.56-.04-5.32.04-1.48.4-2.95.44-4.44.04-1.53-.25-3.04-.27-4.56-.02-1.31-.02-2.61-.03-3.92-.11,0-.23.01-.34.02-1.3.04-2.78.79-4.08.37-.16-.05-.31-.12-.44-.21-.57-.09-1.07-.52-1.07-1.32,0-.29,0-.59.02-.88-.44-3.2-.06-3.01,1.66-3.23,2.36-.3,4.75-.45,7.13-.56,1.2-.05,2.41-.04,3.61-.07.86-.02,1.92-.03,2.81.2l.86.23c0,.06-.12,2.06-.14,2.12.33.63.25,1.47-.49,1.85Z"/>
    <path class="cls-1" d="M126.46,128.33c-.07.77,0,1.57,0,2.35,0,.39.01.77.03,1.16.01.27.04.53-.04.79-.22.72-.99.76-1.61.64-.15-.03-.29-.08-.45-.08-.21,0-.39.02-.61,0-.32-.04-.62-.14-.94-.2-.7-.14-1.42-.16-2.12-.31-.73-.15-1.46-.2-2.21-.2-1.56,0-3.14.01-4.7.13-.74.05-1.48.08-2.22.16-.71.08-1.41.22-2.13.25-.74.03-1.47-.05-2.21-.09-.67-.04-1.36.09-2.02-.03-.22-.04-.45-.26-.5-.48-.3-1.39.23-2.81.38-4.18.04-.37-.02-.74-.02-1.11,0-.39.04-.78.08-1.16.08-.74.11-1.46.11-2.2,0-.71.08-1.43.14-2.14.05-.67,0-1.34.03-2.01.02-.32.1-.64.11-.96.01-.32.02-.64.05-.96.06-.67.13-1.33.14-2,.03-1.38.15-2.77.29-4.14.14-1.4.17-2.77.18-4.18,0-1.36.06-2.73.1-4.09.03-1.4.26-2.78.24-4.18-.03-1.41-.05-2.81-.05-4.22,0-.7.14-1.37.28-2.05.07-.33.13-.67.19-1,0-.15.01-.29.03-.44.04-.32.03-.67.13-.98.08-.26.24-.47.46-.62.18-.16.39-.23.61-.21.16-.02.31-.03.47-.08.67-.18,1.34-.21,2.02-.13.62.07,1.42.09,1.75.71.17.32.11.65.07.99-.04.38-.08.76-.11,1.14-.07.75-.16,1.5-.22,2.25-.12,1.52.03,3.04-.08,4.56-.2,3.08-.28,6.15-.23,9.25.02,1.55.07,3.1.06,4.65-.02,1.55-.07,3.1-.05,4.66.02,1.54.24,3.07.26,4.62,0,.76,0,1.52,0,2.28,0,.08,0,.16,0,.24.16.02.31.03.47.04.87.08,1.73,0,2.6.03.84.02,1.67.11,2.51.15.86.05,1.72.1,2.58.19.72.08,1.38.3,2.08.44.74.15,1.5.16,2.25.29.53.09,1.44.19,1.75.7.29.48.1,1.26.06,1.78Z"/>
    <path class="cls-1" d="M151.01,125.66s-.02,1.6-.02,1.62c0,.05-.02.1-.03.15-.12.66-.76.98-1.35,1.07-.86.12-.78-.12-1.64-.13-.8,0-1.59,0-2.39-.06-.12,0-.24-.01-.37-.02-.39,0-.78,0-1.17,0-1.15.05-2.29.19-3.44.21-1.64.03-2.98.14-4.62.12-1.19-.01-2.28.81-2.26-.47,0-.56.27-3.09.27-3.09,0,0,1.56-.25,2.35-.18,1.47.13,1.97.24,3.44.24,0-.68.01-1.36.03-2.04,0-.34-.01-.69-.03-1.03-.07-1.22-.42-2.4-.49-3.62-.15-2.4.33-4.81.37-7.23.04-2.6.42-3.65.16-6.25-.16-1.56-.42-3.55-.3-5.35-.26,0-.52,0-.77.01-1.17.02-2.24-.18-3.38.09-1.5.36-2.66-.62-2.83-2.08-.04-.32.06-.79-.03-1.1-.28-.92-.13-2.87-.13-2.87.9-.51,2.96-.05,3.95-.03,1.39.02,2.43-.05,3.82.11,1.54.18,3.05.13,4.6.08,1.46-.05,1.95.32,3.41.32.55,0,2.27.18,2.61.45,0,0,.42,4.03-2.04,4.31-1.19.14-1.3.4-2.52.41-.84.01-1.68.12-2.52.18.02,1.86,0,3.7-.17,5.57-.22,2.41.14,3.27.2,5.69.12,4.79-.45,9.58-.45,14.37,2.46.06,3.96.23,6.42.19q1.13-.02,1.34.33Z"/>
    <path class="cls-1" d="M181.32,105.58c-.24,1.54-1.73,2.31-2.99,2.95-.37.19-.76.36-1.15.51-.36.14-.75.19-1.11.33-.35.14-.66.35-1.02.46-.37.11-.75.16-1.13.21-.51.07-1.02.14-1.52.21.77.13,1.53.33,2.2.73.54.32,1.05.7,1.44,1.2.34.44.71.91.99,1.39.61,1.04.76,2.27.79,3.46.04,1.43-.06,2.87-.07,4.3,0,1.34-.06,2.69-.21,4.02-.13,1.12-.49,2.54-1.52,3.18-.59.37-1.24.13-1.87.27-.35.08-.69.22-1.05.28-.32.06-.65.1-.98.13-.67.07-1.34.07-2.01.17-.72.11-1.43.24-2.16.34-.68.09-1.35.21-2.03.24-.72.03-1.44.02-2.15.03-.7.01-1.39,0-2.09-.04-.66-.04-1.34-.01-1.99-.12-.45-.08-.95-.21-1.37-.38-.57-.23-.67-.66-.55-1.22.13-.66.06-1.37.05-2.04,0-.68.05-1.34.09-2.01.08-1.44.05-2.89.05-4.34,0-.73,0-1.46-.02-2.18-.01-.7.09-1.39.09-2.09,0-.68-.02-1.37-.03-2.05,0-.38-.03-.76-.02-1.14,0-.34.08-.67.1-1.01.04-.67-.01-1.36-.03-2.03-.01-.68.02-1.38-.03-2.06-.09-1.25-.32-2.53-.17-3.79.08-.68.29-1.36.43-2.03.14-.71.24-1.42.25-2.15.01-.64.06-1.27.13-1.91.03-.27.11-.53.12-.79,0-.02,0-.04,0-.07-.03-.05-.04-.11-.05-.18v-.1c0-.17.09-.37.24-.45.38-.2.72-.19,1.13-.21.44-.02.87-.04,1.31-.05.45-.01.91,0,1.36-.02.43-.02.84-.16,1.27-.17.87,0,1.73-.19,2.61-.18.97,0,1.94.06,2.91.11.82.05,1.64.12,2.46.17.83.05,1.66.05,2.49.15.83.09,1.67.25,2.48.46.66.17,1.31.55,1.87.93,1.31.88,1.67,2.47,1.9,3.92.13.86.21,1.72.34,2.58.1.7.32,1.39.22,2.1ZM171.18,118.83c-.04-.38-.17-.74-.25-1.11-.07-.35-.1-.7-.13-1.05-.06-.64-.19-1.12-.8-1.43-.31-.16-.66-.08-1-.12-.41-.04-.81-.07-1.22-.07-1.31.01-2.62.1-3.92.1.03,1.21.07,2.42-.03,3.63-.07.9-.17,1.79-.17,2.7,0,.59-.03,1.18,0,1.78.14,0,.28,0,.41,0,.48.01.96,0,1.44-.02.46,0,.93,0,1.39-.09.47-.1.92-.2,1.4-.22.43-.02.83-.1,1.25-.18.23-.04.47-.08.71-.11.16-.02.38,0,.52-.07.31-.13.38-.91.43-1.25.11-.8.05-1.68-.03-2.49ZM173.57,105.25s0,0,0,0c.03,0,.15-.03.13-.04-.08-.08-.12-.1-.15-.1,0-.11.02-.22.03-.31.04-.41.1-.78.06-1.2-.04-.41-.11-.82-.13-1.24-.01-.41,0-.81-.11-1.2-.04-.13-.08-.26-.11-.39,0-.03-.04-.12-.06-.18-.16-.04-.34-.18-.49-.23-.19-.06-.4-.09-.6-.12-.39-.05-.77-.08-1.16-.07-.87.02-1.74.07-2.61.08-.81.02-1.62.08-2.44.1-.39,0-.78-.03-1.16-.14-.09-.03-.18-.05-.27-.06,0,.31-.01.62-.07.93-.09.5-.15.96-.13,1.47.01.5.03,1-.03,1.5-.04.4-.08.78-.06,1.18.01.3.02.59.03.89.03,0,.06-.01.1-.01.54-.01,1.07-.01,1.61-.03.48-.02.96-.12,1.44-.15.95-.06,1.86.09,2.8-.11.8-.17,1.62-.24,2.42-.41.3-.06.6-.09.91-.12.04.14.12.29.04.03,0-.01,0-.03,0-.04ZM173.56,105.1c0,.05,0,.1.01.15-.01,0-.02,0-.03,0-.02-.08-.03-.15.02-.15Z"/>
    <path class="cls-1" d="M214.76,128.14c-.28.23-1.48,1.02-1.84,1.15-.11.57-.79,1.03-1.34,1.02-.01,0-.02,0-.03,0-.65.52-1.71.58-2.12-.31-.12-.27-.27-.53-.42-.79-1.24-.91-2.43-2.03-3.43-3.09-1.44-1.53-2.94-2.98-4.47-4.44-1.38-1.31-2.7-2.78-3.87-4.3-.84-.88-1.62-1.81-2.45-2.69-.47,2.13-.67,4.27-.83,6.45-.16,2.11-.55,4.19-.52,6.31.02,1.49.24,3.95-1.49,4.62-.55.21-1.09.17-1.58-.04-.12,0-.24,0-.35-.03-1.04.31-1.6.96-1.78-.44-.16-1.24-.2-3.42-.1-4.62.11-1.47.57.63.7-.84.13-1.56.34-7.63.48-9.19.11-1.3.06-2.6.29-3.89.53-2.89.54-5.86,1.03-8.78.44-2.63.29-5.31.64-7.94.07-.55.16-1.58.16-1.58,0,0,1.17.14,1.59.14.35,0,.7,0,1.06,0,.16,0,.32-.01.48-.01.14,0,.3-.01.47,0,.33.03.65.09.94.21,1.05-.02,2.12-.07,3.14.05,1.78.21,3.55.37,5.33.54,2.19.21,4.37.84,5.39,2.49,1.99,2.33,1.16,7.43.59,9.79-.51,2.11-2.28,3.43-4.35,3.97-1.6.42-3.66.58-5.43.18.47.54.83,1.04,1.36,1.53.72.65,1.32,1.47,2.04,2.11.75.66,1.53,1.22,2.22,1.95,1.49,1.57,2.85,3.38,4.15,5.1,1.15,1.53,3.16,2.77,3.82,4.6.16.43.88.47.52.77ZM196.67,105.3c.43.05.86.11,1.3.13.68.03,1.36,0,2.04.04.14-.04.27-.08.41-.11.71-.19,1.63-.13,2.28-.44.02,0,.03-.02.05-.03.16-.14.31-.29.44-.45.28-.55.16-1.37.16-2.04,0-.58-.11-1.01-.32-1.38-1.36-.82-3.94-.8-5.61-.46-.02.12-.03.24-.05.35-.23,1.47-.46,2.93-.71,4.4Z"/>
    <path class="cls-1" d="M248.9,129.35c-.07.12-.15.21-.24.27-.34.12-.69.24-1.03.36-.34.09-.68.18-1.03.26-.09.02-.18.05-.27.07-.05,0-.11-.01-.18,0-.19.03-.38.07-.57.12-.49-.04-.85-.42-.87-.92-.03-.64-.34-1.13-.6-1.69-.33-.7-.52-1.43-.75-2.17-.24-.78-.59-1.52-.89-2.27-.11-.28-.22-.56-.33-.84-.23.02-.46.04-.7.04-.77,0-1.54.04-2.31.09-1.38.09-2.76.12-4.13.24-1.37.12-2.73.23-4.1.34-1.37.11-2.74.3-4.1.48-.66.09-1.33.17-1.99.29-.15.03-.29.06-.43.09-.18.93-.36,1.86-.61,2.76-.02.08-.03.16-.05.23-.04.17-.09.35-.15.52-.16.34-.31.69-.44,1.04,0,0,0,0,0,0,0,0,0,0,0,.01,0,0,0,0,0,0-.17.47-.3.95-.37,1.45-.04.03-.08.05-.13.06,0,0-.01,0-.02,0-1.15-.17-2.31-.36-3.48-.48-.02-.04-.04-.08-.05-.13,0-.02,0-.04-.01-.06.89-2.29,2.09-4.5,2.48-6.92.09-.18.18-.36.27-.53.29-.51.39-1.08.6-1.62.44-1.14.64-2.38,1.12-3.51.06-.43.18-.88.37-1.27.1-.2.24-.38.36-.58.12-.2.2-.41.32-.61.06-.1.13-.21.19-.31.15-.49,4.21-11.37,4.29-11.74.92-1.86,1.68-3.82,2.22-5.8.15-.31.3-.63.46-.94.02-.03.03-.06.05-.09.78-1.24,1.58-2.48,2.29-3.77.05-.03.1-.07.15-.09.19-.09.39-.12.57-.07.25.53.56,1.03.85,1.51.04.06.07.12.11.19.03.1.05.2.08.29.33,1.03.84,1.98,1.28,2.97.07.18.14.35.22.52.13.25.36.28.54.19.42.93.74,1.87,1.03,2.87.34,1.17.74,2.35,1.24,3.46.54,1.17.95,2.39,1.33,3.62.76,2.42,1.73,4.77,2.33,7.25.61,2.52,1.41,5,2.37,7.41.24.59.48,1.18.73,1.76.24.56.36,1.14.56,1.71.07.19.11.39.16.58.16.28.32.56.51.83.24.36.44.74.6,1.14.17.41.36.92.12,1.34ZM239.68,116.92c-.03-.08-.07-.16-.1-.24-.3-.75-.54-1.51-.83-2.26-.27-.71-.61-1.4-.87-2.12-.56-1.52-.78-3.12-1.25-4.66-.24-.78-.41-1.57-.63-2.35-.22-.77-.52-1.51-.67-2.31-.08-.4-.13-.81-.17-1.21-.03-.31-.17-.59-.24-.9-.09-.4-.16-.77-.32-1.14-.13-.31-.28-.6-.42-.91,0-.02-.02-.05-.03-.07-.09.15-.18.29-.27.44-.42.63-.74,1.36-1.03,2.06-.28.69-.61,1.37-.87,2.07-.47,1.31-.98,2.6-1.39,3.93-.42,1.36-.84,2.72-1.37,4.04-.53,1.33-1.15,2.63-1.78,3.91-.31.61-.63,1.22-.89,1.86-.19.53-.38,1.07-.57,1.6.64-.18,1.3-.31,1.96-.38.77-.08,1.55.02,2.32,0s1.56-.11,2.33-.21c.76-.1,1.47-.34,2.25-.35.81-.01,1.55-.23,2.35-.34.36-.05.72-.06,1.08-.14.35-.08.68-.19,1.03-.26.13-.02.26-.04.39-.06Z"/>
    <path class="cls-1" d="M284.53,111.62c-.2,1.08-.85,1.87-1.75,2.46-.39.26-.83.43-1.21.69-.49.34-.91.53-1.5.61-1.07.15-2.16.2-3.24.28-2.32.18-4.64.35-6.96.6-.39.04-.78.06-1.17.08.4.47.79.94,1.23,1.38.56.57,1.13,1.11,1.69,1.68.25.26.45.56.72.8.28.25.59.49.89.72,1.31,1.04,2.54,2.17,3.62,3.44.5.59.96,1.2,1.49,1.75.27.28.46.58.78.81.3.22.57.45.8.73.24.29.46.56.74.81.26.24.45.54.7.78.03.02.05.04.08.06,0,0,0,0,0,.01-.09.2-.11.54.09.69.47.36.94.72,1.4,1.1-.77.79-1.61,1.51-2.42,2.27-.06.03-.11.05-.17.07-.6.23-1.14-.02-1.63-.37-.46-.33-.93-.67-1.36-1.03-.8-.66-1.58-1.31-2.26-2.09-.74-.84-1.53-1.63-2.33-2.41-.81-.79-1.63-1.58-2.46-2.35-.81-.75-1.59-1.54-2.45-2.24-.83-.68-1.66-1.38-2.43-2.13-.77-.75-1.4-1.61-2.15-2.38-.8-.82-1.63-1.59-2.32-2.51,0,0-.01-.02-.02-.03-.43-.01-.87-.01-1.3,0-.58.02-1.16-.02-1.73-.09,0,.35.02.69,0,1.04-.02.55-.07,1.09-.08,1.64-.02,1.18.08,2.37.13,3.55.06,1.16.09,2.32.12,3.48.01.59,0,1.18-.07,1.77-.03.22-.07.45-.03.67.04.26.15.49.18.75.03.24-.19.54-.43.59-.59.12-1.2.05-1.79.06-.55,0-1.12.07-1.67.05-.17,0-.32-.05-.45-.11.05-.45.09-.91.1-1.37,0-.43-.28-.73-.7-.75,0-.1-.01-.21-.01-.31,0-.56.09-1.11.1-1.67.01-.55.06-1.11.1-1.66.08-1.14.06-2.28.13-3.41.07-1.13.2-2.25.22-3.38.03-1.15-.04-2.29-.04-3.44s.04-2.28.22-3.39c.09-.54.18-1.03.17-1.58,0-.56-.02-1.11-.02-1.67-.02-1.07-.11-2.13-.14-3.2.01-.52.04-1.05.09-1.57,0-.04.01-.08.02-.12.05-.22.07-.45.07-.68.06-.4.13-.79.21-1.18.73.04,1.46.01,2.14,0,.74-.02,1.46-.05,2.19-.06,0,0,0,0,.01.01.49-.05.98-.07,1.48-.08,1.29-.03,2.58-.05,3.88-.1,1.27-.04,2.52.14,3.78.21,1.26.07,2.53.17,3.79.17,2.24,0,4.46.23,6.7.34,1.06.05,2.07.11,3.08.47.49.17.99.25,1.44.53.34.2.66.46.92.76.68.8.86,1.87.98,2.89.13,1.13-.05,2.22-.11,3.34-.06,1.07.15,2.17-.04,3.23ZM278.04,107.73c-.01-.45-.26-.91-.33-1.36,0,0-.02,0-.03,0-.07,0-.15.01-.22.02-.37.02-.74,0-1.11.05-1.6.23-3.24.13-4.86.16-.79.02-1.57-.09-2.36-.08-.83.01-1.66.02-2.49.03-1.58.02-3.12-.32-4.69-.3-.8,0-1.62-.06-2.41.03-.33.04-.68.05-1.01.1-.05,0-.09.02-.13.03-.07.64-.09,1.28-.11,1.92,0,.07,0,.14,0,.21.58.03,1.16.04,1.75.03.95-.01,1.9-.05,2.84-.05.89,0,1.79.03,2.68-.03.81-.05,1.61-.12,2.42-.14.8-.02,1.6-.13,2.4-.15.82-.02,1.64-.02,2.46-.02.76,0,1.51-.14,2.26-.13.66,0,1.32.13,1.99.1.26-.01.54-.04.77-.18.06-.04.14-.1.18-.15-.02.02,0-.05,0-.08Z"/>
    <path class="cls-1" d="M319.36,94.79c-.13.99-1.44,2.91-1.93,3.75-.82,1.4-1.6,2.83-2.34,4.27-.7,1.37-1.35,2.77-2.08,4.13-.76,1.43-1.77,2.69-2.56,4.1-.82,1.47-1.51,3.17-2.36,4.74-.49,4.3-.19,9.67-.19,14.01,0,.73-1.58.55-2.36.51-.93-.05-2.31.43-3.27.17-.56.1-1.12.12-1.62-.13-.44-.22-.71-.73-.73-1.21-.05-2.41.21-4.89.51-7.29,0-1.22-.01-2.45.07-3.67.04-.52.13-1.08.19-1.62-.01-.2-.03-.41-.03-.61-.02-.07-.04-.13-.05-.2-1.29-2.56-2.24-5.3-3.61-7.81-1.91-3.5-3.53-7.12-5.6-10.55-.79-1.31-.94-1.77,1.87-2.01.47-.28,1.1-.27,1.67.18.77.6,1.14,1.44,1.43,2.32.1.12.19.24.26.36.5.79.93,1.62,1.33,2.47.8,1.71,1.79,3.25,2.68,4.91.93,1.74,1.69,3.55,2.57,5.31.32.64.75,1.16,1.14,1.75.11.17.2.34.3.52.46-.85.89-1.71,1.26-2.59.99-2.38,1.85-4.68,3.14-6.93,1.38-2.39,2.89-5.06,3.75-7.69.28-.86.51-1.89,1.53-2.16.55-.15.82-.19,1.32-.12.66.09,1.36.29,2.03.28,1.01,0,1.82-.09,1.7.82Z"/>
  </g>
  <g>
    <path class="cls-1" d="M49.63,33.06c7.69,4.61,16.89,5.85,25.72,4.73-.84-1.62-4.23-3.19-8.32-4.33-.33.29-.67.55-1.01.81-.16.13-.6.49-.75.62-1.44,1.37-4.01,1-4.96-.76-.38-.73-.76-1.45-1.11-2.18-4.38-.49-8.27-.26-9.58,1.12Z"/>
    <path class="cls-1" d="M59.22,25.28v.05c.03.62.11,1.26.25,1.86,0,.03,0,.05.02.07.02.1.05.2.07.32.04.17.08.33.14.49.2.68.46,1.39.75,2.1.07.17.13.33.2.48.05.1.09.2.14.32.2.43.41.86.62,1.27.08.17.17.33.24.49,0,0,0,.02.02.03,0,.03.02.05.04.07,0,.02.02.05.03.07.05.07.08.15.13.22,0,0,0,.03.02.04.02.05.05.08.07.12.06.07.1.13.15.19.06.06.11.1.16.15t0,0c.09.07.2.13.29.16.06.02.11.04.17.06.06.02.11.03.17.03.04,0,.07,0,.12,0h0c.33,0,.68-.17,1.03-.41,0,0,0,0,0,0,.22-.18.46-.36.68-.56h0s.06-.05.08-.07c.85-.69,1.6-1.31,2.21-1.92.1-.1.2-.21.29-.32,0,0,.02-.02.02-.03.99-1.17,1.48-2.39,1.24-3.77,0-.02,0-.05,0-.07,0-.03,0-.05-.02-.07-.14-.57-.39-1.18-.77-1.86-.05-.08-.09-.17-.15-.25-.1-.16-.21-.32-.33-.48-.14-.18-.28-.36-.44-.55h0c-.44-.44-.82-.9-1.14-1.39-.05-.07-.09-.15-.15-.23-.39-.58-.73-1.28-.96-2.27-.02-.07-.04-.13-.05-.2,0-.02,0-.04,0-.06-.13-.58-.2-1.18-.2-1.79v-.13s-.46-.16-.46-.16c-.26.31-.52.62-.79.93-.23.29-.46.57-.71.86-.43.53-.86,1.07-1.24,1.63-.2.29-.39.58-.57.87-.17.27-.33.54-.46.83-.08.16-.17.32-.23.48-.07.13-.12.26-.18.4h0c-.05.12-.09.23-.13.34-.05.13-.09.26-.13.39,0,.04-.02.07-.03.1-.06.19-.1.38-.15.58-.03.15-.06.31-.08.46v.04s0,.07,0,.11Z"/>
    <path class="cls-1" d="M9.13,128.08c.27,1.19,1.3,1.65,2.26,2.2.91.51,2.02,1.47,3.14,1.37.91-.07,1.15-.98,1.59-1.76.21-.39,2.42-4.96,2.89-4.49.64.62.37,1.41.17,2.14-.37,1.31-.78,2.58-1.27,3.84-.2.5-.34.89-.43,1.19,1.13.46,3.73,1.33,4.96,1.75.46.16.86.29,1.16.4.28-.49.67-1.41.92-2.02.4-.98.86-1.83,1.22-2.83.33-.9.73-2.2,1.66-2.68,1.45-.75.86,2.71.74,3.27-.2.89-.66,1.37-1.08,2.14-.49.89-.8,1.92-1.21,2.85.81.35,2.14.89,3.46,1.44,1.33.53,2.66,1.06,3.49,1.37.28-.6.64-1.4.98-2.18.54-1.2,1.73-6.33,3.8-5.22-.25,2.27-.91,4.15-1.88,6.19-.26.55-.6,1.29-.84,1.85.34.19.99.47,1.99.8.29.08.59.2.89.31.73.27,1.41.53,2.05.48,1.03-.08,2.68-5.35,3.23-6.28,1.17-2.01,3.05-4.7,5.63-4.78,3.11-.08,16.58,5.76,19.51,4.65,2.36-.91,3.95-2.31,5.83-3.89,5.35-4.49,15.14-13.75,20.69-25.23,4.73-9.78,4.55-13.85,1.27-24.87-.33-1.04-.71-2.05-1.17-3.11-.02-.05-.05-.08-.07-.15-.34-.83-.73-1.64-1.14-2.45-.03-.04-.06-.07-.08-.09l-.16-.18c-.06-.07-.09-.13-.14-.2-.86-1.47-1.85-2.89-2.94-4.25h0s-.44.08-.44.08c-1.83.27-3.39-.34-5.03-.66-.99-.1-2.1-.55-2.93-.87-3.23-.91-6.28,1.18-9.64.68-2.11-.24-4.17-1.71-5.82-2.56-5.01-2.84-8.99,1.27-14.74.27-2.1-.32-4.2-1.78-4.96-3.86-.15-.35-.34-.69-.55-1-1.53-2.14-4.32-2.32-7.31-2.03-1.95.17-3.92.8-5.96.73-.7-.05-1.51-.21-2.12-.83-.56-.67-.48-1.4-.07-2.15-3.97,4.02-6.66,9.14-10.31,13.35-2.04,2.34-4.59,4.07-6.1,6.75-.75,1.32-1.29,2.82-1.85,4.23-1,2.52-1.86,5.11-2.31,7.78-.2,1.12-.12,1.92,0,3,.14,1.11-.1,2.23-.1,3.35,0,2.37.97,4.29,2.98,5.36,2.52,1.35,4.03,3.51,4.28,6.28.05.64-2.38,9.21-3.3,11.22-.77,1.68-1.8,3.26-3.09,4.6-1.14,1.19-2.2,2.89-1.8,4.66ZM39.79,100.25v-.17c1.36-8.71,11.96-14.53,19.32-8.96,6.11,4.44,4.69,14.03-.59,18.62-8.85,8.04-19.14,0-18.73-9.49ZM25.82,109.91c4.87-12.1,8.62-10.44,3.58,1.14-.88,2.21-4.44,1.02-3.58-1.14ZM15.42,97.6l-.08-.12c-3.77-5.59-1.73-15.56,4.55-18.63,8.08-4.66,13.56,4.82,10.8,13.02-2.28,7.8-11.01,12.44-15.27,5.73Z"/>
    <path class="cls-1" d="M31.44,58.42c.33.33.9.49,1.51.52,1.92.04,3.78-.65,5.71-.92,3.15-.58,7.15-.53,9.14,2.43.41.52.68,1.16,1,1.69,1.5,2.27,4.68,2.31,7.09,1.84,7.25-1.92,8.47-1.77,14.83,2.18,3.67,1.9,7.85-1.07,11.6.4,1.23.6,2.4.83,3.7,1.13,1.13.31,2.24.62,3.32.57-.04-.5-.34-1-.68-1.5-1.31-1.69-2.83-3.3-4.31-4.85-2.55-2.6-4.23-5.98-7.16-8.25-.86-.58-1.26-1.31-1.43-2.13,0-.02,0-.04,0-.06-.04-.15-.07-.31-.07-.46,0-.14-.02-.29-.02-.44-.03-.75.06-1.54.09-2.32.02-.22.03-.45.03-.67.06-2.49.21-5.15.45-7.64.06-.38-.33-.67-.67-.57-6.82,1.35-14.24.94-20.78-1.69-2.1-.81-4.1-1.86-6.02-3.03-.46.51-.41,1.4-.4,2.35-.05,1.11-.24,2.1-.35,3.16l-.4,3.11c-.18,1.56-.32,3.37-1.33,4.71-1.77,2.19-4.81,2.38-7.15,3.51-.86.42-1.75,1.07-2.63,1.61-.02,0-.03.02-.05.04-.02,0-.04.02-.06.04h0c-1.29.91-5.84,3.82-4.95,5.23Z"/>
  </g>
</svg>