<svg width="53" height="56" viewBox="0 0 53 56" fill="none" xmlns="http://www.w3.org/2000/svg">
<mask id="path-1-inside-1_224_147" fill="white">
<path d="M0 5.21277C0 2.33384 2.33383 0 5.21277 0H47.1918C50.0708 0 52.4046 2.33383 52.4046 5.21277V50.6282C52.4046 53.5071 50.0708 55.841 47.1918 55.841H5.21277C2.33384 55.841 0 53.5071 0 50.6282V5.21277Z"/>
</mask>
<path d="M0 5.21277C0 2.33384 2.33383 0 5.21277 0H47.1918C50.0708 0 52.4046 2.33383 52.4046 5.21277V50.6282C52.4046 53.5071 50.0708 55.841 47.1918 55.841H5.21277C2.33384 55.841 0 53.5071 0 50.6282V5.21277Z" fill="#262626"/>
<path d="M0 5.21277C0 2.33384 2.33383 0 5.21277 0H47.1918C50.0708 0 52.4046 2.33383 52.4046 5.21277V50.6282C52.4046 53.5071 50.0708 55.841 47.1918 55.841H5.21277C2.33384 55.841 0 53.5071 0 50.6282V5.21277Z" fill="url(#paint0_linear_224_147)" fill-opacity="0.2"/>
<path d="M0 5.21277C0 2.33384 2.33383 0 5.21277 0H47.1918C50.0708 0 52.4046 2.33383 52.4046 5.21277V50.6282C52.4046 53.5071 50.0708 55.841 47.1918 55.841H5.21277C2.33384 55.841 0 53.5071 0 50.6282V5.21277Z" fill="url(#paint1_linear_224_147)" fill-opacity="0.2"/>
<path d="M0 5.21277C0 2.33384 2.33383 0 5.21277 0H47.1918C50.0708 0 52.4046 2.33383 52.4046 5.21277V50.6282C52.4046 53.5071 50.0708 55.841 47.1918 55.841H5.21277C2.33384 55.841 0 53.5071 0 50.6282V5.21277Z" fill="url(#paint2_radial_224_147)" fill-opacity="0.1"/>
<path d="M0 5.21277C0 2.33384 2.33383 0 5.21277 0H47.1918C50.0708 0 52.4046 2.33383 52.4046 5.21277V50.6282C52.4046 53.5071 50.0708 55.841 47.1918 55.841H5.21277C2.33384 55.841 0 53.5071 0 50.6282V5.21277Z" fill="url(#paint3_radial_224_147)" fill-opacity="0.1"/>
<path d="M5.21277 0C8.67182 0.0333333 12.1309 0.065 15.5899 0.095C26.1239 0.18636 36.6579 0.262263 47.1918 0.32271C49.7973 0.276015 52.1158 2.63308 52.038 5.21277C51.9627 20.3512 51.9192 35.4897 51.9077 50.6282C51.9671 53.1396 49.7014 55.4025 47.1918 55.341C47.1918 55.341 47.1918 55.341 47.1918 55.341C33.1988 55.341 19.2058 55.3682 5.21277 55.4228C2.66039 55.4968 0.333966 53.2012 0.383142 50.6282C0.316014 36.2193 0.219967 21.8103 0.095 7.4014C0.0886727 6.67185 0.0822713 5.94231 0.0757958 5.21277C-0.0169148 2.47875 2.43419 -0.0389538 5.21277 0C2.43806 -0.096073 -0.118112 2.3935 -0.0757958 5.21277C-0.0822713 5.94231 -0.0886727 6.67185 -0.095 7.4014C-0.219967 21.8103 -0.316014 36.2193 -0.383142 50.6282C-0.468991 53.6085 2.21187 56.3201 5.21277 56.2591C19.2058 56.3137 33.1988 56.341 47.1918 56.341C50.2355 56.4144 52.9772 53.6701 52.9015 50.6282C52.89 35.4897 52.8465 20.3512 52.7712 5.21277C52.8284 2.23916 50.1396 -0.41104 47.1918 -0.32271C36.6579 -0.262263 26.1239 -0.18636 15.5899 -0.095C12.1309 -0.065 8.67182 -0.0333333 5.21277 0Z" fill="white" fill-opacity="0.5" mask="url(#path-1-inside-1_224_147)"/>
<mask id="mask0_224_147" style="mask-type:alpha" maskUnits="userSpaceOnUse" x="14" y="20" width="26" height="16">
<path d="M29.15 22.8357C29.15 21.1714 31.0641 20.2352 32.3779 21.2569L39.1716 26.541C40.2011 27.3417 40.2011 28.8977 39.1716 29.6984L32.3779 34.9824C31.0641 36.0042 29.15 35.068 29.15 33.4037L29.15 22.8357Z" fill="white"/>
<path d="M14.4205 22.8357C14.4205 21.1714 16.3347 20.2352 17.6484 21.2569L24.4421 26.541C25.4716 27.3417 25.4716 28.8977 24.4421 29.6984L17.6484 34.9824C16.3347 36.0042 14.4205 35.068 14.4205 33.4037L14.4205 22.8357Z" fill="white"/>
</mask>
<g mask="url(#mask0_224_147)">
<path d="M29.15 22.8357C29.15 21.1714 31.0641 20.2352 32.3779 21.2569L39.1716 26.541C40.2011 27.3417 40.2011 28.8977 39.1716 29.6984L32.3779 34.9824C31.0641 36.0042 29.15 35.068 29.15 33.4037L29.15 22.8357Z" fill="white"/>
<path d="M14.4205 22.8357C14.4205 21.1714 16.3347 20.2352 17.6484 21.2569L24.4421 26.541C25.4716 27.3417 25.4716 28.8977 24.4421 29.6984L17.6484 34.9824C16.3347 36.0042 14.4205 35.068 14.4205 33.4037L14.4205 22.8357Z" fill="white"/>
<path d="M27.0657 18.5405L43.5945 24.3087L40.5044 31.5189L26.29 22.0426L27.0657 18.5405Z" fill="url(#paint4_linear_224_147)" fill-opacity="0.49"/>
<path d="M12.6449 18.5405H26.0836V31.5189L11.8692 22.0426L12.6449 18.5405Z" fill="url(#paint5_linear_224_147)" fill-opacity="0.49"/>
</g>
<defs>
<linearGradient id="paint0_linear_224_147" x1="26.2023" y1="9.88832" x2="26.2023" y2="-2.67809" gradientUnits="userSpaceOnUse">
<stop offset="0.596054" stop-opacity="0"/>
<stop offset="0.596154"/>
</linearGradient>
<linearGradient id="paint1_linear_224_147" x1="26.2023" y1="46.3515" x2="26.2023" y2="55.841" gradientUnits="userSpaceOnUse">
<stop offset="0.754808" stop-opacity="0"/>
<stop offset="0.793269" stop-color="white"/>
</linearGradient>
<radialGradient id="paint2_radial_224_147" cx="0" cy="0" r="1" gradientUnits="userSpaceOnUse" gradientTransform="translate(52.3257 56.0338) rotate(164.83) scale(60.6182 29.0284)">
<stop stop-color="white"/>
<stop offset="1" stop-opacity="0"/>
</radialGradient>
<radialGradient id="paint3_radial_224_147" cx="0" cy="0" r="1" gradientUnits="userSpaceOnUse" gradientTransform="translate(26.29 -3.50211) rotate(90) scale(42.2314 84.666)">
<stop stop-color="white"/>
<stop offset="1" stop-opacity="0"/>
</radialGradient>
<linearGradient id="paint4_linear_224_147" x1="33.9122" y1="22.8666" x2="32.8822" y2="24.5147" gradientUnits="userSpaceOnUse">
<stop/>
<stop offset="1" stop-opacity="0"/>
</linearGradient>
<linearGradient id="paint5_linear_224_147" x1="19.4914" y1="22.8666" x2="18.4614" y2="24.5147" gradientUnits="userSpaceOnUse">
<stop/>
<stop offset="1" stop-opacity="0"/>
</linearGradient>
</defs>
</svg>
