<svg width="18" height="15" viewBox="0 0 18 15" fill="none" xmlns="http://www.w3.org/2000/svg">
<path d="M15.9611 1.25119C15.5385 0.854523 15.0367 0.539863 14.4845 0.32518C13.9323 0.110498 13.3404 0 12.7426 0C12.1448 0 11.5529 0.110498 11.0007 0.32518C10.4484 0.539863 9.9467 0.854523 9.52412 1.25119L8.6471 2.07401L7.77009 1.25119C6.9165 0.450331 5.75878 0.000415111 4.55161 0.000415119C3.34445 0.000415128 2.18673 0.450331 1.33314 1.25119C0.479544 2.05204 8.99406e-09 3.13823 0 4.27081C-8.99406e-09 5.40339 0.479544 6.48958 1.33314 7.29044L8.6471 14.1525L15.9611 7.29044C16.3839 6.89396 16.7192 6.42322 16.9481 5.9051C17.1769 5.38698 17.2947 4.83164 17.2947 4.27081C17.2947 3.70998 17.1769 3.15464 16.9481 2.63652C16.7192 2.1184 16.3839 1.64766 15.9611 1.25119Z" fill="#34C759"/>
</svg>
