<svg width="108" height="142" viewBox="0 0 108 142" fill="none" xmlns="http://www.w3.org/2000/svg">
<path d="M2.14062 117.02V116.223H8.42188V117.02H5.75V125H4.8125V117.02H2.14062ZM9.54688 125V115.895H10.4375V119.715H10.4609C10.6172 119.379 10.8672 119.09 11.2109 118.848C11.5625 118.605 11.9609 118.484 12.4062 118.484C13.7656 118.484 14.4453 119.297 14.4453 120.922V125H13.5547V121.074C13.5547 119.855 13.1172 119.246 12.2422 119.246C11.7578 119.246 11.3359 119.445 10.9766 119.844C10.6172 120.242 10.4375 120.715 10.4375 121.262V125H9.54688ZM15.8398 121.801C15.8398 120.816 16.1055 120.02 16.6367 119.41C17.168 118.793 17.8555 118.484 18.6992 118.484C19.5586 118.484 20.2344 118.785 20.7266 119.387C21.2188 119.98 21.4648 120.742 21.4648 121.672C21.4648 121.781 21.457 121.938 21.4414 122.141H16.7539C16.7539 122.773 16.9297 123.316 17.2812 123.77C17.6328 124.223 18.1211 124.449 18.7461 124.449C19.1523 124.449 19.5117 124.355 19.8242 124.168C20.1367 123.973 20.3789 123.715 20.5508 123.395L21.3242 123.629C21.1289 124.09 20.8125 124.469 20.375 124.766C19.9375 125.062 19.3945 125.211 18.7461 125.211C17.8711 125.211 17.168 124.898 16.6367 124.273C16.1055 123.648 15.8398 122.824 15.8398 121.801ZM16.7773 121.449H20.5508C20.5508 120.832 20.3828 120.312 20.0469 119.891C19.7109 119.461 19.2617 119.246 18.6992 119.246C18.1289 119.246 17.668 119.465 17.3164 119.902C16.9727 120.34 16.793 120.855 16.7773 121.449ZM26.1055 125V116.223H29.3398C30.1914 116.223 30.8359 116.426 31.2734 116.832C31.7188 117.238 31.9414 117.785 31.9414 118.473C31.9414 118.941 31.8203 119.34 31.5781 119.668C31.3438 119.988 31.043 120.23 30.6758 120.395C31.1211 120.527 31.4961 120.785 31.8008 121.168C32.1133 121.551 32.2695 122.012 32.2695 122.551C32.2695 123.223 32.0469 123.801 31.6016 124.285C31.1641 124.762 30.5508 125 29.7617 125H26.1055ZM27.043 124.203H29.5273C30.0352 124.203 30.457 124.059 30.793 123.77C31.1367 123.473 31.3086 123.07 31.3086 122.562C31.3086 122.078 31.1406 121.676 30.8047 121.355C30.4766 121.035 30.0352 120.875 29.4805 120.875H27.043V124.203ZM27.043 120.09H29.1758C29.6992 120.09 30.1289 119.961 30.4648 119.703C30.8086 119.445 30.9805 119.059 30.9805 118.543C30.9805 118.09 30.8398 117.723 30.5586 117.441C30.2852 117.16 29.8398 117.02 29.2227 117.02H27.043V120.09ZM33.7227 122.785V118.695H34.6367V122.598C34.6367 123.832 35.0898 124.449 35.9961 124.449C36.5508 124.449 36.9727 124.234 37.2617 123.805C37.5586 123.375 37.707 122.867 37.707 122.281V118.695H38.5977V125H37.7305V123.98C37.668 124.238 37.4727 124.508 37.1445 124.789C36.8242 125.07 36.3711 125.211 35.7852 125.211C35.1836 125.211 34.6875 125.008 34.2969 124.602C33.9141 124.188 33.7227 123.582 33.7227 122.785ZM39.7812 119.457V118.695H40.8828V116.68H41.7969V118.695H43.4609V119.457H41.7969V123.148C41.7969 123.539 41.8711 123.816 42.0195 123.98C42.168 124.145 42.4062 124.227 42.7344 124.227H43.4609V125H42.6172C41.4609 125 40.8828 124.41 40.8828 123.23V119.457H39.7812ZM44.3398 121.848C44.3398 120.848 44.5938 120.039 45.1016 119.422C45.6094 118.797 46.293 118.484 47.1523 118.484C47.7148 118.484 48.1953 118.648 48.5938 118.977C49 119.297 49.2695 119.68 49.4023 120.125L48.6289 120.348C48.5117 120.035 48.3203 119.773 48.0547 119.562C47.7969 119.352 47.4961 119.246 47.1523 119.246C46.5742 119.246 46.1133 119.492 45.7695 119.984C45.4258 120.477 45.2539 121.098 45.2539 121.848C45.2539 122.645 45.4336 123.277 45.793 123.746C46.1523 124.215 46.6055 124.449 47.1523 124.449C47.5195 124.449 47.8516 124.332 48.1484 124.098C48.4531 123.855 48.668 123.578 48.793 123.266L49.5664 123.512C49.4023 123.98 49.1016 124.383 48.6641 124.719C48.2344 125.047 47.7305 125.211 47.1523 125.211C46.3164 125.211 45.6367 124.906 45.1133 124.297C44.5977 123.688 44.3398 122.871 44.3398 121.848ZM50.8555 125V115.895H51.7461V119.715H51.7695C51.9258 119.379 52.1758 119.09 52.5195 118.848C52.8711 118.605 53.2695 118.484 53.7148 118.484C55.0742 118.484 55.7539 119.297 55.7539 120.922V125H54.8633V121.074C54.8633 119.855 54.4258 119.246 53.5508 119.246C53.0664 119.246 52.6445 119.445 52.2852 119.844C51.9258 120.242 51.7461 120.715 51.7461 121.262V125H50.8555ZM57.1484 121.801C57.1484 120.816 57.4141 120.02 57.9453 119.41C58.4766 118.793 59.1641 118.484 60.0078 118.484C60.8672 118.484 61.543 118.785 62.0352 119.387C62.5273 119.98 62.7734 120.742 62.7734 121.672C62.7734 121.781 62.7656 121.938 62.75 122.141H58.0625C58.0625 122.773 58.2383 123.316 58.5898 123.77C58.9414 124.223 59.4297 124.449 60.0547 124.449C60.4609 124.449 60.8203 124.355 61.1328 124.168C61.4453 123.973 61.6875 123.715 61.8594 123.395L62.6328 123.629C62.4375 124.09 62.1211 124.469 61.6836 124.766C61.2461 125.062 60.7031 125.211 60.0547 125.211C59.1797 125.211 58.4766 124.898 57.9453 124.273C57.4141 123.648 57.1484 122.824 57.1484 121.801ZM58.0859 121.449H61.8594C61.8594 120.832 61.6914 120.312 61.3555 119.891C61.0195 119.461 60.5703 119.246 60.0078 119.246C59.4375 119.246 58.9766 119.465 58.625 119.902C58.2812 120.34 58.1016 120.855 58.0859 121.449ZM64.2031 125V118.695H65.0703V119.609C65.1953 119.328 65.4023 119.07 65.6914 118.836C65.9805 118.602 66.3516 118.484 66.8047 118.484C67.1406 118.484 67.4375 118.539 67.6953 118.648V119.469C67.4141 119.359 67.1172 119.305 66.8047 119.305C66.2734 119.305 65.8594 119.504 65.5625 119.902C65.2656 120.301 65.1172 120.828 65.1172 121.484V125H64.2031ZM68.8789 116.504V115.156H70.4492V116.164C70.4492 117.406 70.0664 118.348 69.3008 118.988L68.7734 118.543C69.0703 118.262 69.2773 117.969 69.3945 117.664C69.5117 117.352 69.5703 116.965 69.5703 116.504H68.8789ZM72.207 123.758L72.8867 123.359C73.3477 124.086 73.9727 124.449 74.7617 124.449C75.2383 124.449 75.6172 124.363 75.8984 124.191C76.1875 124.02 76.332 123.77 76.332 123.441C76.332 123.301 76.2969 123.176 76.2266 123.066C76.1562 122.949 76.0781 122.855 75.9922 122.785C75.9141 122.707 75.7695 122.625 75.5586 122.539C75.3477 122.445 75.1719 122.379 75.0312 122.34C74.8984 122.293 74.6758 122.219 74.3633 122.117C74.0898 122.031 73.8555 121.945 73.6602 121.859C73.4648 121.773 73.2617 121.66 73.0508 121.52C72.8398 121.371 72.6758 121.191 72.5586 120.98C72.4492 120.77 72.3945 120.527 72.3945 120.254C72.3945 119.73 72.6055 119.305 73.0273 118.977C73.4492 118.648 74.0273 118.484 74.7617 118.484C75.2773 118.484 75.75 118.621 76.1797 118.895C76.6094 119.168 76.918 119.488 77.1055 119.855L76.4961 120.254C76.332 119.98 76.0938 119.746 75.7812 119.551C75.4766 119.348 75.1367 119.246 74.7617 119.246C74.2852 119.246 73.9219 119.34 73.6719 119.527C73.4297 119.707 73.3086 119.953 73.3086 120.266C73.3086 120.445 73.3555 120.609 73.4492 120.758C73.543 120.898 73.6836 121.023 73.8711 121.133C74.0664 121.234 74.2422 121.316 74.3984 121.379C74.5625 121.434 74.7773 121.504 75.043 121.59C75.2695 121.66 75.4688 121.727 75.6406 121.789C75.8203 121.852 76.0156 121.938 76.2266 122.047C76.4375 122.156 76.6133 122.273 76.7539 122.398C76.8945 122.516 77.0117 122.668 77.1055 122.855C77.1992 123.035 77.2461 123.23 77.2461 123.441C77.2461 123.941 77.0234 124.363 76.5781 124.707C76.1406 125.043 75.5352 125.211 74.7617 125.211C74.1992 125.211 73.6992 125.086 73.2617 124.836C72.8242 124.578 72.4727 124.219 72.207 123.758ZM3.21875 137V128.223H4.4375L6.35938 132.945C6.48438 133.273 6.65234 133.723 6.86328 134.293C7.08203 134.855 7.19531 135.148 7.20312 135.172H7.25C7.29688 135.055 7.58203 134.312 8.10547 132.945L10.0156 128.223H11.2578V137H10.3203V132.043C10.3203 131.41 10.3594 130.523 10.4375 129.383H10.3906L9.94531 130.555L7.64844 136.344H6.82812L4.53125 130.555L4.0625 129.383H4.01562C4.10938 130.641 4.15625 131.527 4.15625 132.043V137H3.21875ZM13.8711 135.383C13.8711 135.68 13.9961 135.934 14.2461 136.145C14.4961 136.348 14.8398 136.449 15.2773 136.449C15.832 136.449 16.3047 136.27 16.6953 135.91C17.0938 135.551 17.293 135.094 17.293 134.539V133.66C16.9492 133.746 16.4023 133.848 15.6523 133.965C15.043 134.074 14.5938 134.242 14.3047 134.469C14.0156 134.695 13.8711 135 13.8711 135.383ZM12.957 135.453C12.957 134.281 13.8633 133.555 15.6758 133.273C16.4883 133.141 17.0273 133.031 17.293 132.945V132.582C17.293 132.191 17.1523 131.867 16.8711 131.609C16.5898 131.352 16.1914 131.223 15.6758 131.223C15.3008 131.223 14.9375 131.312 14.5859 131.492C14.2422 131.664 13.9492 131.898 13.707 132.195L13.1211 131.703C13.4336 131.344 13.8086 131.051 14.2461 130.824C14.6914 130.598 15.1602 130.484 15.6523 130.484C17.3398 130.484 18.1836 131.309 18.1836 132.957V137H17.3164V135.969C17.1914 136.305 16.9336 136.598 16.543 136.848C16.1523 137.09 15.6914 137.211 15.1602 137.211C14.4648 137.211 13.9219 137.047 13.5312 136.719C13.1484 136.391 12.957 135.969 12.957 135.453ZM19.4844 135.758L20.1641 135.359C20.625 136.086 21.25 136.449 22.0391 136.449C22.5156 136.449 22.8945 136.363 23.1758 136.191C23.4648 136.02 23.6094 135.77 23.6094 135.441C23.6094 135.301 23.5742 135.176 23.5039 135.066C23.4336 134.949 23.3555 134.855 23.2695 134.785C23.1914 134.707 23.0469 134.625 22.8359 134.539C22.625 134.445 22.4492 134.379 22.3086 134.34C22.1758 134.293 21.9531 134.219 21.6406 134.117C21.3672 134.031 21.1328 133.945 20.9375 133.859C20.7422 133.773 20.5391 133.66 20.3281 133.52C20.1172 133.371 19.9531 133.191 19.8359 132.98C19.7266 132.77 19.6719 132.527 19.6719 132.254C19.6719 131.73 19.8828 131.305 20.3047 130.977C20.7266 130.648 21.3047 130.484 22.0391 130.484C22.5547 130.484 23.0273 130.621 23.457 130.895C23.8867 131.168 24.1953 131.488 24.3828 131.855L23.7734 132.254C23.6094 131.98 23.3711 131.746 23.0586 131.551C22.7539 131.348 22.4141 131.246 22.0391 131.246C21.5625 131.246 21.1992 131.34 20.9492 131.527C20.707 131.707 20.5859 131.953 20.5859 132.266C20.5859 132.445 20.6328 132.609 20.7266 132.758C20.8203 132.898 20.9609 133.023 21.1484 133.133C21.3438 133.234 21.5195 133.316 21.6758 133.379C21.8398 133.434 22.0547 133.504 22.3203 133.59C22.5469 133.66 22.7461 133.727 22.918 133.789C23.0977 133.852 23.293 133.938 23.5039 134.047C23.7148 134.156 23.8906 134.273 24.0312 134.398C24.1719 134.516 24.2891 134.668 24.3828 134.855C24.4766 135.035 24.5234 135.23 24.5234 135.441C24.5234 135.941 24.3008 136.363 23.8555 136.707C23.418 137.043 22.8125 137.211 22.0391 137.211C21.4766 137.211 20.9766 137.086 20.5391 136.836C20.1016 136.578 19.75 136.219 19.4844 135.758ZM26.3633 133.836C26.3633 134.633 26.5352 135.27 26.8789 135.746C27.2305 136.215 27.6758 136.449 28.2148 136.449C28.7617 136.449 29.1992 136.211 29.5273 135.734C29.8555 135.25 30.0195 134.617 30.0195 133.836C30.0195 133.07 29.8516 132.449 29.5156 131.973C29.1797 131.488 28.7461 131.246 28.2148 131.246C27.6289 131.246 27.1719 131.488 26.8438 131.973C26.5234 132.457 26.3633 133.078 26.3633 133.836ZM25.4492 133.836C25.4492 132.812 25.6953 132 26.1875 131.398C26.6875 130.789 27.3242 130.484 28.0977 130.484C28.5273 130.484 28.9102 130.605 29.2461 130.848C29.5898 131.09 29.8555 131.418 30.043 131.832V130.695H30.9102V139.754H30.0195V135.91C29.8633 136.285 29.6172 136.598 29.2812 136.848C28.9453 137.09 28.5508 137.211 28.0977 137.211C27.3789 137.211 26.7578 136.922 26.2344 136.344C25.7109 135.758 25.4492 134.922 25.4492 133.836ZM32.7617 134.785V130.695H33.6758V134.598C33.6758 135.832 34.1289 136.449 35.0352 136.449C35.5898 136.449 36.0117 136.234 36.3008 135.805C36.5977 135.375 36.7461 134.867 36.7461 134.281V130.695H37.6367V137H36.7695V135.98C36.707 136.238 36.5117 136.508 36.1836 136.789C35.8633 137.07 35.4102 137.211 34.8242 137.211C34.2227 137.211 33.7266 137.008 33.3359 136.602C32.9531 136.188 32.7617 135.582 32.7617 134.785ZM39.1016 133.801C39.1016 132.816 39.3672 132.02 39.8984 131.41C40.4297 130.793 41.1172 130.484 41.9609 130.484C42.8203 130.484 43.4961 130.785 43.9883 131.387C44.4805 131.98 44.7266 132.742 44.7266 133.672C44.7266 133.781 44.7188 133.938 44.7031 134.141H40.0156C40.0156 134.773 40.1914 135.316 40.543 135.77C40.8945 136.223 41.3828 136.449 42.0078 136.449C42.4141 136.449 42.7734 136.355 43.0859 136.168C43.3984 135.973 43.6406 135.715 43.8125 135.395L44.5859 135.629C44.3906 136.09 44.0742 136.469 43.6367 136.766C43.1992 137.062 42.6562 137.211 42.0078 137.211C41.1328 137.211 40.4297 136.898 39.8984 136.273C39.3672 135.648 39.1016 134.824 39.1016 133.801ZM40.0391 133.449H43.8125C43.8125 132.832 43.6445 132.312 43.3086 131.891C42.9727 131.461 42.5234 131.246 41.9609 131.246C41.3906 131.246 40.9297 131.465 40.5781 131.902C40.2344 132.34 40.0547 132.855 40.0391 133.449ZM46.1562 137V130.695H47.0234V131.609C47.1484 131.328 47.3555 131.07 47.6445 130.836C47.9336 130.602 48.3047 130.484 48.7578 130.484C49.0938 130.484 49.3906 130.539 49.6484 130.648V131.469C49.3672 131.359 49.0703 131.305 48.7578 131.305C48.2266 131.305 47.8125 131.504 47.5156 131.902C47.2188 132.301 47.0703 132.828 47.0703 133.484V137H46.1562ZM50.9609 135.383C50.9609 135.68 51.0859 135.934 51.3359 136.145C51.5859 136.348 51.9297 136.449 52.3672 136.449C52.9219 136.449 53.3945 136.27 53.7852 135.91C54.1836 135.551 54.3828 135.094 54.3828 134.539V133.66C54.0391 133.746 53.4922 133.848 52.7422 133.965C52.1328 134.074 51.6836 134.242 51.3945 134.469C51.1055 134.695 50.9609 135 50.9609 135.383ZM50.0469 135.453C50.0469 134.281 50.9531 133.555 52.7656 133.273C53.5781 133.141 54.1172 133.031 54.3828 132.945V132.582C54.3828 132.191 54.2422 131.867 53.9609 131.609C53.6797 131.352 53.2812 131.223 52.7656 131.223C52.3906 131.223 52.0273 131.312 51.6758 131.492C51.332 131.664 51.0391 131.898 50.7969 132.195L50.2109 131.703C50.5234 131.344 50.8984 131.051 51.3359 130.824C51.7812 130.598 52.25 130.484 52.7422 130.484C54.4297 130.484 55.2734 131.309 55.2734 132.957V137H54.4062V135.969C54.2812 136.305 54.0234 136.598 53.6328 136.848C53.2422 137.09 52.7812 137.211 52.25 137.211C51.5547 137.211 51.0117 137.047 50.6211 136.719C50.2383 136.391 50.0469 135.969 50.0469 135.453ZM56.668 133.836C56.668 132.797 56.918 131.98 57.418 131.387C57.918 130.785 58.5508 130.484 59.3164 130.484C59.7773 130.484 60.1758 130.617 60.5117 130.883C60.8555 131.148 61.0977 131.453 61.2383 131.797V127.895H62.1289V137H61.2617V135.863C61.0977 136.254 60.8438 136.578 60.5 136.836C60.1641 137.086 59.7695 137.211 59.3164 137.211C58.9961 137.211 58.6836 137.145 58.3789 137.012C58.082 136.887 57.8008 136.699 57.5352 136.449C57.2773 136.191 57.0664 135.84 56.9023 135.395C56.7461 134.941 56.668 134.422 56.668 133.836ZM57.582 133.836C57.582 134.625 57.7539 135.258 58.0977 135.734C58.4414 136.211 58.8867 136.449 59.4336 136.449C59.9414 136.449 60.3711 136.215 60.7227 135.746C61.082 135.27 61.2617 134.633 61.2617 133.836C61.2617 133.047 61.082 132.418 60.7227 131.949C60.3711 131.48 59.9414 131.246 59.4336 131.246C58.8789 131.246 58.4297 131.484 58.0859 131.961C57.75 132.43 57.582 133.055 57.582 133.836ZM63.6523 133.801C63.6523 132.816 63.918 132.02 64.4492 131.41C64.9805 130.793 65.668 130.484 66.5117 130.484C67.3711 130.484 68.0469 130.785 68.5391 131.387C69.0312 131.98 69.2773 132.742 69.2773 133.672C69.2773 133.781 69.2695 133.938 69.2539 134.141H64.5664C64.5664 134.773 64.7422 135.316 65.0938 135.77C65.4453 136.223 65.9336 136.449 66.5586 136.449C66.9648 136.449 67.3242 136.355 67.6367 136.168C67.9492 135.973 68.1914 135.715 68.3633 135.395L69.1367 135.629C68.9414 136.09 68.625 136.469 68.1875 136.766C67.75 137.062 67.207 137.211 66.5586 137.211C65.6836 137.211 64.9805 136.898 64.4492 136.273C63.918 135.648 63.6523 134.824 63.6523 133.801ZM64.5898 133.449H68.3633C68.3633 132.832 68.1953 132.312 67.8594 131.891C67.5234 131.461 67.0742 131.246 66.5117 131.246C65.9414 131.246 65.4805 131.465 65.1289 131.902C64.7852 132.34 64.6055 132.855 64.5898 133.449Z" fill="white"/>
<rect width="51" height="51" rx="5" fill="#7D7D7D"/>
<rect y="55" width="51" height="51" rx="5" fill="#7D7D7D"/>
<rect x="55" width="51" height="51" rx="5" fill="#7D7D7D"/>
<rect x="55" y="55" width="51" height="51" rx="5" fill="#7D7D7D"/>
</svg>
