<svg width="53" height="56" viewBox="0 0 53 56" fill="none" xmlns="http://www.w3.org/2000/svg">
<mask id="path-1-inside-1_224_140" fill="white">
<path d="M52.4046 5.21277C52.4046 2.33384 50.0708 0 47.1919 0H5.2128C2.33387 0 3.05176e-05 2.33383 3.05176e-05 5.21277V50.6282C3.05176e-05 53.5071 2.33387 55.841 5.2128 55.841H47.1919C50.0708 55.841 52.4046 53.5071 52.4046 50.6282V5.21277Z"/>
</mask>
<path d="M52.4046 5.21277C52.4046 2.33384 50.0708 0 47.1919 0H5.2128C2.33387 0 3.05176e-05 2.33383 3.05176e-05 5.21277V50.6282C3.05176e-05 53.5071 2.33387 55.841 5.2128 55.841H47.1919C50.0708 55.841 52.4046 53.5071 52.4046 50.6282V5.21277Z" fill="#262626"/>
<path d="M52.4046 5.21277C52.4046 2.33384 50.0708 0 47.1919 0H5.2128C2.33387 0 3.05176e-05 2.33383 3.05176e-05 5.21277V50.6282C3.05176e-05 53.5071 2.33387 55.841 5.2128 55.841H47.1919C50.0708 55.841 52.4046 53.5071 52.4046 50.6282V5.21277Z" fill="url(#paint0_linear_224_140)" fill-opacity="0.2"/>
<path d="M52.4046 5.21277C52.4046 2.33384 50.0708 0 47.1919 0H5.2128C2.33387 0 3.05176e-05 2.33383 3.05176e-05 5.21277V50.6282C3.05176e-05 53.5071 2.33387 55.841 5.2128 55.841H47.1919C50.0708 55.841 52.4046 53.5071 52.4046 50.6282V5.21277Z" fill="url(#paint1_linear_224_140)" fill-opacity="0.2"/>
<path d="M52.4046 5.21277C52.4046 2.33384 50.0708 0 47.1919 0H5.2128C2.33387 0 3.05176e-05 2.33383 3.05176e-05 5.21277V50.6282C3.05176e-05 53.5071 2.33387 55.841 5.2128 55.841H47.1919C50.0708 55.841 52.4046 53.5071 52.4046 50.6282V5.21277Z" fill="url(#paint2_radial_224_140)" fill-opacity="0.1"/>
<path d="M52.4046 5.21277C52.4046 2.33384 50.0708 0 47.1919 0H5.2128C2.33387 0 3.05176e-05 2.33383 3.05176e-05 5.21277V50.6282C3.05176e-05 53.5071 2.33387 55.841 5.2128 55.841H47.1919C50.0708 55.841 52.4046 53.5071 52.4046 50.6282V5.21277Z" fill="url(#paint3_radial_224_140)" fill-opacity="0.1"/>
<path d="M47.1919 0C43.7328 0.0233333 40.2738 0.0455 36.8147 0.0665C26.2807 0.130452 15.7468 0.183584 5.2128 0.225897C2.55598 0.172957 0.181918 2.574 0.256639 5.21277C0.309389 20.3512 0.339793 35.4897 0.347851 50.6282C0.286048 53.2192 2.6231 55.5543 5.2128 55.491C5.2128 55.491 5.2128 55.491 5.2128 55.491C19.2058 55.491 33.1988 55.5101 47.1919 55.5482C49.8115 55.6203 52.1911 53.2623 52.1364 50.6282C52.1834 36.2193 52.2507 21.8103 52.3381 7.4014C52.3426 6.67185 52.347 5.94231 52.3516 5.21277C52.4367 2.46597 49.9699 -0.0475217 47.1919 0C49.9672 -0.0875051 52.5076 2.40629 52.4577 5.21277C52.4622 5.94231 52.4667 6.67185 52.4711 7.4014C52.5586 21.8103 52.6258 36.2193 52.6728 50.6282C52.7532 53.5474 50.1255 56.1966 47.1919 56.1337C33.1988 56.1719 19.2058 56.191 5.2128 56.191C2.24921 56.2626 -0.421014 53.5905 -0.34779 50.6282C-0.339732 35.4897 -0.309328 20.3512 -0.256578 5.21277C-0.316882 2.29825 2.31635 -0.307982 5.2128 -0.225897C15.7468 -0.183584 26.2807 -0.130452 36.8147 -0.0665C40.2738 -0.0455 43.7328 -0.0233333 47.1919 0Z" fill="white" fill-opacity="0.5" mask="url(#path-1-inside-1_224_140)"/>
<mask id="mask0_224_140" style="mask-type:alpha" maskUnits="userSpaceOnUse" x="14" y="20" width="26" height="16">
<path d="M24.9025 22.8357C24.9025 21.1714 22.9884 20.2352 21.6746 21.2569L14.8809 26.541C13.8514 27.3417 13.8514 28.8977 14.8809 29.6984L21.6746 34.9824C22.9884 36.0042 24.9025 35.068 24.9025 33.4037L24.9025 22.8357Z" fill="white"/>
<path d="M39.632 22.8357C39.632 21.1714 37.7178 20.2352 36.4041 21.2569L29.6104 26.541C28.5809 27.3417 28.5809 28.8977 29.6104 29.6984L36.4041 34.9824C37.7178 36.0042 39.632 35.068 39.632 33.4037L39.632 22.8357Z" fill="white"/>
</mask>
<g mask="url(#mask0_224_140)">
<path d="M24.9025 22.8357C24.9025 21.1714 22.9884 20.2352 21.6746 21.2569L14.8809 26.541C13.8514 27.3417 13.8514 28.8977 14.8809 29.6984L21.6746 34.9824C22.9884 36.0042 24.9025 35.068 24.9025 33.4037L24.9025 22.8357Z" fill="white"/>
<path d="M39.632 22.8357C39.632 21.1714 37.7178 20.2352 36.4041 21.2569L29.6104 26.541C28.5809 27.3417 28.5809 28.8977 29.6104 29.6984L36.4041 34.9824C37.7178 36.0042 39.632 35.068 39.632 33.4037L39.632 22.8357Z" fill="white"/>
<path d="M26.9868 18.5405L10.4579 24.3087L13.548 31.5189L27.7625 22.0426L26.9868 18.5405Z" fill="url(#paint4_linear_224_140)" fill-opacity="0.49"/>
<path d="M41.4073 18.5405H27.9686V31.5189L42.183 22.0426L41.4073 18.5405Z" fill="url(#paint5_linear_224_140)" fill-opacity="0.49"/>
</g>
<defs>
<linearGradient id="paint0_linear_224_140" x1="26.2023" y1="9.88832" x2="26.2023" y2="-2.67809" gradientUnits="userSpaceOnUse">
<stop offset="0.596054" stop-opacity="0"/>
<stop offset="0.596154"/>
</linearGradient>
<linearGradient id="paint1_linear_224_140" x1="26.2023" y1="46.3515" x2="26.2023" y2="55.841" gradientUnits="userSpaceOnUse">
<stop offset="0.754808" stop-opacity="0"/>
<stop offset="0.793269" stop-color="white"/>
</linearGradient>
<radialGradient id="paint2_radial_224_140" cx="0" cy="0" r="1" gradientUnits="userSpaceOnUse" gradientTransform="translate(0.0789273 56.0338) rotate(15.1697) scale(60.6182 29.0284)">
<stop stop-color="white"/>
<stop offset="1" stop-opacity="0"/>
</radialGradient>
<radialGradient id="paint3_radial_224_140" cx="0" cy="0" r="1" gradientUnits="userSpaceOnUse" gradientTransform="translate(50.1386 -2.67821e-06) rotate(113.58) scale(40.6841 81.564)">
<stop stop-color="white"/>
<stop offset="1" stop-opacity="0"/>
</radialGradient>
<linearGradient id="paint4_linear_224_140" x1="20.1403" y1="22.8666" x2="21.1703" y2="24.5147" gradientUnits="userSpaceOnUse">
<stop/>
<stop offset="1" stop-opacity="0"/>
</linearGradient>
<linearGradient id="paint5_linear_224_140" x1="34.5608" y1="22.8666" x2="35.5908" y2="24.5147" gradientUnits="userSpaceOnUse">
<stop/>
<stop offset="1" stop-opacity="0"/>
</linearGradient>
</defs>
</svg>
