<svg width="114" height="87" viewBox="0 0 114 87" fill="none" xmlns="http://www.w3.org/2000/svg">
<g filter="url(#filter0_d_224_59)">
<rect x="68" width="35" height="51" rx="5" fill="#7D7D7D"/>
</g>
<g filter="url(#filter1_d_224_59)">
<rect x="51" width="35" height="51" rx="5" fill="#7D7D7D"/>
</g>
<g filter="url(#filter2_d_224_59)">
<rect x="34" width="35" height="51" rx="5" fill="#7D7D7D"/>
</g>
<g filter="url(#filter3_d_224_59)">
<rect x="17" width="35" height="51" rx="5" fill="#7D7D7D"/>
</g>
<g filter="url(#filter4_d_224_59)">
<rect width="35" height="51" rx="5" fill="#7D7D7D"/>
</g>
<path d="M2.14062 62.0195V61.2227H8.42188V62.0195H5.75V70H4.8125V62.0195H2.14062ZM9.54688 70V60.8945H10.4375V64.7148H10.4609C10.6172 64.3789 10.8672 64.0898 11.2109 63.8477C11.5625 63.6055 11.9609 63.4844 12.4062 63.4844C13.7656 63.4844 14.4453 64.2969 14.4453 65.9219V70H13.5547V66.0742C13.5547 64.8555 13.1172 64.2461 12.2422 64.2461C11.7578 64.2461 11.3359 64.4453 10.9766 64.8438C10.6172 65.2422 10.4375 65.7148 10.4375 66.2617V70H9.54688ZM15.8398 66.8008C15.8398 65.8164 16.1055 65.0195 16.6367 64.4102C17.168 63.793 17.8555 63.4844 18.6992 63.4844C19.5586 63.4844 20.2344 63.7852 20.7266 64.3867C21.2188 64.9805 21.4648 65.7422 21.4648 66.6719C21.4648 66.7812 21.457 66.9375 21.4414 67.1406H16.7539C16.7539 67.7734 16.9297 68.3164 17.2812 68.7695C17.6328 69.2227 18.1211 69.4492 18.7461 69.4492C19.1523 69.4492 19.5117 69.3555 19.8242 69.168C20.1367 68.9727 20.3789 68.7148 20.5508 68.3945L21.3242 68.6289C21.1289 69.0898 20.8125 69.4688 20.375 69.7656C19.9375 70.0625 19.3945 70.2109 18.7461 70.2109C17.8711 70.2109 17.168 69.8984 16.6367 69.2734C16.1055 68.6484 15.8398 67.8242 15.8398 66.8008ZM16.7773 66.4492H20.5508C20.5508 65.832 20.3828 65.3125 20.0469 64.8906C19.7109 64.4609 19.2617 64.2461 18.6992 64.2461C18.1289 64.2461 17.668 64.4648 17.3164 64.9023C16.9727 65.3398 16.793 65.8555 16.7773 66.4492ZM26.1055 70V61.2227H29.3398C30.1914 61.2227 30.8359 61.4258 31.2734 61.832C31.7188 62.2383 31.9414 62.7852 31.9414 63.4727C31.9414 63.9414 31.8203 64.3398 31.5781 64.668C31.3438 64.9883 31.043 65.2305 30.6758 65.3945C31.1211 65.5273 31.4961 65.7852 31.8008 66.168C32.1133 66.5508 32.2695 67.0117 32.2695 67.5508C32.2695 68.2227 32.0469 68.8008 31.6016 69.2852C31.1641 69.7617 30.5508 70 29.7617 70H26.1055ZM27.043 69.2031H29.5273C30.0352 69.2031 30.457 69.0586 30.793 68.7695C31.1367 68.4727 31.3086 68.0703 31.3086 67.5625C31.3086 67.0781 31.1406 66.6758 30.8047 66.3555C30.4766 66.0352 30.0352 65.875 29.4805 65.875H27.043V69.2031ZM27.043 65.0898H29.1758C29.6992 65.0898 30.1289 64.9609 30.4648 64.7031C30.8086 64.4453 30.9805 64.0586 30.9805 63.543C30.9805 63.0898 30.8398 62.7227 30.5586 62.4414C30.2852 62.1602 29.8398 62.0195 29.2227 62.0195H27.043V65.0898ZM33.7227 67.7852V63.6953H34.6367V67.5977C34.6367 68.832 35.0898 69.4492 35.9961 69.4492C36.5508 69.4492 36.9727 69.2344 37.2617 68.8047C37.5586 68.375 37.707 67.8672 37.707 67.2812V63.6953H38.5977V70H37.7305V68.9805C37.668 69.2383 37.4727 69.5078 37.1445 69.7891C36.8242 70.0703 36.3711 70.2109 35.7852 70.2109C35.1836 70.2109 34.6875 70.0078 34.2969 69.6016C33.9141 69.1875 33.7227 68.582 33.7227 67.7852ZM39.7812 64.457V63.6953H40.8828V61.6797H41.7969V63.6953H43.4609V64.457H41.7969V68.1484C41.7969 68.5391 41.8711 68.8164 42.0195 68.9805C42.168 69.1445 42.4062 69.2266 42.7344 69.2266H43.4609V70H42.6172C41.4609 70 40.8828 69.4102 40.8828 68.2305V64.457H39.7812ZM44.3398 66.8477C44.3398 65.8477 44.5938 65.0391 45.1016 64.4219C45.6094 63.7969 46.293 63.4844 47.1523 63.4844C47.7148 63.4844 48.1953 63.6484 48.5938 63.9766C49 64.2969 49.2695 64.6797 49.4023 65.125L48.6289 65.3477C48.5117 65.0352 48.3203 64.7734 48.0547 64.5625C47.7969 64.3516 47.4961 64.2461 47.1523 64.2461C46.5742 64.2461 46.1133 64.4922 45.7695 64.9844C45.4258 65.4766 45.2539 66.0977 45.2539 66.8477C45.2539 67.6445 45.4336 68.2773 45.793 68.7461C46.1523 69.2148 46.6055 69.4492 47.1523 69.4492C47.5195 69.4492 47.8516 69.332 48.1484 69.0977C48.4531 68.8555 48.668 68.5781 48.793 68.2656L49.5664 68.5117C49.4023 68.9805 49.1016 69.3828 48.6641 69.7188C48.2344 70.0469 47.7305 70.2109 47.1523 70.2109C46.3164 70.2109 45.6367 69.9062 45.1133 69.2969C44.5977 68.6875 44.3398 67.8711 44.3398 66.8477ZM50.8555 70V60.8945H51.7461V64.7148H51.7695C51.9258 64.3789 52.1758 64.0898 52.5195 63.8477C52.8711 63.6055 53.2695 63.4844 53.7148 63.4844C55.0742 63.4844 55.7539 64.2969 55.7539 65.9219V70H54.8633V66.0742C54.8633 64.8555 54.4258 64.2461 53.5508 64.2461C53.0664 64.2461 52.6445 64.4453 52.2852 64.8438C51.9258 65.2422 51.7461 65.7148 51.7461 66.2617V70H50.8555ZM57.1484 66.8008C57.1484 65.8164 57.4141 65.0195 57.9453 64.4102C58.4766 63.793 59.1641 63.4844 60.0078 63.4844C60.8672 63.4844 61.543 63.7852 62.0352 64.3867C62.5273 64.9805 62.7734 65.7422 62.7734 66.6719C62.7734 66.7812 62.7656 66.9375 62.75 67.1406H58.0625C58.0625 67.7734 58.2383 68.3164 58.5898 68.7695C58.9414 69.2227 59.4297 69.4492 60.0547 69.4492C60.4609 69.4492 60.8203 69.3555 61.1328 69.168C61.4453 68.9727 61.6875 68.7148 61.8594 68.3945L62.6328 68.6289C62.4375 69.0898 62.1211 69.4688 61.6836 69.7656C61.2461 70.0625 60.7031 70.2109 60.0547 70.2109C59.1797 70.2109 58.4766 69.8984 57.9453 69.2734C57.4141 68.6484 57.1484 67.8242 57.1484 66.8008ZM58.0859 66.4492H61.8594C61.8594 65.832 61.6914 65.3125 61.3555 64.8906C61.0195 64.4609 60.5703 64.2461 60.0078 64.2461C59.4375 64.2461 58.9766 64.4648 58.625 64.9023C58.2812 65.3398 58.1016 65.8555 58.0859 66.4492ZM64.2031 70V63.6953H65.0703V64.6094C65.1953 64.3281 65.4023 64.0703 65.6914 63.8359C65.9805 63.6016 66.3516 63.4844 66.8047 63.4844C67.1406 63.4844 67.4375 63.5391 67.6953 63.6484V64.4688C67.4141 64.3594 67.1172 64.3047 66.8047 64.3047C66.2734 64.3047 65.8594 64.5039 65.5625 64.9023C65.2656 65.3008 65.1172 65.8281 65.1172 66.4844V70H64.2031ZM68.8789 61.5039V60.1562H70.4492V61.1641C70.4492 62.4062 70.0664 63.3477 69.3008 63.9883L68.7734 63.543C69.0703 63.2617 69.2773 62.9688 69.3945 62.6641C69.5117 62.3516 69.5703 61.9648 69.5703 61.5039H68.8789ZM72.207 68.7578L72.8867 68.3594C73.3477 69.0859 73.9727 69.4492 74.7617 69.4492C75.2383 69.4492 75.6172 69.3633 75.8984 69.1914C76.1875 69.0195 76.332 68.7695 76.332 68.4414C76.332 68.3008 76.2969 68.1758 76.2266 68.0664C76.1562 67.9492 76.0781 67.8555 75.9922 67.7852C75.9141 67.707 75.7695 67.625 75.5586 67.5391C75.3477 67.4453 75.1719 67.3789 75.0312 67.3398C74.8984 67.293 74.6758 67.2188 74.3633 67.1172C74.0898 67.0312 73.8555 66.9453 73.6602 66.8594C73.4648 66.7734 73.2617 66.6602 73.0508 66.5195C72.8398 66.3711 72.6758 66.1914 72.5586 65.9805C72.4492 65.7695 72.3945 65.5273 72.3945 65.2539C72.3945 64.7305 72.6055 64.3047 73.0273 63.9766C73.4492 63.6484 74.0273 63.4844 74.7617 63.4844C75.2773 63.4844 75.75 63.6211 76.1797 63.8945C76.6094 64.168 76.918 64.4883 77.1055 64.8555L76.4961 65.2539C76.332 64.9805 76.0938 64.7461 75.7812 64.5508C75.4766 64.3477 75.1367 64.2461 74.7617 64.2461C74.2852 64.2461 73.9219 64.3398 73.6719 64.5273C73.4297 64.707 73.3086 64.9531 73.3086 65.2656C73.3086 65.4453 73.3555 65.6094 73.4492 65.7578C73.543 65.8984 73.6836 66.0234 73.8711 66.1328C74.0664 66.2344 74.2422 66.3164 74.3984 66.3789C74.5625 66.4336 74.7773 66.5039 75.043 66.5898C75.2695 66.6602 75.4688 66.7266 75.6406 66.7891C75.8203 66.8516 76.0156 66.9375 76.2266 67.0469C76.4375 67.1562 76.6133 67.2734 76.7539 67.3984C76.8945 67.5156 77.0117 67.668 77.1055 67.8555C77.1992 68.0352 77.2461 68.2305 77.2461 68.4414C77.2461 68.9414 77.0234 69.3633 76.5781 69.707C76.1406 70.043 75.5352 70.2109 74.7617 70.2109C74.1992 70.2109 73.6992 70.0859 73.2617 69.8359C72.8242 69.5781 72.4727 69.2188 72.207 68.7578ZM3.21875 82V73.2227H4.4375L6.35938 77.9453C6.48438 78.2734 6.65234 78.7227 6.86328 79.293C7.08203 79.8555 7.19531 80.1484 7.20312 80.1719H7.25C7.29688 80.0547 7.58203 79.3125 8.10547 77.9453L10.0156 73.2227H11.2578V82H10.3203V77.043C10.3203 76.4102 10.3594 75.5234 10.4375 74.3828H10.3906L9.94531 75.5547L7.64844 81.3438H6.82812L4.53125 75.5547L4.0625 74.3828H4.01562C4.10938 75.6406 4.15625 76.5273 4.15625 77.043V82H3.21875ZM13.8711 80.3828C13.8711 80.6797 13.9961 80.9336 14.2461 81.1445C14.4961 81.3477 14.8398 81.4492 15.2773 81.4492C15.832 81.4492 16.3047 81.2695 16.6953 80.9102C17.0938 80.5508 17.293 80.0938 17.293 79.5391V78.6602C16.9492 78.7461 16.4023 78.8477 15.6523 78.9648C15.043 79.0742 14.5938 79.2422 14.3047 79.4688C14.0156 79.6953 13.8711 80 13.8711 80.3828ZM12.957 80.4531C12.957 79.2812 13.8633 78.5547 15.6758 78.2734C16.4883 78.1406 17.0273 78.0312 17.293 77.9453V77.582C17.293 77.1914 17.1523 76.8672 16.8711 76.6094C16.5898 76.3516 16.1914 76.2227 15.6758 76.2227C15.3008 76.2227 14.9375 76.3125 14.5859 76.4922C14.2422 76.6641 13.9492 76.8984 13.707 77.1953L13.1211 76.7031C13.4336 76.3438 13.8086 76.0508 14.2461 75.8242C14.6914 75.5977 15.1602 75.4844 15.6523 75.4844C17.3398 75.4844 18.1836 76.3086 18.1836 77.957V82H17.3164V80.9688C17.1914 81.3047 16.9336 81.5977 16.543 81.8477C16.1523 82.0898 15.6914 82.2109 15.1602 82.2109C14.4648 82.2109 13.9219 82.0469 13.5312 81.7188C13.1484 81.3906 12.957 80.9688 12.957 80.4531ZM19.4844 80.7578L20.1641 80.3594C20.625 81.0859 21.25 81.4492 22.0391 81.4492C22.5156 81.4492 22.8945 81.3633 23.1758 81.1914C23.4648 81.0195 23.6094 80.7695 23.6094 80.4414C23.6094 80.3008 23.5742 80.1758 23.5039 80.0664C23.4336 79.9492 23.3555 79.8555 23.2695 79.7852C23.1914 79.707 23.0469 79.625 22.8359 79.5391C22.625 79.4453 22.4492 79.3789 22.3086 79.3398C22.1758 79.293 21.9531 79.2188 21.6406 79.1172C21.3672 79.0312 21.1328 78.9453 20.9375 78.8594C20.7422 78.7734 20.5391 78.6602 20.3281 78.5195C20.1172 78.3711 19.9531 78.1914 19.8359 77.9805C19.7266 77.7695 19.6719 77.5273 19.6719 77.2539C19.6719 76.7305 19.8828 76.3047 20.3047 75.9766C20.7266 75.6484 21.3047 75.4844 22.0391 75.4844C22.5547 75.4844 23.0273 75.6211 23.457 75.8945C23.8867 76.168 24.1953 76.4883 24.3828 76.8555L23.7734 77.2539C23.6094 76.9805 23.3711 76.7461 23.0586 76.5508C22.7539 76.3477 22.4141 76.2461 22.0391 76.2461C21.5625 76.2461 21.1992 76.3398 20.9492 76.5273C20.707 76.707 20.5859 76.9531 20.5859 77.2656C20.5859 77.4453 20.6328 77.6094 20.7266 77.7578C20.8203 77.8984 20.9609 78.0234 21.1484 78.1328C21.3438 78.2344 21.5195 78.3164 21.6758 78.3789C21.8398 78.4336 22.0547 78.5039 22.3203 78.5898C22.5469 78.6602 22.7461 78.7266 22.918 78.7891C23.0977 78.8516 23.293 78.9375 23.5039 79.0469C23.7148 79.1562 23.8906 79.2734 24.0312 79.3984C24.1719 79.5156 24.2891 79.668 24.3828 79.8555C24.4766 80.0352 24.5234 80.2305 24.5234 80.4414C24.5234 80.9414 24.3008 81.3633 23.8555 81.707C23.418 82.043 22.8125 82.2109 22.0391 82.2109C21.4766 82.2109 20.9766 82.0859 20.5391 81.8359C20.1016 81.5781 19.75 81.2188 19.4844 80.7578ZM26.3633 78.8359C26.3633 79.6328 26.5352 80.2695 26.8789 80.7461C27.2305 81.2148 27.6758 81.4492 28.2148 81.4492C28.7617 81.4492 29.1992 81.2109 29.5273 80.7344C29.8555 80.25 30.0195 79.6172 30.0195 78.8359C30.0195 78.0703 29.8516 77.4492 29.5156 76.9727C29.1797 76.4883 28.7461 76.2461 28.2148 76.2461C27.6289 76.2461 27.1719 76.4883 26.8438 76.9727C26.5234 77.457 26.3633 78.0781 26.3633 78.8359ZM25.4492 78.8359C25.4492 77.8125 25.6953 77 26.1875 76.3984C26.6875 75.7891 27.3242 75.4844 28.0977 75.4844C28.5273 75.4844 28.9102 75.6055 29.2461 75.8477C29.5898 76.0898 29.8555 76.418 30.043 76.832V75.6953H30.9102V84.7539H30.0195V80.9102C29.8633 81.2852 29.6172 81.5977 29.2812 81.8477C28.9453 82.0898 28.5508 82.2109 28.0977 82.2109C27.3789 82.2109 26.7578 81.9219 26.2344 81.3438C25.7109 80.7578 25.4492 79.9219 25.4492 78.8359ZM32.7617 79.7852V75.6953H33.6758V79.5977C33.6758 80.832 34.1289 81.4492 35.0352 81.4492C35.5898 81.4492 36.0117 81.2344 36.3008 80.8047C36.5977 80.375 36.7461 79.8672 36.7461 79.2812V75.6953H37.6367V82H36.7695V80.9805C36.707 81.2383 36.5117 81.5078 36.1836 81.7891C35.8633 82.0703 35.4102 82.2109 34.8242 82.2109C34.2227 82.2109 33.7266 82.0078 33.3359 81.6016C32.9531 81.1875 32.7617 80.582 32.7617 79.7852ZM39.1016 78.8008C39.1016 77.8164 39.3672 77.0195 39.8984 76.4102C40.4297 75.793 41.1172 75.4844 41.9609 75.4844C42.8203 75.4844 43.4961 75.7852 43.9883 76.3867C44.4805 76.9805 44.7266 77.7422 44.7266 78.6719C44.7266 78.7812 44.7188 78.9375 44.7031 79.1406H40.0156C40.0156 79.7734 40.1914 80.3164 40.543 80.7695C40.8945 81.2227 41.3828 81.4492 42.0078 81.4492C42.4141 81.4492 42.7734 81.3555 43.0859 81.168C43.3984 80.9727 43.6406 80.7148 43.8125 80.3945L44.5859 80.6289C44.3906 81.0898 44.0742 81.4688 43.6367 81.7656C43.1992 82.0625 42.6562 82.2109 42.0078 82.2109C41.1328 82.2109 40.4297 81.8984 39.8984 81.2734C39.3672 80.6484 39.1016 79.8242 39.1016 78.8008ZM40.0391 78.4492H43.8125C43.8125 77.832 43.6445 77.3125 43.3086 76.8906C42.9727 76.4609 42.5234 76.2461 41.9609 76.2461C41.3906 76.2461 40.9297 76.4648 40.5781 76.9023C40.2344 77.3398 40.0547 77.8555 40.0391 78.4492ZM46.1562 82V75.6953H47.0234V76.6094C47.1484 76.3281 47.3555 76.0703 47.6445 75.8359C47.9336 75.6016 48.3047 75.4844 48.7578 75.4844C49.0938 75.4844 49.3906 75.5391 49.6484 75.6484V76.4688C49.3672 76.3594 49.0703 76.3047 48.7578 76.3047C48.2266 76.3047 47.8125 76.5039 47.5156 76.9023C47.2188 77.3008 47.0703 77.8281 47.0703 78.4844V82H46.1562ZM50.9609 80.3828C50.9609 80.6797 51.0859 80.9336 51.3359 81.1445C51.5859 81.3477 51.9297 81.4492 52.3672 81.4492C52.9219 81.4492 53.3945 81.2695 53.7852 80.9102C54.1836 80.5508 54.3828 80.0938 54.3828 79.5391V78.6602C54.0391 78.7461 53.4922 78.8477 52.7422 78.9648C52.1328 79.0742 51.6836 79.2422 51.3945 79.4688C51.1055 79.6953 50.9609 80 50.9609 80.3828ZM50.0469 80.4531C50.0469 79.2812 50.9531 78.5547 52.7656 78.2734C53.5781 78.1406 54.1172 78.0312 54.3828 77.9453V77.582C54.3828 77.1914 54.2422 76.8672 53.9609 76.6094C53.6797 76.3516 53.2812 76.2227 52.7656 76.2227C52.3906 76.2227 52.0273 76.3125 51.6758 76.4922C51.332 76.6641 51.0391 76.8984 50.7969 77.1953L50.2109 76.7031C50.5234 76.3438 50.8984 76.0508 51.3359 75.8242C51.7812 75.5977 52.25 75.4844 52.7422 75.4844C54.4297 75.4844 55.2734 76.3086 55.2734 77.957V82H54.4062V80.9688C54.2812 81.3047 54.0234 81.5977 53.6328 81.8477C53.2422 82.0898 52.7812 82.2109 52.25 82.2109C51.5547 82.2109 51.0117 82.0469 50.6211 81.7188C50.2383 81.3906 50.0469 80.9688 50.0469 80.4531ZM56.668 78.8359C56.668 77.7969 56.918 76.9805 57.418 76.3867C57.918 75.7852 58.5508 75.4844 59.3164 75.4844C59.7773 75.4844 60.1758 75.6172 60.5117 75.8828C60.8555 76.1484 61.0977 76.4531 61.2383 76.7969V72.8945H62.1289V82H61.2617V80.8633C61.0977 81.2539 60.8438 81.5781 60.5 81.8359C60.1641 82.0859 59.7695 82.2109 59.3164 82.2109C58.9961 82.2109 58.6836 82.1445 58.3789 82.0117C58.082 81.8867 57.8008 81.6992 57.5352 81.4492C57.2773 81.1914 57.0664 80.8398 56.9023 80.3945C56.7461 79.9414 56.668 79.4219 56.668 78.8359ZM57.582 78.8359C57.582 79.625 57.7539 80.2578 58.0977 80.7344C58.4414 81.2109 58.8867 81.4492 59.4336 81.4492C59.9414 81.4492 60.3711 81.2148 60.7227 80.7461C61.082 80.2695 61.2617 79.6328 61.2617 78.8359C61.2617 78.0469 61.082 77.418 60.7227 76.9492C60.3711 76.4805 59.9414 76.2461 59.4336 76.2461C58.8789 76.2461 58.4297 76.4844 58.0859 76.9609C57.75 77.4297 57.582 78.0547 57.582 78.8359ZM63.6523 78.8008C63.6523 77.8164 63.918 77.0195 64.4492 76.4102C64.9805 75.793 65.668 75.4844 66.5117 75.4844C67.3711 75.4844 68.0469 75.7852 68.5391 76.3867C69.0312 76.9805 69.2773 77.7422 69.2773 78.6719C69.2773 78.7812 69.2695 78.9375 69.2539 79.1406H64.5664C64.5664 79.7734 64.7422 80.3164 65.0938 80.7695C65.4453 81.2227 65.9336 81.4492 66.5586 81.4492C66.9648 81.4492 67.3242 81.3555 67.6367 81.168C67.9492 80.9727 68.1914 80.7148 68.3633 80.3945L69.1367 80.6289C68.9414 81.0898 68.625 81.4688 68.1875 81.7656C67.75 82.0625 67.207 82.2109 66.5586 82.2109C65.6836 82.2109 64.9805 81.8984 64.4492 81.2734C63.918 80.6484 63.6523 79.8242 63.6523 78.8008ZM64.5898 78.4492H68.3633C68.3633 77.832 68.1953 77.3125 67.8594 76.8906C67.5234 76.4609 67.0742 76.2461 66.5117 76.2461C65.9414 76.2461 65.4805 76.4648 65.1289 76.9023C64.7852 77.3398 64.6055 77.8555 64.5898 78.4492Z" fill="white"/>
<path d="M104.961 67.2512C104.538 66.8545 104.037 66.5399 103.485 66.3252C102.932 66.1105 102.34 66 101.743 66C101.145 66 100.553 66.1105 100.001 66.3252C99.4484 66.5399 98.9467 66.8545 98.5241 67.2512L97.6471 68.074L96.7701 67.2512C95.9165 66.4503 94.7588 66.0004 93.5516 66.0004C92.3445 66.0004 91.1867 66.4503 90.3331 67.2512C89.4795 68.052 89 69.1382 89 70.2708C89 71.4034 89.4795 72.4896 90.3331 73.2904L97.6471 80.1525L104.961 73.2904C105.384 72.894 105.719 72.4232 105.948 71.9051C106.177 71.387 106.295 70.8316 106.295 70.2708C106.295 69.71 106.177 69.1546 105.948 68.6365C105.719 68.1184 105.384 67.6477 104.961 67.2512Z" fill="#34C759"/>
<defs>
<filter id="filter0_d_224_59" x="68" y="0" width="46" height="57" filterUnits="userSpaceOnUse" color-interpolation-filters="sRGB">
<feFlood flood-opacity="0" result="BackgroundImageFix"/>
<feColorMatrix in="SourceAlpha" type="matrix" values="0 0 0 0 0 0 0 0 0 0 0 0 0 0 0 0 0 0 127 0" result="hardAlpha"/>
<feOffset dx="9" dy="4"/>
<feGaussianBlur stdDeviation="1"/>
<feComposite in2="hardAlpha" operator="out"/>
<feColorMatrix type="matrix" values="0 0 0 0 0 0 0 0 0 0 0 0 0 0 0 0 0 0 0.46 0"/>
<feBlend mode="normal" in2="BackgroundImageFix" result="effect1_dropShadow_224_59"/>
<feBlend mode="normal" in="SourceGraphic" in2="effect1_dropShadow_224_59" result="shape"/>
</filter>
<filter id="filter1_d_224_59" x="51" y="0" width="46" height="57" filterUnits="userSpaceOnUse" color-interpolation-filters="sRGB">
<feFlood flood-opacity="0" result="BackgroundImageFix"/>
<feColorMatrix in="SourceAlpha" type="matrix" values="0 0 0 0 0 0 0 0 0 0 0 0 0 0 0 0 0 0 127 0" result="hardAlpha"/>
<feOffset dx="9" dy="4"/>
<feGaussianBlur stdDeviation="1"/>
<feComposite in2="hardAlpha" operator="out"/>
<feColorMatrix type="matrix" values="0 0 0 0 0 0 0 0 0 0 0 0 0 0 0 0 0 0 0.46 0"/>
<feBlend mode="normal" in2="BackgroundImageFix" result="effect1_dropShadow_224_59"/>
<feBlend mode="normal" in="SourceGraphic" in2="effect1_dropShadow_224_59" result="shape"/>
</filter>
<filter id="filter2_d_224_59" x="34" y="0" width="46" height="57" filterUnits="userSpaceOnUse" color-interpolation-filters="sRGB">
<feFlood flood-opacity="0" result="BackgroundImageFix"/>
<feColorMatrix in="SourceAlpha" type="matrix" values="0 0 0 0 0 0 0 0 0 0 0 0 0 0 0 0 0 0 127 0" result="hardAlpha"/>
<feOffset dx="9" dy="4"/>
<feGaussianBlur stdDeviation="1"/>
<feComposite in2="hardAlpha" operator="out"/>
<feColorMatrix type="matrix" values="0 0 0 0 0 0 0 0 0 0 0 0 0 0 0 0 0 0 0.46 0"/>
<feBlend mode="normal" in2="BackgroundImageFix" result="effect1_dropShadow_224_59"/>
<feBlend mode="normal" in="SourceGraphic" in2="effect1_dropShadow_224_59" result="shape"/>
</filter>
<filter id="filter3_d_224_59" x="17" y="0" width="46" height="57" filterUnits="userSpaceOnUse" color-interpolation-filters="sRGB">
<feFlood flood-opacity="0" result="BackgroundImageFix"/>
<feColorMatrix in="SourceAlpha" type="matrix" values="0 0 0 0 0 0 0 0 0 0 0 0 0 0 0 0 0 0 127 0" result="hardAlpha"/>
<feOffset dx="9" dy="4"/>
<feGaussianBlur stdDeviation="1"/>
<feComposite in2="hardAlpha" operator="out"/>
<feColorMatrix type="matrix" values="0 0 0 0 0 0 0 0 0 0 0 0 0 0 0 0 0 0 0.46 0"/>
<feBlend mode="normal" in2="BackgroundImageFix" result="effect1_dropShadow_224_59"/>
<feBlend mode="normal" in="SourceGraphic" in2="effect1_dropShadow_224_59" result="shape"/>
</filter>
<filter id="filter4_d_224_59" x="0" y="0" width="46" height="57" filterUnits="userSpaceOnUse" color-interpolation-filters="sRGB">
<feFlood flood-opacity="0" result="BackgroundImageFix"/>
<feColorMatrix in="SourceAlpha" type="matrix" values="0 0 0 0 0 0 0 0 0 0 0 0 0 0 0 0 0 0 127 0" result="hardAlpha"/>
<feOffset dx="9" dy="4"/>
<feGaussianBlur stdDeviation="1"/>
<feComposite in2="hardAlpha" operator="out"/>
<feColorMatrix type="matrix" values="0 0 0 0 0 0 0 0 0 0 0 0 0 0 0 0 0 0 0.46 0"/>
<feBlend mode="normal" in2="BackgroundImageFix" result="effect1_dropShadow_224_59"/>
<feBlend mode="normal" in="SourceGraphic" in2="effect1_dropShadow_224_59" result="shape"/>
</filter>
</defs>
</svg>
