<?xml version="1.0" encoding="UTF-8"?>
<svg xmlns="http://www.w3.org/2000/svg" viewBox="0 0 200 260">
  <style>
    .flame, .skull { fill: #000000; }
  </style>

  <!-- Skull -->
  <g class="skull" transform="translate(10.00, 85.00) scale(1.2)">
    <path d="M119.2,61.5c-.6-2-1.2-4.2-2.2-6.1-1.9-3.9-5.2-6.5-7.9-10-2-2.6-3.7-5.4-5.4-8.3-.1-.2-.2-.3-.3-.5-.1-.2-.2-.5-.4-.8-.7.2-1.5.3-2.4.3-1.8,0-3.5-.4-4.6-.7-2.7-.8-5.5-1.5-7.8-1.5s-5,1.2-6.8,3.8c-3.7,5.5-7.5,7.7-13.9,7.8h-.2c-1.5,0-2.9-.2-4-.4-1-.2-2-.3-3-.3s-.4,0-.6,0c-4.5.3-6.7,1.3-7.9,3.5-.2.4-.5,1.2-.8,2.1-1.4,4-3.4,9.5-8.1,9.5s-3-.7-4.4-1.9c-2.5-2.3-3.8-5.2-5-8-.9-1.9-1.7-3.8-2.8-5.2-1.8-2.2-3.1-2.7-4.7-2.7s-2.9.3-4.8.7h-.1c-2.8.5-4.4,1.8-6.6,5.1-3.8,5.8-6.4,13.5-6.7,20.2-.1,3.1,1.1,5.4,2.5,8.2.8,1.5,1.6,3,2.2,4.8,1.4,3.8,1.5,7.4,1.6,11,0,2.5.1,4.9.6,7.2.3,1.2,1.4,2.9,2.5,4.5,2.1,3.1,4.4,6.5,3.6,10.5,0,.2-.1.4-.2.7,7.1,8,13.6,13,15.5,13.9,4,1.8,23.3-5,27.7-4.6,3.6.4,6,4.3,7.4,7.2.7,1.3,2.5,8.8,3.9,9.1.9.1,1.9-.2,2.9-.5.4-.1.9-.3,1.3-.3,1.4-.4,2.4-.7,2.9-.9-.3-.8-.7-1.9-1-2.7-1.1-2.9-1.9-5.6-2-8.8,3-1.3,4.1,5.9,4.8,7.7.4,1.1.8,2.3,1.1,3.1,1.2-.3,3.1-1,5-1.6,1.9-.6,3.8-1.3,5-1.7-.5-1.4-.8-2.8-1.4-4.1-.5-1.1-1.1-1.8-1.3-3.1-.1-.8-.6-5.7,1.4-4.5,1.2.8,1.7,2.6,2.1,3.9.4,1.4,1,2.7,1.4,4.1.3.9.8,2.2,1.1,2.9.4-.1,1-.3,1.7-.4,1.8-.5,5.5-1.4,7.1-1.9-.1-.6-.4-1.5-.8-2.7-.6-1.8-1-3.6-1.3-5.5,0-.7,0-1.4.6-2,.7-.6,3.3,6,3.6,6.5.5,1.1.8,2.4,2,2.6,1.6.3,3.2-1,4.5-1.6,1.4-.7,2.9-1.2,3.4-2.8.7-2.4-.6-4.9-2.1-6.7-1.6-2-2.9-4.3-3.8-6.7-1.1-2.9-3.6-15.1-3.5-16,.6-3.8,2.9-6.7,6.6-8.3,2.9-1.3,4.5-3.9,4.7-7.2.1-1.6-.1-3.2.2-4.7.3-1.5.5-2.6.3-4.2-.4-3.8-1.3-7.5-2.5-11.1h0ZM79.3,84.5c-.4,13.3-15.5,23.5-27,11.4-6.9-6.9-7.9-20.4,1-26,10.8-7,25,2.1,26.1,14.4v.2h0ZM92.8,100.6c-5.9-16.6-.5-18.6,5.1-1.2,1,3.1-4.1,4.4-5.1,1.2ZM113.7,83v.2c-6.7,8.9-18.4,1.6-20.8-9.5-3-11.7,5.5-24.4,16.3-17.1,8.5,4.9,10.3,19,4.5,26.4h0Z"/>
    <path d="M3.3,83.4c-.8-.5-1.7-1.1-2.5-1.8.4,1.3.9,2.6,1.5,4.1,1.1,2.7,2.3,5.2,3.6,7.7.1-1.5.1-3,.2-4.4h0c0-2.5,0-3.5-.9-4.3-.4-.4-1.1-.9-1.8-1.3h0Z"/>
    <path d="M12.1,100c-.2-.8-.3-1.5-.4-2.2-.3-2.6-.3-5.3-.4-7.9,0-1.5-.2-3-.4-4.4-.2-1.1-.5-2.2-.9-3.3-.2-.6-.5-1.2-.8-1.8-1.1-2.3-2.4-4.4-3.2-6.7-.6-1.7-1.1-3.6-1-5.7,0-.5,0-.9,0-1.4,0-.9.2-1.9.3-2.8.3-1.9.7-3.8,1.3-5.7.1-.5.3-.9.4-1.4.3-.9.6-1.9,1-2.8.4-.9.8-1.8,1.2-2.7.8-1.8,1.8-3.4,2.8-4.9.6-.9,1.1-1.6,1.7-2.3,1.2-1.4,2.5-2.4,4.1-3.2.8-.4,1.7-.6,2.7-.8.4,0,.9-.2,1.3-.2.1,0,.2,0,.3,0,.4,0,.9-.2,1.3-.2,0,0,0,0,.1,0,.4,0,.7,0,1.1-.1,0,0,.2,0,.3,0,.4,0,.7,0,1.1,0h.2c.2,0,.4,0,.6,0,.1,0,.2,0,.3,0,.2,0,.4,0,.6,0,.1,0,.2,0,.3,0,.2,0,.4,0,.6.2,0,0,.1,0,.2,0,.3,0,.5.2.8.3,0,0,0,0,.1,0,.2.1.4.2.6.4,0,0,.2.1.3.2.2.1.4.3.5.4,0,0,.2.2.3.2.2.2.4.3.6.5,0,0,.2.2.2.2.3.3.5.6.8.9,2.8,3.4,3.7,8.1,6.3,11.6.4.5.8,1,1.3,1.4.2.2.4.3.6.4,0,0,.1,0,.1.1.1,0,.3.2.4.2,0,0,0,0,.1,0,.2,0,.3.1.5.2,0,0,0,0,0,0,.1,0,.3,0,.4,0h.1c.2,0,.4,0,.5,0,0,0,0,0,0,0,.2,0,.3-.1.5-.2,0,0,0,0,0,0,.2,0,.3-.2.5-.3,0,0,0,0,0,0,.1-.1.3-.3.4-.4,0,0,0,0,0,0,.1-.2.3-.3.4-.5,0,0,0,0,0,0,.1-.2.3-.4.4-.6,0,0,0,0,0-.1.1-.2.2-.4.4-.7,0,0,0,0,0,0,.1-.2.2-.5.3-.7,0,0,0,0,0-.1.1-.2.2-.5.3-.7,0,0,0,0,0-.1.1-.2.2-.5.3-.8,0,0,0,0,0,0,.1-.2.2-.5.3-.7,0,0,0,0,0-.1,0-.2.2-.5.3-.7,0-.2.2-.5.3-.7,0,0,0,0,0,0,0-.2.1-.4.2-.6,0,0,0,0,0-.1,0-.2.1-.3.2-.5,0,0,0,0,0,0,0-.2.1-.3.2-.4.1-.2.3-.5.4-.7.9-1.4,2-2.3,3.4-2.9.4-.2.9-.4,1.4-.6.2,0,.5-.2.7-.2,1.1-.3,2.2-.5,3.3-.6.4,0,.8,0,1.1,0h0c.3,0,.5,0,.8,0h.1c.1,0,.3,0,.4,0,.2,0,.4,0,.6,0,.1,0,.3,0,.4,0,.2,0,.4,0,.6,0,.1,0,.3,0,.4,0,.2,0,.4,0,.6,0,.2,0,.5,0,.7.1.2,0,.3,0,.5,0,.2,0,.5,0,.7,0,0,0,.2,0,.3,0,.3,0,.6,0,1,0h.2c.2,0,.5,0,.7,0h.2c5.6,0,8.4-2,11.4-6.5.2-.4.5-.7.8-1.1,0,0,0,0,.1-.2.2-.3.5-.6.8-.9,0,0,.1,0,.1-.2.3-.3.5-.5.8-.7,0,0,0,0,.1,0,.3-.2.6-.4.9-.6,0,0,0,0,0,0,.3-.2.6-.3.9-.5,0,0,.1,0,.1,0,.3-.1.6-.2.9-.4,0,0,.1,0,.2,0,.3,0,.6-.2,1-.3,0,0,0,0,0,0,.3,0,.6-.1,1-.2,0,0,0,0,.1,0,.3,0,.7,0,1,0h.4c.2,0,.4,0,.7,0h.3c.4,0,.8,0,1.1,0,0,0,.2,0,.3,0,.3,0,.6,0,.9.1.1,0,.3,0,.4,0,.2,0,.5,0,.8.2.2,0,.3,0,.5,0,.3,0,.5.1.8.2.1,0,.3,0,.5.1.3,0,.6.2.9.2.1,0,.3,0,.4.1.4.1.8.2,1.3.4.2,0,.5.1.8.2,0,0,.1,0,.2,0,.2,0,.5,0,.7.2,0,0,0,0,.1,0,.3,0,.6,0,.9.1,0,0,.1,0,.2,0,.2,0,.5,0,.7,0h.2c.2,0,.5,0,.8,0h0s0,0,0,0c.2,0,.4,0,.6-.1,0,0,.1,0,.2,0,.1,0,.3,0,.4-.2s.1,0,.2,0c.1,0,.3-.2.4-.3,0,0,0,0,.1,0,.1-.1.3-.3.4-.5,0,0,0,0,0-.1,0-.1.1-.3.2-.5,0,0,0-.2,0-.2,0-.2,0-.3,0-.5,0,0,0-.2,0-.2,0-.3,0-.6,0-.9-.5-3-6.1-6.3-8.4-7.8-.7-.4-1.4-.9-2.1-1.3s-1.4-.8-2.1-1.2c-.7-.4-1.4-.8-2.1-1.1-.7-.4-1.4-.7-2-1.1-.7-.3-1.3-.6-1.9-.9-.9-.4-1.8-.8-2.5-1.2s-1.3-.6-1.8-.8c-1.8-.8-4.7-1.6-5.9-3.3-.9-1.2-.5-10.5-1.9-10.6-.2,0-.4,0-.5,0-.1,0-.2,0-.4,0-.1,0-.3,0-.4.1s-.2,0-.4.1c-.1,0-.3.1-.5.2-.1,0-.2,0-.4.2-.2,0-.3.2-.5.2-.1,0-.2.1-.3.2-.2,0-.4.2-.5.3-.2,0-.4.2-.5.3-.2,0-.4.2-.5.3-.2,0-.3.2-.5.3-.1,0-.2.1-.3.2-.2.1-.5.2-.7.3-.8.3-1.5.5-2.2.8-2.3.7-4.6,1.1-7.1,1.4-5.2.7-10.6,1.7-15.8,1.8h-.1c-.3,0-.5,0-.8,0,0,0-.1,0-.2,0-.2,0-.5,0-.7,0h-.3c-.2-.1-.4-.1-.6-.2-.2,0-.4,0-.6-.1-.2,0-.4,0-.6-.1-.2,0-.5,0-.8-.1,0,0,0,0-.1,0-.3,0-.6,0-.8,0,0,0-.2,0-.2,0-.2,0-.4,0-.6,0h-.2c-.3,0-.5,0-.8,0,0,1.2,0,2.3-.1,3.2,0,.5,0,.9-.1,1.3-.1.8-.3,1.5-.6,2.2-.5,1.1-1.4,2-2.9,3.2-2.4,1.9-5.1,3.6-7.4,5.5-1.1.9-2.1,1.8-3.1,2.7-2.5,2.3-4.8,4.9-6.9,7.7-.8,1.1-1.6,2.2-2.4,3.4-.4.6-.8,1.2-1.1,1.7-1.5,2.3-2.8,4.8-3.9,7.3-.6,1.2-1.1,2.4-1.5,3.6,0,0,0,.1,0,.2-.5,1.3-1,2.7-1.4,4s-.8,2.7-1.1,4.1c-.6,2.8-1.1,5.6-1.3,8.4-.2,2.9-.7,6.3-.2,9.4.1.6.2,1.2.4,1.8.4,1.2.9,2.3,1.8,3.2.3.4.7.7,1.1,1,.4.3.9.6,1.3.9.6.4,1.3.8,1.8,1.2.2.2.5.4.7.7.2.2.4.5.6.7.2.3.4.7.5,1,.6,1.4.6,2.9.6,4.6,0,2.6,0,4.9-.5,7.3,0,.5-.1,1-.2,1.6-.2,1.4-.2,3-.3,4.5,0,.5,0,1.1,0,1.6,0,1,0,2.1,0,3.1v1.5c0,2.9-.9,6.3,1.5,8.2.2.2.5.3.7.5,0,0,.2,0,.2.1.2,0,.3.2.5.2,0,0,.2,0,.3,0,.2,0,.3,0,.5.1,0,0,.2,0,.3,0,.2,0,.4,0,.6,0h.2c.3,0,.6,0,.8,0,0,0,.1,0,.2,0,.2,0,.4,0,.6-.2,0,0,.1,0,.2,0,.3,0,.5-.2.8-.3,0,0,0,0,0,0,.2-.1.4-.2.6-.4,0,0,.1,0,.2-.1.2-.1.3-.3.5-.4,0,0,0,0,.1-.1.2-.2.4-.4.5-.6,0,0,0-.1.1-.2.1-.2.2-.4.3-.6,0,0,0-.1,0-.2.1-.2.2-.5.2-.8.1-.7.1-1.3,0-2-.7-4-5.2-8.1-6.1-11.8h0Z"/>
  </g>

  <!-- Flame -->
  <g class="flame" transform="translate(72.00, 35.00) scale(0.8)">
    <path class="st0" d="M13,12.7c.3,2.7-1,5.3-2.5,8.1-.8,1.3-1.3,3-2.8,3.5-1.1.2-2.3-.8-3.4-1.8C2.4,20.6.3,18.6,0,15.8c-.2-2.9.3-6.2,1.7-8.9.8-1.6,1.5-3.3,2.6-4.7.6-.7,2.1-3,3.1-1.9.6.8-.3,2.7,0,3.6.8,2,2.6,3.3,3.9,5.1.9,1.3,1.4,2.5,1.5,3.7h0Z"/>
  </g>
</svg>
