<?xml version="1.0" encoding="UTF-8"?>
<svg xmlns="http://www.w3.org/2000/svg" viewBox="0 0 200 260">
  <style>
    .flame, .skull { fill: #000000; }
  </style>

  <!-- Skull -->
  <g class="skull" transform="translate(10.00, 85.00) scale(1.2)">
    <path class="st0" d="M30.7,124.6c-.2,2.6-3.7,3-6.1,3.4-.6.1-1.2.2-1.9.2-2.7.7-4.6.4-7.2-.6-1.1-.4-3.4-1-4.2-2.2-.2-.4-.4-.8-.2-1.3,5.2-.3,10-1.9,15.2-2.1,1.2,0,2.3-.2,3.1.1.8.3,1.3,1,1.2,2.6h0Z"/>
    <path d="M120.8,48.3c-.6-2-1.2-4.2-2.2-6.1-.2-.5-.5-1-.9-1.5l-3.2-1c-2.2-.7-3.7-2.3-4.9-3.5-.6-.6-1.1-1.2-1.6-1.6-.5-.4-1-.7-1.6-1.1-2.6-1.8-5.3-3.6-7.6-6.2-.2-.3-.5-.5-.7-.8-1.1-1.3-2.2-2.5-3.3-2.7,0,0-.2,0-.3,0-1.3,0-3.2,1-4.6,1.9-.3.2-.6.3-.8.5-.4.2-.7.4-1.1.6-.3.2-.8.4-1.1.6.3.6.8,1.1,1.2,1.7,1.1,1.4,2.4,3.1,2.9,5.5.5,2.6.1,4.6-1.1,6.1-.8.9-2.2,2-4.6,2s-1,0-1.5-.1c-3.8-.6-7-2.6-9.3-5.9-3.6-5-7.2-8.1-10.8-9.2-2.3-.7-4.7-1.4-6.9-1.4s-3.4.5-4.6,1.6c-1.9,1.7-2.3,2.2-2.4,3.3-.2,3.4.2,7.2.5,10.9.1,1.4.3,2.9.4,4.4,0,1.2.6,3.1,3,3.3.2,0,.7,0,1.1-.1.8,0,1.7-.2,2.5-.2,4.6,0,5.1,3.3,5.1,4v1c8.9-.2,17.5,7.4,18.3,16.8v.2c-.3,12.3-13.3,21.9-24.4,13.7-.6.5-1.4.9-2.3.9s-1.7-.3-2.7-.9c-3.4-2.1-6-9.8-6.4-11.7-.6-2.9-.2-5.7.2-8.2.2-1.1.3-2.2.4-3.2.1-2-.5-3.7-1.3-5.8-.2-.6-.5-1.3-.7-1.9-.6-1.6-1-3.2-1.5-4.8-1.6-5.3-3.1-10.4-6.8-14.2-1.1-1.1-2.3-2.1-3.7-3.1-.5-.4-1-.8-1.4-1.2-1-.8-1.9-1.2-2.7-1.2-1.8,0-4,2.5-6.4,7.3-.5,1-1.1,2.1-1.6,3-.7,1.2-1.3,2.4-1.8,3.5-.5,1.2-.7,2.6-.8,4.1-.1,1-.2,2.1-.4,3.1-.4,1.7-.8,3.3-1.1,4.9-.6,2.6-1.2,5-1.6,7.6-.7,4.6-.1,9.2,1.4,12.7.7,1.5,1.1,3,1.4,4.4.4,1.6.8,3,1.5,4.3,1.6,2.8,3.4,5.9,5.1,8.9,1.4,2.6,2.5,5.5,3.4,8.1,0,0,0,.2.1.3.4.8.9,2.1.6,3.5.3.5.5,1.1.7,1.8,4.8,4.7,8.6,7.5,10,8.2,4,1.8,23.3-5,27.7-4.6,3.6.4,6,4.3,7.4,7.2.7,1.3,2.5,8.8,3.9,9.1.9.1,1.9-.2,2.9-.5.4-.1.9-.3,1.3-.3,1.4-.4,2.4-.7,2.9-.9-.3-.8-.7-1.9-1-2.7-1.1-2.9-1.9-5.6-2-8.8,3-1.3,4.1,5.9,4.8,7.7.4,1.1.8,2.3,1.1,3.1,1.2-.3,3.1-1,5-1.6,1.9-.6,3.8-1.3,5-1.7-.5-1.4-.8-2.8-1.4-4.1-.5-1.1-1.1-1.8-1.3-3.1-.1-.8-.6-5.7,1.4-4.5,1.2.8,1.7,2.6,2.1,3.9.4,1.4,1,2.7,1.4,4.1.3.9.8,2.2,1.1,2.9.4-.1,1-.3,1.7-.4,1.8-.5,5.5-1.4,7.1-1.9-.1-.6-.4-1.5-.8-2.7-.6-1.8-1-3.6-1.3-5.5,0-.7,0-1.4.6-2,.7-.6,3.3,6,3.6,6.5.5,1.1.8,2.4,2,2.6,1.6.3,3.2-1,4.5-1.6,1.4-.7,2.9-1.2,3.4-2.8.7-2.4-.6-4.9-2.1-6.7-1.6-2-2.9-4.3-3.8-6.7-1.1-2.9-3.6-15.1-3.5-16,.6-3.8,2.9-6.7,6.6-8.3,2.9-1.3,4.5-3.9,4.7-7.2.1-1.6-.1-3.2.2-4.7.3-1.5.5-2.6.3-4.2-.4-3.8-1.3-7.5-2.5-11.1h0ZM94.4,87.4c-5.9-16.6-.5-18.6,5.1-1.2,1,3.1-4.1,4.4-5.1,1.2ZM115.3,69.9v.2c-6.7,8.9-18.4,1.6-20.8-9.5-3-11.7,5.5-24.4,16.3-17.1,8.5,4.9,10.3,19,4.5,26.4h0Z"/>
    <path d="M3.6,62.3c.4-2.4,1.2-4.6,1.9-6.7.2-.6.4-1.2.6-1.7,1.1-3.2,1.4-6.6,1.6-10.2,0-1.1.2-2.3.3-3.5.3-3,1.2-5.8,2-8.4.6-2,1.2-4,1.6-5.9-.9,1.1-1.9,2.3-2.7,3.5,0,0-.1.2-.2.3l-.2.2s0,0-.1.1c-.6,1.1-1.3,2.2-1.8,3.3,0,0,0,.1-.1.2-.8,1.4-1.4,2.8-1.9,4.2-5.6,15.1-6.3,20.7-.6,34.8,1.4,3.5,3.1,6.9,4.8,10.1-.5-1.2-1.1-2.4-1.6-3.5-2.3-4.9-4.8-9.9-3.5-16.8h0Z"/>
    <path d="M23.9,103.3c0-.1-.1-.3-.2-.4-.8-2.5-1.8-5.3-3.1-7.6-1.7-3-3.4-6-5.1-8.9-1.7-2.9-1.8-6-3.1-9-1.9-4.3-2.4-9.6-1.6-14.4.6-4.4,1.9-8.3,2.8-12.7.5-2.6.4-5.4,1.5-7.8,1-2.2,2.4-4.4,3.5-6.6.1-.2.2-.4.3-.6,0,0,0-.1,0-.2.1-.2.2-.4.4-.7,0,0,0,0,0,0,.1-.2.2-.4.4-.7,0,0,0-.1.1-.2.1-.2.3-.4.4-.7,0,0,0,0,0,0,.1-.2.2-.4.4-.6,0,0,0-.1.1-.2.1-.2.3-.4.4-.7,0,0,0,0,0,0,.1-.2.3-.4.4-.6,0,0,0-.1.1-.2.2-.2.3-.4.5-.6,0,0,0,0,0,0,.1-.2.3-.3.4-.5,0,0,.1,0,.1-.2.2-.2.3-.3.5-.5,0,0,0,0,0,0,.2-.1.3-.3.5-.4,0,0,.1,0,.1-.1.2-.1.4-.3.6-.4,0,0,0,0,0,0,.2-.1.4-.2.5-.3,0,0,.1,0,.2,0,.2,0,.4-.2.6-.2,0,0,0,0,0,0,.2,0,.4,0,.6-.1,0,0,.1,0,.2,0,.2,0,.4,0,.7,0h0c0,0,.2,0,.2,0,0,0,.2,0,.3,0,0,0,.2,0,.3,0,0,0,.2,0,.3,0,0,0,.2,0,.3,0,0,0,.2,0,.3,0,0,0,.2,0,.3,0,.1,0,.2,0,.3.1,0,0,.2,0,.3.1.1,0,.2,0,.3.1s.2.1.3.2c.1,0,.2,0,.3.2.1,0,.3.2.4.3,0,0,.1,0,.2.1.2.2.4.3.6.5,1.8,1.5,3.7,2.8,5.4,4.5,5.4,5.6,6.6,13,9,20.1,1,3.1,2.4,5.6,2.2,8.9-.2,3.5-1.4,7.1-.6,10.6.5,2.3,2.9,8.5,5,9.7.2.1.3.2.5.2,0,0,0,0,0,0,.1,0,.3,0,.4.1h0c0,0,.1,0,.2,0,0,0,0,0,0,0,0,0,0,0,.1,0,0,0,0,0,0,0,0,0,0,0,0-.2,0,0,0,0,0,0,0,0,0-.2,0-.3h0c0-.2,0-.2,0-.3,0,0,0,0,0-.1,0,0,0-.2,0-.2,0,0,0,0,0-.2,0,0,0-.2,0-.3,0,0,0,0,0-.2,0,0,0-.2-.1-.3,0,0,0,0,0-.1,0-.1-.1-.3-.2-.4,0,0,0,0,0,0,0-.1-.1-.2-.2-.3,0,0,0,0,0-.1,0,0,0-.2-.1-.2,0,0,0,0,0-.1,0,0,0-.2-.1-.2,0,0,0,0,0-.1,0,0,0-.1-.1-.2,0,0,0,0,0,0,0,0-.1-.2-.1-.2-2.4-3.4-4-10.2-2.7-14.3.6-1.9,1.6-3.7,2.3-5.6.1-.4.3-.8.4-1.2,1.1-3.4,3.6-3,6.6-3.8,0-.1,0-.2,0-.3,0,0,0,0,0,0,0,0,0-.1-.1-.2,0,0,0,0,0,0,0,0,0,0-.1-.1,0,0,0,0-.1,0,0,0-.1,0-.2,0,0,0,0,0-.1,0,0,0-.1,0-.2,0,0,0-.1,0-.2,0,0,0-.1,0-.2,0,0,0-.1,0-.2,0,0,0-.2,0-.2,0h-.7c0,0-.2,0-.2,0,0,0-.2,0-.3,0,0,0-.2,0-.2,0,0,0-.2,0-.2,0s-.2,0-.3,0c0,0-.2,0-.3,0-.1,0-.3,0-.4,0,0,0-.2,0-.2,0,0,0-.2,0-.2,0,0,0-.1,0-.2,0,0,0-.1,0-.2,0,0,0-.1,0-.2,0h-.4c-3.6-.2-5.6-2.8-5.9-6-.4-5-1.2-10.7-.9-15.7.1-2.5,1.5-3.7,3.4-5.4.3-.2.5-.4.8-.6,0,0,.2-.1.3-.2.2-.1.4-.2.5-.3.1,0,.2-.1.3-.2.2,0,.3-.2.5-.2.1,0,.2,0,.4-.1.2,0,.3-.1.5-.2.1,0,.2,0,.4,0,.2,0,.3,0,.5-.1.1,0,.3,0,.4,0,.2,0,.3,0,.5,0,.1,0,.3,0,.4,0,.2,0,.3,0,.5,0,.1,0,.3,0,.4,0h.5c.2,0,.4,0,.5,0,.1,0,.3,0,.4,0,.2,0,.4,0,.5,0,.1,0,.3,0,.4,0,.2,0,.4,0,.5,0,.1,0,.3,0,.4,0,.2,0,.4,0,.6.1.1,0,.3,0,.4,0,.2,0,.4,0,.6.1.1,0,.2,0,.4,0,.2,0,.4,0,.6.2.1,0,.2,0,.3,0,.2,0,.4.1.6.2.1,0,.2,0,.3,0,.3,0,.6.2.9.3,5.2,1.6,9.3,6,12.3,10.3,1.8,2.6,4.3,4.2,7.3,4.7.4,0,.7,0,1,0h0c.1,0,.2,0,.3,0,.2,0,.4,0,.6,0,.1,0,.2,0,.3,0,.1,0,.3-.1.4-.2,0,0,.2-.1.2-.2.1,0,.2-.2.3-.3,0,0,.1-.2.2-.2,0-.1.1-.2.2-.4,0,0,0-.2.1-.3,0-.2,0-.3.1-.5,0-.1,0-.2,0-.3,0-.2,0-.4,0-.6v-.3c0-.3,0-.7-.1-1.1-.5-2.6-2.6-4.2-3.8-6.3-1.8-3.2.9-3.9,3.4-5.2.3-.2.6-.4,1-.6.2-.1.4-.2.7-.4.1,0,.2-.1.3-.2.2,0,.4-.2.6-.3.1,0,.2-.1.4-.2.2,0,.4-.2.6-.3.1,0,.3-.1.4-.2.2,0,.4-.2.5-.2.1,0,.3,0,.4-.1.2,0,.4-.1.5-.2.1,0,.3,0,.4,0,.2,0,.4,0,.6,0,.1,0,.3,0,.4,0s.1,0,.1,0c.2,0,.5,0,.7,0,2.5.4,4.2,2.6,5.8,4.4,2.5,2.8,5.6,4.7,8.6,6.8,1.6,1.1,2.8,3.1,4.5,4.1.4.2.7.4,1.2.6,0-3.1-3-3.2-4.2-5.3-.2-.3-.3-.9-.4-1.4,0-.7-.1-1.3-.4-1.9-1.8-3.7-4.2-8.9-7.5-11.6-2.1-1.8-5.1-2.2-6.6-4.7-.1-.2-.2-.3-.3-.5,0-.2,0-.5,0-.7,0-.6-.2-1.2-.4-1.7,0-.1-.1-.2-.2-.4,0-.2-.2-.4-.3-.6,0-.1-.2-.3-.2-.4,0-.1-.2-.2-.3-.4-.2-.2-.4-.4-.6-.7-.1-.1-.2-.2-.4-.4-.5-.5-1.1-.9-1.7-1.4-.2-.1-.3-.2-.5-.3-.2,0-.3-.2-.5-.3,0,0-.2,0-.2-.1-.2-.2-.5-.3-.8-.4-.2,0-.4-.2-.5-.3-1-.5-2-.9-3-1.4-1.5-.6-2.6-1.7-4.2-2-.2,0-.4,0-.5,0-.3,0-.7,0-1,0h-.5c-.2,0-.3,0-.5,0-.7,0-1.5,0-2.2-.1-.6,0-1.2,0-1.9,0h-.8c-.2,0-.4,0-.5,0-.1,0-.2,0-.4,0-.2,0-.4,0-.6,0-.1,0-.2,0-.3,0-.3,0-.6.1-.9.2-2.3.6-4.6.8-7,1.2-1.2.2-2.5.3-3.7.6-.7.2-1.5.6-2.3.8-4.5,1.1-9.3,1-13.8,1.5-.7,0-1.4.1-2.2.1h-.2c-.7,0-1.4,0-2.1,0h-2.4c-.2,0-.4,0-.7,0-.1,0-.2,0-.4,0-.2,0-.5,0-.7,0-.1,0-.2,0-.3,0-.3,0-.7,0-1,0,0,0-.1,0-.2,0-.3,0-.6,0-.8.1h-.3c-.2.1-.4.1-.7.2-.1,0-.2,0-.4,0-.2,0-.4.1-.7.2-.1,0-.2,0-.3,0-.3.1-.6.2-1,.3-1.5.6-3.2.8-4.6,1.6-2.9,1.8-5.6,4-8.1,6.4-.5.5-1.4,1.4-2.2,2.4-1.3,1.5-2.3,3.4-1.5,4.8,0,.8.2,1.6.1,2.5,0,.2,0,.3,0,.4-.3,5.7-3.2,10.7-3.8,16.4-.5,4.9-.5,9.7-2.1,14.3-.9,2.6-1.9,5.2-2.4,7.9-1.4,7.8,2.5,12.7,5.3,19.4,0,0,0,.2,0,.3,0,0,0,0,0,0,0,0,0,.2,0,.2,0,0,0,0,0,.1,0,0,0,.2,0,.2,0,0,0,.1,0,.2s0,.1,0,.2,0,.2,0,.2c0,0,0,.1,0,.2,0,0,0,.2,0,.2,0,0,0,.2,0,.2s0,.2,0,.3c0,0,0,.2,0,.2,0,.1,0,.2,0,.3,0,0,0,.1,0,.2,0,.2,0,.3,0,.5h0c0,.2,0,.4,0,.6h0c0,.2,0,.4,0,.6,0,0,0,0,0,.1,0,.2,0,.3,0,.5,0,0,0,.1,0,.2,0,.1,0,.3,0,.4,0,0,0,.1,0,.2,0,.1,0,.2,0,.4h0c0,.1,0,.2,0,.2,0,.1,0,.3,0,.4,0,0,0,.2,0,.2,0,.1,0,.3,0,.4,0,0,0,.2,0,.2,0,.1,0,.2,0,.4,0,0,0,.2,0,.2,0,.1,0,.2,0,.3,0,0,0,.2,0,.2,0,.1,0,.2,0,.3,0,0,0,.2,0,.2,0,0,0,.2,0,.3,0,0,0,.2,0,.2,0,0,0,.2,0,.3,0,0,0,.2,0,.2,0,0,0,.2,0,.3,0,0,0,.1,0,.2,0,0,0,.2.1.2,0,0,0,.1,0,.2,0,0,0,.2.1.2,0,0,0,.1.1.2,0,0,0,.1.1.2,0,0,0,.1.1.2,0,0,0,.1.1.2,0,0,0,0,.1.2,0,0,0,.1.1.2,0,0,0,0,.1.1s.1,0,.1.1c0,0,.1,0,.1,0,0,0,.1,0,.2,0s.1,0,.2,0c0,0,.1,0,.2,0,0,0,.1,0,.2,0,0,0,.1,0,.2,0,0,0,.1,0,.2,0,.1,0,.2,0,.3,0,.2-.5.4-.9.5-1.4,0-.1,0-.2,0-.3.1.4.3.8.5,1.2,0,0,0,0,0,.1,0,0,.2.2.2.3.3.3.5.5.8.7.2.3.4.6.6.9.6,1.1,1.3,2.1,1.9,3.1.1.8.3,1.5.5,2.2.3.7.5,1.7,1.1,2.2,0,.1,0,.3,0,.4s0,.3,0,.4h0c0,.2,0,.3,0,.4,0,0,0,0,0,.2,0,0,0,.2,0,.2,0,0,0,.1,0,.2v.2c0,0,0,.1,0,.2,0,0,0,.2,0,.2,0,0,0,.1,0,.2,0,0,0,.1,0,.2,0,0,0,0,0,.2,0,0,0,.1,0,.2,0,0,0,0,0,.1,0,0,0,.1,0,.2,0,0,0,0,0,.1,0,0,0,.1,0,.2,0,0,0,0,0,.1,0,0,0,0,.1.1,0,0,0,0,.1.1,0,0,0,0,.1.1s0,0,.1,0c0,0,0,0,.1,0,0,0,0,0,.1,0,0,0,.1,0,.2,0,0,0,.1,0,.2,0,0,0,.1,0,.2,0,0,0,.1,0,.2,0h.3c.2-1.8-.8-3-1.4-4.4,1-.3.4-1.4,0-2.3h0Z"/>
  </g>

  <!-- Flame -->
  <g class="flame" transform="translate(72.00, 35.00) scale(0.8)">
    <path class="st0" d="M6.4,7.6c.1,1.5,0,3.2.4,4.7.5,1.8,1.9,3.1,2.5,4.8,1.4,4.7,1.7,10.8-.7,14.9-1.2,2.1-4.5,3.9-6.4,1.7C.9,31.7,0,29.1,0,26.7c0-3.9,2.8-6.9,3.5-10.6.5-2.9,1.5-6.1,2.9-8.5h0s0,0,0,0Z"/>
    <path class="st0" d="M13.4.8c.7-.6,2.9-1.3,3.5-.3-1.1.7-1.9.8-3.2,1-1.2.2-2,1.3-3.1,1.5,0-.7,2.9-2.3,3.7-2.9"/>
  </g>
</svg>
