<svg width="131" height="139" viewBox="0 0 131 139" fill="none" xmlns="http://www.w3.org/2000/svg">
<mask id="path-1-inside-1_232_434" fill="white">
<path d="M0 5.21277C0 2.33384 2.33383 0 5.21277 0H124.828C127.707 0 130.041 2.33383 130.041 5.21277V133.356C130.041 136.234 127.707 138.568 124.828 138.568H5.21276C2.33383 138.568 0 136.234 0 133.356V5.21277Z"/>
</mask>
<path d="M0 5.21277C0 2.33384 2.33383 0 5.21277 0H124.828C127.707 0 130.041 2.33383 130.041 5.21277V133.356C130.041 136.234 127.707 138.568 124.828 138.568H5.21276C2.33383 138.568 0 136.234 0 133.356V5.21277Z" fill="#262626"/>
<path d="M0 5.21277C0 2.33384 2.33383 0 5.21277 0H124.828C127.707 0 130.041 2.33383 130.041 5.21277V133.356C130.041 136.234 127.707 138.568 124.828 138.568H5.21276C2.33383 138.568 0 136.234 0 133.356V5.21277Z" fill="url(#paint0_linear_232_434)" fill-opacity="0.2"/>
<path d="M0 5.21277C0 2.33384 2.33383 0 5.21277 0H124.828C127.707 0 130.041 2.33383 130.041 5.21277V133.356C130.041 136.234 127.707 138.568 124.828 138.568H5.21276C2.33383 138.568 0 136.234 0 133.356V5.21277Z" fill="url(#paint1_linear_232_434)" fill-opacity="0.2"/>
<path d="M0 5.21277C0 2.33384 2.33383 0 5.21277 0H124.828C127.707 0 130.041 2.33383 130.041 5.21277V133.356C130.041 136.234 127.707 138.568 124.828 138.568H5.21276C2.33383 138.568 0 136.234 0 133.356V5.21277Z" fill="url(#paint2_radial_232_434)" fill-opacity="0.1"/>
<path d="M0 5.21277C0 2.33384 2.33383 0 5.21277 0H124.828C127.707 0 130.041 2.33383 130.041 5.21277V133.356C130.041 136.234 127.707 138.568 124.828 138.568H5.21276C2.33383 138.568 0 136.234 0 133.356V5.21277Z" fill="url(#paint3_radial_232_434)" fill-opacity="0.1"/>
<path d="M5.21277 0C14.0173 0.0333333 22.8218 0.065 31.6263 0.095C62.6936 0.200857 93.761 0.285963 124.828 0.350317C127.418 0.293022 129.743 2.63236 129.674 5.21277C129.591 47.927 129.547 90.6413 129.542 133.356C129.603 135.866 127.338 138.13 124.828 138.068C124.828 138.068 124.828 138.068 124.828 138.068C84.9564 138.068 45.0846 138.102 5.21276 138.171C2.64867 138.239 0.325319 135.928 0.382941 133.356C0.315823 96.7163 0.219843 60.077 0.095 23.4378C0.0743004 17.3628 0.0528073 11.2878 0.0305207 5.21277C-0.0474461 2.45326 2.43531 -0.0563204 5.21277 0C2.43693 -0.0787052 -0.0875799 2.41899 -0.0305207 5.21277C-0.0528073 11.2878 -0.0743004 17.3628 -0.095 23.4378C-0.219843 60.077 -0.315823 96.7163 -0.382941 133.356C-0.460347 136.336 2.22358 139.033 5.21276 138.966C45.0846 139.034 84.9564 139.068 124.828 139.068C127.872 139.142 130.614 136.399 130.541 133.356C130.536 90.6413 130.491 47.927 130.408 5.21277C130.474 2.2399 127.791 -0.42805 124.828 -0.350317C93.761 -0.285963 62.6936 -0.200857 31.6263 -0.095C22.8218 -0.065 14.0173 -0.0333333 5.21277 0Z" fill="white" fill-opacity="0.5" mask="url(#path-1-inside-1_232_434)"/>
<mask id="mask0_232_434" style="mask-type:alpha" maskUnits="userSpaceOnUse" x="35" y="48" width="66" height="43">
<path d="M72.335 50.6084C72.335 48.9441 74.2492 48.0079 75.5629 49.0297L100.211 68.2001C101.24 69.0008 101.24 70.5568 100.211 71.3575L75.5629 90.5279C74.2492 91.5497 72.335 90.6135 72.335 88.9492L72.335 50.6084Z" fill="white"/>
<path d="M35.7841 50.6084C35.7841 48.9441 37.6983 48.0079 39.012 49.0297L63.6596 68.2001C64.6891 69.0008 64.6891 70.5568 63.6596 71.3575L39.012 90.5279C37.6983 91.5496 35.7841 90.6135 35.7841 88.9492L35.7841 50.6084Z" fill="white"/>
</mask>
<g mask="url(#mask0_232_434)">
<path d="M72.335 50.6084C72.335 48.9441 74.2492 48.0079 75.5629 49.0297L100.211 68.2001C101.24 69.0008 101.24 70.5568 100.211 71.3575L75.5629 90.5279C74.2492 91.5497 72.335 90.6135 72.335 88.9492L72.335 50.6084Z" fill="white"/>
<path d="M35.7841 50.6084C35.7841 48.9441 37.6983 48.0079 39.012 49.0297L63.6596 68.2001C64.6891 69.0008 64.6891 70.5568 63.6596 71.3575L39.012 90.5279C37.6983 91.5496 35.7841 90.6135 35.7841 88.9492L35.7841 50.6084Z" fill="white"/>
<path d="M67.163 46.0081L108.179 60.3218L100.511 78.2138L65.238 54.6985L67.163 46.0081Z" fill="url(#paint4_linear_232_434)" fill-opacity="0.49"/>
<path d="M31.3781 46.0081H64.726V78.2138L29.4531 54.6985L31.3781 46.0081Z" fill="url(#paint5_linear_232_434)" fill-opacity="0.49"/>
</g>
<defs>
<linearGradient id="paint0_linear_232_434" x1="65.0205" y1="24.5377" x2="65.0205" y2="-6.64562" gradientUnits="userSpaceOnUse">
<stop offset="0.596054" stop-opacity="0"/>
<stop offset="0.596154"/>
</linearGradient>
<linearGradient id="paint1_linear_232_434" x1="65.0205" y1="115.02" x2="65.0205" y2="138.568" gradientUnits="userSpaceOnUse">
<stop offset="0.754808" stop-opacity="0"/>
<stop offset="0.793269" stop-color="white"/>
</linearGradient>
<radialGradient id="paint2_radial_232_434" cx="0" cy="0" r="1" gradientUnits="userSpaceOnUse" gradientTransform="translate(129.845 139.047) rotate(164.83) scale(150.423 72.0334)">
<stop stop-color="white"/>
<stop offset="1" stop-opacity="0"/>
</radialGradient>
<radialGradient id="paint3_radial_232_434" cx="0" cy="0" r="1" gradientUnits="userSpaceOnUse" gradientTransform="translate(65.2381 -8.69043) rotate(90) scale(104.796 210.097)">
<stop stop-color="white"/>
<stop offset="1" stop-opacity="0"/>
</radialGradient>
<linearGradient id="paint4_linear_232_434" x1="84.1525" y1="56.7434" x2="81.5965" y2="60.833" gradientUnits="userSpaceOnUse">
<stop/>
<stop offset="1" stop-opacity="0"/>
</linearGradient>
<linearGradient id="paint5_linear_232_434" x1="48.3676" y1="56.7434" x2="45.8116" y2="60.833" gradientUnits="userSpaceOnUse">
<stop/>
<stop offset="1" stop-opacity="0"/>
</linearGradient>
</defs>
</svg>
