<svg width="18" height="17" viewBox="0 0 18 17" fill="none" xmlns="http://www.w3.org/2000/svg">
<path d="M16.3508 1.45377C15.9179 0.992883 15.4039 0.627274 14.8382 0.377832C14.2725 0.128389 13.6661 0 13.0538 0C12.4414 0 11.835 0.128389 11.2693 0.377832C10.7036 0.627274 10.1896 0.992883 9.75669 1.45377L8.85826 2.40983L7.95983 1.45377C7.08539 0.523246 5.8994 0.000482324 4.66276 0.000482333C3.42612 0.000482343 2.24013 0.523246 1.36569 1.45377C0.491254 2.3843 9.21369e-09 3.64636 0 4.96232C-9.21369e-09 6.27828 0.491254 7.54034 1.36569 8.47087L8.85826 16.444L16.3508 8.47087C16.7839 8.0102 17.1275 7.46323 17.3619 6.86122C17.5963 6.25922 17.717 5.61396 17.717 4.96232C17.717 4.31068 17.5963 3.66542 17.3619 3.06341C17.1275 2.46141 16.7839 1.91444 16.3508 1.45377Z" fill="white" fill-opacity="0.8"/>
</svg>
