<svg width="402" height="218" viewBox="0 0 402 218" fill="none" xmlns="http://www.w3.org/2000/svg">
<g filter="url(#filter0_d_232_442)">
<mask id="path-1-inside-1_232_442" fill="white">
<path d="M0 5.21277C0 2.33384 2.33383 0 5.21277 0H396.787C399.666 0 402 2.33383 402 5.21277V182.787C402 185.666 399.666 188 396.787 188H5.21278C2.33385 188 0 185.666 0 182.787V5.21277Z"/>
</mask>
<path d="M0 5.21277C0 2.33384 2.33383 0 5.21277 0H396.787C399.666 0 402 2.33383 402 5.21277V182.787C402 185.666 399.666 188 396.787 188H5.21278C2.33385 188 0 185.666 0 182.787V5.21277Z" fill="#262626"/>
<path d="M0 5.21277C0 2.33384 2.33383 0 5.21277 0H396.787C399.666 0 402 2.33383 402 5.21277V182.787C402 185.666 399.666 188 396.787 188H5.21278C2.33385 188 0 185.666 0 182.787V5.21277Z" fill="url(#paint0_linear_232_442)" fill-opacity="0.2"/>
<path d="M0 5.21277C0 2.33384 2.33383 0 5.21277 0H396.787C399.666 0 402 2.33383 402 5.21277V182.787C402 185.666 399.666 188 396.787 188H5.21278C2.33385 188 0 185.666 0 182.787V5.21277Z" fill="url(#paint1_linear_232_442)" fill-opacity="0.2"/>
<path d="M0 5.21277C0 2.33384 2.33383 0 5.21277 0H396.787C399.666 0 402 2.33383 402 5.21277V182.787C402 185.666 399.666 188 396.787 188H5.21278C2.33385 188 0 185.666 0 182.787V5.21277Z" fill="url(#paint2_radial_232_442)" fill-opacity="0.1"/>
<path d="M0 5.21277C0 2.33384 2.33383 0 5.21277 0H396.787C399.666 0 402 2.33383 402 5.21277V182.787C402 185.666 399.666 188 396.787 188H5.21278C2.33385 188 0 185.666 0 182.787V5.21277Z" fill="url(#paint3_radial_232_442)" fill-opacity="0.1"/>
<path d="M5.21277 0C24.7303 0.0233333 44.2478 0.0455 63.7654 0.0665C174.773 0.185939 285.78 0.267638 396.787 0.311597C399.398 0.248892 401.75 2.60421 401.685 5.21277C401.663 64.4043 401.651 123.596 401.65 182.787C401.713 185.377 399.377 187.713 396.787 187.65C266.262 187.65 135.738 187.702 5.21278 187.807C2.53958 187.874 0.123932 185.464 0.186852 182.787C0.152242 140.384 0.112124 97.9803 0.0665 55.5768C0.0484368 38.7888 0.0295105 22.0008 0.00972097 5.21277C-0.0611555 2.44158 2.43586 -0.063982 5.21277 0C2.43639 -0.0710438 -0.0738706 2.43067 -0.00972097 5.21277C-0.0295105 22.0008 -0.0484368 38.7888 -0.0665 55.5768C-0.112124 97.9803 -0.152242 140.384 -0.186852 182.787C-0.258956 185.663 2.3327 188.261 5.21278 188.193C135.738 188.298 266.262 188.35 396.787 188.35C396.787 188.35 396.787 188.35 396.787 188.35C399.751 188.422 402.422 185.751 402.35 182.787C402.349 123.596 402.337 64.4043 402.315 5.21277C402.385 2.26803 399.73 -0.383915 396.787 -0.311597C285.78 -0.267638 174.773 -0.185939 63.7654 -0.0665C44.2478 -0.0455 24.7303 -0.0233333 5.21277 0Z" fill="white" fill-opacity="0.5" mask="url(#path-1-inside-1_232_442)"/>
</g>
<defs>
<filter id="filter0_d_232_442" x="-10" y="0" width="422" height="218" filterUnits="userSpaceOnUse" color-interpolation-filters="sRGB">
<feFlood flood-opacity="0" result="BackgroundImageFix"/>
<feColorMatrix in="SourceAlpha" type="matrix" values="0 0 0 0 0 0 0 0 0 0 0 0 0 0 0 0 0 0 127 0" result="hardAlpha"/>
<feOffset dy="20"/>
<feGaussianBlur stdDeviation="5"/>
<feComposite in2="hardAlpha" operator="out"/>
<feColorMatrix type="matrix" values="0 0 0 0 0 0 0 0 0 0 0 0 0 0 0 0 0 0 0.5 0"/>
<feBlend mode="normal" in2="BackgroundImageFix" result="effect1_dropShadow_232_442"/>
<feBlend mode="normal" in="SourceGraphic" in2="effect1_dropShadow_232_442" result="shape"/>
</filter>
<linearGradient id="paint0_linear_232_442" x1="201" y1="33.2911" x2="201" y2="-9.01633" gradientUnits="userSpaceOnUse">
<stop offset="0.480769" stop-opacity="0"/>
<stop offset="0.65"/>
</linearGradient>
<linearGradient id="paint1_linear_232_442" x1="201" y1="184.958" x2="201" y2="188" gradientUnits="userSpaceOnUse">
<stop offset="0.399038" stop-opacity="0"/>
<stop offset="0.903846" stop-color="white"/>
</linearGradient>
<radialGradient id="paint2_radial_232_442" cx="0" cy="0" r="1" gradientTransform="matrix(-636.329 91.523 -114.396 -69.9878 402 178.417)" gradientUnits="userSpaceOnUse">
<stop stop-color="white"/>
<stop offset="1" stop-opacity="0"/>
</radialGradient>
<radialGradient id="paint3_radial_232_442" cx="0" cy="0" r="1" gradientTransform="matrix(124.843 125.535 -573.443 109.847 17.3833 -9.01673e-06)" gradientUnits="userSpaceOnUse">
<stop stop-color="white"/>
<stop offset="1" stop-opacity="0"/>
</radialGradient>
</defs>
</svg>
