<svg width="131" height="139" viewBox="0 0 131 139" fill="none" xmlns="http://www.w3.org/2000/svg">
<mask id="path-1-inside-1_232_427" fill="white">
<path d="M130.041 5.21283C130.041 2.3339 127.707 6.10352e-05 124.828 6.10352e-05H5.21288C2.33395 6.10352e-05 0.00012207 2.3339 0.00012207 5.21283V133.356C0.00012207 136.235 2.33396 138.568 5.21289 138.568H124.828C127.707 138.568 130.041 136.235 130.041 133.356V5.21283Z"/>
</mask>
<path d="M130.041 5.21283C130.041 2.3339 127.707 6.10352e-05 124.828 6.10352e-05H5.21288C2.33395 6.10352e-05 0.00012207 2.3339 0.00012207 5.21283V133.356C0.00012207 136.235 2.33396 138.568 5.21289 138.568H124.828C127.707 138.568 130.041 136.235 130.041 133.356V5.21283Z" fill="#262626"/>
<path d="M130.041 5.21283C130.041 2.3339 127.707 6.10352e-05 124.828 6.10352e-05H5.21288C2.33395 6.10352e-05 0.00012207 2.3339 0.00012207 5.21283V133.356C0.00012207 136.235 2.33396 138.568 5.21289 138.568H124.828C127.707 138.568 130.041 136.235 130.041 133.356V5.21283Z" fill="url(#paint0_linear_232_427)" fill-opacity="0.2"/>
<path d="M130.041 5.21283C130.041 2.3339 127.707 6.10352e-05 124.828 6.10352e-05H5.21288C2.33395 6.10352e-05 0.00012207 2.3339 0.00012207 5.21283V133.356C0.00012207 136.235 2.33396 138.568 5.21289 138.568H124.828C127.707 138.568 130.041 136.235 130.041 133.356V5.21283Z" fill="url(#paint1_linear_232_427)" fill-opacity="0.2"/>
<path d="M130.041 5.21283C130.041 2.3339 127.707 6.10352e-05 124.828 6.10352e-05H5.21288C2.33395 6.10352e-05 0.00012207 2.3339 0.00012207 5.21283V133.356C0.00012207 136.235 2.33396 138.568 5.21289 138.568H124.828C127.707 138.568 130.041 136.235 130.041 133.356V5.21283Z" fill="url(#paint2_radial_232_427)" fill-opacity="0.1"/>
<path d="M130.041 5.21283C130.041 2.3339 127.707 6.10352e-05 124.828 6.10352e-05H5.21288C2.33395 6.10352e-05 0.00012207 2.3339 0.00012207 5.21283V133.356C0.00012207 136.235 2.33396 138.568 5.21289 138.568H124.828C127.707 138.568 130.041 136.235 130.041 133.356V5.21283Z" fill="url(#paint3_radial_232_427)" fill-opacity="0.1"/>
<path d="M124.828 6.10352e-05C116.024 0.0233944 107.219 0.045561 98.4149 0.066561C67.3475 0.140661 36.2802 0.200235 5.21288 0.245283C2.56682 0.184922 0.188338 2.57355 0.256881 5.21283C0.315308 47.9271 0.346276 90.6413 0.349786 133.356C0.286607 135.946 2.62307 138.282 5.21289 138.218C5.21289 138.218 5.21289 138.218 5.21289 138.218C45.0847 138.218 84.9565 138.242 124.828 138.29C127.456 138.358 129.834 135.989 129.773 133.356C129.82 96.7164 129.887 60.0771 129.975 23.4378C129.989 17.3628 130.004 11.2878 130.02 5.21283C130.095 2.44818 127.606 -0.0596171 124.828 6.10352e-05C127.604 -0.0752864 130.123 2.4242 130.063 5.21283C130.078 11.2878 130.093 17.3628 130.108 23.4378C130.195 60.0771 130.262 96.7164 130.309 133.356C130.384 136.275 127.754 138.914 124.828 138.847C84.9566 138.894 45.0847 138.918 5.21289 138.918C2.24942 138.99 -0.421389 136.319 -0.349542 133.356C-0.346032 90.6413 -0.315064 47.9271 -0.256637 5.21283C-0.323122 2.29883 2.30566 -0.319828 5.21288 -0.245161C36.2802 -0.200113 67.3475 -0.140539 98.4149 -0.066439C107.219 -0.045439 116.024 -0.0232723 124.828 6.10352e-05Z" fill="white" fill-opacity="0.5" mask="url(#path-1-inside-1_232_427)"/>
<mask id="mask0_232_427" style="mask-type:alpha" maskUnits="userSpaceOnUse" x="33" y="48" width="66" height="43">
<path d="M61.7951 50.6084C61.7951 48.9441 59.8809 48.0079 58.5672 49.0297L33.9195 68.2001C32.89 69.0008 32.89 70.5568 33.9195 71.3575L58.5672 90.5279C59.8809 91.5497 61.7951 90.6135 61.7951 88.9492L61.7951 50.6084Z" fill="white"/>
<path d="M98.346 50.6084C98.346 48.9441 96.4318 48.0079 95.1181 49.0297L70.4705 68.2001C69.441 69.0008 69.441 70.5568 70.4705 71.3575L95.1181 90.5279C96.4318 91.5496 98.346 90.6135 98.346 88.9492L98.346 50.6084Z" fill="white"/>
</mask>
<g mask="url(#mask0_232_427)">
<path d="M61.7951 50.6084C61.7951 48.9441 59.8809 48.0079 58.5672 49.0297L33.9195 68.2001C32.89 69.0008 32.89 70.5568 33.9195 71.3575L58.5672 90.5279C59.8809 91.5497 61.7951 90.6135 61.7951 88.9492L61.7951 50.6084Z" fill="white"/>
<path d="M98.346 50.6084C98.346 48.9441 96.4318 48.0079 95.1181 49.0297L70.4705 68.2001C69.441 69.0008 69.441 70.5568 70.4705 71.3575L95.1181 90.5279C96.4318 91.5496 98.346 90.6135 98.346 88.9492L98.346 50.6084Z" fill="white"/>
<path d="M66.9671 46.0081L25.9511 60.3218L33.6192 78.2138L68.8921 54.6985L66.9671 46.0081Z" fill="url(#paint4_linear_232_427)" fill-opacity="0.49"/>
<path d="M102.751 46.0081H69.4034V78.2138L104.676 54.6985L102.751 46.0081Z" fill="url(#paint5_linear_232_427)" fill-opacity="0.49"/>
</g>
<defs>
<linearGradient id="paint0_linear_232_427" x1="65.0206" y1="24.5377" x2="65.0206" y2="-6.64556" gradientUnits="userSpaceOnUse">
<stop offset="0.596054" stop-opacity="0"/>
<stop offset="0.596154"/>
</linearGradient>
<linearGradient id="paint1_linear_232_427" x1="65.0206" y1="115.02" x2="65.0206" y2="138.568" gradientUnits="userSpaceOnUse">
<stop offset="0.754808" stop-opacity="0"/>
<stop offset="0.793269" stop-color="white"/>
</linearGradient>
<radialGradient id="paint2_radial_232_427" cx="0" cy="0" r="1" gradientUnits="userSpaceOnUse" gradientTransform="translate(0.195903 139.047) rotate(15.1697) scale(150.423 72.0334)">
<stop stop-color="white"/>
<stop offset="1" stop-opacity="0"/>
</radialGradient>
<radialGradient id="paint3_radial_232_427" cx="0" cy="0" r="1" gradientUnits="userSpaceOnUse" gradientTransform="translate(124.418 5.43892e-05) rotate(113.58) scale(100.957 202.4)">
<stop stop-color="white"/>
<stop offset="1" stop-opacity="0"/>
</radialGradient>
<linearGradient id="paint4_linear_232_427" x1="49.9776" y1="56.7434" x2="52.5336" y2="60.833" gradientUnits="userSpaceOnUse">
<stop/>
<stop offset="1" stop-opacity="0"/>
</linearGradient>
<linearGradient id="paint5_linear_232_427" x1="85.7619" y1="56.7434" x2="88.3179" y2="60.833" gradientUnits="userSpaceOnUse">
<stop/>
<stop offset="1" stop-opacity="0"/>
</linearGradient>
</defs>
</svg>
