<?xml version="1.0" encoding="UTF-8"?>
<svg id="Layer_1" data-name="Layer 1" xmlns="http://www.w3.org/2000/svg" viewBox="0 0 72.87 116.62">
  <defs>
    <style>
      .cls-1 {
        fill: #231f20;
      }
      .flame {
        fill: #f1574d;
        opacity: 0;
      }
      .f1 { animation: f1 1.167s infinite step-end; }
      .f2 { animation: f2 1.167s infinite step-end; }
      .f3 { animation: f3 1.167s infinite step-end; }
      .f4 { animation: f4 1.167s infinite step-end; }
      .f5 { animation: f5 1.167s infinite step-end; }
      .f6 { animation: f6 1.167s infinite step-end; }
      .f7 { animation: f7 1.167s infinite step-end; }
      .f8 { animation: f8 1.167s infinite step-end; }
      .f9 { animation: f9 1.167s infinite step-end; }
      .f10 { animation: f10 1.167s infinite step-end; }
      .f11 { animation: f11 1.167s infinite step-end; }
      .f12 { animation: f12 1.167s infinite step-end; }
      .f13 { animation: f13 1.167s infinite step-end; }
      .f14 { animation: f14 1.167s infinite step-end; }
      .f15 { animation: f15 1.167s infinite step-end; }
      .f16 { animation: f16 1.167s infinite step-end; }
      .f17 { animation: f17 1.167s infinite step-end; }
      .f18 { animation: f18 1.167s infinite step-end; }
      .f19 { animation: f19 1.167s infinite step-end; }
      .f20 { animation: f20 1.167s infinite step-end; }
      .f21 { animation: f21 1.167s infinite step-end; }
      .f22 { animation: f22 1.167s infinite step-end; }
      .f23 { animation: f23 1.167s infinite step-end; }
      .f24 { animation: f24 1.167s infinite step-end; }
      .f25 { animation: f25 1.167s infinite step-end; }
      .f26 { animation: f26 1.167s infinite step-end; }
      .f27 { animation: f27 1.167s infinite step-end; }
      .f28 { animation: f28 1.167s infinite step-end; }

      @keyframes f1 { 0%, 3.57% { opacity: 1; } 3.57%, 100% { opacity: 0; } }
      @keyframes f2 { 0%, 3.57% { opacity: 0; } 3.57%, 7.14% { opacity: 1; } 7.14%, 100% { opacity: 0; } }
      @keyframes f3 { 0%, 7.14% { opacity: 0; } 7.14%, 10.71% { opacity: 1; } 10.71%, 100% { opacity: 0; } }
      @keyframes f4 { 0%, 10.71% { opacity: 0; } 10.71%, 14.29% { opacity: 1; } 14.29%, 100% { opacity: 0; } }
      @keyframes f5 { 0%, 14.29% { opacity: 0; } 14.29%, 17.86% { opacity: 1; } 17.86%, 100% { opacity: 0; } }
      @keyframes f6 { 0%, 17.86% { opacity: 0; } 17.86%, 21.43% { opacity: 1; } 21.43%, 100% { opacity: 0; } }
      @keyframes f7 { 0%, 21.43% { opacity: 0; } 21.43%, 25.00% { opacity: 1; } 25.00%, 100% { opacity: 0; } }
      @keyframes f8 { 0%, 25.00% { opacity: 0; } 25.00%, 28.57% { opacity: 1; } 28.57%, 100% { opacity: 0; } }
      @keyframes f9 { 0%, 28.57% { opacity: 0; } 28.57%, 32.14% { opacity: 1; } 32.14%, 100% { opacity: 0; } }
      @keyframes f10 { 0%, 32.14% { opacity: 0; } 32.14%, 35.71% { opacity: 1; } 35.71%, 100% { opacity: 0; } }
      @keyframes f11 { 0%, 35.71% { opacity: 0; } 35.71%, 39.29% { opacity: 1; } 39.29%, 100% { opacity: 0; } }
      @keyframes f12 { 0%, 39.29% { opacity: 0; } 39.29%, 42.86% { opacity: 1; } 42.86%, 100% { opacity: 0; } }
      @keyframes f13 { 0%, 42.86% { opacity: 0; } 42.86%, 46.43% { opacity: 1; } 46.43%, 100% { opacity: 0; } }
      @keyframes f14 { 0%, 46.43% { opacity: 0; } 46.43%, 50.00% { opacity: 1; } 50.00%, 100% { opacity: 0; } }
      @keyframes f15 { 0%, 50.00% { opacity: 0; } 50.00%, 53.57% { opacity: 1; } 53.57%, 100% { opacity: 0; } }
      @keyframes f16 { 0%, 53.57% { opacity: 0; } 53.57%, 57.14% { opacity: 1; } 57.14%, 100% { opacity: 0; } }
      @keyframes f17 { 0%, 57.14% { opacity: 0; } 57.14%, 60.71% { opacity: 1; } 60.71%, 100% { opacity: 0; } }
      @keyframes f18 { 0%, 60.71% { opacity: 0; } 60.71%, 64.29% { opacity: 1; } 64.29%, 100% { opacity: 0; } }
      @keyframes f19 { 0%, 64.29% { opacity: 0; } 64.29%, 67.86% { opacity: 1; } 67.86%, 100% { opacity: 0; } }
      @keyframes f20 { 0%, 67.86% { opacity: 0; } 67.86%, 71.43% { opacity: 1; } 71.43%, 100% { opacity: 0; } }
      @keyframes f21 { 0%, 71.43% { opacity: 0; } 71.43%, 75.00% { opacity: 1; } 75.00%, 100% { opacity: 0; } }
      @keyframes f22 { 0%, 75.00% { opacity: 0; } 75.00%, 78.57% { opacity: 1; } 78.57%, 100% { opacity: 0; } }
      @keyframes f23 { 0%, 78.57% { opacity: 0; } 78.57%, 82.14% { opacity: 1; } 82.14%, 100% { opacity: 0; } }
      @keyframes f24 { 0%, 82.14% { opacity: 0; } 82.14%, 85.71% { opacity: 1; } 85.71%, 100% { opacity: 0; } }
      @keyframes f25 { 0%, 85.71% { opacity: 0; } 85.71%, 89.29% { opacity: 1; } 89.29%, 100% { opacity: 0; } }
      @keyframes f26 { 0%, 89.29% { opacity: 0; } 89.29%, 92.86% { opacity: 1; } 92.86%, 100% { opacity: 0; } }
      @keyframes f27 { 0%, 92.86% { opacity: 0; } 92.86%, 96.43% { opacity: 1; } 96.43%, 100% { opacity: 0; } }
      @keyframes f28 { 0%, 96.43% { opacity: 0; } 96.43%, 100% { opacity: 1; } }
    </style>
  </defs>

  <!-- ANIMATED FLAME - 28 frames at 24fps (1.167s loop) -->
  <g transform="translate(36, 38) scale(0.825) translate(-72, -62)">
    <g class="flame f1"><path d="M83,44.4c.5,4.3-1.6,8.3-3.9,12.8-1.3,2-2,4.7-4.4,5.5-1.7.3-3.6-1.3-5.4-2.8-3-3-6.3-6.1-6.8-10.5-.3-4.6.5-9.8,2.7-14,1.3-2.5,2.4-5.2,4.1-7.4.9-1.1,3.3-4.7,4.9-3,.9,1.3-.5,4.3,0,5.7,1.3,3.1,4.1,5.2,6.1,8,1.4,2,2.2,3.9,2.4,5.8h.3Z"/></g>
    <g class="flame f2"><path d="M62.6,44.4c-.5,5,2.5,21.1,10.2,17.9,5.7-3.3,8.7-11.2,6.3-17.5-3-6.8-8.7-14.2-5.4-21.7.3-1.1,1.1-4.4.6-5-.9.9-1.6,2.8-2.7,3.9-4.9,6.3-9,14-9.1,22v.3h0Z"/></g>
    <g class="flame f3"><path d="M62.6,44.4c-.5,5,2.5,21.1,10.2,17.9,5.7-3.3,8.7-11.2,6.3-17.5-3-6.8-8.7-14.2-5.4-21.7.3-1.1,1.1-4.4.6-5-.9.9-1.6,2.8-2.7,3.9-4.9,6.3-9,14-9.1,22v.3h0Z"/></g>
    <g class="flame f4"><path d="M78.9,47.5c-.2,2.5-.2,5.7-1.7,8.7,0,0,0,.3-.2.5-3.1,6.9-7.4,7.7-12.1,3.5-.2-.2-.5-.5-.6-.6-7.4-11,9.9-18.9,5-31.5v-.8c-.3-1.6-.5-3.1-.3-4.7.5-4.9,6.6-12.8,12.3-11.8.2.3-.9.9-1.3,1.1-5.8,3.5-11.8,9.9-7.7,16.7,0,.3.3.5.5.8,2.8,5,6,11.3,6.3,17.9v.3h-.2Z"/></g>
    <g class="flame f5"><path d="M78.9,47.5c-.2,2.5-.2,5.7-1.7,8.7,0,0,0,.3-.2.5-3.1,6.9-7.4,7.7-12.1,3.5-.2-.2-.5-.5-.6-.6-7.4-11,9.9-18.9,5-31.5v-.8c-.3-1.6-.5-3.1-.3-4.7.5-4.9,6.6-12.8,12.3-11.8.2.3-.9.9-1.3,1.1-5.8,3.5-11.8,9.9-7.7,16.7,0,.3.3.5.5.8,2.8,5,6,11.3,6.3,17.9v.3h-.2Z"/></g>
    <g class="flame f6"><path d="M72.7,20c.2,2.4,0,5,.6,7.4.8,2.8,3,4.9,3.9,7.6,2.2,7.4,2.7,17-1.1,23.5-1.9,3.3-7.1,6.1-10.1,2.7-2-3.1-3.5-7.2-3.5-11,0-6.1,4.4-10.9,5.5-16.7.8-4.6,2.4-9.6,4.6-13.4h0Z"/></g>
    <g class="flame f7"><path d="M72.7,20c.2,2.4,0,5,.6,7.4.8,2.8,3,4.9,3.9,7.6,2.2,7.4,2.7,17-1.1,23.5-1.9,3.3-7.1,6.1-10.1,2.7-2-3.1-3.5-7.2-3.5-11,0-6.1,4.4-10.9,5.5-16.7.8-4.6,2.4-9.6,4.6-13.4h0Z"/></g>
    <g class="flame f8"><path d="M74.7,60.3c-4.8,3.8-9.9,3.1-11.7-2,0-.3-.2-.6-.3-.9-1.1-6.1,1.8-11.4,4.3-16.9,0-.3.3-.6.4-.9,3-5.2,0-9.9,3-14.6,1.6,6.3,9.4,11,8,18.3v.9c-.3,3.9.3,13-3.6,16.1h-.1Z"/></g>
    <g class="flame f9"><path d="M74.7,60.3c-4.8,3.8-9.9,3.1-11.7-2,0-.3-.2-.6-.3-.9-1.1-6.1,1.8-11.4,4.3-16.9,0-.3.3-.6.4-.9,3-5.2,0-9.9,3-14.6,1.6,6.3,9.4,11,8,18.3v.9c-.3,3.9.3,13-3.6,16.1h-.1Z"/></g>
    <g class="flame f10"><path d="M80.2,56.5c-.9,2-3.1,3.9-5.7,4.9-.3,0-.5.2-.8.3-3.8,2.2-6.9.6-8.5-.9-3.5-5.4-3.1-10.7-1.6-15.9,0-.3.2-.6.3-.9,1.3-2.2,2.2-4.3,2.8-6.5,0-.3,0-.5.2-.8,2-5.7-2.7-8.8-2.7-15.1,6.3,3.1,9.4,11,12.4,15.9,0,.3.3.5.5.8.3.5.6.9,1.1,1.4,0,.3.3.5.3.8,1.4,3,2.7,6.1,2.7,9.6v.9c0,1.7-.3,3.6-1.1,5.4v.3h0v-.2h.1Z"/></g>
    <g class="flame f11"><path d="M80.2,56.5c-.9,2-3.1,3.9-5.7,4.9-.3,0-.5.2-.8.3-3.8,2.2-6.9.6-8.5-.9-3.5-5.4-3.1-10.7-1.6-15.9,0-.3.2-.6.3-.9,1.3-2.2,2.2-4.3,2.8-6.5,0-.3,0-.5.2-.8,2-5.7-2.7-8.8-2.7-15.1,6.3,3.1,9.4,11,12.4,15.9,0,.3.3.5.5.8.3.5.6.9,1.1,1.4,0,.3.3.5.3.8,1.4,3,2.7,6.1,2.7,9.6v.9c0,1.7-.3,3.6-1.1,5.4v.3h0v-.2h.1Z"/></g>
    <g class="flame f12"><path d="M83.1,44.4c.5,4.3-1.6,8.3-3.9,12.8-1.3,2-2,4.7-4.4,5.5-1.7.3-3.6-1.3-5.4-2.8-2.8-2.8-6-5.8-6.8-10.1-.9-5.4,3.5-9.4,5.4-14,.8-1.9,1.9-5,3.6-6.1,2.5-1.7,3.1,2.4,4.6,4.1s3,3.1,4.4,4.9c1.4,2,2.2,3.9,2.4,5.8h.2,0Z"/></g>
    <g class="flame f13"><path d="M83.1,44.4c.5,4.3-1.6,8.3-3.9,12.8-1.3,2-2,4.7-4.4,5.5-1.7.3-3.6-1.3-5.4-2.8-2.8-2.8-6-5.8-6.8-10.1-.9-5.4,3.5-9.4,5.4-14,.8-1.9,1.9-5,3.6-6.1,2.5-1.7,3.1,2.4,4.6,4.1s3,3.1,4.4,4.9c1.4,2,2.2,3.9,2.4,5.8h.2,0Z"/></g>
    <g class="flame f14"><path d="M83.3,44.4c.5,4.3-1.6,8.3-3.9,12.8-1.3,2-2,4.7-4.4,5.5-1.7.3-3.6-1.3-5.4-2.8-2.5-2.5-5.4-5.2-6.4-8.7s-.9-7.7-.2-11.6c.6-3.8,1.6-7.5,1.8-11.4s-.2-7.9-2.4-11.1c4.7,2.2,8.6,6,11.7,10.2s3.7,5.7,5.4,8.7,1.6,3,2.4,4.6,1.4,3.8,1.2,3.8h.3Z"/></g>
    <g class="flame f15"><path d="M83.3,44.4c.5,4.3-1.6,8.3-3.9,12.8-1.3,2-2,4.7-4.4,5.5-1.7.3-3.6-1.3-5.4-2.8-2.5-2.5-5.4-5.2-6.4-8.7s-.9-7.7-.2-11.6c.6-3.8,1.6-7.5,1.8-11.4s-.2-7.9-2.4-11.1c4.7,2.2,8.6,6,11.7,10.2s3.7,5.7,5.4,8.7,1.6,3,2.4,4.6,1.4,3.8,1.2,3.8h.3Z"/></g>
    <g class="flame f16"><path d="M62.5,44.4c0,.2,0,.4,0,.7,0,1.9.2,3.8.5,5.7.7,3.7,1.9,9,5.4,11.2s2.9.9,4.4.3c4.9-2.1,7.5-9.7,6.4-14.5s-2.5-5.7-4.2-8.3c-3.3-4.9-6.8-9.9-11.6-13.3,1.1,2.8,1.2,5.9.9,8.8-.3,2.1-.7,4.1-1.3,6.1s-.4,2.2-.4,3.3Z"/></g>
    <g class="flame f17"><path d="M62.5,44.4c0,.2,0,.4,0,.7,0,1.9.2,3.8.5,5.7.7,3.7,1.9,9,5.4,11.2s2.9.9,4.4.3c4.9-2.1,7.5-9.7,6.4-14.5s-2.5-5.7-4.2-8.3c-3.3-4.9-6.8-9.9-11.6-13.3,1.1,2.8,1.2,5.9.9,8.8-.3,2.1-.7,4.1-1.3,6.1s-.4,2.2-.4,3.3Z"/></g>
    <g class="flame f18"><path d="M79.2,47.5c.2,3-.3,6-1.7,8.7,0,0,0,.3-.2.5-3.1,6.9-7.4,7.7-12.1,3.5-.2-.2-.5-.5-.6-.6-2.7-2.7-2-7.6-.7-10.7s2.1-2.8,3.1-4.3,1.7-3.5,2.1-5.5c.5-3.3,0-6.7-1.7-9.6-1.5-2.6-3.7-4.8-4.5-7.7-.7-2.6-.1-5.3.5-7.9.3,5.4,1.7,10.9,5.1,15.2,1.8,2.2,4.1,4,6,6.2,2.8,3.3,4.6,7.7,4.9,12.2Z"/></g>
    <g class="flame f19"><path d="M79.2,47.5c.2,3-.3,6-1.7,8.7,0,0,0,.3-.2.5-3.1,6.9-7.4,7.7-12.1,3.5-.2-.2-.5-.5-.6-.6-2.7-2.7-2-7.6-.7-10.7s2.1-2.8,3.1-4.3,1.7-3.5,2.1-5.5c.5-3.3,0-6.7-1.7-9.6-1.5-2.6-3.7-4.8-4.5-7.7-.7-2.6-.1-5.3.5-7.9.3,5.4,1.7,10.9,5.1,15.2,1.8,2.2,4.1,4,6,6.2,2.8,3.3,4.6,7.7,4.9,12.2Z"/></g>
    <g class="flame f20"><path d="M63.7,24.7c2.7,5,7.8,8.3,11.1,13,3.6,5.1,4.6,11.8,3,17.8-.7,2.7-2.2,4.3-4.5,5.9s-5.4,2-7.3-.2c-1.6-2.5-2.8-5.3-3.3-8.2s.2-5.8.7-8.9c1-6.7,1-13.5,0-20.2.1.3.3.5.4.8Z"/></g>
    <g class="flame f21"><path d="M63.7,24.7c2.7,5,7.8,8.3,11.1,13,3.6,5.1,4.6,11.8,3,17.8-.7,2.7-2.2,4.3-4.5,5.9s-5.4,2-7.3-.2c-1.6-2.5-2.8-5.3-3.3-8.2s.2-5.8.7-8.9c1-6.7,1-13.5,0-20.2.1.3.3.5.4.8Z"/></g>
    <g class="flame f22"><path d="M74.8,60.3c-1.2,1.3-2.7,2.2-4.5,2.4s-3,.2-4.4-.7-2.7-2.3-2.7-3.6c0-.3-.2-.6-.3-.9-.6-3.1-.8-6,.4-9.1.8-2,1.8-3.8,2.6-5.8,1.7-4.7,1.4-9.9,1.1-14.9.9,4.3,4.6,7.4,7.1,11.1,1.5,2.3,2.6,5,3.2,7.7.7,3.1,1,6.4,0,9.4s-1.3,3.1-2.5,4.3Z"/></g>
    <g class="flame f23"><path d="M74.8,60.3c-1.2,1.3-2.7,2.2-4.5,2.4s-3,.2-4.4-.7-2.7-2.3-2.7-3.6c0-.3-.2-.6-.3-.9-.6-3.1-.8-6,.4-9.1.8-2,1.8-3.8,2.6-5.8,1.7-4.7,1.4-9.9,1.1-14.9.9,4.3,4.6,7.4,7.1,11.1,1.5,2.3,2.6,5,3.2,7.7.7,3.1,1,6.4,0,9.4s-1.3,3.1-2.5,4.3Z"/></g>
    <g class="flame f24"><path d="M80.2,56.5c-.9,2-3.1,3.9-5.7,4.9-.3,0-.5.2-.8.3-3.8,2.2-6.9.6-8.5-.9-3.2-3-3.2-10.2-2-14.1s3.4-10.1,6.3-14.4c2.8-4.3,7.1-8,12.1-9.1-3.6,1.4-5.6,5.5-5.5,9.3.1,3.7,2.1,6.2,3.5,9.5s1.6,5.6,1.6,8.1v.9c0,1.7-.3,3.6-1.1,5.4v.3-.2h.1Z"/></g>
    <g class="flame f25"><path d="M80.2,56.5c-.9,2-3.1,3.9-5.7,4.9-.3,0-.5.2-.8.3-3.8,2.2-6.9.6-8.5-.9-3.2-3-3.2-10.2-2-14.1s3.4-10.1,6.3-14.4c2.8-4.3,7.1-8,12.1-9.1-3.6,1.4-5.6,5.5-5.5,9.3.1,3.7,2.1,6.2,3.5,9.5s1.6,5.6,1.6,8.1v.9c0,1.7-.3,3.6-1.1,5.4v.3-.2h.1Z"/></g>
    <g class="flame f26"><path d="M83.1,44.4c.5,4.3-1.6,8.3-3.9,12.8-1.3,2-2,4.7-4.4,5.5-1.7.3-3.6-1.3-5.4-2.8-2.8-2.8-6-5.8-6.8-10.1-.9-4.7,2.5-8.5,4.6-12.2s3.9-8.9,4.6-13.6c.3-1.9.7-4.1,2.5-4.8-.6.2.4,6,.6,6.6.4,2.3,1.1,4.6,2,6.7,1.7,4.1,5.7,7.6,6.2,12h.2,0Z"/></g>
    <g class="flame f27"><path d="M83.1,44.4c.5,4.3-1.6,8.3-3.9,12.8-1.3,2-2,4.7-4.4,5.5-1.7.3-3.6-1.3-5.4-2.8-2.8-2.8-6-5.8-6.8-10.1-.9-4.7,2.5-8.5,4.6-12.2s3.9-8.9,4.6-13.6c.3-1.9.7-4.1,2.5-4.8-.6.2.4,6,.6,6.6.4,2.3,1.1,4.6,2,6.7,1.7,4.1,5.7,7.6,6.2,12h.2,0Z"/></g>
    <g class="flame f28"><path d="M83,44.4c.5,4.3-1.6,8.3-3.9,12.8-1.3,2-2,4.7-4.4,5.5-1.7.3-3.6-1.3-5.4-2.8-3-3-6.3-6.1-6.8-10.5-.3-4.6.5-9.8,2.7-14,1.3-2.5,2.4-5.2,4.1-7.4.9-1.1,3.3-4.7,4.9-3,.9,1.3-.5,4.3,0,5.7,1.3,3.1,4.1,5.2,6.1,8,1.4,2,2.2,3.9,2.4,5.8h.3Z"/></g>
  </g>

  <!-- CANDLE HOLDER (static) -->
  <path class="cls-1" d="M69.94,87.22c-4.31-4.3-10.62-6.77-17.32-8.01-.12-7.79-.18-15.58-.22-23.37-.01-2.04.07-4.11-.05-6.15l-.2-3.52c-.04-1.19-.17-2.32-.14-3.56.08-1.06.21-2.06-.27-2.67-2.23,1.17-4.55,2.19-6.96,2.93-7.52,2.43-15.85,2.3-23.38.26-.38-.14-.83.15-.8.59.15,6.46.04,12.94.04,19.4-.01,5.93-.01,11.86-.04,17.8C7.84,84.75-.66,92.07.04,99.87c2.01,22.17,44.75,17.95,59.82,11.98,15.87-6.29,14.49-20.23,10.08-24.63ZM59.77,108.7c-13.49,5.29-54.29,10.05-56.1-9.17-.61-6.45,6.31-12.52,16.92-15.95,0,1.49,0,2.98-.01,4.47-.01,4.12-.7,8.41.63,12.41,2.25,6.8,16.8,5.16,22.11,3.93,2.54-.59,5.07-1.48,7.06-3.15.27-.23.52-.46.74-.69,1.88-1.93,2.25-4.03,1.93-6.7-.46-3.91-.32-7.95-.39-11.88v-.05c5.43,1.16,10.47,3.23,14.01,6.63,2.25,2.16,3.23,4.42,3.26,6.63.08,5.31-1.85,10.26-10.16,13.52Z"/>
</svg>
