<?xml version="1.0" encoding="UTF-8"?>
<svg xmlns="http://www.w3.org/2000/svg" viewBox="0 0 162 236.5">
  <style>
    .candle { opacity: 0; }
    .c1 { animation: c1 1.167s infinite step-end; }
    .c2 { animation: c2 1.167s infinite step-end; }
    .c3 { animation: c3 1.167s infinite step-end; }
    .c4 { animation: c4 1.167s infinite step-end; }
    .c5 { animation: c5 1.167s infinite step-end; }
    .c6 { animation: c6 1.167s infinite step-end; }
    .c7 { animation: c7 1.167s infinite step-end; }
    .c8 { animation: c8 1.167s infinite step-end; }
    .c9 { animation: c9 1.167s infinite step-end; }
    .c10 { animation: c10 1.167s infinite step-end; }
    .c11 { animation: c11 1.167s infinite step-end; }
    .c12 { animation: c12 1.167s infinite step-end; }
    .c13 { animation: c13 1.167s infinite step-end; }
    .c14 { animation: c14 1.167s infinite step-end; }

    @keyframes c1 { 0%, 7.14% { opacity: 1; } 7.14%, 100% { opacity: 0; } }
    @keyframes c2 { 0%, 7.14% { opacity: 0; } 7.14%, 14.29% { opacity: 1; } 14.29%, 100% { opacity: 0; } }
    @keyframes c3 { 0%, 14.29% { opacity: 0; } 14.29%, 21.43% { opacity: 1; } 21.43%, 100% { opacity: 0; } }
    @keyframes c4 { 0%, 21.43% { opacity: 0; } 21.43%, 28.57% { opacity: 1; } 28.57%, 100% { opacity: 0; } }
    @keyframes c5 { 0%, 28.57% { opacity: 0; } 28.57%, 35.71% { opacity: 1; } 35.71%, 100% { opacity: 0; } }
    @keyframes c6 { 0%, 35.71% { opacity: 0; } 35.71%, 42.86% { opacity: 1; } 42.86%, 100% { opacity: 0; } }
    @keyframes c7 { 0%, 42.86% { opacity: 0; } 42.86%, 50% { opacity: 1; } 50%, 100% { opacity: 0; } }
    @keyframes c8 { 0%, 50% { opacity: 0; } 50%, 57.14% { opacity: 1; } 57.14%, 100% { opacity: 0; } }
    @keyframes c9 { 0%, 57.14% { opacity: 0; } 57.14%, 64.29% { opacity: 1; } 64.29%, 100% { opacity: 0; } }
    @keyframes c10 { 0%, 64.29% { opacity: 0; } 64.29%, 71.43% { opacity: 1; } 71.43%, 100% { opacity: 0; } }
    @keyframes c11 { 0%, 71.43% { opacity: 0; } 71.43%, 78.57% { opacity: 1; } 78.57%, 100% { opacity: 0; } }
    @keyframes c12 { 0%, 78.57% { opacity: 0; } 78.57%, 85.71% { opacity: 1; } 85.71%, 100% { opacity: 0; } }
    @keyframes c13 { 0%, 85.71% { opacity: 0; } 85.71%, 92.86% { opacity: 1; } 92.86%, 100% { opacity: 0; } }
    @keyframes c14 { 0%, 92.86% { opacity: 0; } 92.86%, 100% { opacity: 1; } }
  </style>

  <!-- SKULL (static) -->
  <g class="skull">
    <path d="M155.1,153.6c-.5-4.6-1.6-9-3-13.3-.7-2.4-1.4-5-2.6-7.3-2.3-4.7-6.2-7.8-9.5-12-2.4-3.1-4.4-6.5-6.5-10,0-.2-.2-.4-.4-.6-1.8-3.7-4.3-7.6-7.4-10.7,0,0-.4-.4-.5-.5-.5-.4-.8-.7-1.2-1,0,.5-.5,1.1-.8,1.4-.5.5-1.3,1.1-2.6,1.1-2.5,0-4.8-1-7.1-1.8-4.8-1.8-7.4-2.5-10,1.4-.8,1.4-1.4,2.8-2.2,4.1-2.3,4.8-4.4,9.4-13.7,7-3.1-.8-5.8-2.5-8.3-4.2-.6-.5-1.3-.8-1.9-1.3-2.3-1.4-8.4-2.2-11.2-1.7-1.6.2-3.1,1.3-4.8,2.4-1.8,1.3-3.7,2.5-6.1,3-1.9.4-4,.4-5.9.4s-3.7,0-5.4.4c-7.2,1.7-10.3,7.2-13.6,13-2.9,5.2-6,10.6-12,13.6-1.7.8-3.1,1.2-4.3,1.2s-2.2-.4-2.9-1.1c-.7-.6-1.1-1.4-1.4-2.3-4.2,13-4,20,1.8,34.4,11.6,29,36.5,49.8,40.9,51.8,4.8,2.2,28-6,33.1-5.5,4.3.5,7.2,5.2,8.9,8.6s3,10.6,4.7,10.9c1.1,0,2.3-.2,3.5-.6.5,0,1.1-.4,1.6-.4,1.7-.5,2.9-.8,3.5-1.1-.4-1-.8-2.3-1.2-3.2-1.3-3.5-2.3-6.7-2.4-10.6,3.6-1.6,4.9,7.1,5.8,9.2.5,1.3,1,2.8,1.3,3.7,1.4-.4,3.7-1.2,6-1.9,2.3-.7,4.6-1.6,6-2-.6-1.7-1-3.4-1.7-4.9-.6-1.3-1.3-2.2-1.6-3.7,0-1-.7-6.8,1.7-5.4,1.4,1,2,3.1,2.5,4.7.5,1.7,1.2,3.2,1.7,4.9.4,1.1,1,2.6,1.3,3.5.5,0,1.2-.4,2-.5,2.2-.6,6.6-1.7,8.5-2.3,0-.7-.5-1.8-1-3.2-.7-2.2-1.2-4.3-1.6-6.6,0-.8,0-1.7.7-2.4.8-.7,4,7.2,4.3,7.8.6,1.3,1,2.9,2.4,3.1,1.9.4,3.8-1.2,5.4-1.9,1.7-.8,3.5-1.4,4.1-3.4.8-2.9-.7-5.9-2.5-8-1.9-2.4-3.5-5.2-4.6-8-1.3-3.5-4.3-18.1-4.2-19.2.7-4.6,3.5-8,7.9-10,3.5-1.6,5.4-4.7,5.6-8.6,0-1.9,0-3.8.2-5.6.4-1.7.6-3,.4-4.8h.3ZM104.3,168h0c-.5,16-18.6,28.2-32.4,13.7-8.3-8.3-9.5-24.5,1.2-31.2,13-8.4,30,2.5,31.3,17.3v.2ZM120.4,187.2c-7.1-19.9-.6-22.3,6.1-1.4,1.2,3.7-4.9,5.3-6.1,1.4ZM145.5,166.2v.2c-8,10.7-22.1,1.9-25-11.4-3.6-14,6.6-29.3,19.6-20.5,10.2,5.9,12.4,22.8,5.4,31.7Z"/>
    <path d="M17,133.9c5-2.6,7.7-7.2,10.6-12.1,3.5-6.2,7.2-12.6,15.8-14.8,2.2-.5,4.2-.5,6.2-.5s3.5,0,5-.2c1.7-.4,3.1-1.4,4.8-2.5,1.9-1.3,3.8-2.6,6.1-3,3.2-.6,10.4,0,13.8,2.2.7.5,1.3.8,2,1.3,2.4,1.6,4.6,3.1,7.1,3.7,6.4,1.7,7.3-.2,9.6-5,.6-1.3,1.3-2.9,2.3-4.4,4.1-6.7,9.7-4.7,14.2-3,1.9.7,4.1,1.4,5.9,1.6v-1.7c-.4-4.6-7.8-7.7-13.8-10.2-4.2-1.8-7.4-3.2-8.8-5.2-1.2-1.8-1.4-4.4-1.8-7.3-.6-5.5-1.2-7.4-3.5-7.4h0c-1.8,0-4.2,1.1-6.6,2-1.7.7-3.4,1.3-4.8,1.7-5.3,1.3-11,2.5-16.6,3-2,0-4.6-.5-7.1-1.2-1.8-.5-4.9-1.3-5.6-1-1.6,1-1.4,2.8-1,6.4.5,3.5,1.1,7.9-2.9,10.2-11.9,6.8-22.8,18.1-29.4,30.1-1.6,2.9-2.9,5.8-4,8.6-1.7,4.4-1.7,8.4-.8,9.2.4.2,1.3.2,3.2-.7h0v.2h.1Z"/>
  </g>

  <!-- CANDLE FRAMES - Scaled 1.5x from center-bottom (72, 62) -->
  <g class="candle c1" transform="translate(72, 62) scale(1.5) translate(-72, -62)"><path d="M83,44.4c.5,4.3-1.6,8.3-3.9,12.8-1.3,2-2,4.7-4.4,5.5-1.7.3-3.6-1.3-5.4-2.8-3-3-6.3-6.1-6.8-10.5-.3-4.6.5-9.8,2.7-14,1.3-2.5,2.4-5.2,4.1-7.4.9-1.1,3.3-4.7,4.9-3,.9,1.3-.5,4.3,0,5.7,1.3,3.1,4.1,5.2,6.1,8,1.4,2,2.2,3.9,2.4,5.8h.3Z"/></g>

  <g class="candle c2" transform="translate(72, 62) scale(1.5) translate(-72, -62)"><path d="M62.6,44.4c-.5,5,2.5,21.1,10.2,17.9,5.7-3.3,8.7-11.2,6.3-17.5-3-6.8-8.7-14.2-5.4-21.7.3-1.1,1.1-4.4.6-5-.9.9-1.6,2.8-2.7,3.9-4.9,6.3-9,14-9.1,22v.3h0Z"/></g>

  <g class="candle c3" transform="translate(72, 62) scale(1.5) translate(-72, -62)"><path d="M78.9,47.5c-.2,2.5-.2,5.7-1.7,8.7,0,0,0,.3-.2.5-3.1,6.9-7.4,7.7-12.1,3.5-.2-.2-.5-.5-.6-.6-7.4-11,9.9-18.9,5-31.5v-.8c-.3-1.6-.5-3.1-.3-4.7.5-4.9,6.6-12.8,12.3-11.8.2.3-.9.9-1.3,1.1-5.8,3.5-11.8,9.9-7.7,16.7,0,.3.3.5.5.8,2.8,5,6,11.3,6.3,17.9v.3h-.2Z"/></g>

  <g class="candle c4" transform="translate(72, 62) scale(1.5) translate(-72, -62)"><path d="M72.7,20c.2,2.4,0,5,.6,7.4.8,2.8,3,4.9,3.9,7.6,2.2,7.4,2.7,17-1.1,23.5-1.9,3.3-7.1,6.1-10.1,2.7-2-3.1-3.5-7.2-3.5-11,0-6.1,4.4-10.9,5.5-16.7.8-4.6,2.4-9.6,4.6-13.4h0Z"/><path d="M81.6,10.2c1-.9,2.2-1.6,3.4-2s3.1-.4,3.7.6c-1.7,1.1-3,1.3-5,1.6-1.9.3-3.1,2-4.9,2.4l2.7-2.5h.1Z"/></g>

  <g class="candle c5" transform="translate(72, 62) scale(1.5) translate(-72, -62)"><path d="M74.7,60.3c-4.8,3.8-9.9,3.1-11.7-2,0-.3-.2-.6-.3-.9-1.1-6.1,1.8-11.4,4.3-16.9,0-.3.3-.6.4-.9,3-5.2,0-9.9,3-14.6,1.6,6.3,9.4,11,8,18.3v.9c-.3,3.9.3,13-3.6,16.1h-.1Z"/></g>

  <g class="candle c6" transform="translate(72, 62) scale(1.5) translate(-72, -62)"><path d="M80.2,56.5c-.9,2-3.1,3.9-5.7,4.9-.3,0-.5.2-.8.3-3.8,2.2-6.9.6-8.5-.9-3.5-5.4-3.1-10.7-1.6-15.9,0-.3.2-.6.3-.9,1.3-2.2,2.2-4.3,2.8-6.5,0-.3,0-.5.2-.8,2-5.7-2.7-8.8-2.7-15.1,6.3,3.1,9.4,11,12.4,15.9,0,.3.3.5.5.8.3.5.6.9,1.1,1.4,0,.3.3.5.3.8,1.4,3,2.7,6.1,2.7,9.6v.9c0,1.7-.3,3.6-1.1,5.4v.3h0v-.2h.1Z"/></g>

  <g class="candle c7" transform="translate(72, 62) scale(1.5) translate(-72, -62)"><path d="M83.1,44.4c.5,4.3-1.6,8.3-3.9,12.8-1.3,2-2,4.7-4.4,5.5-1.7.3-3.6-1.3-5.4-2.8-2.8-2.8-6-5.8-6.8-10.1-.9-5.4,3.5-9.4,5.4-14,.8-1.9,1.9-5,3.6-6.1,2.5-1.7,3.1,2.4,4.6,4.1s3,3.1,4.4,4.9c1.4,2,2.2,3.9,2.4,5.8h.2,0Z"/></g>

  <g class="candle c8" transform="translate(72, 62) scale(1.5) translate(-72, -62)"><path d="M83.3,44.4c.5,4.3-1.6,8.3-3.9,12.8-1.3,2-2,4.7-4.4,5.5-1.7.3-3.6-1.3-5.4-2.8-2.5-2.5-5.4-5.2-6.4-8.7s-.9-7.7-.2-11.6c.6-3.8,1.6-7.5,1.8-11.4s-.2-7.9-2.4-11.1c4.7,2.2,8.6,6,11.7,10.2s3.7,5.7,5.4,8.7,1.6,3,2.4,4.6,1.4,3.8,1.2,3.8h.3Z"/></g>

  <g class="candle c9" transform="translate(72, 62) scale(1.5) translate(-72, -62)"><path d="M62.5,44.4c0,.2,0,.4,0,.7,0,1.9.2,3.8.5,5.7.7,3.7,1.9,9,5.4,11.2s2.9.9,4.4.3c4.9-2.1,7.5-9.7,6.4-14.5s-2.5-5.7-4.2-8.3c-3.3-4.9-6.8-9.9-11.6-13.3,1.1,2.8,1.2,5.9.9,8.8-.3,2.1-.7,4.1-1.3,6.1s-.4,2.2-.4,3.3Z"/></g>

  <g class="candle c10" transform="translate(72, 62) scale(1.5) translate(-72, -62)"><path d="M79.2,47.5c.2,3-.3,6-1.7,8.7,0,0,0,.3-.2.5-3.1,6.9-7.4,7.7-12.1,3.5-.2-.2-.5-.5-.6-.6-2.7-2.7-2-7.6-.7-10.7s2.1-2.8,3.1-4.3,1.7-3.5,2.1-5.5c.5-3.3,0-6.7-1.7-9.6-1.5-2.6-3.7-4.8-4.5-7.7-.7-2.6-.1-5.3.5-7.9.3,5.4,1.7,10.9,5.1,15.2,1.8,2.2,4.1,4,6,6.2,2.8,3.3,4.6,7.7,4.9,12.2Z"/></g>

  <g class="candle c11" transform="translate(72, 62) scale(1.5) translate(-72, -62)"><path d="M63.7,24.7c2.7,5,7.8,8.3,11.1,13,3.6,5.1,4.6,11.8,3,17.8-.7,2.7-2.2,4.3-4.5,5.9s-5.4,2-7.3-.2c-1.6-2.5-2.8-5.3-3.3-8.2s.2-5.8.7-8.9c1-6.7,1-13.5,0-20.2.1.3.3.5.4.8Z"/></g>

  <g class="candle c12" transform="translate(72, 62) scale(1.5) translate(-72, -62)"><path d="M74.8,60.3c-1.2,1.3-2.7,2.2-4.5,2.4s-3,.2-4.4-.7-2.7-2.3-2.7-3.6c0-.3-.2-.6-.3-.9-.6-3.1-.8-6,.4-9.1.8-2,1.8-3.8,2.6-5.8,1.7-4.7,1.4-9.9,1.1-14.9.9,4.3,4.6,7.4,7.1,11.1,1.5,2.3,2.6,5,3.2,7.7.7,3.1,1,6.4,0,9.4s-1.3,3.1-2.5,4.3Z"/></g>

  <g class="candle c13" transform="translate(72, 62) scale(1.5) translate(-72, -62)"><path d="M80.2,56.5c-.9,2-3.1,3.9-5.7,4.9-.3,0-.5.2-.8.3-3.8,2.2-6.9.6-8.5-.9-3.2-3-3.2-10.2-2-14.1s3.4-10.1,6.3-14.4c2.8-4.3,7.1-8,12.1-9.1-3.6,1.4-5.6,5.5-5.5,9.3.1,3.7,2.1,6.2,3.5,9.5s1.6,5.6,1.6,8.1v.9c0,1.7-.3,3.6-1.1,5.4v.3-.2h.1Z"/></g>

  <g class="candle c14" transform="translate(72, 62) scale(1.5) translate(-72, -62)"><path d="M83.1,44.4c.5,4.3-1.6,8.3-3.9,12.8-1.3,2-2,4.7-4.4,5.5-1.7.3-3.6-1.3-5.4-2.8-2.8-2.8-6-5.8-6.8-10.1-.9-4.7,2.5-8.5,4.6-12.2s3.9-8.9,4.6-13.6c.3-1.9.7-4.1,2.5-4.8-.6.2.4,6,.6,6.6.4,2.3,1.1,4.6,2,6.7,1.7,4.1,5.7,7.6,6.2,12h.2,0Z"/></g>
</svg>
