<?xml version="1.0" encoding="UTF-8"?>
<svg xmlns="http://www.w3.org/2000/svg" viewBox="0 0 162 236.5">
  <style>
    .frame { opacity: 0; }
    .frame1 { animation: frame1 1.2s infinite step-end; }
    .frame2 { animation: frame2 1.2s infinite step-end; }
    .frame3 { animation: frame3 1.2s infinite step-end; }
    .frame4 { animation: frame4 1.2s infinite step-end; }
    .frame5 { animation: frame5 1.2s infinite step-end; }
    .frame6 { animation: frame6 1.2s infinite step-end; }
    .frame7 { animation: frame7 1.2s infinite step-end; }
    .frame8 { animation: frame8 1.2s infinite step-end; }

    @keyframes frame1 {
      0%, 0.0% { opacity: 0; }
      0.0%, 12.5% { opacity: 1; }
      12.5%, 100% { opacity: 0; }
    }

    @keyframes frame2 {
      0%, 12.5% { opacity: 0; }
      12.5%, 25.0% { opacity: 1; }
      25.0%, 100% { opacity: 0; }
    }

    @keyframes frame3 {
      0%, 25.0% { opacity: 0; }
      25.0%, 37.5% { opacity: 1; }
      37.5%, 100% { opacity: 0; }
    }

    @keyframes frame4 {
      0%, 37.5% { opacity: 0; }
      37.5%, 50.0% { opacity: 1; }
      50.0%, 100% { opacity: 0; }
    }

    @keyframes frame5 {
      0%, 50.0% { opacity: 0; }
      50.0%, 62.5% { opacity: 1; }
      62.5%, 100% { opacity: 0; }
    }

    @keyframes frame6 {
      0%, 62.5% { opacity: 0; }
      62.5%, 75.0% { opacity: 1; }
      75.0%, 100% { opacity: 0; }
    }

    @keyframes frame7 {
      0%, 75.0% { opacity: 0; }
      75.0%, 87.5% { opacity: 1; }
      87.5%, 100% { opacity: 0; }
    }

    @keyframes frame8 {
      0%, 87.5% { opacity: 0; }
      87.5%, 100.0% { opacity: 1; }
      100.0%, 100% { opacity: 0; }
    }
  </style>

  <g class="frame frame1">
    <g>
      <path d="M155.5,143.2c-.5-4.6-1.6-9-3-13.3-.7-2.4-1.4-5-2.6-7.3-2.3-4.7-6.2-7.8-9.5-12-2.4-3.1-4.4-6.5-6.5-10-.1-.2-.2-.4-.4-.6-1.8-3.7-4.3-7.6-7.4-10.7-.1-.1-.4-.4-.5-.5-.5-.4-.8-.7-1.2-1-.1.5-.5,1.1-.8,1.4-.5.5-1.3,1.1-2.6,1.1-2.5-.1-4.8-1-7.1-1.8-4.8-1.8-7.4-2.5-10,1.4-.8,1.4-1.4,2.8-2.2,4.1-2.3,4.8-4.4,9.4-13.7,7-3.1-.8-5.8-2.5-8.3-4.2-.6-.5-1.3-.8-1.9-1.3-2.3-1.4-8.4-2.2-11.2-1.7-1.6.2-3.1,1.3-4.8,2.4-1.8,1.3-3.7,2.5-6.1,3-1.9.4-4,.4-5.9.4s-3.7,0-5.4.4c-7.2,1.7-10.3,7.2-13.6,13-2.9,5.2-6,10.6-12,13.6-1.7.8-3.1,1.2-4.3,1.2s-2.2-.4-2.9-1.1c-.7-.6-1.1-1.4-1.4-2.3-4.2,13-4,20,1.8,34.4,11.6,29,36.5,49.8,40.9,51.8,4.8,2.2,28-6,33.1-5.5,4.3.5,7.2,5.2,8.9,8.6.8,1.6,3,10.6,4.7,10.9,1.1.1,2.3-.2,3.5-.6.5-.1,1.1-.4,1.6-.4,1.7-.5,2.9-.8,3.5-1.1-.4-1-.8-2.3-1.2-3.2-1.3-3.5-2.3-6.7-2.4-10.6,3.6-1.6,4.9,7.1,5.8,9.2.5,1.3,1,2.8,1.3,3.7,1.4-.4,3.7-1.2,6-1.9s4.6-1.6,6-2c-.6-1.7-1-3.4-1.7-4.9-.6-1.3-1.3-2.2-1.6-3.7-.1-1-.7-6.8,1.7-5.4,1.4,1,2,3.1,2.5,4.7.5,1.7,1.2,3.2,1.7,4.9.4,1.1,1,2.6,1.3,3.5.5-.1,1.2-.4,2-.5,2.2-.6,6.6-1.7,8.5-2.3-.1-.7-.5-1.8-1-3.2-.7-2.2-1.2-4.3-1.6-6.6,0-.8,0-1.7.7-2.4.8-.7,4,7.2,4.3,7.8.6,1.3,1,2.9,2.4,3.1,1.9.4,3.8-1.2,5.4-1.9,1.7-.8,3.5-1.4,4.1-3.4.8-2.9-.7-5.9-2.5-8-1.9-2.4-3.5-5.2-4.6-8-1.3-3.5-4.3-18.1-4.2-19.2.7-4.6,3.5-8,7.9-10,3.5-1.6,5.4-4.7,5.6-8.6.1-1.9-.1-3.8.2-5.6.4-1.8.6-3.1.4-5h0v.2ZM104.6,157.6c-.5,16-18.6,28.2-32.4,13.7-8.3-8.3-9.5-24.5,1.2-31.2,13-8.4,30,2.5,31.3,17.3v.2h-.1ZM120.8,176.8c-7.1-19.9-.6-22.3,6.1-1.4,1.2,3.7-4.9,5.3-6.1,1.4ZM145.9,155.8v.2c-8,10.7-22.1,1.9-25-11.4-3.6-14,6.6-29.3,19.6-20.5,10.2,5.9,12.4,22.8,5.4,31.7h0Z"/>
      <path d="M17.4,123.5c5-2.6,7.7-7.2,10.6-12.1,3.5-6.2,7.2-12.6,15.8-14.8,2.2-.5,4.2-.5,6.2-.5s3.5,0,5-.2c1.7-.4,3.1-1.4,4.8-2.5,1.9-1.3,3.8-2.6,6.1-3,3.2-.6,10.4,0,13.8,2.2.7.5,1.3.8,2,1.3,2.4,1.6,4.6,3.1,7.1,3.7,6.4,1.7,7.3-.2,9.6-5,.6-1.3,1.3-2.9,2.3-4.4,4.1-6.7,9.7-4.7,14.2-3,1.9.7,4.1,1.4,5.9,1.6v-1.7c-.4-4.6-7.8-7.7-13.8-10.2-4.2-1.8-7.4-3.2-8.8-5.2-1.2-1.8-1.4-4.4-1.8-7.3-.6-5.5-1.2-7.4-3.5-7.4h0c-1.8,0-4.2,1.1-6.6,2-1.7.7-3.4,1.3-4.8,1.7-5.3,1.3-11,2.5-16.6,3-2,.1-4.6-.5-7.1-1.2-1.8-.5-4.9-1.3-5.6-1-1.6,1-1.4,2.8-1,6.4.5,3.5,1.1,7.9-2.9,10.2-11.9,6.8-22.8,18.1-29.4,30.1-1.6,2.9-2.9,5.8-4,8.6-1.7,4.4-1.7,8.4-.8,9.2.4.2,1.3.2,3.2-.7h0v.2Z"/>
    </g>
    <path d="M81.9,34c.5,4.3-1.6,8.3-3.9,12.8-1.3,2-2,4.7-4.4,5.5-1.7.3-3.6-1.3-5.4-2.8-2.8-2.8-6-5.8-6.8-10.1-.9-5.4,3.5-9.4,5.4-14,.8-1.9,1.9-5,3.6-6.1,2.5-1.7,3.1,2.4,4.6,4.1s3,3.1,4.4,4.9c1.4,2,2.2,3.9,2.4,5.8h.2Z"/>
  </g>

  <g class="frame frame2">
    <path d="M80.5,38.8h0c0,.2,0,.5-.2.6-1.1,3.8-3.1,7.8-5.2,11.2h0s-.2.3-.3.5h0c0,.4-.6.6-.8.9-1.3.7-2.6.3-3.8-.8h0c-.5-.5-.9-.9-1.4-1.3h0c-2.1-1.9-3.8-3.6-5.4-5.5h0c-2-2.7-2.8-5.5-2.2-8.5h0c.3-1.3,1.1-2.5,2-3.9,0-.2.3-.3.3-.5.6-.7,1.1-1.4,1.9-2h0c2.6-2.6,4.7-4.6,5.5-8.7h0c.3-1.3.7-2.8.8-4.3l1.1-.3c3.1,4.4,6.6,8.9,8.3,14h0c.2.6.3,1.1.5,1.7,0,.8.5,1.7.3,2.5h0c.1.3-1.2,2.7-1.6,4.3Z"/>
    <g>
      <path d="M152.2,130c-.7-2.4-1.4-5-2.6-7.3-2.3-4.7-6.2-7.8-9.5-12-2.4-3.1-4.4-6.5-6.5-10-.1-.2-.2-.4-.4-.6-.8-1.8-1.9-3.6-3.1-5.4-.7.7-1.4,1.1-1.8,1.4-4,2.4-7.9,2.9-11.5,3.2-1.8.2-3.6.4-5.2.8-1.1.2-2.2,1-3.5,1.8-1.9,1.3-4.4,3-7.8,3.2h-1.1c-4.1,0-7-1.8-9.4-3.4-1-.6-1.8-1.2-2.8-1.7-4.8-2.4-9.4-3.7-12.8-3.7s-6.4,1.6-7.7,5.2c-1.9,5.2-5.8,8.2-10.3,8.2s-3.1-.4-4.6-1c-1.7-.7-2.9-1.8-3.8-2.8-.6-.5-1.1-1-1.6-1.2-.6-.2-1.6-.5-3-.5h-3.8q-2.8,0-3.8,2.5c-2.6,6.8-6.5,11.5-10.4,16.6-1.7,2-3.4,4.2-4.9,6.5-3.8,5.4-4.4,10.6-2,16.6.5,1.1,1.6,2.6,2.6,4.3,3.1,4.4,6.8,10,4.3,15.6-1.7,3.5-4.1,4.1-5.4,4.1s-1.8-.2-2.6-.7c12.6,23.2,31.9,39,35.8,40.8,4.8,2.2,28-6,33.1-5.5,4.3.5,7.2,5.2,8.9,8.6.8,1.6,3,10.6,4.7,10.9,1.1.1,2.3-.2,3.5-.6.5-.1,1.1-.4,1.6-.4,1.7-.5,2.9-.8,3.5-1.1-.4-1-.8-2.3-1.2-3.2-1.3-3.5-2.3-6.7-2.4-10.6,3.6-1.6,4.9,7.1,5.8,9.2.5,1.3,1,2.8,1.3,3.7,1.4-.4,3.7-1.2,6-1.9s4.6-1.6,6-2c-.6-1.7-1-3.4-1.7-4.9-.6-1.3-1.3-2.2-1.6-3.7-.1-1-.7-6.8,1.7-5.4,1.4,1,2,3.1,2.5,4.7.5,1.7,1.2,3.2,1.7,4.9.4,1.1,1,2.6,1.3,3.5.5-.1,1.2-.4,2-.5,2.2-.6,6.6-1.7,8.5-2.3-.1-.7-.5-1.8-1-3.2-.7-2.2-1.2-4.3-1.6-6.6,0-.8,0-1.7.7-2.4.8-.7,4,7.2,4.3,7.8.6,1.3,1,2.9,2.4,3.1,1.9.4,3.8-1.2,5.4-1.9,1.7-.8,3.5-1.4,4.1-3.4.8-2.9-.7-5.9-2.5-8-1.9-2.4-3.5-5.2-4.6-8-1.3-3.5-4.3-18.1-4.2-19.2.7-4.6,3.5-8,7.9-10,3.5-1.6,5.4-4.7,5.6-8.6.1-1.9-.1-3.8.2-5.6.4-1.8.6-3.1.4-5-.5-4.6-1.6-9-3-13.3h0l-.2.4ZM104.4,157.6c-.5,16-18.6,28.2-32.4,13.7-8.3-8.3-9.5-24.5,1.2-31.2,13-8.4,30,2.5,31.3,17.3v.2h-.1ZM120.6,176.9c-7.1-19.9-.6-22.3,6.1-1.4,1.2,3.7-4.9,5.3-6.1,1.4ZM145.6,155.9v.2c-8,10.7-22.1,1.9-25-11.4-3.6-14,6.6-29.3,19.6-20.5,10.2,5.9,12.4,22.8,5.4,31.7h0Z"/>
      <path d="M17.6,165.9c.1.2.4.4.5.5h0c.1.1.4.2.5.4h0c.1.2.4.2.5.4h1s.2,0,.2-.1h0s.2-.1.4-.2h0s.1-.1.2-.2h0c0-.1.1-.4.2-.5h0c0-.2.2-.5.2-.6,1.6-3.5-.7-7.4-3.2-11-.5-.7-1-1.4-1.4-2.2-.7-1.1-1.3-2-1.8-3-.1-.4-.2-.6-.5-1-1-2.4-1.6-4.6-1.7-6.8v-2.2c0-1.2.2-2.5.6-3.7.2-.8.5-1.7.8-2.4.7-1.6,1.6-3.2,2.8-4.8,1.4-1.9,2.8-3.7,4.2-5.5s1.3-1.7,2-2.6c1.7-2.2,3.4-4.3,4.8-6.6,1.4-2.3,2.9-4.8,4-7.6.2-.7.6-1.4.8-1.9.2-.4.4-.7.6-1,0-.1.2-.2.4-.4.2-.2.5-.5.7-.6.1,0,.2-.1.4-.2.5-.2,1.1-.4,1.7-.5s1.4-.1,2.3-.2h6.5c.2,0,.5,0,.7.1h.4c.4,0,.7.2,1,.4,1.9,1,3.1,3,5.3,3.8.2,0,.6.2.8.4h.2c.1,0,.4,0,.6.1h2.8c.2,0,.6-.1.8-.2h.1c.2,0,.6-.2.8-.5h.2c.2-.1.5-.4.7-.5h0l.7-.7s0-.1.1-.2c.2-.2.5-.5.6-.8h0c.2-.4.4-.6.6-1,0,0,0-.1.1-.2.1-.4.4-.7.5-1.1h0c0-.1,0-.2.1-.4,0-.2.1-.5.2-.6,0,0,.1-.2.1-.4,0-.2.1-.4.2-.6,0,0,.1-.2.2-.4,0-.1.2-.4.4-.5,0,0,.1-.2.2-.2.1-.1.2-.4.4-.5l.2-.2c.1-.1.2-.4.4-.5,0,0,.1,0,.2-.2l.5-.5s.1,0,.2-.1c.1-.1.4-.2.5-.4,0,0,.1,0,.2-.1.1,0,.4-.2.5-.4,0,0,.1,0,.2-.1.1,0,.4-.2.5-.2h.2c.1,0,.4-.1.5-.2h.2c.1,0,.4-.1.5-.2h.2c.1,0,.4,0,.5-.1h5.2c.6,0,1.2.1,1.8.2h0c.6,0,1.2.2,1.8.4h0c.6.1,1.2.4,1.8.5h0c.6.2,1.2.4,1.8.6h0c1.8.7,3.6,1.4,5.2,2.3.5.2.8.5,1.3.7h0c.4.2.8.5,1.2.7h.2c.2.2.6.4.8.5,0,0,.1,0,.2.1.4.2.7.5,1.1.6h.1c.4.2.7.4,1.1.6h.1c.4.1.7.4,1.1.5h.1c.4,0,.8.2,1.2.2h2.4c1.4,0,2.6-.6,3.8-1.2.4-.2.7-.4,1.1-.6.6-.4,1.2-.8,1.8-1.2.4-.2.8-.5,1.2-.7.5-.2.8-.5,1.3-.7s1-.4,1.4-.5c.7-.1,1.3-.4,2-.4,1.7-.2,3.4-.5,5-.6,1,0,1.9-.2,3-.5,1-.2,1.9-.5,2.9-.8s1.9-.8,2.9-1.3c.7-.5,1.2-.8,1.6-1.2,2.2-2.4-1.3-4.1-3.4-6.1-.5-.5-.8-1-1.3-1.4-.5-.5-.8-1.1-1.3-1.6-1.3-1.6-2.5-3.1-4.2-4.3-5.4-3.8-14.4-3.7-18.2-9.6-.1-.2-.4-.5-.5-.8h0c-.1-.4-.2-.6-.4-1h0c0-.4-.1-.7-.2-1.1h0c0-.4-.1-.8-.2-1.2h0c0-.5,0-.8-.1-1.3h0c0-.5,0-1-.1-1.3,0-.4,0-.8-.1-1.2h0c0-.4,0-.8-.1-1.2h0c0-.4-.1-.7-.2-1.1h0c0-.4-.1-.7-.2-1.1h0c0-.4-.2-.7-.4-1h0c-.1-.4-.2-.6-.5-.8h0c-.1-.2-.4-.5-.6-.7h0c-.2-.2-.5-.4-.7-.5h0c-.2-.1-.6-.2-.8-.4h-1.2c-3.5,0-8.4,3-11.9,3.8-5.3,1.3-10.9,2.5-16.3,3h-1.8c-.4,0-.7,0-1.1-.2h-.1c-.5,0-.8-.2-1.3-.4h-.4c-.5,0-1-.2-1.3-.4-.5,0-.8-.2-1.3-.4h-.4c-.5,0-.8-.2-1.3-.4h-.2c-.4,0-.7-.1-1.1-.2h-2.4c-.2,0-.5.1-.6.2-5.5,3.4,2,13.2-3.8,16.6-1.6,1-3.1,1.9-4.7,3s-3,2.2-4.6,3.4c-.7.6-1.4,1.2-2.2,1.8-1.4,1.2-2.8,2.5-4.1,3.8-.7.6-1.3,1.3-1.9,1.9-1.7,1.8-2.5,3.1-3.1,4.6s-.7,3-1.2,5.3c-.1.6-.2,1.2-.5,1.8,0,.2-.1.4-.2.5-.8,2.2-1.9,4.2-3.1,6.2-.7,1.1-1.3,2.2-1.9,3.2-.4.5-.6,1.1-.8,1.6-.5,1-1,1.9-1.6,2.8-1.6,2.8-3.1,5.5-4.3,8.4-1,2.4-2,5.2-2.5,7.8-.2.8-.4,1.7-.5,2.5-.2,1.8-.2,3.7-.2,5.6s.1,3.8.4,5.8.5,3.8,1,5.6c.5,1.8,1,3.6,1.4,5.3,0,0,0,.2.1.5h0c0,.1.1.4.2.6h0c0,.2.1.4.2.6h0c0,.2.2.5.2.7h0c0,.4.2.6.4,1h0c.1.2.2.6.4.8v.2c.1.2.2.6.4.8h0c.1.4.2.6.4,1h0c.1.4.2.7.5,1v.2c.1.2.4.6.5.8h0c.1.2.4.5.5.7h0c.1.4.4.6.5.7h0l1.8-.8Z"/>
    </g>
  </g>

  <g class="frame frame3">
    <g>
      <path d="M152.6,129.7c-.7-2.4-1.4-5-2.6-7.3-2.3-4.7-6.2-7.8-9.5-12-2.4-3.1-4.4-6.5-6.5-10-.1-.2-.2-.4-.4-.6-.1-.2-.2-.6-.5-1-.8.2-1.8.4-2.9.4-2.2,0-4.2-.5-5.5-.8-3.2-1-6.6-1.8-9.4-1.8s-6,1.4-8.2,4.6c-4.4,6.6-9,9.2-16.7,9.4h-.2c-1.8,0-3.5-.2-4.8-.5-1.2-.2-2.4-.4-3.6-.4s-.5,0-.7,0c-5.4.4-8,1.6-9.5,4.2-.2.5-.6,1.4-1,2.5-1.7,4.8-4.1,11.4-9.7,11.4s-3.6-.8-5.3-2.3c-3-2.8-4.6-6.2-6-9.6-1.1-2.3-2-4.6-3.4-6.2-2.2-2.6-3.7-3.2-5.6-3.2s-3.5.4-5.8.8h-.1c-3.4.6-5.3,2.2-7.9,6.1-4.6,7-7.7,16.2-8,24.2-.1,3.7,1.3,6.5,3,9.8,1,1.8,1.9,3.6,2.6,5.8,1.7,4.6,1.8,8.9,1.9,13.2,0,3,.1,5.9.7,8.6.4,1.4,1.7,3.5,3,5.4,2.5,3.7,5.3,7.8,4.3,12.6,0,.2-.1.5-.2.8,8.5,9.6,16.3,15.6,18.6,16.7,4.8,2.2,28-6,33.2-5.5,4.3.5,7.2,5.2,8.9,8.6.8,1.6,3,10.6,4.7,10.9,1.1.1,2.3-.2,3.5-.6.5-.1,1.1-.4,1.6-.4,1.7-.5,2.9-.8,3.5-1.1-.4-1-.8-2.3-1.2-3.2-1.3-3.5-2.3-6.7-2.4-10.6,3.6-1.6,4.9,7.1,5.8,9.2.5,1.3,1,2.8,1.3,3.7,1.4-.4,3.7-1.2,6-1.9s4.6-1.6,6-2c-.6-1.7-1-3.4-1.7-4.9-.6-1.3-1.3-2.2-1.6-3.7-.1-1-.7-6.8,1.7-5.4,1.4,1,2,3.1,2.5,4.7.5,1.7,1.2,3.2,1.7,4.9.4,1.1,1,2.6,1.3,3.5.5-.1,1.2-.4,2-.5,2.2-.6,6.6-1.7,8.5-2.3-.1-.7-.5-1.8-1-3.2-.7-2.2-1.2-4.3-1.6-6.6,0-.8,0-1.7.7-2.4.8-.7,4,7.2,4.3,7.8.6,1.3,1,2.9,2.4,3.1,1.9.4,3.8-1.2,5.4-1.9,1.7-.8,3.5-1.4,4.1-3.4.8-2.9-.7-5.9-2.5-8-1.9-2.4-3.5-5.2-4.6-8-1.3-3.5-4.3-18.1-4.2-19.2.7-4.6,3.5-8,7.9-10,3.5-1.6,5.4-4.7,5.6-8.6.1-1.9-.1-3.8.2-5.6.4-1.8.6-3.1.4-5-.5-4.6-1.6-9-3-13.3h.1ZM104.7,157.3c-.5,16-18.6,28.2-32.4,13.7-8.3-8.3-9.5-24.5,1.2-31.2,13-8.4,30,2.5,31.3,17.3v.2h-.1ZM120.9,176.7c-7.1-19.9-.6-22.3,6.1-1.4,1.2,3.7-4.9,5.3-6.1,1.4ZM146,155.5v.2c-8,10.7-22.1,1.9-25-11.4-3.6-14,6.6-29.3,19.6-20.5,10.2,5.9,12.4,22.8,5.4,31.7h0Z"/>
      <path d="M13.5,156c-1-.6-2-1.3-3-2.2.5,1.6,1.1,3.1,1.8,4.9,1.3,3.2,2.8,6.2,4.3,9.2.1-1.8.1-3.6.2-5.3h0c0-3,0-4.2-1.1-5.2-.5-.5-1.3-1.1-2.2-1.6h-.1Z"/>
      <path d="M24.1,175.9c-.2-1-.4-1.8-.5-2.6-.4-3.1-.4-6.4-.5-9.5,0-1.8-.2-3.6-.5-5.3-.2-1.3-.6-2.6-1.1-4-.2-.7-.6-1.4-1-2.2-1.3-2.8-2.9-5.3-3.8-8-.7-2-1.3-4.3-1.2-6.8v-1.7c0-1.1.2-2.3.4-3.4.4-2.3.8-4.6,1.6-6.8.1-.6.4-1.1.5-1.7.4-1.1.7-2.3,1.2-3.4.5-1.1,1-2.2,1.4-3.2,1-2.2,2.2-4.1,3.4-5.9.7-1.1,1.3-1.9,2-2.8,1.4-1.7,3-2.9,4.9-3.8,1-.5,2-.7,3.2-1,.5,0,1.1-.2,1.6-.2h.4c.5,0,1.1-.2,1.6-.2h.1c.5,0,.8,0,1.3-.1h4.1c.2,0,.5,0,.7.2h.2c.4,0,.6.2,1,.4h.1c.2.1.5.2.7.5,0,0,.2.1.4.2.2.1.5.4.6.5,0,0,.2.2.4.2.2.2.5.4.7.6l.2.2c.4.4.6.7,1,1.1,3.4,4.1,4.4,9.7,7.6,13.9.5.6,1,1.2,1.6,1.7.2.2.5.4.7.5,0,0,.1,0,.1.1.1,0,.4.2.5.2h.1c.2,0,.4.1.6.2h1.2c.2,0,.4-.1.6-.2h0c.2,0,.4-.2.6-.4h0l.5-.5h0c.1-.2.4-.4.5-.6h0c.1-.2.4-.5.5-.7h0c.1-.4.2-.6.5-1h0c.1-.2.2-.6.4-.8h0c.1-.4.2-.7.4-1h0c.1-.4.2-.7.4-1.1h0c.1-.2.2-.6.4-.8h0c0-.4.2-.7.4-1,0-.2.2-.6.4-.8h0c0-.2.1-.5.2-.7h0c0-.4.1-.5.2-.7h0c0-.2.1-.4.2-.5.1-.2.4-.6.5-.8,1.1-1.7,2.4-2.8,4.1-3.5.5-.2,1.1-.5,1.7-.7.2,0,.6-.2.8-.2,1.3-.4,2.6-.6,4-.7h6c.2,0,.6,0,.8.1h4.3c6.7,0,10.1-2.4,13.7-7.8.2-.5.6-.8,1-1.3v-.2c.4-.4.7-.7,1.1-1.1,0,0,.1,0,.1-.2.4-.4.6-.6,1-.8h.1c.4-.2.7-.5,1.1-.7h0c.4-.2.7-.4,1.1-.6h.1c.4-.1.7-.2,1.1-.5h.2c.4,0,.7-.2,1.2-.4h0c.4,0,.7-.1,1.2-.2h4.7c.4,0,.7,0,1.1.1h.5c.2,0,.6,0,1,.2h.6c.4,0,.6.1,1,.2.1,0,.4,0,.6.1.4,0,.7.2,1.1.2s.4,0,.5.1c.5.1,1,.2,1.6.5.2,0,.6.1,1,.2h.2c.2,0,.6,0,.8.2h.1c.4,0,.7,0,1.1.1h2.3c.2,0,.5,0,.7-.1h.2c.1,0,.4,0,.5-.2s.1,0,.2,0,.4-.2.5-.4h.1c.1-.1.4-.4.5-.6h0c0-.2.1-.5.2-.7v-2.2c-.6-3.6-7.3-7.6-10.1-9.4-.8-.5-1.7-1.1-2.5-1.6s-1.7-1-2.5-1.4c-.8-.5-1.7-1-2.5-1.3-.8-.5-1.7-.8-2.4-1.3-.8-.4-1.6-.7-2.3-1.1-1.1-.5-2.2-1-3-1.4s-1.6-.7-2.2-1c-2.2-1-5.6-1.9-7.1-4-1.1-1.4-.6-12.6-2.3-12.7h-1.1c-.1,0-.4,0-.5.1s-.2,0-.5.1c-.1,0-.4.1-.6.2-.1,0-.2,0-.5.2-.2,0-.4.2-.6.2s-.2.1-.4.2c-.2,0-.5.2-.6.4-.2,0-.5.2-.6.4-.2,0-.5.2-.6.4-.2,0-.4.2-.6.4-.1,0-.2.1-.4.2-.2.1-.6.2-.8.4-1,.4-1.8.6-2.6,1-2.8.8-5.5,1.3-8.5,1.7-6.2.8-12.7,2-19,2.2h-2.5c-.2-.1-.5-.1-.7-.2-.2,0-.5,0-.7-.1-.2,0-.5,0-.7-.1-.2,0-.6,0-1-.1h-3.2c0,1.4,0,2.8-.1,3.8,0,.6,0,1.1-.1,1.6-.1,1-.4,1.8-.7,2.6-.6,1.3-1.7,2.4-3.5,3.8-2.9,2.3-6.1,4.3-8.9,6.6-1.3,1.1-2.5,2.2-3.7,3.2-3,2.8-5.8,5.9-8.3,9.2-1,1.3-1.9,2.6-2.9,4.1-.5.7-1,1.4-1.3,2-1.8,2.8-3.4,5.8-4.7,8.8-.7,1.4-1.3,2.9-1.8,4.3v.2c-.6,1.6-1.2,3.2-1.7,4.8s-1,3.2-1.3,4.9c-.7,3.4-1.3,6.7-1.6,10.1-.2,3.5-.8,7.6-.2,11.3.1.7.2,1.4.5,2.2.5,1.4,1.1,2.8,2.2,3.8.4.5.8.8,1.3,1.2.5.4,1.1.7,1.6,1.1.7.5,1.6,1,2.2,1.4.2.2.6.5.8.8.2.2.5.6.7.8.2.4.5.8.6,1.2.7,1.7.7,3.5.7,5.5,0,3.1,0,5.9-.6,8.8,0,.6-.1,1.2-.2,1.9-.2,1.7-.2,3.6-.4,5.4v7.4c0,3.5-1.1,7.6,1.8,9.8.2.2.6.4.8.6,0,0,.2,0,.2.1.2,0,.4.2.6.2h.4c.2,0,.4,0,.6.1h2.5c.2,0,.5,0,.7-.2h.2c.4,0,.6-.2,1-.4h0c.2-.1.5-.2.7-.5,0,0,.1,0,.2-.1.2-.1.4-.4.6-.5h.1c.2-.4.5-.6.6-.8,0,0,0-.1.1-.2.1-.2.2-.5.4-.7v-.2c.1-.2.2-.6.2-1,.1-.8.1-1.6,0-2.4-.8-4.8-6.2-9.7-7.3-14.2h0l.8-.5Z"/>
    </g>
    <path d="M81.9,37.9c.5,4.3-1.6,8.3-3.9,12.8-1.3,2-2,4.7-4.4,5.5-1.7.3-3.6-1.3-5.4-2.8-3-3-6.3-6.1-6.8-10.5-.3-4.6.5-9.8,2.7-14,1.3-2.5,2.4-5.2,4.1-7.4.9-1.1,3.3-4.7,4.9-3,.9,1.3-.5,4.3,0,5.7,1.3,3.1,4.1,5.2,6.1,8,1.4,2,2.2,3.9,2.4,5.8h.3Z"/>
  </g>

  <g class="frame frame4">
    <g>
      <path d="M29.6,214.2c-.8,1.3-1,2.2-1.9,3.2s-2.3,2.3-3.1,3.5c-2.2,2.9-.1,4.4,2.9,4.7,2.5.1,6.1-1.2,8.4-2.3,7.6-3.5-3-14.5-6.2-9.2h0Z"/>
      <path d="M152.1,129.9c-.7-2.4-1.4-5-2.6-7.3-2.3-4.7-6.2-7.8-9.5-12-1.7-2.2-3.1-4.4-4.6-6.8h-1.2c-3.6,0-5.6-2.6-6.8-4.2-.4-.5-.8-1.2-1.2-1.3h0c-.2,0-.5.2-.7.2-1.1.4-2.4,1-4.3,1h0c-1,0-2,0-3-.1-1.1,0-2-.1-3-.1-5.4,0-7.4.6-11.5,3.6-2,1.6-4.3,3-7.3,3.8-1.3.4-2.8.6-4.1.6-3.5,0-6.5-1.2-9.1-2.3-2-.8-4-1.6-6-1.8h-1.1c-2.5,0-4.9.7-6.2,2-1.3,1.2-3.1,3.1-3.5,3.7-.7,1.8.5,4.4,1.7,7.1.8,1.9,1.8,3.8,2.2,5.9.6,3-.2,6.4-2.2,8.6-1.7,2-3.8,3.1-6.4,3.1s-.7,0-1.1,0c-5.2-.7-6.8-4.8-7.9-7.4-.2-.7-.6-1.4-.8-2-4.1-7.6-11.6-15.7-14-16-2,1.1-2.9,2.8-4.1,5.8-.4.8-.7,1.7-1.1,2.5-.6,1.3-1.3,2.5-1.9,3.7-.8,1.4-1.6,2.8-2.2,4.2s-.8,3.1-1,4.9c-.1,1.2-.2,2.4-.5,3.7-.5,2-1,4-1.3,5.9-.7,3.1-1.4,6-1.9,9.1-.8,5.5-.1,11,1.7,15.2.5,1.1.7,2.4,1.1,4.1.2,1.3.8,4,1.4,5l1.4.2.6,2.2c.6,1.9,0,3.2-.2,3.8,0,.4.1.8.2,1.3,0,.2.1.6.2.8,1,5,.7,7.2,0,8.4,10.1,12.4,20,20.3,22.7,21.5,4.8,2.2,28-6,33.1-5.5,4.3.5,7.2,5.2,8.9,8.6.8,1.6,3,10.6,4.7,10.9,1.1.1,2.3-.2,3.5-.6.5-.1,1.1-.4,1.6-.4,1.7-.5,2.9-.8,3.5-1.1-.4-1-.8-2.3-1.2-3.2-1.3-3.5-2.3-6.7-2.4-10.6,3.6-1.6,4.9,7.1,5.8,9.2.5,1.3,1,2.8,1.3,3.7,1.4-.4,3.7-1.2,6-1.9s4.6-1.6,6-2c-.6-1.7-1-3.4-1.7-4.9-.6-1.3-1.3-2.2-1.6-3.7-.1-1-.7-6.8,1.7-5.4,1.4,1,2,3.1,2.5,4.7.5,1.7,1.2,3.2,1.7,4.9.4,1.1,1,2.6,1.3,3.5.5-.1,1.2-.4,2-.5,2.2-.6,6.6-1.7,8.5-2.3-.1-.7-.5-1.8-1-3.2-.7-2.2-1.2-4.3-1.6-6.6,0-.8,0-1.7.7-2.4.8-.7,4,7.2,4.3,7.8.6,1.3,1,2.9,2.4,3.1,1.9.4,3.8-1.2,5.4-1.9,1.7-.8,3.5-1.4,4.1-3.4.8-2.9-.7-5.9-2.5-8-1.9-2.4-3.5-5.2-4.6-8-1.3-3.5-4.3-18.1-4.2-19.2.7-4.6,3.5-8,7.9-10,3.5-1.6,5.4-4.7,5.6-8.6.1-1.9-.1-3.8.2-5.6.4-1.8.6-3.1.4-5-.5-4.6-1.6-9-3-13.3h0l-.4.2ZM104.2,157.5c-.5,16-18.6,28.2-32.4,13.7-8.3-8.3-9.5-24.5,1.2-31.2,13-8.4,30,2.5,31.3,17.3v.2h-.1ZM120.3,176.8c-7.1-19.9-.6-22.3,6.1-1.4,1.2,3.7-4.9,5.3-6.1,1.4ZM145.5,155.8v.2c-8,10.7-22.1,1.9-25-11.4-3.6-14,6.6-29.3,19.6-20.5,10.2,5.9,12.4,22.8,5.4,31.7h0Z"/>
      <path d="M14.1,164.2c1.1,2.3,2.3,4.6,3.5,6.8-.7-1.4-1.4-2.9-2.3-4.4-.5-.8-.8-1.6-1.2-2.4h0Z"/>
      <path d="M12.7,117.1c-6.6,17.6-7.4,24.5-1.2,40.6-.1-.4-.2-.8-.4-1.2-1.6-5.9-.7-11.2,0-16.3.1-1,.2-2,.5-3.1.4-2.4.4-4.9.4-7.6s0-6.1.6-9.2c.4-2.2.8-4.2,1.6-6.2-.5,1.1-1,2.2-1.4,3.2h0Z"/>
      <path d="M27.1,184.3h0c-.1-1.1-.2-2-.4-2.5v-.2c0-.5-.2-1.1-.4-1.6,0-.5-.1-1.1-.1-1.6,0-1.1.7-1.2.4-2.5-.4,0-.7-.2-1-.5-.1-.1-.2-.4-.4-.5-.2-.4-.5-.8-.7-1.3,0-.2-.2-.5-.2-.8-.2-.6-.4-1.2-.5-1.8-.6-2.4-1.1-5-1.6-6.2-.2-.6-.6-1.3-.8-2-.5-1.3-.8-2.8-1.1-4.2-.1-.8-.2-1.6-.4-2.4-.1-1.4-.2-2.9-.1-4.3,0-1.4.1-3,.4-4.4.2-1.3.5-2.6.7-3.8.5-2.5,1.2-4.9,1.8-7.6.2-1.3.6-2.5.8-3.8.6-3.1.5-6.5,1.8-9.4,1-2,2-4,3.1-6,.4-.7.7-1.3,1.1-2,.7-1.4,1.3-2.9,1.9-4.3.2-.5.5-.8.7-1.3s.5-.8.7-1.2c.2-.2.5-.6.7-.8.7-.8,1.7-1.6,2.9-2.3.2,0,.5-.2.6-.2h2.3c.1,0,.2,0,.4.1h.2c.1,0,.2,0,.4.2,0,0,.1,0,.2.1.1,0,.2.1.4.2,0,0,.1,0,.2.1.1,0,.2.2.5.2,0,0,.1,0,.2.1.2.1.4.2.6.5,0,0,.1,0,.2.2.1.1.4.2.5.5,0,0,.1.1.2.2.1,0,.2.2.5.4l.2.2c.1,0,.2.2.4.4l.4.4c.1,0,.2.2.4.4l.4.4c.1,0,.2.2.4.4l.4.4.4.4.4.4.4.4s.2.2.2.4l.4.4s.2.2.2.4c.1.1.2.2.4.5,0,0,.2.2.2.4.1.1.2.4.4.5,0,0,.1.2.2.2.2.2.4.5.6.7h0c.1.4.4.6.5.8,0,0,.1.2.2.2.1.1.2.4.4.5,0,0,.1.2.2.4,0,.1.2.2.4.5,0,0,.1.2.2.4,0,.1.2.2.2.4,0,0,.1.2.2.4,0,.1.1.2.2.4,0,0,.1.2.2.4,0,0,.1.2.2.4,0,0,.1.2.2.2,0,0,.1.2.2.4,0,0,0,.2.1.2,0,0,.1.2.2.4,0,0,0,.1.1.2,0,0,.1.2.2.4,0,0,0,.1.1.2,0,0,.1.2.1.4h0c0,.2.1.4.2.5,1.1,1.9,1.6,4.2,2.8,5.8.2.4.5.6.8.8.6.5,1.4.8,2.5,1h2.2s.2,0,.4-.1c0,0,.1,0,.2-.1,0,0,.2,0,.2-.2,0,0,.1,0,.2-.1l.2-.2.2-.2.2-.2.2-.2s.1-.2.2-.2c0,0,.1-.1.1-.2v-.2c.1,0,.1-.2.2-.2,0,0,0-.2.1-.4,0,0,0-.2.1-.2,0,0,0-.2.1-.4v-3.4c-.1-.8-.5-1.7-.8-2.6-.2-.6-.5-1.2-.8-1.8-.1-.4-.2-.6-.5-1-.2-.6-.6-1.3-.8-1.9-.1-.4-.2-.6-.4-1s-.2-.8-.4-1.2c-.2-1-.5-1.8-.5-2.6s.1-1.9.5-2.9c.1-.4.5-.8.8-1.3s.7-1,1.2-1.4c.8-1,1.9-1.9,2.5-2.4.4-.2.6-.5,1-.7,0,0,.2-.1.4-.2.2-.1.5-.2.7-.4.1,0,.2-.1.5-.2.2,0,.5-.2.7-.4.1,0,.4,0,.5-.1.2,0,.5-.1.7-.2.1,0,.4,0,.5-.1.2,0,.5,0,.8-.1h4.2c.4,0,.7,0,1.1.1h.4c.2,0,.5,0,.7.1h.4c.2,0,.5,0,.6.2h.4c.2,0,.5.1.7.2h.4c.2,0,.6.2.8.4h.1c.4.1.7.2,1.1.4.2,0,.6.2.8.4.1,0,.2,0,.4.1.2,0,.5.1.6.2.1,0,.2,0,.4.1.2,0,.5.1.6.2.1,0,.2,0,.4.1.2,0,.5.1.7.2h.2c.4,0,.7.2,1.1.2h.2c.2,0,.5,0,.7.1h3.4c.5,0,1-.1,1.4-.2,2.3-.6,4.2-1.9,6.1-3.2,2-1.6,3.7-2.5,5.5-3.2.5-.2,1-.4,1.6-.5.2,0,.5-.1.8-.2.6,0,1.1-.2,1.7-.2,1,0,1.9-.1,3-.2h3.8c1.2,0,2.3.1,3.4.1h.8c.2,0,.5,0,.6-.1h0c.2,0,.4,0,.6-.2h.1c.1,0,.4-.1.5-.2.1,0,.4-.1.5-.2h.1c.1,0,.2,0,.5-.1h0c.1,0,.4,0,.5-.1h2c.1,0,.4.1.5.2.1,0,.2.2.4.2h.1l.2.2h.1c0,.1.1.2.2.4v.2c.1,0,.2.1.2.2s.1.1.1.2v.2c.1,0,.2.2.4.4h.1c0,.1.1.4.2.5h.1c0,.1.1.2.2.4h.1c0,.1.1.2.2.4h.1c0,.1.1.2.2.4h.1c0,.1.1.1.2.4,0,0,.1,0,.1.1,0,0,.1,0,.2.1h1.9c.4-.8.4-1.6.2-2.4h0c0-.5-.1-.8-.2-1.2,0-.2-.1-.4-.2-.6s-.2-.5-.4-.7c-.1-.2-.4-.6-.6-.8s-.2-.4-.4-.5c-.2-.4-.6-.6-.8-1-.5-.4-.8-.8-1.3-1.2-.6-.5-1.3-1-2-1.3-1.4-.8-3-1.4-4.2-2.4s-1.2-1.1-1.7-1.8c-.2-.5-.5-1-.7-1.4s-.2-.6-.4-.8c-.2-.6-.5-1.2-.7-1.8-.6-1.4-1.4-2.8-2.8-4-3.2-2.6-7.6-3.8-11.3-5.5-2.2-1-4.3-1.1-5.8-3-1.1-1.3-1.6-3.1-1.9-4.8-.1-.6-.2-1.1-.5-1.7,0-.2,0-.4-.1-.5h0c0-.1,0-.4-.1-.4h0s-.1-.1-.1-.2h0l-.2-.2h-1.7c-.1,0-.4,0-.5.1h0c-.1,0-.4,0-.6.2-.1,0-.2,0-.4.1h-1c-.1,0-.2.1-.4.2h-.2c-.1,0-.4,0-.6.1-1.8.4-3.5.6-5.3.8-1.8.2-3.6.6-5.3,1-4.9,1.2-10,2-14.9,2.9-.7,0-1.3.2-1.9.2h-15.2c-.1,3.2-.4,4.4-2.4,6.2-.2.2-.6.5-1,.8-.7.6-1.4,1.1-2.3,1.7-1.4,1.1-3,2.2-4.6,3.2-.7.6-1.4,1.1-2.2,1.7-1.4,1.2-3,2.4-4.4,3.6-1,.8-1.9,1.7-2.9,2.5l-1.3,1.3c-.8,1-1.7,1.9-2.4,3-1.1,1.6-1.6,3.1-1.9,4.7-.1.6-.4,1.3-.5,2,0,.4-.1.7-.2,1.1,0,.2-.1.5-.2.7,0,.2-.1.4-.2.6-1.1,3.1-2.8,5.9-3.8,9-1.2,3.5-2.4,6.7-3,10.3-.5,2.8-.5,5.6-.5,8.4v4.2c0,1.4-.1,2.8-.4,4.2-.4,2.8-.8,5.3-1.1,7.9,0,.7-.1,1.4-.1,2.2v2.3c0,.7,0,1.4.1,2.3,0,.4,0,.7.1,1.1,0,.4.1.7.2,1.2,0,.4.1.7.2,1.2.1.7.4,1.3.6,1.9s.5,1.3.7,1.9c.5,1.3,1.2,2.5,1.8,3.7,1.3,2.4,2.6,4.8,3.7,7.3.5,1.1.8,2,1.2,3.1s.7,2,1,3.1c.5,1.6.7,3.2.8,4.9v1.6c0,1.1-.1,2.5.4,3.5.2.4.5.7,1,.8h.7c.2,0,0,0,.1,0h0v-.2h0v-.2h0v-2.6h0l.8,1.8Z"/>
    </g>
    <path d="M63,41c-.5,5,2.5,21.1,10.2,17.9,5.7-3.3,8.7-11.2,6.3-17.5-3-6.8-8.7-14.2-5.4-21.7.3-1.1,1.1-4.4.6-5-.9.9-1.6,2.8-2.7,3.9-4.9,6.3-9,14-9.1,22v.3h0Z"/>
  </g>

  <g class="frame frame5">
    <g>
      <path d="M20.4,222.5c-.4-3.8,7.6-3.5,9.8-3.5s.8,0,1.4,0c3.5-1.2,7.8-2.3,10.2-.7,4.4,2.9-1.6,5.9-4.9,7.2h0c-.6.2-1.1.4-1.4.5-2.3.7-5.3,1.4-7.8.5-.8-.2-1.6-.7-2.3-1.2-1.7-1-3.2-2.3-5-2.9h0Z"/>
      <path d="M152.1,130.5c-.7-2.4-1.4-5-2.6-7.3-2-4.2-5.5-7.3-8.5-10.9h-1.1c-3,0-4.9-2.9-6.7-5.6-.4-.5-.8-1.2-1-1.4-.4-.4-.6-.6-1-1-1.7-1.6-3.4-2.6-4.9-3.1-.8-.2-1.7-.4-2.5-.4-3.5,0-7.1,1.9-9,4.8-.6,1-1.1,2.9-1.6,4.7-1.1,4.3-2.8,10.7-8.9,10.7s-3.5-.6-5.5-1.8l-1.3-.8c-2-1.2-4-2.4-6-3.4-3.2-1.7-5.6-4.1-7.9-6.4-1.4-1.4-2.9-2.9-4.4-4-1.1-.8-2.5-1-3.5-1-2.2,0-4.4.8-5.9,2-2.3,1.9-2.8,2.6-2.9,4-.4,7,.1,14.5,1.4,20.5.4,1.9,1.1,3.6,1.9,4.4.1.1.4.4.6.5.8.7,2.8,2.2,2.8,4.9,12.8-7.7,29.4,3.2,30.6,17.6v.2c-.5,16-18.6,28.2-32.4,13.7-5.9-5.9-8.3-16-5.2-23.6-.4,0-.8.1-1.2.1-5,0-5.9-4.8-6.1-6.6,0-.2,0-.5-.1-.8-.2-1.1-.4-2.2-.4-3.1s-.1-1.7-.4-2.5l-.4-1.4c-.5-1.8-1-3.6-1.3-5.5-1.4-6.4-3.4-9.7-7.1-13.7-1.3-1.3-2.8-2.5-4.3-3.7-.6-.5-1.2-1-1.8-1.4-1.2-1-2.3-1.4-3.2-1.4-2.2,0-4.8,3-7.7,8.9-.6,1.2-1.3,2.5-1.9,3.6-.8,1.4-1.6,2.9-2.2,4.2-.6,1.4-.8,3.1-1,4.9-.1,1.2-.2,2.5-.5,3.7-.5,2-1,4-1.3,5.9-.7,3.1-1.4,6-1.9,9.1-.8,5.5-.1,11,1.7,15.2.8,1.8,1.3,3.6,1.7,5.3.5,1.9,1,3.6,1.8,5.2,1.9,3.4,4.1,7.1,6.1,10.7,1.7,3.1,3,6.6,4.1,9.7,0,0,0,.2.1.4.5,1.1,1.3,3.1.4,5.2,6.2,6.2,11.5,10.2,13.2,11,4.8,2.2,28-6,33.1-5.5,4.3.5,7.2,5.2,8.9,8.6.8,1.6,3,10.6,4.7,10.9,1.1.1,2.3-.2,3.5-.6.5-.1,1.1-.4,1.6-.4,1.7-.5,2.9-.8,3.5-1.1-.4-1-.8-2.3-1.2-3.2-1.3-3.5-2.3-6.7-2.4-10.6,3.6-1.6,4.9,7.1,5.8,9.2.5,1.3,1,2.8,1.3,3.7,1.4-.4,3.7-1.2,6-1.9s4.6-1.6,6-2c-.6-1.7-1-3.4-1.7-4.9-.6-1.3-1.3-2.2-1.6-3.7-.1-1-.7-6.8,1.7-5.4,1.4,1,2,3.1,2.5,4.7.5,1.7,1.2,3.2,1.7,4.9.4,1.1,1,2.6,1.3,3.5.5-.1,1.2-.4,2-.5,2.2-.6,6.6-1.7,8.5-2.3-.1-.7-.5-1.8-1-3.2-.7-2.2-1.2-4.3-1.6-6.6,0-.8,0-1.7.7-2.4.8-.7,4,7.2,4.3,7.8.6,1.3,1,2.9,2.4,3.1,1.9.4,3.8-1.2,5.4-1.9,1.7-.8,3.5-1.4,4.1-3.4.8-2.9-.7-5.9-2.5-8-1.9-2.4-3.5-5.2-4.6-8-1.3-3.5-4.3-18.1-4.2-19.2.7-4.6,3.5-8,7.9-10,3.5-1.6,5.4-4.7,5.6-8.6.1-1.9-.1-3.8.2-5.6.4-1.8.6-3.1.4-5-.5-4.6-1.6-9-3-13.3h0l-.4.8ZM120.4,177.4c-7.1-19.9-.6-22.3,6.1-1.4,1.2,3.7-4.9,5.3-6.1,1.4ZM145.5,156.4v.2c-8,10.7-22.1,1.9-25-11.4-3.6-14,6.6-29.3,19.6-20.5,10.2,5.9,12.4,22.8,5.4,31.7h0Z"/>
      <path d="M11.5,147.3c.5-2.9,1.4-5.5,2.3-8,.2-.7.5-1.4.7-2,1.3-3.8,1.7-7.9,1.9-12.2,0-1.3.2-2.8.4-4.2.4-3.6,1.4-7,2.4-10.1.7-2.4,1.4-4.8,1.9-7.1-1.1,1.3-2.3,2.8-3.2,4.2,0,0-.1.2-.2.4l-.2.2h-.1c-.7,1.4-1.6,2.8-2.2,4.1,0,0,0,.1-.1.2-1,1.7-1.7,3.4-2.3,5-6.7,18.1-7.6,24.8-.7,41.8,1.7,4.2,3.7,8.3,5.8,12.1-.6-1.4-1.3-2.9-1.9-4.2-2.8-5.9-5.8-11.9-4.2-20.2h-.1Z"/>
      <path d="M35.6,196c-1-3-2.2-6.4-3.7-9.1-2-3.6-4.1-7.2-6.1-10.7-2-3.5-2.2-7.2-3.7-10.8-2.3-5.2-2.9-11.5-1.9-17.3.7-5.3,2.3-10,3.4-15.2.6-3.1.5-6.5,1.8-9.4.2-.7.6-1.3,1-2,.2-.5.5-1,.8-1.4.8-1.4,1.7-3,2.4-4.4s.2-.5.4-.8v-.2c.2-.5.6-1.1.8-1.7v-.2c.1-.2.4-.6.5-.8h0c.1-.2.4-.6.5-.8,0,0,0-.1.1-.2.1-.2.4-.5.5-.8h0c.1-.2.4-.5.5-.7,0,0,0-.1.1-.2.2-.2.4-.5.6-.7h0c.2-.2.4-.5.6-.6h.1c.2-.4.5-.6.6-.7h0c.2-.2.4-.4.6-.5h.1c.2-.2.5-.5.7-.6h0c.2-.1.5-.2.7-.4h.1c.2,0,.5-.2.7-.2h0c.2,0,.5,0,.7-.1h3c.1,0,.2,0,.4.1h.4c.1,0,.2,0,.4.1,0,0,.2,0,.4.1.1,0,.2.1.4.2,0,0,.2,0,.4.2.1,0,.2.2.5.2,0,0,.2.1.4.2.2.1.4.2.6.5h.1c.8.7,1.7,1.3,2.5,1.9s1.7,1.3,2.4,2c.5.5,1.1,1,1.6,1.4,1.2,1.2,2.2,2.3,3,3.5s1.6,2.3,2.2,3.6c.4.6.6,1.2.8,1.9.5,1.3,1,2.6,1.4,4.1.2.7.4,1.4.6,2.3.2,1.2.6,2.3.8,3.5s.6,2.3.8,3.4c.1.5.2,1,.2,1.4.2,1.4.1,2.9.5,4.3.4,1.9.4,4.4,2.8,4.6h.5s.2,0,.4-.1h.2c.1,0,.2-.1.4-.2,0,0,.1,0,.2-.1.1,0,.2-.2.4-.2,0,0,.1,0,.2-.2.1,0,.2-.2.4-.4l.2-.2c.1,0,.2-.2.4-.4l.2-.2c0-.1.2-.2.2-.4v-.2c.2-.2.4-.4.4-.5.2-.6.4-1.1.2-1.6,0-.2-.1-.6-.4-.8,0-.1-.2-.2-.4-.4-.5-.5-1.2-.8-1.8-1.6-1.4-1.6-2.3-4-2.6-6.1-.4-1.7-.6-3.5-.8-5.2-.2-1.8-.4-3.6-.5-5.4s-.2-3.7-.2-5.5v-5.3c.1-3,1.8-4.4,4.1-6.5.2-.2.5-.4.8-.6,0,0,.1,0,.2-.2.2-.1.4-.2.6-.4,0,0,.2,0,.4-.2.2,0,.4-.2.6-.2s.2,0,.4-.1c.2,0,.5-.2.6-.2s.2,0,.4-.1c.2,0,.6-.2.8-.2h.1c.4,0,.7-.1,1.1-.2h3.8c.4,0,.8.1,1.2.2h.2c.4,0,.8.2,1.2.5h.2c.4.2.7.4,1.1.7.8.6,1.6,1.2,2.3,1.9s1.4,1.3,2.2,2c2.3,2.3,4.6,4.7,7.4,6.2,1.9,1,3.8,2.2,5.6,3.2.6.4,1.2.7,1.8,1.1.4.2.6.4,1,.5h.2c.2,0,.5.2.6.2h.2c.2,0,.5.1.7.2h1.6c.2,0,.5-.1.7-.2h.1c.2,0,.4-.2.6-.5h0c.1-.1.4-.4.5-.6h0c.1-.2.4-.5.5-.7h0c.1-.4.2-.6.4-1h0c.1-.4.2-.7.4-1h0c0-.4.2-.7.4-1h0c0-.5.2-.8.2-1.1h0c0-.5.2-.8.2-1.2s.1-.5.2-.8v-.4c0-.4.1-.6.2-1v-.2c0-.4.2-.6.2-1h0c0-.4.2-.6.4-1h0c0-.4.2-.6.4-1h0c.1-.4.2-.6.4-.8h0c.2-.5.6-.8,1-1.2l.2-.2c.4-.4.7-.7,1.1-1.1,0,0,.1,0,.2-.1.4-.4.7-.6,1.1-.8,0,0,.1,0,.2-.1.5-.2.8-.6,1.3-.8,0,0,.2,0,.2-.1.5-.2,1-.5,1.3-.6h0c.5-.2,1-.4,1.4-.5h.4c.5,0,1-.2,1.6-.2h4.6c.4,0,.7.1,1,.2.6.2,1.2.4,1.8.7.8.4,1.7,1,2.4,1.4.2.2.5.4.7.6.5.4,1,.8,1.4,1.2.2.2.5.4.6.6.1.1.2.2.5.5l.2.2h0q0,.1.1.4s0,.1.1.2,0,.1.1.2c0,0,0,.1.1.2s0,.1.1.2c0,0,.1.2.2.4,0,0,.1.2.2.2,0,0,.1.2.2.4,0,0,0,.1.1.2,0,0,.1.2.2.2,0,0,0,.1.1.2,0,0,.1.2.2.2,0,0,0,.1.1.2,0,0,.1.2.2.2,0,0,0,.1.1.2,0,0,.1.2.2.2,0,0,0,.1.1.2,0,0,.1.1.2.2v.2c.1,0,.2.1.4.2h.1c0,.1.1.1.2.2h.8c3.5-.2-1.8-4.9-2.4-6-1.8-3.4-3.8-7.7-6.8-10.2-2.5-2.2-6.1-2.6-7.9-5.6-.1-.2-.2-.4-.4-.6v-.8c-.6-6.8-10.4-9.7-15.6-12-4.8-2.2-8.6-4.2-13.9-4.2h-11.5c-.5,0-.8,0-1.3.1h-1c-.5,0-1,.1-1.4.2h-.7c-.7,0-1.4.2-2.2.4-6.6,1.4-13.3,2-19.9,3.2-1.7.2-3.4.4-4.9.7-4.9,1.1-9.4,4.9-13.1,8-2.9,2.4-6.4,4.8-9,7.8-.8,1-1.7,2-2.3,3.1-1,1.7-1,3-.8,4.4,0,.8.2,1.8.1,2.9h0v.6c0,.7,0,1.4-.2,2,0,.5-.1.8-.2,1.3-.1.8-.4,1.7-.6,2.5s-.5,1.7-.7,2.5c-1.1,3.7-2.5,7.4-2.9,11.4-.6,5.9-.6,11.6-2.5,17.2-1.1,3.1-2.3,6.2-2.9,9.5-1.7,9.4,3,15.2,6.4,23.3,1,2.2,1.4,4.4,1.6,6.7v2.6c0,1.6.2,3.1,1.6,4.3.1.1.4.2.5.4h.1s.2.1.4.2h1.2s.2-.1.2-.2c.2.7.5,1.3.7,1.8,0,0,0,.1.1.2s.2.2.4.5c1.2,1.3,2.5,1.4,3.2,3.5,0,.2.1.5.2.7.4,1.4.5,2.9,1,4.2,0,.1,0,.2.1.5,0,.1,0,.4.1.5h0c0,.1,0,.4.1.5h0c0,.1,0,.4.1.4h0c0,.1,0,.2.1.4h.1c0,.1.1.2.2.4h.8c1.9,0,1.1-1.7.5-2.8,0-.2-.1-.4-.2-.5h0l3.5.7Z"/>
    </g>
    <path d="M78.7,47.9c-.2,2.5-.2,5.7-1.7,8.7,0,0,0,.3-.2.5-3.1,6.9-7.4,7.7-12.1,3.5-.2-.2-.5-.5-.6-.6-7.4-11,9.9-18.9,5-31.5v-.8c-.3-1.6-.5-3.1-.3-4.7.5-4.9,6.6-12.8,12.3-11.8.2.3-.9.9-1.3,1.1-5.8,3.5-11.8,9.9-7.7,16.7,0,.3.3.5.5.8,2.8,5,6,11.3,6.3,17.9v.3h-.2Z"/>
  </g>

  <g class="frame frame6">
    <g>
      <path d="M44.2,221.7c-.2,3.1-4.4,3.6-7.3,4.1-.7.1-1.4.2-2.3.2-3.2.8-5.5.5-8.6-.7-1.3-.5-4.1-1.2-5-2.6-.2-.5-.5-1-.2-1.6,6.2-.4,12-2.3,18.2-2.5,1.4,0,2.8-.2,3.7.1,1,.4,1.6,1.2,1.4,3.1h.1Z"/>
      <path d="M152.4,130.1c-.7-2.4-1.4-5-2.6-7.3-.2-.6-.6-1.2-1.1-1.8l-3.8-1.2c-2.6-.8-4.4-2.8-5.9-4.2-.7-.7-1.3-1.4-1.9-1.9-.6-.5-1.2-.8-1.9-1.3-3.1-2.2-6.4-4.3-9.1-7.4-.2-.4-.6-.6-.8-1-1.3-1.6-2.6-3-4-3.2h-.4c-1.6,0-3.8,1.2-5.5,2.3-.4.2-.7.4-1,.6-.5.2-.8.5-1.3.7-.4.2-1,.5-1.3.7.4.7,1,1.3,1.4,2,1.3,1.7,2.9,3.7,3.5,6.6.6,3.1.1,5.5-1.3,7.3-1,1.1-2.6,2.4-5.5,2.4s-1.2,0-1.8-.1c-4.6-.7-8.4-3.1-11.2-7.1-4.3-6-8.6-9.7-13-11-2.8-.8-5.6-1.7-8.3-1.7s-4.1.6-5.5,1.9c-2.3,2-2.8,2.6-2.9,4-.2,4.1.2,8.6.6,13.1.1,1.7.4,3.5.5,5.3,0,1.4.7,3.7,3.6,4,.2,0,.8,0,1.3-.1,1,0,2-.2,3-.2,5.5,0,6.1,4,6.1,4.8v1.2c10.7-.2,21,8.9,22,20.2v.2c-.4,14.8-16,26.3-29.3,16.4-.7.6-1.7,1.1-2.8,1.1s-2-.4-3.2-1.1c-4.1-2.5-7.2-11.8-7.7-14-.7-3.5-.2-6.8.2-9.8.2-1.3.4-2.6.5-3.8.1-2.4-.6-4.4-1.6-7-.2-.7-.6-1.6-.8-2.3-.7-1.9-1.2-3.8-1.8-5.8-1.9-6.4-3.7-12.5-8.2-17-1.3-1.3-2.8-2.5-4.4-3.7-.6-.5-1.2-1-1.7-1.4-1.2-1-2.3-1.4-3.2-1.4-2.2,0-4.8,3-7.7,8.8s-1.3,2.5-1.9,3.6c-.8,1.4-1.6,2.9-2.2,4.2-.6,1.4-.8,3.1-1,4.9-.1,1.2-.2,2.5-.5,3.7-.5,2-1,4-1.3,5.9-.7,3.1-1.4,6-1.9,9.1-.8,5.5-.1,11,1.7,15.2.8,1.8,1.3,3.6,1.7,5.3.5,1.9,1,3.6,1.8,5.2,1.9,3.4,4.1,7.1,6.1,10.7,1.7,3.1,3,6.6,4.1,9.7,0,0,0,.2.1.4.5,1,1.1,2.5.7,4.2.4.6.6,1.3.8,2.2,5.8,5.6,10.3,9,12,9.8,4.8,2.2,28-6,33.2-5.5,4.3.5,7.2,5.2,8.9,8.6.8,1.6,3,10.6,4.7,10.9,1.1.1,2.3-.2,3.5-.6.5-.1,1.1-.4,1.6-.4,1.7-.5,2.9-.8,3.5-1.1-.4-1-.8-2.3-1.2-3.2-1.3-3.5-2.3-6.7-2.4-10.6,3.6-1.6,4.9,7.1,5.8,9.2.5,1.3,1,2.8,1.3,3.7,1.4-.4,3.7-1.2,6-1.9s4.6-1.6,6-2c-.6-1.7-1-3.4-1.7-4.9-.6-1.3-1.3-2.2-1.6-3.7-.1-1-.7-6.8,1.7-5.4,1.4,1,2,3.1,2.5,4.7.5,1.7,1.2,3.2,1.7,4.9.4,1.1,1,2.6,1.3,3.5.5-.1,1.2-.4,2-.5,2.2-.6,6.6-1.7,8.5-2.3-.1-.7-.5-1.8-1-3.2-.7-2.2-1.2-4.3-1.6-6.6,0-.8,0-1.7.7-2.4.8-.7,4,7.2,4.3,7.8.6,1.3,1,2.9,2.4,3.1,1.9.4,3.8-1.2,5.4-1.9,1.7-.8,3.5-1.4,4.1-3.4.8-2.9-.7-5.9-2.5-8-1.9-2.4-3.5-5.2-4.6-8-1.3-3.5-4.3-18.1-4.2-19.2.7-4.6,3.5-8,7.9-10,3.5-1.6,5.4-4.7,5.6-8.6.1-1.9-.1-3.8.2-5.6.4-1.8.6-3.1.4-5-.5-4.6-1.6-9-3-13.3h0v.5ZM120.7,177c-7.1-19.9-.6-22.3,6.1-1.4,1.2,3.7-4.9,5.3-6.1,1.4ZM145.8,156v.2c-8,10.7-22.1,1.9-25-11.4-3.6-14,6.6-29.3,19.6-20.5,10.2,5.9,12.4,22.8,5.4,31.7h0Z"/>
      <path d="M11.7,146.9c.5-2.9,1.4-5.5,2.3-8,.2-.7.5-1.4.7-2,1.3-3.8,1.7-7.9,1.9-12.2,0-1.3.2-2.8.4-4.2.4-3.6,1.4-7,2.4-10.1.7-2.4,1.4-4.8,1.9-7.1-1.1,1.3-2.3,2.8-3.2,4.2,0,0-.1.2-.2.4l-.2.2h-.1c-.7,1.4-1.6,2.8-2.2,4.1,0,0,0,.1-.1.2-1,1.7-1.7,3.4-2.3,5-6.7,18.1-7.6,24.8-.7,41.8,1.7,4.2,3.7,8.3,5.8,12.1-.6-1.4-1.3-2.9-1.9-4.2-2.8-5.9-5.8-11.9-4.2-20.2h-.1Z"/>
      <path d="M36.1,196.1c0-.1-.1-.4-.2-.5-1-3-2.2-6.4-3.7-9.1-2-3.6-4.1-7.2-6.1-10.7-2-3.5-2.2-7.2-3.7-10.8-2.3-5.2-2.9-11.5-1.9-17.3.7-5.3,2.3-10,3.4-15.2.6-3.1.5-6.5,1.8-9.4,1.2-2.6,2.9-5.3,4.2-7.9l.4-.7v-.2c.1-.2.2-.5.5-.8h0c.1-.2.2-.5.5-.8,0,0,0-.1.1-.2.1-.2.4-.5.5-.8h0c.1-.2.2-.5.5-.7,0,0,0-.1.1-.2.1-.2.4-.5.5-.8h0c.1-.2.4-.5.5-.7,0,0,0-.1.1-.2.2-.2.4-.5.6-.7h0c.1-.2.4-.4.5-.6,0,0,.1,0,.1-.2l.6-.6h0c.2-.1.4-.4.6-.5,0,0,.1,0,.1-.1.2-.1.5-.4.7-.5h0c.2-.1.5-.2.6-.4h.2c.2,0,.5-.2.7-.2h0c.2,0,.5,0,.7-.1h3.5c.1,0,.2,0,.4.1,0,0,.2,0,.4.1.1,0,.2,0,.4.1s.2.1.4.2c.1,0,.2,0,.4.2.1,0,.4.2.5.4,0,0,.1,0,.2.1.2.2.5.4.7.6,2.2,1.8,4.4,3.4,6.5,5.4,6.5,6.7,7.9,15.6,10.8,24.1,1.2,3.7,2.9,6.7,2.6,10.7-.2,4.2-1.7,8.5-.7,12.7.6,2.8,3.5,10.2,6,11.6.2.1.4.2.6.2h0c.1,0,.4,0,.5.1h.4v-.2h0v-.4h0v-.4h0v-1.2s0-.2-.1-.4h0c0-.2-.1-.5-.2-.6h0c0-.1-.1-.2-.2-.4h0c0-.1,0-.4-.1-.4h0c0-.1,0-.4-.1-.4h0c0-.1,0-.2-.1-.4h0v-.2c-3-4.1-4.9-12.2-3.4-17.2.7-2.3,1.9-4.4,2.8-6.7.1-.5.4-1,.5-1.4,1.3-4.1,4.3-3.6,7.9-4.6v-.4h0s0-.1-.1-.2h-.1q0-.1-.1-.1h-6.4c-4.3-.2-6.7-3.4-7.1-7.2-.5-6-1.4-12.8-1.1-18.8.1-3,1.8-4.4,4.1-6.5.4-.2.6-.5,1-.7,0,0,.2-.1.4-.2.2-.1.5-.2.6-.4.1,0,.2-.1.4-.2.2,0,.4-.2.6-.2s.2,0,.5-.1c.2,0,.4-.1.6-.2h.5c.2,0,.4,0,.6-.1h6.5c.2,0,.5,0,.7.1h.5c.2,0,.5,0,.7.1h.5c.2,0,.5,0,.7.2h.4c.2,0,.5.1.7.2h.4c.4,0,.7.2,1.1.4,6.2,1.9,11.2,7.2,14.8,12.4,2.2,3.1,5.2,5,8.8,5.6h2.6c.1,0,.4-.1.5-.2,0,0,.2-.1.2-.2.1,0,.2-.2.4-.4,0,0,.1-.2.2-.2,0-.1.1-.2.2-.5,0,0,0-.2.1-.4,0-.2,0-.4.1-.6v-1.4c0-.4,0-.8-.1-1.3-.6-3.1-3.1-5-4.6-7.6-2.2-3.8,1.1-4.7,4.1-6.2.4-.2.7-.5,1.2-.7.2-.1.5-.2.8-.5.1,0,.2-.1.4-.2.2,0,.5-.2.7-.4.1,0,.2-.1.5-.2.2,0,.5-.2.7-.4.1,0,.4-.1.5-.2.2,0,.5-.2.6-.2s.4,0,.5-.1c.2,0,.5-.1.6-.2h2.6c3,.5,5,3.1,7,5.3,3,3.4,6.7,5.6,10.3,8.2,1.9,1.3,3.4,3.7,5.4,4.9.5.2.8.5,1.4.7,0-3.7-3.6-3.8-5-6.4-.2-.4-.4-1.1-.5-1.7,0-.8-.1-1.6-.5-2.3-2.2-4.4-5-10.7-9-13.9-2.5-2.2-6.1-2.6-7.9-5.6-.1-.2-.2-.4-.4-.6v-.8c0-.7-.2-1.4-.5-2,0-.1-.1-.2-.2-.5,0-.2-.2-.5-.4-.7,0-.1-.2-.4-.2-.5s-.2-.2-.4-.5c-.2-.2-.5-.5-.7-.8-.1-.1-.2-.2-.5-.5-.6-.6-1.3-1.1-2-1.7-.2-.1-.4-.2-.6-.4-.2,0-.4-.2-.6-.4,0,0-.2,0-.2-.1-.2-.2-.6-.4-1-.5-.2,0-.5-.2-.6-.4-1.2-.6-2.4-1.1-3.6-1.7-1.8-.7-3.1-2-5-2.4h-3c-.8,0-1.8,0-2.6-.1h-5.4c-.4,0-.7.1-1.1.2-2.8.7-5.5,1-8.4,1.4-1.4.2-3,.4-4.4.7-.8.2-1.8.7-2.8,1-5.4,1.3-11.2,1.2-16.6,1.8-.8,0-1.7.1-2.6.1h-9.6c-.4,0-.7,0-1,.1h-.4c-.2.1-.5.1-.8.2h-.5c-.2,0-.5.1-.8.2h-.4c-.4.1-.7.2-1.2.4-1.8.7-3.8,1-5.5,1.9-3.5,2.2-6.7,4.8-9.7,7.7-.6.6-1.7,1.7-2.6,2.9-1.6,1.8-2.8,4.1-1.8,5.8,0,1,.2,1.9.1,3v.5c-.4,6.8-3.8,12.8-4.6,19.7-.6,5.9-.6,11.6-2.5,17.2-1.1,3.1-2.3,6.2-2.9,9.5-1.7,9.4,3,15.2,6.4,23.3v.4h0v.2h0v3.6h0v.7h0v.7h0v2.2h0v5.4s0,.2.1.2v.2s0,.2.1.2c0,0,0,.1.1.2,0,0,0,.1.1.2,0,0,0,.1.1.2,0,0,0,.1.1.2v.2c.1,0,.1.1.2.2h.1c.1.2.1.1.1.2h1.9c.2-.6.5-1.1.6-1.7v-.4c.1.5.4,1,.6,1.4h0c0,.1.2.4.2.5.4.4.6.6,1,.8.2.4.5.7.7,1.1.7,1.3,1.6,2.5,2.3,3.7.1,1,.4,1.8.6,2.6.4.8.6,2,1.3,2.6v1h0v2.9h0v.4h0v.4h0q0,.1.1.2h.1q0,.1.1.2c.1.1,0,0,.1,0h1.6c.2-2.2-1-3.6-1.7-5.3,1.2-.4.5-1.7,0-2.8h0l3.8,2.3Z"/>
    </g>
    <g>
      <path d="M73.5,27.1c.2,2.4,0,5,.6,7.4.8,2.8,3,4.9,3.9,7.6,2.2,7.4,2.7,17-1.1,23.5-1.9,3.3-7.1,6.1-10.1,2.7-2-3.1-3.5-7.2-3.5-11,0-6.1,4.4-10.9,5.5-16.7.8-4.6,2.4-9.6,4.6-13.4h0Z"/>
      <path d="M82.4,17.3c1-.9,2.2-1.6,3.4-2s3.1-.4,3.7.6c-1.7,1.1-3,1.3-5,1.6-1.9.3-3.1,2-4.9,2.4l2.7-2.5Z"/>
    </g>
  </g>

  <g class="frame frame7">
    <g>
      <path d="M43.5,222.3c-1.9.6-3.5,1.9-5.3,2.5-2.8,1-5.9,1.6-8.9,1.2-1,0-1.8-.4-2.5-.8-1.7-.6-4.2-1.6-4.9-3.1-.1-.2-.2-.6-.2-.8,0-2.4,1.8-1.4,3.2-1.7.7,0,1.3-.6,2-.7.8-.1,1.7,0,2.5,0,2,0,4.1-.5,6.1-.6,1.3,0,4.3-.6,6.7-.6s3.2.2,3.8,1.2c1.4,2.5-1.2,3-2.8,3.5h.1Z"/>
      <path d="M28.2,209.4c-.2,1.6-1.8,3-3.2,1.2-.8-1.1,0-3.5.1-4.6.2-.8.5-1.7.6-2.6h0c0-1.3,0-2.9.5-3.5.8.8,1.1,4,1.1,5.5.7,1.1,1,2.6.7,3.8h.2Z"/>
      <path d="M38.6,214.9c0-1.6-.5-3-.4-4.6.2.4.7.7,1,1.1.4.5.7,1.4.8,2,.1.7.2,1.1-.5,1.3-.5.1-1.2,0-.8,0h-.1Z"/>
      <path d="M15.9,163.1c-.8-2.3-1.8-4.7-2.3-7.3-1.3-7.1-1.1-13.3.7-18.8,1.6-4.4,1.9-9.1,2.4-14,0-1.1.2-2.2.2-3.1.4-3.6,1.4-7,2.4-10.1.7-2.4,1.4-4.8,1.9-7.1-1.1,1.3-2.3,2.8-3.2,4.2,0,0-.1.2-.2.4l-.2.2h-.1c-.7,1.4-1.6,2.8-2.2,4.1,0,0,0,.1-.1.2-1,1.7-1.7,3.4-2.3,5-6.7,18.1-7.6,24.8-.7,41.8,1.8,4.6,4,8.8,6.2,12.8-.2-1.2-.5-2.3-.7-3.5-.5-1.6-1.1-3.2-1.7-4.9h-.1Z"/>
      <path d="M152.4,129.5c-.4-1.2-.7-2.5-1.2-3.7h0c-4.1,0-5.9-1.8-7.8-4.2-1.7-2.2-3.2-4.1-4.6-5.9-.5-.6-1-1.2-1.4-1.8-1.1-1.2-2.2-2.6-3-4.3-1-1.7-1.1-1.9-3.1-2.6-1.2-.5-2.2-1.1-2.9-1.7-.5-.4-.8-.6-1.1-.7-1.1-.5-2.3-1-3.5-1.2-1.3-.2-2.6-.5-4-.5s-.6,0-.8,0c-1.6,0-4.2,1.9-5,3.5-.7,1.4.2,4.4,1,6.5v.4c.2.4.5.8.6,1.3.4.8.8,1.9,1.1,3,.4,1.8.2,3.7.1,5.4v2.5c0,1.4,0,3.2-1,5.3-1.7,3.2-4.6,7.1-8.5,7.2h-.2c-2.2,0-4-.8-5.2-2.4-2.5-3.2-1.3-8-.4-11.6.1-.7.4-1.4.4-1.8.5-3.1,0-5-.6-5.6s-1.7-1-2.9-1.4c-2-.8-4.7-1.8-6.5-4.3-2.2-3.1-4.8-4.9-8-5.9-2.8-.8-5.6-1.7-8.3-1.7s-4.1.6-5.5,1.9c-2.3,2-2.8,2.6-2.9,4-.4,7.8.5,16.1,2.6,24,2.5-1.3,5.2-2,7.8-2s2,0,3,.2c.7.1,1.3.4,1.9.7.4-.2.7-.4,1.2-.6.8-.4,1.8-.5,2.8-.5,2.2,0,4.1,1,5.2,2.5.6.8,1.4,2.6.5,5.3v.5c6.5,3.4,11.8,10.1,12.4,18v.2c-.4,12.6-11.9,23-23.6,19.4.2.7.6,1.6.8,2.3.8,2.4,1.7,4.6,2.9,6.1,1.7,2,5.2,6.4,4.9,11.5,0,2-1.7,6.1-4.2,8.4h.8c4.3.5,7.2,5.2,8.9,8.6.8,1.6,3,10.6,4.7,10.9,1.1.1,2.3-.2,3.5-.6.5-.1,1.1-.4,1.6-.4,1.7-.5,2.9-.8,3.5-1.1-.4-1-.8-2.3-1.2-3.2-1.3-3.5-2.3-6.7-2.4-10.6,3.6-1.6,4.9,7.1,5.8,9.2.5,1.3,1,2.8,1.3,3.7,1.4-.4,3.7-1.2,6-1.9s4.6-1.6,6-2c-.6-1.7-1-3.4-1.7-4.9-.6-1.3-1.3-2.2-1.6-3.7-.1-1-.7-6.8,1.7-5.4,1.4,1,2,3.1,2.5,4.7.5,1.7,1.2,3.2,1.7,4.9.4,1.1,1,2.6,1.3,3.5.5-.1,1.2-.4,2-.5,2.2-.6,6.6-1.7,8.5-2.3-.1-.7-.5-1.8-1-3.2-.7-2.2-1.2-4.3-1.6-6.6,0-.8,0-1.7.7-2.4.8-.7,4,7.2,4.3,7.8.6,1.3,1,2.9,2.4,3.1,1.9.4,3.8-1.2,5.4-1.9,1.7-.8,3.5-1.4,4.1-3.4.8-2.9-.7-5.9-2.5-8-1.9-2.4-3.5-5.2-4.6-8-1.3-3.5-4.3-18.1-4.2-19.2.7-4.6,3.5-8,7.9-10,3.5-1.6,5.4-4.7,5.6-8.6.1-1.9-.1-3.8.2-5.6.4-1.8.6-3.1.4-5-.5-4.6-1.6-9-3-13.3h-.1ZM120.7,176.4c-7.1-19.9-.6-22.3,6.1-1.4,1.2,3.7-4.9,5.3-6.1,1.4ZM145.8,155.3v.2c-8,10.7-22.1,1.9-25-11.4-3.6-14,6.6-29.3,19.6-20.5,10.2,5.9,12.4,22.8,5.4,31.7h0Z"/>
      <path d="M76.6,204.4c-1.9-2.5-1.4-6-.8-8.6.2-.8.5-1.7.7-2.4.6-1.8,1.3-4.2.8-5.2-.6-1.4-1.7-3-2.9-4.7-1-1.3-1.9-2.8-2.8-4.3-.7-1.3-1.7-2.5-2.6-3.8-1.3-1.7-2.6-3.5-3.6-5.6-.2-.5-.5-1.1-.7-1.6-1.3-2.6-2.6-5.4-3.2-8.6-.7-3.5-.2-6.8.2-9.8.2-1.3.4-2.6.5-3.8.1-2.4-.6-4.4-1.6-7-.2-.7-.6-1.6-.8-2.3-.7-1.9-1.2-3.8-1.8-5.8-1.9-6.4-3.7-12.5-8.2-17-1.3-1.3-2.8-2.5-4.4-3.7-.6-.5-1.2-1-1.7-1.4-.8-.7-2-1.4-3.2-1.4-4.7,0-9.1,13.1-10.7,17.4-.2.7-.5,1.3-.6,1.9-.8,2.3-1.1,4.7-1.4,7.2,0,.7-.1,1.3-.2,2-1.2,8.9-2.3,18.4-.2,26.8.2.8.4,1.7.6,2.5,1.3,6,3,13.4,6.6,17.5.2.4.6.7,1,1,.4.4.8.8,1.3,1.3,1.4,1.6,2.4,3.4,3.1,4.8l.2.5c.6,1.2,1.3,2.8,1.7,4.4.2,1.3,0,2.5-.2,3.4,0,.2,0,.4-.1.6v.4c-.1.4-.2,1-.2,1.3.1.2.2.4.4.6h0c5.5,5.3,10,8.6,11.6,9.4,3.5,1.6,16.7-2.3,25.7-4.3-.8-.4-1.6-1-2-1.7h0l-.2.2Z"/>
      <path d="M81.8,187.2c-1-1.1-1.6-2.5-2.2-4-.4-1-.7-1.9-1.1-2.9-.5-1.4-1.1-2.9-1.7-4.2l-1.1-2.2c-.2-.4-.5-.8-.6-1.2-.6-1.1-1.3-2.2-1.9-3.2-.6-1.1-1.3-2.2-1.9-3.2-.6-1.1-1.2-2.2-1.8-3.4s-.5-1.1-.7-1.7c-.5-1.2-.8-2.4-1.1-3.6s-.5-2.5-.6-3.8c0-1.9,0-3.8.6-5.5.2-.8.6-1.6.8-2.3s.7-1.4,1-2.3c.2-.5.4-1.1.4-1.6s.2-1.1.5-1.7c.5-.8,1.4-1.4,2.4-1.9s1-.4,1.6-.6c.5-.1,1-.4,1.4-.5,1.4-.5,2.8-.8,4.2-1.1s2.9-.4,4.4-.4h1.7c.1,0,.2,0,.4.1h1.7c0-.2.1-.4.1-.6h0v-.6h0c0-.1,0-.2-.1-.5h0s-.1-.2-.2-.4h0s-.2-.2-.4-.2h0c-.1,0-.2-.1-.5-.2h-1.8c-.2,0-.5,0-.7.2,0,0-.2,0-.4.1h-2.3c-.6,0-1.2-.5-1.9-.7-.2,0-.5-.1-.6-.2h0c-.4,0-.8-.1-1.2-.1h-2.6c-.2,0-.5,0-.8.1h-.2c-.4,0-.7.1-1.1.2h-.1c-.2,0-.6.2-.8.4,0,0-.2,0-.4.1-.2,0-.5.2-.7.4,0,0-.2,0-.4.1-.4.1-.7.4-1,.6h0c-.1,0-.4.2-.5.2h-.1c-.1,0-.2,0-.4.1h-1.2c-1.1-.2-1-.7-1.3-1.8-.2-1.1-.6-2.2-.8-3.2-1.1-4.3-1.8-8.9-2.2-13.4-.1-2.3-.2-4.6-.2-6.8v-3.4c.1-3,1.8-4.4,4.1-6.5.4-.2.6-.5,1-.7,0,0,.2-.1.4-.2.2-.1.5-.2.6-.4.1,0,.2-.1.4-.2.2,0,.4-.2.6-.2s.2,0,.5-.1c.2,0,.4-.1.6-.2.1,0,.2,0,.5-.1.2,0,.4,0,.6-.1h6.5c.2,0,.5,0,.6.1h.5c.2,0,.5,0,.7.1h.5c.2,0,.5,0,.7.2h.4c.2,0,.5.1.7.2h.4c.4,0,.7.2,1.1.4,1.1.4,2,.7,3,1.2s1.8,1,2.6,1.7,1.6,1.3,2.3,2c.4.4.7.7,1.1,1.2.4.4.6.8,1,1.3.7,1,1.6,1.6,2.5,2,.6.2,1.2.5,1.8.8s1.2.5,1.8.7c.2,0,.4.1.6.2.4.2.7.4,1.1.6s.7.5,1.1.8c.6.5,1,1.2,1.3,1.9.5,1.1.6,2.3.7,3.5v1.2c0,.8-.1,1.6-.2,2.3v1.3c-.1.5-.2,1.1-.5,1.7h0c0,.4-.1.6-.2,1v.2c0,.2,0,.5-.1.8v.2c0,.2,0,.5-.1.7v4c0,.1,0,.2.1.4,0,0,.1.1.1.2,0,0,.1.2.2.4,0,0,.1.1.2.2,0,0,.2.1.4.2,0,0,.2,0,.4.1.1,0,.2,0,.4.1h1c.7,0,1.4-.4,2-.8.2-.2.5-.5.7-.7.4-.4.7-.8,1.1-1.2s.2-.2.4-.5c.2-.5.6-.8.8-1.3.1-.2.2-.5.5-.7.1-.4.2-.6.4-1,0-.4.1-.7.1-1v-4.4h0v-1.8c0-.8,0-1.7-.1-2.4,0-.4-.1-.6-.2-1-.2-.6-.6-1.3-.8-1.9-.1-.4-.2-.6-.4-1-.1-.4-.2-.7-.4-1.1-.4-1-.6-2-.8-3.1-.4-1.9-.5-3.8.4-5.5.4-.6.8-1.3,1.4-1.9h0c.6-.6,1.2-1.1,1.9-1.6,1.1-.7,2.3-1.3,3.5-1.6.4,0,.7-.1,1.1-.2h4.7c.5,0,.8.1,1.3.2,1.1.2,2.2.6,3.2,1,.4.1.7.2,1.1.5.4.1.6.4,1,.5,1,.6,1.7,1.3,2.8,1.7,2.8,1,3.7,1.7,5,4.4.4.8,1,1.6,1.4,2.3.6.7,1.1,1.4,1.7,2,.4.5.7,1,1.1,1.4,1.3,1.9,2.9,3.8,4.4,5.8.2.2.5.5.6.7v.2c.2.1.4.2.5.5,0,0,.1.1.2.2.1,0,.2.2.4.4,0,0,.1,0,.2.1,0,0,.2.1.4.2,0,0,.1,0,.2.1.1,0,.2,0,.4.1h2.6c.1-.6,0-1.2-.2-1.7-.5-.8-1.3-1.6-1.9-2.2-1.1-1-1.9-2-2.6-3.2-.2-.2-.4-.5-.6-.8-.4-.6-.8-1.2-1.4-1.8-.5-.6-1.1-1.2-1.6-1.8s-1.1-1.2-1.4-1.9-.8-1.3-1.1-1.9c-.5-1.4-1.1-2.8-1.7-4.1-1.2-2.6-2.8-5.2-4.8-7.4-1-1.1-2-2.2-3.2-3.1-1-.7-1.8-1.3-2.8-1.8-.6-.4-1.2-.7-1.8-1-.4-.2-.7-.4-1.1-.6-1-.6-1.7-1.3-2-2-.5-.8-.6-1.8-.8-2.9-.1-.8-.5-1.7-1-2.5.5.8.7,1.7,1,2.5,0-.5-.2-1.1-.5-1.6,0-.1-.1-.2-.2-.5,0-.2-.2-.5-.4-.7,0-.1-.2-.4-.2-.5h0c0-.1-.1-.4-.2-.5-.2-.2-.5-.5-.7-.8-.1-.1-.2-.2-.5-.5-.6-.6-1.3-1.1-2-1.7-.2-.1-.4-.2-.6-.4h-1.8c-.2,0-.6.1-.8.2-.4,0-.6.2-1,.2h-.2c-.4,0-.7.1-1.1.2-4,.6-8.2.2-12.1.7-2.9.4-5.9.7-8.6,1.4-2.4.6-4.8,1.4-7,2.4-6.2,2.9-14.6,2.5-21.5,2.8-6.2.4-12.6.4-19,.4s-1.3,0-1.9,0h-5.6c-.4,0-.7,0-1.1.1h-.2c-.2,0-.6,0-.8.2h-.2c-.4,0-.7.2-1.1.4h-.1c-.2,0-.6.2-.8.4,0,0-.1,0-.2.1-.4.1-.6.4-1,.6-.5.2-1,.7-1.6,1.2-.6.6-1.3,1.3-1.9,2.2-1.6,1.8-2.8,4.1-1.8,5.8,0,1,.2,1.9.1,3v.5c-.4,6.8-3.8,12.8-4.6,19.7-.6,6.1-.8,12.1-2.9,18-1,2.6-1.3,5.5-1.4,8.4,0,2.2,0,4.3.5,6.5,0,.7.2,1.4.4,2.2,0,.5.2,1.1.4,1.6.2,1,.6,2,1,3,.2.6.5,1.2.7,1.8.7,1.8,1.4,3.7,1.9,5.6.5,1.9.8,4,1.2,6,.1.7.2,1.3.4,2,.1.8.4,1.8.6,2.6s.4,1.6.5,2.4c.1.7.2,1.4.4,2.2.1,1.6.2,3.1.2,4.7v.2h0v.4h0v3.7c0,.1,0,.2.1.5h0c0,.4.1.5.2.7h0c0,.1.1.2.2.5h0c0,.1.1.4.1.4h.1s.1,0,.2.1h.8c.1,0,.2,0,.5-.1.4-.2.6-.5.7-.8v-.6c0-.4,0-.8-.1-1.3-.1-.6-.4-1.3-.6-1.7-.2-.6-.4-1.1-.5-1.7-.2-1.2-.4-2.5-.5-3.7,0-.5,0-1-.1-1.4v-2.4c0-.5-.2-1-.5-1.3h0c.1.4.4.6.6.8.6.7,1.3,1.3,2,2.2.5.5.8,1.1,1.2,1.7s.7,1.2,1,1.8c0,.2.1.4.2.6s.1.4.2.6c.2.5.8.8,1.2,1.3.2.4.4.7.5,1.1,0,0,0,.2.1.4.5,1.3,1.3,2.5,1.9,3.7.1.2.1.5.2.8,0,.2.1.5.1.7,0,.4.1.7.2,1,.1.6.2,1.2.4,1.8,0,.4.1.8.1,1.2,0,.8.2,1.7.5,2.5,0,.4.2.8.5,1.1.2.5.8,1.4,1.3,1.7.1,0,.2,0,.2.1h.2v-.2h0v-.4h0s0-.2-.1-.4c-.4-.6-.8-1-1-1.7v-.7c0-.8.1-1.6.2-2.3,0-.2,0-.5.1-.7,0-.5.2-1,.2-1.4v-.7c-.1-1-.6-2-1.1-3-.1-.4-.4-.6-.5-1s-.4-.7-.5-1.1c-.4-.7-.7-1.3-1.2-2-.2-.4-.5-.6-.7-1-.7-.8-1.6-1.6-2.3-2.4-4.8-5.4-6.4-14.9-7.9-21.7-2.2-9.1-1-19,.2-28.1.5-3.5.7-6.7,1.8-10,0-.2.1-.5.2-.7v-.2c0-.1,0-.4.1-.5,0-.2.1-.5.2-.7v-.2c0-.2.1-.5.2-.8h0c.2-.6.5-1.2.7-1.9v-.2c0-.2.1-.5.2-.7v-.2c0-.2.2-.5.2-.8v-.2c.1-.4.2-.6.4-1h0c.1-.4.2-.7.5-1.1h0c.1-.4.2-.6.5-1v-.2c.1-.2.2-.5.4-.8,0,0,0-.2.1-.2.1-.2.2-.5.4-.8,0,0,0-.1.1-.2.4-.7.7-1.3,1.1-1.9h0c.1-.4.4-.6.5-1,0,0,0-.1.1-.2.1-.2.2-.5.5-.6,0,0,.1-.1.1-.2.1-.2.4-.5.5-.6v-.2c.6-.5,1-1,1.4-1.4h.1c.1-.2.4-.5.5-.6,0,0,.1,0,.2-.2.1-.1.4-.2.5-.4,0,0,.1,0,.2-.1.1,0,.4-.2.6-.4h.2c.2-.1.5-.2.7-.4h0c.2,0,.5-.1.7-.2h1.8c.2,0,.5,0,.8.1h.2c.2,0,.5.1.7.2h.2c.2,0,.6.2.8.4h.1c.2.1.5.2.7.5,0,0,.1,0,.2.1.4.2.6.5,1,.7h0c1.1.8,2.2,1.7,3.4,2.6,1.1.8,2.2,1.8,3.1,2.8,6.5,6.7,7.9,15.6,10.8,24.1,1.2,3.7,2.9,6.7,2.6,10.7-.2,4.2-1.7,8.5-.7,12.7.7,3.4,2.4,6.4,3.7,9.4.2.4.5.8.6,1.2.7,1.2,1.6,2.3,2.4,3.5,1.1,1.4,2.3,3,3.1,4.6,1.7,3.1,4.6,6.1,5.8,9.4,1.1,2.8-.7,6.7-1.4,9.7,0,.1,0,.4-.1.6s0,.2,0,.2h0v.4h0v.4h0v.5h0v.5h0v.6h0v.5h0v1h0c0,.1,0,.2.1.4h0c0,.1,0,.2.1.4h.1c0,.1.1.1.2.2h1.4c1.8,0,4.3-4.7,4.4-6.7.1-3.5-2.2-6.6-4.1-9.1h0l1.2,4.7Z"/>
    </g>
    <path d="M75.8,70.4c-4.8,3.8-9.9,3.1-11.7-2,0-.3-.2-.6-.3-.9-1.1-6.1,1.8-11.4,4.3-16.9.1-.3.3-.6.4-.9,3-5.2-.1-9.9,3-14.6,1.6,6.3,9.4,11,8,18.3,0,.3,0,.6,0,.9-.3,3.9.3,13-3.6,16.1h0Z"/>
  </g>

  <g class="frame frame8">
    <g>
      <path d="M20.7,221.7c-.2-.4-.2-.6,0-1,.5-.8,1.3-1.4,1.9-2.2s1.2-1.6,2.2-1.8c1.8-.4,3.1,1.1,4.8,1.4,1.1.2,2.3.4,3.5,0,.8-.2,1.7-.5,2.5-.7,1.1-.2,1.9-.7,2.9-1.1.5-.2.8-.4,1.3-.2.5,0,1.1.4,1.4.6.4.2.5.5,1,.7,1,.4,2.2.7,3.1.8,1,0,2.6.6,2.5,1.8-.4,0-.8.2-1.2.4-.7.4-1.1,1.1-1.8,1.4-1.6.7-3.6,1-5.3.8-.7,0-1.4.4-2.2.7s-1.3.7-2.2.8c-1.7.4-3.5.5-5.3.6h-2.6c-.7,0-1.8,0-2.4-.5s-1.2-1-1.9-1.3c-.8-.5-1.7-.7-2.3-1.4h0Z"/>
      <path d="M86.2,225.9h-3.5c-1.4,0-3,.2-4.6.5-.4.1-.7.2-1.1.4-2.2.4-4.1-1-4.9-1.8-.8-1.7.8-5.2,3.4-6.1,0,0,.1-.1.2-.2.1,0,.2-.1.4-.2.2,0,.6-.2.8-.4h.5c5.2-.8,7,3.5,10.3,5.3,0,.8.8,3.5-1.3,2.6h-.4.1Z"/>
      <path d="M152.2,130c-.4-1.2-.7-2.5-1.2-3.7h0c-4.1,0-5.9-1.8-7.8-4.2-1.7-2-3.2-4.1-4.6-5.9-.5-.6-1-1.2-1.4-1.8-1.1-1.3-2.2-2.6-3.1-4.4-1-1.7-1.1-1.9-3.1-2.6-1.2-.5-2.2-1.1-2.9-1.7-.5-.4-.8-.6-1.1-.7-1.1-.5-2.3-1-3.5-1.2-1.4-.2-2.8-.5-4-.5s-.6,0-.8,0c-1.6,0-4.2,1.9-5,3.5-.7,1.4.2,4.4,1,6.4v.4c.2.4.5.8.6,1.2.4,1,.8,1.9,1.1,3.1.4,1.8.2,3.7.1,5.3v2.5c0,1.4,0,3.2-1,5.3-1.7,3.2-4.6,7.1-8.5,7.2h-.2c-2.2,0-4-.8-5.2-2.4-2.5-3.2-1.3-8-.4-11.6.1-.7.4-1.4.4-1.7.5-3.1,0-5-.6-5.6s-1.7-1-2.9-1.4c-2-.8-4.7-1.8-6.5-4.3-2.2-3.1-4.8-4.9-8-6-2.8-.8-5.6-1.7-8.3-1.7s-4.1.6-5.5,1.9c-2.3,2-2.8,2.6-2.9,4-.4,7.8.5,16.1,2.6,24,2.5-1.3,5.2-2,7.8-2s2,0,3,.2c.7.1,1.3.4,1.9.7.4-.2.8-.4,1.2-.6.8-.4,1.8-.5,2.8-.5,2.2,0,4.1,1,5.2,2.5.6.8,1.4,2.6.5,5.3v.5c6.5,3.4,11.8,10.1,12.4,18v.2c-.4,11.6-10.1,21.2-20.6,20,1.4,1.6,2.6,3.5,3.4,6.2,1.1,4,1.1,7.1-.1,9.2-.7,1.3-1.9,2.3-3.5,2.6-.5,0-.8.1-1.2.1-3.2,0-5-2.6-5.5-7.8h0v-2.4c-.6-1.3-1.9-2.6-3.2-4-.8-.8-1.6-1.7-2.3-2.5-2.3-2.8-4.2-5.8-5.6-8.9-.2-.6-.5-1.1-.8-1.7-1.3-2.6-2.6-5.3-3.2-8.5-.7-3.5-.2-6.8.2-9.8.2-1.3.4-2.6.5-3.8.1-2.4-.6-4.4-1.6-7-.2-.7-.6-1.6-.8-2.3-.7-1.9-1.2-3.8-1.8-5.8-1.9-6.4-3.7-12.5-8.2-17-1.3-1.3-2.8-2.5-4.4-3.7-.6-.5-1.2-1-1.7-1.4-.8-.7-2-1.4-3.2-1.4-4.7,0-9.1,13.1-10.7,17.4-.2.7-.5,1.3-.6,1.8-.8,2.3-1.1,4.7-1.4,7.2,0,.7-.1,1.3-.2,2-1.2,8.9-2.3,18.4-.2,26.8.2.8.4,1.7.6,2.6,1.3,6,3,13.4,6.6,17.5.2.4.6.6,1,1,.5.4.8.8,1.3,1.3,1.4,1.7,2.5,3.6,3.1,4.8v.4c.8,1.3,1.6,2.9,1.9,4.6.2,1.3,0,2.5-.2,3.4,0,.2,0,.4-.1.6v.4c-.1.4-.2,1-.2,1.3.1.2.2.4.4.6h0c5.5,5.3,10,8.6,11.5,9.4,4.8,2.2,28-6,33.1-5.5,4.3.5,7.2,5.2,8.9,8.6.8,1.6,3,10.6,4.7,10.9,1.1.1,2.3-.2,3.5-.6.5-.1,1.1-.4,1.6-.4,1.7-.5,2.9-.8,3.5-1.1-.4-1-.8-2.3-1.2-3.2-1.3-3.5-2.3-6.7-2.4-10.6,3.6-1.6,4.9,7.1,5.8,9.2.5,1.3,1,2.8,1.3,3.7,1.4-.4,3.7-1.2,6-1.9s4.6-1.6,6-2c-.6-1.7-1-3.4-1.7-4.9-.6-1.3-1.3-2.2-1.6-3.7-.1-1-.7-6.8,1.7-5.4,1.4,1,2,3.1,2.5,4.7.5,1.7,1.2,3.2,1.7,4.9.4,1.1,1,2.6,1.3,3.5.5-.1,1.2-.4,2-.5,2.2-.6,6.6-1.7,8.5-2.3-.1-.7-.5-1.8-1-3.2-.7-2.2-1.2-4.3-1.6-6.6,0-.8,0-1.7.7-2.4.8-.7,4,7.2,4.3,7.8.6,1.3,1,2.9,2.4,3.1,1.9.4,3.8-1.2,5.4-1.9,1.7-.8,3.5-1.4,4.1-3.4.8-2.9-.7-5.9-2.5-8-1.9-2.4-3.5-5.2-4.6-8-1.3-3.5-4.3-18.1-4.2-19.2.7-4.6,3.5-8,7.9-10,3.5-1.6,5.4-4.7,5.6-8.6.1-1.9-.1-3.8.2-5.6.4-1.8.6-3.1.4-5-.5-4.6-1.6-9-3-13.3h0l-.2.4ZM120.6,176.9c-7.1-19.9-.6-22.3,6.1-1.4,1.2,3.7-4.9,5.3-6.1,1.4ZM145.6,155.8v.2c-8,10.7-22.1,1.9-25-11.4-3.6-14,6.6-29.3,19.6-20.5,10.2,5.9,12.4,22.8,5.4,31.7h0Z"/>
      <path d="M15.8,163.6c-.8-2.3-1.8-4.7-2.3-7.3-1.3-7.1-1.1-13.3.7-18.8,1.6-4.4,1.9-9.1,2.4-14,0-1.1.2-2.2.4-3.2.4-3.6,1.4-7,2.4-10.1.7-2.4,1.4-4.7,1.9-7.1-1.1,1.3-2.3,2.8-3.2,4.2,0,0-.1.2-.2.4l-.2.2h-.1c-.7,1.4-1.6,2.8-2.2,4.1,0,0,0,.1-.1.2-1,1.7-1.7,3.4-2.3,5-6.7,18.1-7.6,24.8-.7,41.8,1.8,4.6,4,8.8,6.2,12.8-.2-1.2-.5-2.3-.7-3.5-.5-1.7-1.1-3.2-1.7-4.9h0l-.2.2Z"/>
      <path d="M38.6,204v-.4h0s0-.2-.1-.4c-.4-.6-.8-1-1-1.7-.1-1,0-2.2.2-3.1,0-.2,0-.5.1-.7.1-.7.4-1.4.2-2.2-.2-1.3-1-2.8-1.6-3.8-.7-1.4-1.4-2.8-2.5-4-.7-.8-1.6-1.6-2.3-2.4-4.8-5.4-6.4-14.9-7.9-21.6-2-9.1-1-19,.2-28.1.5-3.5.7-6.7,1.8-10,0-.2.1-.5.2-.7v-.2c0-.2.1-.4.2-.5,0-.2.1-.4.2-.6,0-.1,0-.2.1-.5,0-.2.1-.4.2-.6v-.2c0-.2.2-.6.4-1h0c0-.4.1-.6.2-1v-.4c0-.2.1-.5.2-.7,0,0,0-.2.1-.4,0-.2.1-.5.2-.7,0,0,0-.2.1-.4,0-.2.2-.5.4-.8v-.2c.1-.4.2-.7.5-1v-.2c.1-.2.2-.5.4-.8,0,0,0-.2.1-.4,0-.2.2-.5.4-.7,0,0,0-.2.1-.4,0-.2.2-.5.4-.7,0,0,0-.2.1-.4.1-.2.2-.6.5-.8h0c.1-.5.4-.7.5-1.1,0,0,0-.1.1-.2.1-.2.2-.5.5-.7,0,0,.1-.2.2-.2.1-.2.2-.4.4-.6,0,0,.1-.2.2-.2.1-.2.2-.4.5-.6l.2-.2c.2-.2.4-.5.6-.7h0l.7-.7s.1,0,.2-.2c.1-.1.4-.2.5-.4l.2-.2c.1,0,.4-.2.5-.4,0,0,.1,0,.2-.2.1,0,.4-.2.5-.4h.2c.2,0,.5-.2.7-.4h0c.2,0,.5-.1.7-.2h1.8c.2,0,.6,0,.8.1h.2c.2,0,.5.1.7.2h.2c.2,0,.6.2.8.4h.1c.2.1.5.2.7.5,0,0,.1,0,.2.1.4.2.6.5,1,.7,2.2,1.8,4.4,3.4,6.5,5.4,6.5,6.7,7.9,15.6,10.8,24.1,1.2,3.7,2.9,6.7,2.6,10.7-.2,4.2-1.7,8.5-.7,12.7.5,2.5,1.6,4.8,2.6,7.1.4.7.7,1.6,1.1,2.3l1.1,2.2c.7,1.4,1.7,2.8,2.5,4.1.5.6,1,1.3,1.4,1.9s1,1.2,1.6,1.7c.6.6,1.1,1.2,1.7,1.8s1.1,1.2,1.6,1.8,1,1.3,1.2,1.9c.6,1.1.4,2.3.5,3.6v.2h0v.2h0v.4h0v.4h0v2.3h0v.4h0v.2h.1q0,.1.1.1h.7c2.6-.7,1.4-5.6,1.1-7.4-1.1-3.7-3.1-5.5-5.9-8-.8-.7-1.4-1.6-2.2-2.3-2.6-3.4-4.2-7-6.1-10.9-2-4.3-3.2-10.1-1.8-14.8.5-1.6,1.2-3,1.9-4.6.2-.5.4-1.1.4-1.6s.2-1.1.5-1.7c1.1-1.7,3.6-2.3,5.4-2.9,2.8-1,5.6-1.4,8.6-1.6h1.4s.2.1.4.2h.2c.1,0,.2,0,.4.1h1.4c0-.2.1-.4.1-.6h0v-.6h0c0-.1,0-.2-.1-.5h0s-.1-.2-.2-.4h0s-.2-.2-.4-.2h0c-.1,0-.2-.1-.5-.2h-1.8c-.2,0-.5,0-.7.2,0,0-.2,0-.4.1h-2.3c-.7,0-1.7-.7-2.5-1-.4,0-.8-.1-1.2-.1h-2.6c-.2,0-.5,0-.8.1h-.2c-.4,0-.7.1-1.1.2h-.1c-.2,0-.6.2-.8.4,0,0-.2,0-.4.1-.2,0-.5.2-.7.4,0,0-.2,0-.4.1-.4.1-.7.4-1,.6s-.4.2-.5.2h-.1c-.1,0-.2,0-.4.1h-1.3c-1.1-.2-1-.7-1.3-1.8-2.4-8.6-3.6-17.8-3.1-26.8.1-3,1.8-4.4,4.1-6.5.4-.2.6-.5,1-.7,0,0,.2-.1.4-.2.2-.1.5-.2.6-.4.1,0,.2-.1.4-.2.2,0,.4-.2.6-.2s.2,0,.5-.1c.2,0,.4-.1.6-.2.1,0,.2,0,.5-.1.2,0,.4,0,.6-.1h6.5c.2,0,.5,0,.6.1h.5c.2,0,.5,0,.7.1h.5c.2,0,.5,0,.7.2h.4c.2,0,.5.1.7.2h.4c.4,0,.7.2,1.1.4,4.2,1.3,7.3,3.8,9.8,7.3,2.2,3.1,6.2,2.9,8.8,5.2,2.3,2,2.2,6.1,1.8,8.9,0,.2,0,.4-.1.6h0c0,.2,0,.5-.1.6,0,.2-.1.5-.1.7v.2c0,.2-.1.5-.2.8h0c0,.4-.1.6-.1,1v.2c0,.2,0,.5-.1.8v.2c0,.2,0,.5-.1.7v3.8c0,.1,0,.2.1.4v.2c.1,0,.2.2.4.4,0,0,.1.1.2.2,0,0,.2.1.2.2,0,0,.2,0,.4.1.1,0,.2,0,.4.1h1c2.3,0,4.4-3.4,5.4-5.3.7-1.3.6-2.6.6-4.1,0-2,.5-4.6,0-6.6-.2-1.3-1.1-2.6-1.6-3.8-1-2.9-2.4-6.8-.8-9.7,1.3-2.5,5-5,7.9-5.3h3.1c.4,0,.6,0,1,.1h.4c.5,0,.8.1,1.3.2,1.4.2,2.9.8,4.3,1.4,1.3.6,2.3,1.8,3.7,2.3,2.8,1,3.7,1.7,5,4.3,1.1,2.2,2.9,3.8,4.2,5.8,1.3,1.9,2.9,3.8,4.4,5.8.2.2.4.5.6.7,0,0,.1.1.1.2.1.1.2.2.4.4l.2.2s.2.2.4.4c0,0,.1,0,.2.1,0,0,.2.1.4.2,0,0,.1,0,.2.1.1,0,.2,0,.4.1h2.6c.4-1.6-1.2-2.8-2.2-3.8-1.1-1-1.9-2-2.6-3.2-.2-.2-.4-.5-.6-.8-1.6-2.4-4.7-4.7-5.5-7.3-1.9-5.6-4.9-10.9-9.7-14.6-1.4-1.2-3-1.9-4.6-2.8-.4-.2-.7-.4-1-.6-1-.6-1.7-1.2-2-2-.1-.2-.2-.5-.4-.8-.2-.6-.4-1.3-.5-2.2v-.5s-.1-.1-.1-.2-.2-.4-.4-.5h0s-.1,0-.2-.1h0c-.1-.1-.2-.2-.5-.4h0s-.1,0-.2-.1h0c-.1,0-.2-.2-.5-.2h-.2c-.1,0-.4-.1-.5-.2h-.2c-.1,0-.4,0-.5-.1h-9.4c-4.1.6-8,1.2-11.8,3.1-.2,0-.5.2-.7.4,0,0-.2,0-.2.1-3.1,1.7-6.4,3.7-9.8,4h-2.4c-.5,0-.8,0-1.3-.2s-.8-.1-1.3-.2h-12c-.5,0-1,0-1.4.2-4.2.6-8.3,1.1-12.4,2.2-.6.2-1.3.4-1.9.5h-.7c-.5,0-.8,0-1.3.1h-11.8c-2.4.2-4.7,1-7.2,1.1h-6.6c-.2,0-.5.2-.7.4s-.5.4-.7.7c-.4.8-.5,1.6-.2,2.3,0,.2.1.5.2.7v.2c0,.8.1,1.7.1,2.8v.5c-.4,6.8-3.8,12.8-4.6,19.7-.6,6.1-.8,12.1-2.9,18-1.8,5.4-1.7,11.3-.6,16.9.8,4.2,2.9,7.9,4,12,.8,3.5,1.2,7.1,2.2,10.6.2.8.4,1.6.5,2.4.4,2.3.6,4.6.6,6.8v.2h0v.4h0v3.7c0,.1,0,.2.1.5h0c0,.4.1.5.2.7h0c0,.1.1.2.2.4h0c0,.1.1.4.1.4h.1s.1,0,.2.1h.8c.1,0,.2,0,.5-.1,1.6-.8.7-3.2.1-4.4-.7-1.8-.8-3.5-1-5.4,0-.5,0-1-.1-1.4v-.8h0v-.6h0v-.5h0v-.4h0v-1.1s0-.1-.1-.2c0,.2.2.4.4.5,0,0,.1.2.2.4.1.1.2.2.4.5,0,0,.1.1.2.2.2.2.5.5.7.7.2.2.5.5.7.7,1,1.1,1.6,2.3,2.2,3.5.2.4.2.8.5,1.2.2.5.8.8,1.2,1.3s.5,1,.6,1.4c.5,1.3,1.3,2.5,1.9,3.8.1.2.2.5.2.8s.1.5.1.8c.2,1,.5,1.9.6,2.8.2,1.6.4,3.4,1.1,4.8.2.5.8,1.4,1.3,1.7.1,0,.2,0,.2.1h.2v-.2h0l1.7,4.1Z"/>
    </g>
    <path d="M79.9,70.1c-.9,2-3.1,3.9-5.7,4.9-.3,0-.5.2-.8.3-3.8,2.2-6.9.6-8.5-.9-3.5-5.4-3.1-10.7-1.6-15.9,0-.3.2-.6.3-.9,1.3-2.2,2.2-4.3,2.8-6.5,0-.3,0-.5.2-.8,2-5.7-2.7-8.8-2.7-15.1,6.3,3.1,9.4,11,12.4,15.9,0,.3.3.5.5.8.3.5.6.9,1.1,1.4,0,.3.3.5.3.8,1.4,3,2.7,6.1,2.7,9.6v.9c0,1.7-.3,3.6-1.1,5.4v.3h0v-.2Z"/>
  </g>

</svg>
